<?xml version="1.0" standalone="no"?>
<!DOCTYPE svg PUBLIC "-//W3C//DTD SVG 1.1//EN" "http://www.w3.org/Graphics/SVG/1.1/DTD/svg11.dtd" >
<svg xmlns="http://www.w3.org/2000/svg" xmlns:xlink="http://www.w3.org/1999/xlink" version="1.1">
<metadata>
Created by FontForge 20201107 at Tue Apr 14 17:33:04 2020
 By Jimmy Wärting
Copyright 2020 Adobe Systems Incorporated. All rights reserved.
</metadata>
<defs>
<font id="Clockwise-Light" horiz-adv-x="541" >
  <font-face 
    font-family="Clockwise"
    font-weight="300"
    font-stretch="normal"
    units-per-em="1000"
    panose-1="2 0 0 0 0 0 0 0 0 0"
    ascent="750"
    descent="-250"
    x-height="500"
    cap-height="700"
    bbox="-91 -259 1315 1006"
    underline-thickness="50"
    underline-position="-100"
    unicode-range="U+0020-FB04"
  />
<missing-glyph horiz-adv-x="400" 
 />
    <glyph glyph-name="F_F" unicode="F&#x2a;F" horiz-adv-x="947" 
d="M60 0v700h580v-84h-497v-225h298v-84h-298v-307h-83zM560 0v511h351v-78h-269v-140h223v-78h-223v-215h-82z" />
    <glyph glyph-name="F_I" unicode="F&#x2a;I" horiz-adv-x="680" 
d="M60 0v700h580v-84h-497v-225h298v-84h-298v-307h-83zM559 0v511h81v-511h-81z" />
    <glyph glyph-name="F_L" unicode="F&#x2a;L" horiz-adv-x="923" 
d="M60 0v700h580v-84h-497v-225h298v-84h-298v-307h-83zM559 0v511h81v-433h263v-78h-344z" />
    <glyph glyph-name="A_J" unicode="A&#x2a;J" horiz-adv-x="775" 
d="M265 69l57 72c35 -36 81 -59 156 -58c95 1 154 58 154 146v471h83v-484c0 -146 -123 -221 -257 -221c-76 0 -142 28 -193 74zM416 189l-50 130h-207l-48 -130h-86l196 511h87l195 -511h-87zM264 589l-72 -191h144z" />
    <glyph glyph-name="I_J" unicode="I&#x2a;J" horiz-adv-x="555" 
d="M45 69l57 72c35 -36 81 -59 156 -58c95 1 154 58 154 146v471h83v-484c0 -146 -123 -221 -257 -221c-76 0 -142 28 -193 74zM143 189v511h81v-511h-81z" />
    <glyph glyph-name="O_J" unicode="O&#x2a;J" horiz-adv-x="788" 
d="M278 69l57 72c35 -36 81 -59 156 -58c95 1 154 58 154 146v471h83v-484c0 -146 -123 -221 -257 -221c-76 0 -142 28 -193 74zM29 446c0 148 98 259 239 259c140 0 239 -111 239 -259c0 -147 -102 -259 -239 -259c-141 0 -239 112 -239 259zM116 450
c0 -100 63 -180 151 -180s151 80 151 180s-63 178 -151 178s-151 -78 -151 -178z" />
    <glyph glyph-name="L_A" unicode="L&#x2a;A" horiz-adv-x="862" 
d="M60 0v700h83v-616h350v-84h-433zM739 189l-50 130h-207l-48 -130h-86l196 511h87l195 -511h-87zM587 589l-72 -191h144z" />
    <glyph glyph-name="L_E" unicode="L&#x2a;E" horiz-adv-x="747" 
d="M60 0v700h83v-616h350v-84h-433zM356 189v511h344v-78h-262v-111h219v-78h-219v-166h269v-78h-351z" />
    <glyph glyph-name="L_I" unicode="L&#x2a;I" horiz-adv-x="534" 
d="M60 0v700h83v-616h351v-84h-434zM413 189v511h81v-511h-81z" />
    <glyph glyph-name="L_L" unicode="L&#x2a;L" horiz-adv-x="718" 
d="M60 0v700h83v-616h350v-84h-433zM354 189v511h81v-433h263v-78h-344z" />
    <glyph glyph-name="L_O" unicode="L&#x2a;O" horiz-adv-x="787" 
d="M60 0v700h83v-616h350v-84h-433zM271 446c0 148 98 259 239 259c140 0 239 -111 239 -259c0 -147 -102 -259 -239 -259c-141 0 -239 112 -239 259zM358 450c0 -100 63 -180 151 -180s151 80 151 180s-63 178 -151 178s-151 -78 -151 -178z" />
    <glyph glyph-name="L_U" unicode="L&#x2a;U" horiz-adv-x="828" 
d="M60 0v700h83v-616h350v-84h-433zM784 700v-277c0 -144 -101 -238 -232 -238c-136 0 -232 92 -232 236v279h81v-267c0 -100 64 -165 151 -165c88 0 152 68 152 174v258h80z" />
    <glyph glyph-name="L_Y" unicode="L&#x2a;Y" horiz-adv-x="707" 
d="M60 0v700h83v-616h381v-84h-464zM272 700h94l116 -239l116 239h94l-169 -329v-182h-82v182z" />
    <glyph glyph-name="T_A" unicode="T&#x2a;A" horiz-adv-x="931" 
d="M25 616v84h675v-84h-387v-616h-82v616h-206zM808 0l-50 130h-207l-48 -130h-86l196 511h87l195 -511h-87zM656 400l-72 -191h144z" />
    <glyph glyph-name="T_E" unicode="T&#x2a;E" horiz-adv-x="894" 
d="M25 616v84h575v-84h-287v-616h-82v616h-206zM503 0v511h344v-78h-262v-111h219v-78h-219v-166h269v-78h-351z" />
    <glyph glyph-name="T_I" unicode="T&#x2a;I" horiz-adv-x="640" 
d="M25 616v84h575v-84h-287v-616h-82v616h-206zM519 0v511h81v-511h-81z" />
    <glyph glyph-name="T_O" unicode="T&#x2a;O" horiz-adv-x="949" 
d="M25 616v84h635v-84h-347v-616h-82v616h-206zM433 254c0 148 98 259 239 259c140 0 239 -111 239 -259c0 -147 -102 -259 -239 -259c-141 0 -239 112 -239 259zM520 258c0 -100 63 -180 151 -180s151 80 151 180s-63 178 -151 178s-151 -78 -151 -178z" />
    <glyph glyph-name="T_T" unicode="T&#x2a;T" horiz-adv-x="844" 
d="M25 616v84h643v-84h-355v-616h-82v616h-206zM433 433v78h390v-78h-155v-433h-80v433h-155z" />
    <glyph glyph-name="T_Y" unicode="T&#x2a;Y" horiz-adv-x="862" 
d="M25 616v84h494v-84h-206v-616h-82v616h-206zM427 511h94l116 -239l116 239h94l-169 -329v-182h-82v182z" />
    <glyph glyph-name="fi" unicode="fi" horiz-adv-x="544" 
d="M111 500v85c0 110 51 170 180 170c86 0 144 -37 184 -102l-74 -39c-24 37 -55 58 -110 58c-79 0 -99 -41 -99 -91v-81h292v-500h-82v415h-210v-415h-81v415h-96v85h96z" />
    <glyph glyph-name="fl" unicode="fl" horiz-adv-x="544" 
d="M401 0v415h-209v-415h-81v415h-96v85h96v85c0 110 51 170 180 170c65 0 117 -23 156 -63c12 -12 25 -29 36 -47c0 -221 1 -424 1 -645h-83zM192 581v-81h209v116c-24 32 -64 56 -110 56c-79 0 -99 -44 -99 -91z" />
    <glyph glyph-name="fb" unicode="fb" horiz-adv-x="893" 
d="M848 249c0 -143 -79 -253 -206 -254c-63 0 -118 37 -165 88l-5 -83h-75v416h-207v-416h-80v416h-95v84h95v87c1 109 51 168 178 168c65 0 115 -23 155 -62c11 -13 24 -29 33 -46v-228c47 50 103 86 166 86c130 0 206 -113 206 -256zM763 249c0 95 -52 174 -133 174
c-92 0 -145 -84 -153 -176c8 -92 65 -170 154 -170c81 0 132 77 132 172zM190 583v-83h207v118c-23 32 -64 55 -109 55c-78 0 -98 -44 -98 -90z" />
    <glyph glyph-name="fh" unicode="fh" horiz-adv-x="878" 
d="M477 647v-231c47 50 106 89 169 89c126 0 182 -85 182 -228v-277h-81v283c0 92 -42 140 -115 140c-94 0 -155 -84 -155 -179v-244h-81v416h-206v-416h-81v416h-94v84h94v87c0 109 51 168 178 168c65 0 116 -23 155 -62c11 -13 24 -28 35 -46zM190 583v-83h206v118
c-23 32 -63 55 -109 55c-78 0 -96 -44 -97 -90z" />
    <glyph glyph-name="fk" unicode="fk" horiz-adv-x="797" 
d="M478 280l201 220h95l-184 -208l192 -292h-99l-154 228l-51 -57v-171h-81v416h-207v-416h-80v416h-95v84h95v87c1 109 50 168 178 168c64 0 115 -23 154 -62c13 -13 26 -29 36 -46v-367zM190 583v-83h207v118c-24 32 -64 55 -109 55c-79 0 -97 -44 -98 -90z" />
    <glyph glyph-name="ft" unicode="ft" horiz-adv-x="642" 
d="M477 647v-147h125v-84h-125l1 -248c0 -65 44 -90 101 -91l1 -82h-25c-108 0 -159 65 -159 157v264h-206v-416h-80v416h-95v84h95v87c1 109 51 168 178 168c65 0 115 -23 154 -62c12 -13 25 -29 35 -46zM190 583v-83h206v119c-24 31 -64 54 -108 54c-78 0 -97 -44 -98 -90
z" />
    <glyph glyph-name="fj" unicode="fj" horiz-adv-x="538" 
d="M267 -259l-8 85c68 8 138 51 138 130v460h-207v-416h-80v416h-95v84h95v87c0 109 50 168 178 168c85 0 142 -36 182 -101l-73 -38c-24 37 -55 57 -109 57c-78 0 -98 -44 -98 -90v-83h288v-541c0 -67 -23 -112 -57 -147c-37 -37 -89 -62 -154 -71z" />
    <glyph glyph-name="ff" unicode="ff" horiz-adv-x="659" 
d="M287 755c54 0 101 -18 143 -51c26 33 68 51 128 51c36 0 82 -9 116 -26l-41 -80c-17 16 -44 23 -75 23c-47 0 -80 -31 -80 -85v-87h123v-84h-123v-416h-81v416h-207v-416h-81v416h-94v84h94v87c0 109 51 168 178 168zM190 500h207v118c-24 32 -64 55 -110 55
c-78 0 -97 -44 -97 -90v-83z" />
    <glyph glyph-name="ffi" unicode="ffi" horiz-adv-x="826" 
d="M429 705c28 33 75 50 144 50c86 0 144 -37 184 -102l-74 -39c-24 37 -55 58 -110 58c-79 0 -99 -41 -99 -91v-81h292v-500h-82v415h-210v-415h-81v415h-96v1h-107v-416h-81v416h-94v84h94v87c0 109 51 168 178 168c53 0 100 -18 142 -50zM393 500v85c0 12 0 24 2 35
c-24 31 -64 53 -108 53c-78 0 -97 -44 -97 -90v-83h203z" />
    <glyph glyph-name="ffj" unicode="ffj" horiz-adv-x="824" 
d="M553 -259l-8 85c68 8 138 51 138 130v460h-207v-416h-80v416h-206v-416h-81v416h-94v84h94v87c0 109 51 168 178 168c54 0 101 -18 143 -51c12 13 24 23 36 29c28 14 63 22 108 22c85 0 142 -36 182 -101l-73 -38c-24 37 -55 57 -109 57c-78 0 -98 -44 -98 -90v-83h288
v-541c0 -67 -23 -112 -57 -147c-37 -37 -89 -62 -154 -71zM190 583v-83h206v87c0 8 0 17 1 31c-24 32 -64 55 -110 55c-78 0 -97 -44 -97 -90z" />
    <glyph glyph-name="ffl" unicode="ffl" horiz-adv-x="827" 
d="M684 0v415h-209v-415h-81v415h-96v1h-108v-416h-81v416h-94v84h94v87c0 109 51 168 178 168c54 0 100 -18 142 -51c29 33 75 51 145 51c65 0 117 -23 156 -63c12 -12 25 -29 36 -47c0 -221 1 -424 1 -645h-83zM475 581v-81h209v116c-24 32 -64 56 -110 56
c-79 0 -99 -44 -99 -91zM190 583v-83h204v85c0 12 0 23 2 34c-24 31 -64 54 -109 54c-78 0 -97 -44 -97 -90z" />
    <glyph glyph-name="T_H" unicode="T&#x2a;H" horiz-adv-x="974" 
d="M25 616v84h575v-84h-287v-616h-82v616h-206zM843 0v244h-243v-244h-81v511h81v-189h243v189h81v-511h-81z" />
    <glyph glyph-name="F_O" unicode="F&#x2a;O" horiz-adv-x="1032" 
d="M60 0v700h580v-84h-497v-225h298v-84h-298v-307h-83zM514 254c0 148 98 259 239 259c140 0 239 -111 239 -259c0 -147 -102 -259 -239 -259c-141 0 -239 112 -239 259zM601 258c0 -100 63 -180 151 -180s151 80 151 180s-63 178 -151 178s-151 -78 -151 -178z" />
    <glyph glyph-name=".notdef" horiz-adv-x="400" 
 />
    <glyph glyph-name="B" unicode="B" horiz-adv-x="567" 
d="M60 0v700h151c162 0 261 -56 261 -171c0 -47 -28 -92 -71 -128c73 -42 121 -108 121 -186c0 -131 -96 -215 -251 -215h-211zM268 350h-126v-266h119c114 0 167 47 167 135c0 85 -57 131 -160 131zM381 526c0 72 -56 90 -156 90h-83v-186h68c117 0 171 26 171 96z" />
    <glyph glyph-name="C" unicode="C" horiz-adv-x="653" 
d="M516 176l87 -42c-55 -87 -143 -139 -247 -139c-179 0 -306 153 -306 355s127 355 306 355c105 0 190 -52 244 -136c-29 -15 -50 -28 -78 -42c-38 60 -96 95 -167 95c-126 0 -214 -116 -214 -267s88 -270 214 -270c67 0 123 35 161 91z" />
    <glyph glyph-name="D" unicode="D" horiz-adv-x="627" 
d="M60 0v700h212c84 0 158 -31 212 -86c61 -63 98 -156 98 -264c0 -106 -35 -197 -94 -260c-53 -57 -127 -90 -213 -90h-215zM418 558c-37 42 -90 64 -149 64h-127v-544h131c62 0 112 26 149 69c43 51 67 125 67 208c0 82 -29 155 -71 203z" />
    <glyph glyph-name="E" unicode="E" horiz-adv-x="553" 
d="M60 0v700h433v-84h-350v-184h293v-84h-293v-264h360v-84h-443z" />
    <glyph glyph-name="F" unicode="F" horiz-adv-x="518" 
d="M60 0v700h443v-84h-360v-225h298v-84h-298v-307h-83z" />
    <glyph glyph-name="G" unicode="G" horiz-adv-x="654" 
d="M365 288v85h239v-373h-83v48c-47 -34 -103 -53 -165 -53c-179 0 -306 153 -306 355s127 355 306 355c105 0 190 -52 244 -136l-78 -42c-38 60 -96 95 -167 95c-126 0 -215 -116 -215 -267s89 -270 215 -270c66 0 128 36 166 91v112h-156z" />
    <glyph glyph-name="H" unicode="H" horiz-adv-x="634" 
d="M492 0v348h-350v-348h-82v700h82v-268h350v268h82v-700h-82z" />
    <glyph glyph-name="I" unicode="I" horiz-adv-x="202" 
d="M60 0v700h82v-700h-82z" />
    <glyph glyph-name="J" unicode="J" horiz-adv-x="555" 
d="M45 69l57 72c35 -36 81 -59 156 -58c95 1 154 58 154 146v471h83v-484c0 -146 -123 -221 -257 -221c-76 0 -142 28 -193 74z" />
    <glyph glyph-name="K" unicode="K" horiz-adv-x="560" 
d="M60 0v700h82v-293l242 293h102l-230 -279l289 -421h-111l-237 350l-55 -67v-283h-82z" />
    <glyph glyph-name="L" unicode="L" horiz-adv-x="508" 
d="M60 0v700h83v-616h350v-84h-433z" />
    <glyph glyph-name="M" unicode="M" horiz-adv-x="768" 
d="M708 700v-700h-82v555l-235 -398h-22l-227 386v-543h-82v700h93l229 -387l232 387h94z" />
    <glyph glyph-name="N" unicode="N" horiz-adv-x="639" 
d="M579 0h-99l-338 541v-541h-82v700h96l341 -544v544h82v-700z" />
    <glyph glyph-name="O" unicode="O" horiz-adv-x="701" 
d="M45 350c0 202 126 355 305 355s306 -153 306 -355s-130 -355 -306 -355c-179 0 -305 153 -305 355zM135 355c0 -151 89 -270 214 -270c126 0 214 119 214 270s-88 267 -214 267c-125 0 -214 -116 -214 -267z" />
    <glyph glyph-name="P" unicode="P" horiz-adv-x="549" 
d="M60 0v700h183c159 0 261 -83 261 -222c0 -126 -95 -223 -249 -223h-112v-255h-83zM411 482c0 93 -61 137 -169 137h-99v-281h99c116 0 169 49 169 144z" />
    <glyph glyph-name="Q" unicode="Q" horiz-adv-x="701" 
d="M45 350c0 202 126 355 305 355s306 -153 306 -355c0 -99 -31 -186 -84 -249l76 -101h-105c-11 14 -22 29 -33 44c-46 -31 -100 -49 -160 -49c-179 0 -305 153 -305 355zM432 288l82 -110c31 47 49 109 49 177c0 151 -88 267 -214 267c-125 0 -214 -116 -214 -267
s89 -270 214 -270c40 0 76 12 107 33c-43 57 -86 114 -127 170h103z" />
    <glyph glyph-name="R" unicode="R" horiz-adv-x="565" 
d="M60 0v700h186c169 0 255 -81 255 -209c0 -91 -55 -167 -154 -202c64 -92 134 -195 198 -289h-111l-188 276h-104v-276h-82zM411 492c0 89 -61 131 -169 131h-100v-270h108c109 0 161 53 161 139z" />
    <glyph glyph-name="S" unicode="S" horiz-adv-x="594" 
d="M520 577l-73 -50c-8 12 -20 26 -31 37c-33 34 -75 57 -127 57c-96 0 -138 -45 -138 -105c0 -70 51 -93 154 -97c145 -6 245 -83 243 -211c-1 -54 -20 -102 -55 -137c-50 -51 -129 -76 -203 -76c-76 0 -153 25 -210 82c-12 12 -24 25 -35 39l89 38c32 -38 86 -72 152 -72
c59 0 102 16 131 44c24 22 36 52 36 87c1 81 -56 118 -159 122c-151 5 -232 52 -232 177c0 52 18 94 50 127c43 46 109 66 176 66c78 -1 143 -31 193 -81c14 -14 29 -31 39 -47z" />
    <glyph glyph-name="T" unicode="T" horiz-adv-x="544" 
d="M25 616v84h494v-84h-206v-616h-82v616h-206z" />
    <glyph glyph-name="U" unicode="U" horiz-adv-x="694" 
d="M644 700v-381c0 -196 -128 -324 -297 -324c-172 0 -297 126 -297 322v383h82v-366c0 -151 91 -249 214 -249c126 0 215 103 215 261v354h83z" />
    <glyph glyph-name="V" unicode="V" horiz-adv-x="653" 
d="M116 700l211 -598l213 598h98l-251 -700h-121l-251 700h101z" />
    <glyph glyph-name="W" unicode="W" horiz-adv-x="949" 
d="M454 590h53l156 -480l175 590h96l-216 -700h-107l-132 395l-132 -395h-108l-224 700h95l185 -590z" />
    <glyph glyph-name="X" unicode="X" horiz-adv-x="593" 
d="M158 700l138 -234l135 234h101l-185 -315l231 -385h-107l-176 300l-174 -300h-106l227 383l-188 317h104z" />
    <glyph glyph-name="Y" unicode="Y" horiz-adv-x="566" 
d="M25 700h96l161 -356l163 356h96l-217 -450v-250h-83v249z" />
    <glyph glyph-name="Z" unicode="Z" horiz-adv-x="553" 
d="M50 0v43l328 573h-297v84h417v-41l-330 -575h335v-84h-453z" />
    <glyph glyph-name="a" unicode="a" horiz-adv-x="499" 
d="M102 387l-30 82c44 24 94 36 152 36c59 0 126 -20 171 -62c38 -36 59 -88 59 -162v-281h-75l-5 76c-45 -52 -106 -81 -165 -81c-56 0 -99 16 -129 46c-27 27 -40 66 -39 105s16 78 45 107c42 41 106 63 168 63c39 0 80 -6 120 -14c-7 37 -22 66 -40 82
c-25 24 -62 38 -108 38c-44 0 -83 -7 -124 -35zM221 77c41 0 76 16 102 41c25 25 43 61 52 108c-32 12 -72 21 -112 21c-33 0 -75 -11 -105 -33c-20 -14 -32 -40 -31 -65c0 -19 8 -37 23 -51c18 -15 44 -21 71 -21z" />
    <glyph glyph-name="b" unicode="b" horiz-adv-x="556" 
d="M511 249c0 -143 -79 -253 -206 -254c-63 0 -118 37 -165 88l-5 -83h-75v750h79v-331c47 50 103 86 166 86c130 0 206 -113 206 -256zM426 249c0 95 -52 174 -133 174c-92 0 -145 -84 -153 -176c8 -92 65 -170 154 -170c81 0 132 77 132 172z" />
    <glyph glyph-name="c" unicode="c" horiz-adv-x="513" 
d="M402 135l76 -37c-40 -66 -108 -103 -195 -103c-140 0 -238 108 -238 255s98 255 238 255c87 0 155 -37 195 -103c-29 -15 -47 -26 -74 -40c-26 37 -66 60 -121 60c-97 0 -153 -70 -153 -172s59 -172 153 -172c53 0 93 22 119 57z" />
    <glyph glyph-name="d" unicode="d" horiz-adv-x="557" 
d="M45 249c0 143 76 256 206 256c63 0 119 -34 166 -86v331h80v-750h-76l-5 83c-45 -51 -102 -88 -165 -88c-127 1 -206 111 -206 254zM130 249c0 -95 51 -172 132 -172c89 0 146 78 154 170c-8 92 -61 176 -153 176c-81 0 -133 -79 -133 -174z" />
    <glyph glyph-name="e" unicode="e" horiz-adv-x="546" 
d="M498 298c3 -31 3 -45 2 -74l-367 -14c13 -80 68 -132 150 -132c54 0 95 23 121 59l76 -36c-42 -64 -112 -106 -197 -106c-140 0 -238 108 -238 255s92 255 233 255c121 0 210 -87 220 -207zM278 422c-87 0 -135 -54 -146 -137l280 10c-9 79 -52 127 -134 127z" />
    <glyph glyph-name="f" unicode="f" horiz-adv-x="376" 
d="M15 416v84h94v89c0 104 50 166 161 166c36 0 82 -9 116 -26l-41 -80c-17 16 -44 23 -75 23c-48 0 -78 -32 -79 -89l-1 -83h123v-84h-123v-416h-81v416h-94z" />
    <glyph glyph-name="g" unicode="g" horiz-adv-x="557" 
d="M73 -201l51 74c34 -28 76 -45 124 -45c104 0 168 56 168 139v116c-47 -51 -103 -88 -165 -88c-130 0 -206 112 -206 255s79 254 206 255c62 0 119 -34 164 -87l5 82h77v-542c0 -54 -19 -101 -52 -137c-49 -55 -127 -79 -195 -79c-67 0 -128 21 -177 57zM130 250
c0 -95 52 -173 133 -173c90 0 146 78 151 170c-5 92 -64 176 -152 176c-81 0 -132 -78 -132 -173z" />
    <glyph glyph-name="h" unicode="h" horiz-adv-x="542" 
d="M60 750h81v-334c47 50 106 89 169 89c126 0 182 -85 182 -228v-277h-81v283c0 92 -42 140 -115 140c-94 0 -155 -84 -155 -179v-244h-81v750z" />
    <glyph glyph-name="i" unicode="i" horiz-adv-x="201" 
d="M60 708h81v-83h-81v83zM60 500h81v-500h-81v500z" />
    <glyph glyph-name="j" unicode="j" horiz-adv-x="264" 
d="M-7 -259l-8 85c68 8 138 51 138 130v544h81v-541c0 -67 -23 -112 -57 -147c-37 -37 -89 -62 -154 -71zM123 708h81v-83h-81v83z" />
    <glyph glyph-name="k" unicode="k" horiz-adv-x="460" 
d="M141 280l201 220h95l-184 -208l192 -292h-99l-154 228l-51 -57v-171h-81v750h81v-470z" />
    <glyph glyph-name="l" unicode="l" horiz-adv-x="201" 
d="M60 0v750h81v-750h-81z" />
    <glyph glyph-name="m" unicode="m" horiz-adv-x="848" 
d="M60 500h80v-81c45 49 97 86 160 86c78 -1 127 -39 155 -107c44 59 98 107 173 107c126 -1 170 -83 170 -226v-279h-80v279c0 96 -28 144 -104 144c-95 0 -144 -82 -144 -177v-246h-81v286c0 91 -29 137 -104 137c-91 0 -145 -79 -145 -171v-252h-80v500z" />
    <glyph glyph-name="n" unicode="n" horiz-adv-x="542" 
d="M60 500h81v-84c47 50 106 89 169 89c126 0 182 -85 182 -228v-277h-81v283c0 92 -42 140 -115 140c-94 0 -155 -84 -155 -179v-244h-81v500z" />
    <glyph glyph-name="o" unicode="o" horiz-adv-x="567" 
d="M45 250c0 147 98 255 239 255s238 -108 238 -255s-97 -255 -238 -255s-239 108 -239 255zM131 250c0 -102 58 -172 153 -172c98 0 152 70 152 172s-54 172 -152 172s-153 -70 -153 -172z" />
    <glyph glyph-name="p" unicode="p" horiz-adv-x="557" 
d="M512 251c0 -143 -76 -256 -206 -256c-63 0 -119 36 -166 86v-332h-80v751h76l5 -83c47 51 102 88 165 88c127 -1 206 -111 206 -254zM427 251c0 95 -51 172 -132 172c-89 0 -146 -78 -154 -170c8 -92 61 -176 153 -176c81 0 133 79 133 174z" />
    <glyph glyph-name="q" unicode="q" horiz-adv-x="557" 
d="M45 251c0 143 79 253 206 254c63 0 118 -37 165 -88l5 83h76v-751h-80v332c-47 -50 -103 -86 -166 -86c-130 0 -206 113 -206 256zM130 251c0 -95 52 -174 133 -174c92 0 145 84 153 176c-8 92 -65 170 -154 170c-81 0 -132 -77 -132 -172z" />
    <glyph glyph-name="r" unicode="r" horiz-adv-x="363" 
d="M60 500h81v-82c39 49 95 87 168 87c19 0 37 -2 54 -6l-31 -81c-13 4 -23 4 -38 4c-83 0 -153 -63 -153 -186v-236h-81v500z" />
    <glyph glyph-name="s" unicode="s" horiz-adv-x="444" 
d="M391 431l-62 -56c-25 28 -60 49 -100 49c-34 0 -90 -12 -90 -60c0 -51 63 -59 100 -63c59 -6 104 -25 132 -53c25 -25 38 -61 38 -97c0 -38 -12 -77 -40 -104c-35 -35 -86 -52 -139 -52s-106 15 -144 47c-21 17 -37 33 -51 53l61 46c27 -33 77 -68 119 -68
c41 0 71 12 89 30c11 11 18 26 18 49c0 22 -9 39 -28 51c-17 10 -37 16 -69 18c-47 3 -100 14 -134 48c-23 22 -35 56 -35 89c0 35 10 71 35 96c35 35 84 52 137 51c60 0 121 -24 163 -74z" />
    <glyph glyph-name="t" unicode="t" horiz-adv-x="357" 
d="M111 622l81 21v-143h125v-85h-125l1 -247c0 -65 44 -90 101 -91l1 -82h-25c-108 3 -159 65 -159 157v263h-96v85h96v122z" />
    <glyph glyph-name="u" unicode="u" 
d="M481 0h-75l-6 82c-49 -50 -105 -87 -169 -87c-126 1 -181 83 -181 226v279h80v-279c0 -95 39 -144 115 -144c94 0 156 83 156 177v246h80v-500z" />
    <glyph glyph-name="v" unicode="v" horiz-adv-x="523" 
d="M228 0l-203 500h90l147 -367l146 367h90l-204 -500h-66z" />
    <glyph glyph-name="w" unicode="w" horiz-adv-x="824" 
d="M386 480h53l132 -347l136 367h92l-195 -500h-64l-128 338l-128 -338h-64l-195 500h92l137 -367z" />
    <glyph glyph-name="x" unicode="x" horiz-adv-x="508" 
d="M135 0h-105l177 259l-161 241h96l116 -174l113 174h97l-161 -241l176 -259h-105l-120 187z" />
    <glyph glyph-name="y" unicode="y" horiz-adv-x="519" 
d="M55 -257l1 81c31 1 60 13 80 32c12 11 24 27 32 44c12 25 26 57 36 87l13 39l-192 474h90l147 -369l144 369h88l-201 -505c-6 -15 -10 -28 -16 -42c-10 -28 -22 -56 -35 -84c-10 -24 -29 -53 -49 -72c-36 -34 -80 -52 -138 -54z" />
    <glyph glyph-name="z" unicode="z" horiz-adv-x="492" 
d="M66 420v80h376l-1 -38l-256 -382h257v-80h-392v37l261 383h-245z" />
    <glyph glyph-name="space" unicode=" " horiz-adv-x="400" 
 />
    <glyph glyph-name="zero" unicode="0" horiz-adv-x="683" 
d="M134 359c0 -153 79 -275 206 -275s207 122 207 275s-80 272 -207 272s-206 -119 -206 -272zM45 355c0 198 126 360 295 360c170 0 298 -162 298 -360s-128 -359 -298 -359c-169 0 -295 161 -295 359z" />
    <glyph glyph-name="one" unicode="1" horiz-adv-x="287" 
d="M30 708h184v-708h-83v625h-101v83z" />
    <glyph glyph-name="two" unicode="2" horiz-adv-x="579" 
d="M534 82v-82h-474v30l298 310c58 60 78 106 78 153c0 82 -69 132 -148 132c-78 0 -124 -32 -144 -83l-78 47c35 68 109 116 222 116c71 0 137 -24 181 -68c38 -37 54 -84 55 -133c1 -60 -23 -120 -97 -199l-209 -223h316z" />
    <glyph glyph-name="three" unicode="3" horiz-adv-x="549" 
d="M30 117l79 47c21 -49 71 -83 148 -83c106 0 153 55 153 141c0 83 -53 135 -154 135h-56v78h56c58 0 126 20 126 97c0 58 -45 95 -125 95c-54 0 -94 -19 -113 -48c-29 13 -52 24 -78 37c39 60 115 92 191 92c105 0 215 -61 215 -176c0 -51 -30 -98 -75 -134
c63 -43 107 -105 107 -180c0 -121 -83 -218 -247 -218c-115 0 -192 48 -227 117z" />
    <glyph glyph-name="four" unicode="4" horiz-adv-x="560" 
d="M25 158v57l355 485h41v-460h104v-82h-104v-158h-81v158h-315zM134 240h206v279z" />
    <glyph glyph-name="five" unicode="5" horiz-adv-x="548" 
d="M45 110l80 47c24 -49 68 -82 144 -82c41 0 75 16 99 40c27 27 43 65 43 110c0 40 -13 74 -37 100c-25 29 -63 47 -112 47c-40 0 -75 -12 -104 -41l-79 39l65 330h311v-82h-247l-38 -195c38 19 73 28 107 28c70 0 135 -29 175 -75c32 -36 51 -89 51 -147
c0 -67 -24 -127 -66 -169c-40 -40 -99 -65 -168 -65c-113 0 -189 47 -224 115z" />
    <glyph glyph-name="six" unicode="6" horiz-adv-x="621" 
d="M338 624c-119 0 -196 -115 -205 -267c36 33 70 54 99 65c31 11 68 17 101 17c74 0 144 -29 189 -79c34 -37 54 -85 54 -142c0 -62 -23 -116 -63 -155c-44 -42 -105 -67 -175 -67c-168 0 -293 159 -293 355s125 355 293 355c84 0 159 -41 212 -106
c-23 -11 -56 -30 -74 -40c-35 42 -81 64 -138 64zM337 83c37 0 81 11 113 44c21 23 34 55 34 95c0 82 -67 139 -151 139c-32 0 -71 -8 -99 -23c-34 -18 -64 -48 -87 -89c15 -49 37 -90 69 -118c32 -29 73 -48 121 -48z" />
    <glyph glyph-name="seven" unicode="7" horiz-adv-x="497" 
d="M45 618v82h422v-38l-273 -662h-92l254 618h-311z" />
    <glyph glyph-name="eight" unicode="8" horiz-adv-x="588" 
d="M304 -5c-162 -1 -251 96 -252 215c-1 74 42 143 108 185c-43 33 -75 78 -76 127c-2 107 96 181 208 183c104 1 214 -58 216 -172c1 -50 -25 -102 -71 -137c63 -42 111 -106 112 -181c1 -119 -83 -218 -245 -220zM457 218c-1 83 -59 138 -158 136
c-99 -1 -155 -57 -154 -139c1 -85 53 -141 158 -140c105 2 155 59 154 143zM421 533c-1 57 -49 93 -128 92c-81 -1 -120 -40 -120 -97c0 -58 38 -99 126 -98c84 1 123 44 122 103z" />
    <glyph glyph-name="nine" unicode="9" horiz-adv-x="621" 
d="M284 77c118 0 196 115 205 267c-35 -33 -70 -54 -100 -65c-32 -11 -67 -17 -101 -17c-73 0 -143 29 -188 79c-34 37 -55 85 -55 142c0 62 24 116 64 155c43 42 105 67 175 67c168 0 292 -159 292 -355s-124 -355 -292 -355c-84 0 -160 41 -212 106l74 40
c35 -42 80 -64 138 -64zM285 618c-37 0 -81 -11 -113 -44c-22 -23 -34 -55 -34 -95c0 -82 67 -139 150 -139c33 0 71 8 100 23c35 18 64 48 86 89c-14 49 -37 90 -69 118c-31 29 -73 48 -120 48z" />
    <glyph glyph-name="dotlessi" unicode="&#x131;" horiz-adv-x="201" 
d="M60 500h81v-500h-81v500z" />
    <glyph glyph-name="plus" unicode="+" horiz-adv-x="568" 
d="M60 259v84h182v188h86v-188h180v-84h-180v-191h-86v191h-182z" />
    <glyph glyph-name="comma" unicode="," horiz-adv-x="289" 
d="M100 0v94h89v-103l-43 -105l-28 8l34 106h-52z" />
    <glyph glyph-name="hyphen" unicode="-" horiz-adv-x="569" 
d="M100 258v86h369v-86h-369z" />
    <glyph glyph-name="period" unicode="." horiz-adv-x="289" 
d="M100 0v94h89v-94h-89z" />
    <glyph glyph-name="slash" unicode="/" horiz-adv-x="593" 
d="M593 750l-485 -1000h-93l485 1000h93z" />
    <glyph glyph-name="colon" unicode=":" horiz-adv-x="289" 
d="M100 0v94h89v-94h-89zM100 406v94h89v-94h-89z" />
    <glyph glyph-name="semicolon" unicode=";" horiz-adv-x="289" 
d="M100 406v94h89v-94h-89zM100 0v94h89v-103l-43 -105l-28 8l34 106h-52z" />
    <glyph glyph-name="exclam" unicode="!" horiz-adv-x="289" 
d="M100 0v94h89v-94h-89zM100 616v134h89v-134l-32 -377h-24z" />
    <glyph glyph-name="quotedbl" unicode="&#x22;" horiz-adv-x="350" 
d="M45 656v94h89v-94l-31 -138h-26zM216 656v94h89v-94l-32 -138h-26z" />
    <glyph glyph-name="numbersign" unicode="#" horiz-adv-x="919" 
d="M144 365l40 83h170l101 208h94l-101 -208h156l101 208h94l-101 -208h176l-41 -83h-176l-61 -125h179l-41 -84h-179l-102 -210h-94l102 210h-156l-102 -210h-94l102 210h-166l40 84h167l61 125h-169zM407 365l-61 -125h156l61 125h-156z" />
    <glyph glyph-name="caron" unicode="&#x2c7;" horiz-adv-x="406" 
d="M361 779l-122 -154h-71l-123 154h80l78 -120l78 120h80z" />
    <glyph glyph-name="ellipsis" unicode="&#x2026;" horiz-adv-x="804" 
d="M100 0v94h84v-94h-84zM361 0v94h83v-94h-83zM621 0v94h83v-94h-83z" />
    <glyph glyph-name="dagger" unicode="&#x2020;" horiz-adv-x="533" 
d="M307 -250h-81v665h-196v85h196v250h81v-250h196v-85h-196v-665z" />
    <glyph glyph-name="daggerdbl" unicode="&#x2021;" horiz-adv-x="533" 
d="M307 -250h-81v250h-196v85h196v330h-196v85h196v250h81v-250h196v-85h-196v-330h196v-85h-196v-250z" />
    <glyph glyph-name="circumflex" unicode="&#x2c6;" horiz-adv-x="496" 
d="M283 779l123 -154h-81l-77 116l-77 -116h-81l123 154h70z" />
    <glyph glyph-name="plusminus" unicode="&#xb1;" horiz-adv-x="648" 
d="M100 428v84h182v188h86v-188h180v-84h-180v-191h-86v191h-182zM100 31v84h448v-84h-448z" />
    <glyph glyph-name="ring" unicode="&#x2da;" horiz-adv-x="324" 
d="M60 704c0 56 46 102 102 102s102 -46 102 -102s-46 -102 -102 -102s-102 46 -102 102zM103 704c0 -33 26 -59 59 -59s58 26 58 59s-25 58 -58 58s-59 -25 -59 -58z" />
    <glyph glyph-name="Zcaron" unicode="&#x17d;" horiz-adv-x="553" 
d="M50 0v43l328 573h-297v84h417v-41l-330 -575h335v-84h-453zM435 979l-122 -154h-71l-123 154h80l78 -120l78 120h80z" />
    <glyph glyph-name="Lslash" unicode="&#x141;" horiz-adv-x="540" 
d="M0 233v87l83 22v358h82v-336l169 46v-88l-169 -45v-193h350v-84h-432v255z" />
    <glyph glyph-name="lslash" unicode="&#x142;" horiz-adv-x="338" 
d="M122 750h81v-372l135 37v-89l-135 -37v-289h-81v268l-122 -33v89l122 33v393z" />
    <glyph glyph-name="grave" unicode="`" horiz-adv-x="394" 
d="M227 612l-127 161h90c35 -54 69 -108 104 -161h-67z" />
    <glyph glyph-name="dieresis" unicode="&#xa8;" horiz-adv-x="521" 
d="M90 612v94h94v-94h-94zM337 612v94h94v-94h-94z" />
    <glyph glyph-name="acute" unicode="&#xb4;" horiz-adv-x="395" 
d="M295 773l-128 -161h-67l104 161h91z" />
    <glyph glyph-name="tilde" unicode="&#x2dc;" horiz-adv-x="405" 
d="M324 714h51c-1 -56 -35 -114 -95 -114c-37 0 -67 16 -86 31c-17 13 -45 32 -66 32c-26 0 -43 -20 -47 -50h-50c-1 57 35 117 100 117c33 0 69 -24 96 -42c18 -12 35 -23 55 -23c23 0 39 21 42 49z" />
    <glyph glyph-name="cedilla" unicode="&#xb8;" horiz-adv-x="321" 
d="M133 -74l13 94h41l-14 -52c55 -5 88 -47 88 -98c0 -54 -45 -99 -99 -99c-25 0 -44 7 -62 21l26 32c9 -7 22 -11 36 -11c32 0 57 25 57 57c0 29 -20 56 -47 56h-39z" />
    <glyph glyph-name="Agrave" unicode="&#xc0;" horiz-adv-x="631" 
d="M526 0l-66 185h-292l-66 -185h-87l251 700h99l251 -700h-90zM315 593l-116 -323h231zM340 812l-127 161h90c35 -54 69 -108 104 -161h-67z" />
    <glyph glyph-name="Aacute" unicode="&#xc1;" horiz-adv-x="631" 
d="M526 0l-66 185h-292l-66 -185h-87l251 700h99l251 -700h-90zM315 593l-116 -323h231zM407 973l-128 -161h-67l104 161h91z" />
    <glyph glyph-name="Acircumflex" unicode="&#xc2;" horiz-adv-x="631" 
d="M526 0l-66 185h-292l-66 -185h-87l251 700h99l251 -700h-90zM315 593l-116 -323h231zM345 979l123 -154h-81l-77 116l-77 -116h-81l123 154h70z" />
    <glyph glyph-name="Atilde" unicode="&#xc3;" horiz-adv-x="631" 
d="M526 0l-66 185h-292l-66 -185h-87l251 700h99l251 -700h-90zM315 593l-116 -323h231zM431 914h51c-1 -56 -35 -114 -95 -114c-37 0 -67 16 -86 31c-17 13 -45 32 -66 32c-26 0 -43 -20 -47 -50h-50c-1 57 35 117 100 117c33 0 69 -24 96 -42c18 -12 35 -23 55 -23
c23 0 39 21 42 49z" />
    <glyph glyph-name="Adieresis" unicode="&#xc4;" horiz-adv-x="631" 
d="M526 0l-66 185h-292l-66 -185h-87l251 700h99l251 -700h-90zM315 593l-116 -323h231zM139 812v94h94v-94h-94zM386 812v94h94v-94h-94z" />
    <glyph glyph-name="Aring" unicode="&#xc5;" horiz-adv-x="631" 
d="M526 0l-66 185h-292l-66 -185h-87l251 700h99l251 -700h-90zM315 593l-116 -323h231zM208 904c0 56 46 102 102 102s102 -46 102 -102s-46 -102 -102 -102s-102 46 -102 102zM251 904c0 -33 26 -59 59 -59s58 26 58 59s-25 58 -58 58s-59 -25 -59 -58z" />
    <glyph glyph-name="Ccedilla" unicode="&#xc7;" horiz-adv-x="653" 
d="M277 -74l10 77c-142 33 -237 172 -237 347c0 202 127 355 306 355c105 0 190 -52 244 -136l-78 -42c-38 60 -96 95 -167 95c-126 0 -214 -116 -214 -267s88 -270 214 -270c67 0 123 35 161 91l87 -42c-55 -87 -143 -139 -247 -139c-11 0 -21 1 -31 2l-8 -29
c55 -5 88 -47 88 -98c0 -54 -45 -99 -99 -99c-25 0 -44 7 -62 21l26 32c9 -7 22 -11 36 -11c32 0 57 25 57 57c0 29 -20 56 -47 56h-39z" />
    <glyph glyph-name="Egrave" unicode="&#xc8;" horiz-adv-x="553" 
d="M60 0v700h433v-84h-350v-184h293v-84h-293v-264h360v-84h-443zM292 812l-127 161h90c35 -54 69 -108 104 -161h-67z" />
    <glyph glyph-name="Eacute" unicode="&#xc9;" horiz-adv-x="553" 
d="M60 0v700h433v-84h-350v-184h293v-84h-293v-264h360v-84h-443zM359 973l-128 -161h-67l104 161h91z" />
    <glyph glyph-name="Ecircumflex" unicode="&#xca;" horiz-adv-x="553" 
d="M60 0v700h433v-84h-350v-184h293v-84h-293v-264h360v-84h-443zM297 979l123 -154h-81l-77 116l-77 -116h-81l123 154h70z" />
    <glyph glyph-name="Edieresis" unicode="&#xcb;" horiz-adv-x="553" 
d="M60 0v700h433v-84h-350v-184h293v-84h-293v-264h360v-84h-443zM91 812v94h94v-94h-94zM338 812v94h94v-94h-94z" />
    <glyph glyph-name="Igrave" unicode="&#xcc;" horiz-adv-x="202" 
d="M60 0v700h82v-700h-82zM129 812l-127 161h90c35 -54 69 -108 104 -161h-67z" />
    <glyph glyph-name="Iacute" unicode="&#xcd;" horiz-adv-x="202" 
d="M60 0v700h82v-700h-82zM197 973l-128 -161h-67l104 161h91z" />
    <glyph glyph-name="Icircumflex" unicode="&#xce;" horiz-adv-x="202" 
d="M60 0v700h82v-700h-82zM134 979l123 -154h-81l-77 116l-77 -116h-81l123 154h70z" />
    <glyph glyph-name="Idieresis" unicode="&#xcf;" horiz-adv-x="202" 
d="M60 0v700h82v-700h-82zM-71 812v94h94v-94h-94zM176 812v94h94v-94h-94z" />
    <glyph glyph-name="Ntilde" unicode="&#xd1;" horiz-adv-x="639" 
d="M579 0h-99l-338 541v-541h-82v700h96l341 -544v544h82v-700zM436 914h51c-1 -56 -35 -114 -95 -114c-37 0 -67 16 -86 31c-17 13 -45 32 -66 32c-26 0 -43 -20 -47 -50h-50c-1 57 35 117 100 117c33 0 69 -24 96 -42c18 -12 35 -23 55 -23c23 0 39 21 42 49z" />
    <glyph glyph-name="Ograve" unicode="&#xd2;" horiz-adv-x="701" 
d="M45 350c0 202 126 355 305 355s306 -153 306 -355s-130 -355 -306 -355c-179 0 -305 153 -305 355zM135 355c0 -151 89 -270 214 -270c126 0 214 119 214 270s-88 267 -214 267c-125 0 -214 -116 -214 -267zM375 812l-127 161h90c35 -54 69 -108 104 -161h-67z" />
    <glyph glyph-name="Oacute" unicode="&#xd3;" horiz-adv-x="701" 
d="M45 350c0 202 126 355 305 355s306 -153 306 -355s-130 -355 -306 -355c-179 0 -305 153 -305 355zM135 355c0 -151 89 -270 214 -270c126 0 214 119 214 270s-88 267 -214 267c-125 0 -214 -116 -214 -267zM442 973l-128 -161h-67l104 161h91z" />
    <glyph glyph-name="Ocircumflex" unicode="&#xd4;" horiz-adv-x="701" 
d="M45 350c0 202 126 355 305 355s306 -153 306 -355s-130 -355 -306 -355c-179 0 -305 153 -305 355zM135 355c0 -151 89 -270 214 -270c126 0 214 119 214 270s-88 267 -214 267c-125 0 -214 -116 -214 -267zM380 979l123 -154h-81l-77 116l-77 -116h-81l123 154h70z" />
    <glyph glyph-name="Otilde" unicode="&#xd5;" horiz-adv-x="701" 
d="M45 350c0 202 126 355 305 355s306 -153 306 -355s-130 -355 -306 -355c-179 0 -305 153 -305 355zM135 355c0 -151 89 -270 214 -270c126 0 214 119 214 270s-88 267 -214 267c-125 0 -214 -116 -214 -267zM466 914h51c-1 -56 -35 -114 -95 -114c-37 0 -67 16 -86 31
c-17 13 -45 32 -66 32c-26 0 -43 -20 -47 -50h-50c-1 57 35 117 100 117c33 0 69 -24 96 -42c18 -12 35 -23 55 -23c23 0 39 21 42 49z" />
    <glyph glyph-name="Odieresis" unicode="&#xd6;" horiz-adv-x="701" 
d="M45 350c0 202 126 355 305 355s306 -153 306 -355s-130 -355 -306 -355c-179 0 -305 153 -305 355zM135 355c0 -151 89 -270 214 -270c126 0 214 119 214 270s-88 267 -214 267c-125 0 -214 -116 -214 -267zM174 812v94h94v-94h-94zM421 812v94h94v-94h-94z" />
    <glyph glyph-name="Uacute" unicode="&#xda;" horiz-adv-x="694" 
d="M644 700v-381c0 -196 -128 -324 -297 -324c-172 0 -297 126 -297 322v383h82v-366c0 -151 91 -249 214 -249c126 0 215 103 215 261v354h83zM439 973l-128 -161h-67l104 161h91z" />
    <glyph glyph-name="Ugrave" unicode="&#xd9;" horiz-adv-x="694" 
d="M644 700v-381c0 -196 -128 -324 -297 -324c-172 0 -297 126 -297 322v383h82v-366c0 -151 91 -249 214 -249c126 0 215 103 215 261v354h83zM372 812l-127 161h90c35 -54 69 -108 104 -161h-67z" />
    <glyph glyph-name="Ucircumflex" unicode="&#xdb;" horiz-adv-x="694" 
d="M644 700v-381c0 -196 -128 -324 -297 -324c-172 0 -297 126 -297 322v383h82v-366c0 -151 91 -249 214 -249c126 0 215 103 215 261v354h83zM377 979l123 -154h-81l-77 116l-77 -116h-81l123 154h70z" />
    <glyph glyph-name="Udieresis" unicode="&#xdc;" horiz-adv-x="694" 
d="M644 700v-381c0 -196 -128 -324 -297 -324c-172 0 -297 126 -297 322v383h82v-366c0 -151 91 -249 214 -249c126 0 215 103 215 261v354h83zM171 812v94h94v-94h-94zM418 812v94h94v-94h-94z" />
    <glyph glyph-name="Yacute" unicode="&#xdd;" horiz-adv-x="566" 
d="M25 700h96l161 -356l163 356h96l-217 -450v-250h-83v249zM375 973l-128 -161h-67l104 161h91z" />
    <glyph glyph-name="Ydieresis" unicode="&#x178;" horiz-adv-x="566" 
d="M25 700h96l161 -356l163 356h96l-217 -450v-250h-83v249zM107 812v94h94v-94h-94zM354 812v94h94v-94h-94z" />
    <glyph glyph-name="ccedilla" unicode="&#xe7;" horiz-adv-x="513" 
d="M212 -74l10 76c-107 26 -177 123 -177 248c0 147 98 255 238 255c87 0 155 -37 195 -103l-74 -40c-26 37 -66 60 -121 60c-97 0 -153 -70 -153 -172s59 -172 153 -172c53 0 93 22 119 57l76 -37c-40 -66 -108 -103 -195 -103c-8 0 -16 1 -23 2l-8 -29
c55 -5 88 -47 88 -98c0 -54 -45 -99 -99 -99c-25 0 -44 7 -62 21l26 32c9 -7 22 -11 36 -11c32 0 57 25 57 57c0 29 -20 56 -47 56h-39z" />
    <glyph glyph-name="igrave" unicode="&#xec;" horiz-adv-x="201" 
d="M60 500h81v-500h-81v500zM128 612l-127 161h90c35 -54 69 -108 104 -161h-67z" />
    <glyph glyph-name="iacute" unicode="&#xed;" horiz-adv-x="201" 
d="M60 500h81v-500h-81v500zM196 773l-128 -161h-67l104 161h91z" />
    <glyph glyph-name="icircumflex" unicode="&#xee;" horiz-adv-x="201" 
d="M60 500h81v-500h-81v500zM133 779l123 -154h-81l-77 116l-77 -116h-81l123 154h70z" />
    <glyph glyph-name="idieresis" unicode="&#xef;" horiz-adv-x="201" 
d="M60 500h81v-500h-81v500zM-72 612v94h94v-94h-94zM175 612v94h94v-94h-94z" />
    <glyph glyph-name="ograve" unicode="&#xf2;" horiz-adv-x="567" 
d="M45 250c0 147 98 255 239 255s238 -108 238 -255s-97 -255 -238 -255s-239 108 -239 255zM131 250c0 -102 58 -172 153 -172c98 0 152 70 152 172s-54 172 -152 172s-153 -70 -153 -172zM307 612l-127 161h90c35 -54 69 -108 104 -161h-67z" />
    <glyph glyph-name="oacute" unicode="&#xf3;" horiz-adv-x="567" 
d="M45 250c0 147 98 255 239 255s238 -108 238 -255s-97 -255 -238 -255s-239 108 -239 255zM131 250c0 -102 58 -172 153 -172c98 0 152 70 152 172s-54 172 -152 172s-153 -70 -153 -172zM375 773l-128 -161h-67l104 161h91z" />
    <glyph glyph-name="ocircumflex" unicode="&#xf4;" horiz-adv-x="567" 
d="M45 250c0 147 98 255 239 255s238 -108 238 -255s-97 -255 -238 -255s-239 108 -239 255zM131 250c0 -102 58 -172 153 -172c98 0 152 70 152 172s-54 172 -152 172s-153 -70 -153 -172zM312 779l123 -154h-81l-77 116l-77 -116h-81l123 154h70z" />
    <glyph glyph-name="otilde" unicode="&#xf5;" horiz-adv-x="567" 
d="M45 250c0 147 98 255 239 255s238 -108 238 -255s-97 -255 -238 -255s-239 108 -239 255zM131 250c0 -102 58 -172 153 -172c98 0 152 70 152 172s-54 172 -152 172s-153 -70 -153 -172zM399 714h51c-1 -56 -35 -114 -95 -114c-37 0 -67 16 -86 31c-17 13 -45 32 -66 32
c-26 0 -43 -20 -47 -50h-50c-1 57 35 117 100 117c33 0 69 -24 96 -42c18 -12 35 -23 55 -23c23 0 39 21 42 49z" />
    <glyph glyph-name="odieresis" unicode="&#xf6;" horiz-adv-x="567" 
d="M45 250c0 147 98 255 239 255s238 -108 238 -255s-97 -255 -238 -255s-239 108 -239 255zM131 250c0 -102 58 -172 153 -172c98 0 152 70 152 172s-54 172 -152 172s-153 -70 -153 -172zM107 612v94h94v-94h-94zM354 612v94h94v-94h-94z" />
    <glyph glyph-name="ugrave" unicode="&#xf9;" 
d="M481 0h-75l-6 82c-49 -50 -105 -87 -169 -87c-126 1 -181 83 -181 226v279h80v-279c0 -95 39 -144 115 -144c94 0 156 83 156 177v246h80v-500zM306 612l-127 161h90c35 -54 69 -108 104 -161h-67z" />
    <glyph glyph-name="uacute" unicode="&#xfa;" 
d="M481 0h-75l-6 82c-49 -50 -105 -87 -169 -87c-126 1 -181 83 -181 226v279h80v-279c0 -95 39 -144 115 -144c94 0 156 83 156 177v246h80v-500zM374 773l-128 -161h-67l104 161h91z" />
    <glyph glyph-name="ucircumflex" unicode="&#xfb;" 
d="M481 0h-75l-6 82c-49 -50 -105 -87 -169 -87c-126 1 -181 83 -181 226v279h80v-279c0 -95 39 -144 115 -144c94 0 156 83 156 177v246h80v-500zM311 779l123 -154h-81l-77 116l-77 -116h-81l123 154h70z" />
    <glyph glyph-name="udieresis" unicode="&#xfc;" 
d="M481 0h-75l-6 82c-49 -50 -105 -87 -169 -87c-126 1 -181 83 -181 226v279h80v-279c0 -95 39 -144 115 -144c94 0 156 83 156 177v246h80v-500zM106 612v94h94v-94h-94zM353 612v94h94v-94h-94z" />
    <glyph glyph-name="ntilde" unicode="&#xf1;" horiz-adv-x="542" 
d="M60 500h81v-84c47 50 106 89 169 89c126 0 182 -85 182 -228v-277h-81v283c0 92 -42 140 -115 140c-94 0 -155 -84 -155 -179v-244h-81v500zM378 714h51c-1 -56 -35 -114 -95 -114c-37 0 -67 16 -86 31c-17 13 -45 32 -66 32c-26 0 -43 -20 -47 -50h-50
c-1 57 35 117 100 117c33 0 69 -24 96 -42c18 -12 35 -23 55 -23c23 0 39 21 42 49z" />
    <glyph glyph-name="Scaron" unicode="&#x160;" horiz-adv-x="594" 
d="M520 577l-73 -50c-8 12 -20 26 -31 37c-33 34 -75 57 -127 57c-96 0 -138 -45 -138 -105c0 -70 51 -93 154 -97c145 -6 245 -83 243 -211c-1 -54 -20 -102 -55 -137c-50 -51 -129 -76 -203 -76c-76 0 -153 25 -210 82c-12 12 -24 25 -35 39l89 38c32 -38 86 -72 152 -72
c59 0 102 16 131 44c24 22 36 52 36 87c1 81 -56 118 -159 122c-151 5 -232 52 -232 177c0 52 18 94 50 127c43 46 109 66 176 66c78 -1 143 -31 193 -81c14 -14 29 -31 39 -47zM451 979l-122 -154h-71l-123 154h80l78 -120l78 120h80z" />
    <glyph glyph-name="agrave" unicode="&#xe0;" horiz-adv-x="499" 
d="M102 387l-30 82c44 24 94 36 152 36c59 0 126 -20 171 -62c38 -36 59 -88 59 -162v-281h-75l-5 76c-45 -52 -106 -81 -165 -81c-56 0 -99 16 -129 46c-27 27 -40 66 -39 105s16 78 45 107c42 41 106 63 168 63c39 0 80 -6 120 -14c-7 37 -22 66 -40 82
c-25 24 -62 38 -108 38c-44 0 -83 -7 -124 -35zM221 77c41 0 76 16 102 41c25 25 43 61 52 108c-32 12 -72 21 -112 21c-33 0 -75 -11 -105 -33c-20 -14 -32 -40 -31 -65c0 -19 8 -37 23 -51c18 -15 44 -21 71 -21zM269 612l-127 161h90c35 -54 69 -108 104 -161h-67z" />
    <glyph glyph-name="aacute" unicode="&#xe1;" horiz-adv-x="499" 
d="M102 387l-30 82c44 24 94 36 152 36c59 0 126 -20 171 -62c38 -36 59 -88 59 -162v-281h-75l-5 76c-45 -52 -106 -81 -165 -81c-56 0 -99 16 -129 46c-27 27 -40 66 -39 105s16 78 45 107c42 41 106 63 168 63c39 0 80 -6 120 -14c-7 37 -22 66 -40 82
c-25 24 -62 38 -108 38c-44 0 -83 -7 -124 -35zM221 77c41 0 76 16 102 41c25 25 43 61 52 108c-32 12 -72 21 -112 21c-33 0 -75 -11 -105 -33c-20 -14 -32 -40 -31 -65c0 -19 8 -37 23 -51c18 -15 44 -21 71 -21zM336 773l-128 -161h-67l104 161h91z" />
    <glyph glyph-name="acircumflex" unicode="&#xe2;" horiz-adv-x="499" 
d="M102 387l-30 82c44 24 94 36 152 36c59 0 126 -20 171 -62c38 -36 59 -88 59 -162v-281h-75l-5 76c-45 -52 -106 -81 -165 -81c-56 0 -99 16 -129 46c-27 27 -40 66 -39 105s16 78 45 107c42 41 106 63 168 63c39 0 80 -6 120 -14c-7 37 -22 66 -40 82
c-25 24 -62 38 -108 38c-44 0 -83 -7 -124 -35zM221 77c41 0 76 16 102 41c25 25 43 61 52 108c-32 12 -72 21 -112 21c-33 0 -75 -11 -105 -33c-20 -14 -32 -40 -31 -65c0 -19 8 -37 23 -51c18 -15 44 -21 71 -21zM274 779l123 -154h-81l-77 116l-77 -116h-81l123 154h70z
" />
    <glyph glyph-name="atilde" unicode="&#xe3;" horiz-adv-x="499" 
d="M102 387l-30 82c44 24 94 36 152 36c59 0 126 -20 171 -62c38 -36 59 -88 59 -162v-281h-75l-5 76c-45 -52 -106 -81 -165 -81c-56 0 -99 16 -129 46c-27 27 -40 66 -39 105s16 78 45 107c42 41 106 63 168 63c39 0 80 -6 120 -14c-7 37 -22 66 -40 82
c-25 24 -62 38 -108 38c-44 0 -83 -7 -124 -35zM221 77c41 0 76 16 102 41c25 25 43 61 52 108c-32 12 -72 21 -112 21c-33 0 -75 -11 -105 -33c-20 -14 -32 -40 -31 -65c0 -19 8 -37 23 -51c18 -15 44 -21 71 -21zM360 714h51c-1 -56 -35 -114 -95 -114
c-37 0 -67 16 -86 31c-17 13 -45 32 -66 32c-26 0 -43 -20 -47 -50h-50c-1 57 35 117 100 117c33 0 69 -24 96 -42c18 -12 35 -23 55 -23c23 0 39 21 42 49z" />
    <glyph glyph-name="adieresis" unicode="&#xe4;" horiz-adv-x="499" 
d="M102 387l-30 82c44 24 94 36 152 36c59 0 126 -20 171 -62c38 -36 59 -88 59 -162v-281h-75l-5 76c-45 -52 -106 -81 -165 -81c-56 0 -99 16 -129 46c-27 27 -40 66 -39 105s16 78 45 107c42 41 106 63 168 63c39 0 80 -6 120 -14c-7 37 -22 66 -40 82
c-25 24 -62 38 -108 38c-44 0 -83 -7 -124 -35zM221 77c41 0 76 16 102 41c25 25 43 61 52 108c-32 12 -72 21 -112 21c-33 0 -75 -11 -105 -33c-20 -14 -32 -40 -31 -65c0 -19 8 -37 23 -51c18 -15 44 -21 71 -21zM68 612v94h94v-94h-94zM315 612v94h94v-94h-94z" />
    <glyph glyph-name="aring" unicode="&#xe5;" horiz-adv-x="499" 
d="M102 387l-30 82c44 24 94 36 152 36c59 0 126 -20 171 -62c38 -36 59 -88 59 -162v-281h-75l-5 76c-45 -52 -106 -81 -165 -81c-56 0 -99 16 -129 46c-27 27 -40 66 -39 105s16 78 45 107c42 41 106 63 168 63c39 0 80 -6 120 -14c-7 37 -22 66 -40 82
c-25 24 -62 38 -108 38c-44 0 -83 -7 -124 -35zM221 77c41 0 76 16 102 41c25 25 43 61 52 108c-32 12 -72 21 -112 21c-33 0 -75 -11 -105 -33c-20 -14 -32 -40 -31 -65c0 -19 8 -37 23 -51c18 -15 44 -21 71 -21zM137 704c0 56 46 102 102 102s102 -46 102 -102
s-46 -102 -102 -102s-102 46 -102 102zM180 704c0 -33 26 -59 59 -59s58 26 58 59s-25 58 -58 58s-59 -25 -59 -58z" />
    <glyph glyph-name="egrave" unicode="&#xe8;" horiz-adv-x="546" 
d="M498 298c3 -31 3 -45 2 -74l-367 -14c13 -80 68 -132 150 -132c54 0 95 23 121 59l76 -36c-42 -64 -112 -106 -197 -106c-140 0 -238 108 -238 255s92 255 233 255c121 0 210 -87 220 -207zM278 422c-87 0 -135 -54 -146 -137l280 10c-9 79 -52 127 -134 127zM296 612
l-127 161h90c35 -54 69 -108 104 -161h-67z" />
    <glyph glyph-name="eacute" unicode="&#xe9;" horiz-adv-x="546" 
d="M498 298c3 -31 3 -45 2 -74l-367 -14c13 -80 68 -132 150 -132c54 0 95 23 121 59l76 -36c-42 -64 -112 -106 -197 -106c-140 0 -238 108 -238 255s92 255 233 255c121 0 210 -87 220 -207zM278 422c-87 0 -135 -54 -146 -137l280 10c-9 79 -52 127 -134 127zM364 773
l-128 -161h-67l104 161h91z" />
    <glyph glyph-name="ecircumflex" unicode="&#xea;" horiz-adv-x="546" 
d="M498 298c3 -31 3 -45 2 -74l-367 -14c13 -80 68 -132 150 -132c54 0 95 23 121 59l76 -36c-42 -64 -112 -106 -197 -106c-140 0 -238 108 -238 255s92 255 233 255c121 0 210 -87 220 -207zM278 422c-87 0 -135 -54 -146 -137l280 10c-9 79 -52 127 -134 127zM301 779
l123 -154h-81l-77 116l-77 -116h-81l123 154h70z" />
    <glyph glyph-name="edieresis" unicode="&#xeb;" horiz-adv-x="546" 
d="M498 298c3 -31 3 -45 2 -74l-367 -14c13 -80 68 -132 150 -132c54 0 95 23 121 59l76 -36c-42 -64 -112 -106 -197 -106c-140 0 -238 108 -238 255s92 255 233 255c121 0 210 -87 220 -207zM278 422c-87 0 -135 -54 -146 -137l280 10c-9 79 -52 127 -134 127zM96 612v94
h94v-94h-94zM343 612v94h94v-94h-94z" />
    <glyph glyph-name="yen" unicode="&#xa5;" horiz-adv-x="566" 
d="M25 700h96l161 -356l163 356h96l-122 -252h88v-83h-128l-55 -115v-10h183v-84h-183v-156h-83v156h-182v84h182v9l-56 116h-126v83h86z" />
    <glyph glyph-name="Oslash" unicode="&#xd8;" horiz-adv-x="701" 
d="M196 -50h-93l56 117c-71 64 -114 165 -114 283c0 202 126 355 305 355c39 0 75 -8 109 -21l32 66h93l-53 -109c78 -63 125 -168 125 -291c0 -202 -130 -355 -306 -355c-44 0 -84 9 -120 25zM563 355c0 83 -27 155 -72 204l-222 -457c24 -11 51 -17 80 -17
c126 0 214 119 214 270zM135 355c0 -80 25 -151 67 -200l220 453c-23 9 -47 14 -73 14c-125 0 -214 -116 -214 -267z" />
    <glyph glyph-name="oslash" unicode="&#xf8;" horiz-adv-x="567" 
d="M185 -50h-93l45 93c-58 46 -92 119 -92 207c0 147 98 255 239 255c25 0 49 -4 71 -10l27 55h93l-45 -94c57 -45 92 -119 92 -206c0 -147 -97 -255 -238 -255c-26 0 -50 4 -73 10zM436 250c0 54 -15 98 -44 129l-144 -298c11 -2 23 -3 36 -3c98 0 152 70 152 172zM131 250
c0 -54 16 -98 44 -128l144 297c-11 2 -23 3 -35 3c-98 0 -153 -70 -153 -172z" />
    <glyph glyph-name="thorn" unicode="&#xfe;" horiz-adv-x="557" 
d="M512 251c0 -143 -76 -256 -206 -256c-63 0 -118 35 -165 85v-331h-81v1011h81v-343c47 51 102 88 165 88c127 -1 206 -111 206 -254zM427 251c0 95 -51 172 -132 172c-89 0 -146 -78 -154 -170c8 -92 61 -176 153 -176c81 0 133 79 133 174z" />
    <glyph glyph-name="bullet" unicode="&#x2022;" horiz-adv-x="500" 
d="M100 270c0 83 67 150 150 150s150 -67 150 -150s-67 -150 -150 -150s-150 67 -150 150z" />
    <glyph glyph-name="quotesingle" unicode="'" horiz-adv-x="179" 
d="M45 656v94h89v-94l-31 -140h-26z" />
    <glyph glyph-name="scaron" unicode="&#x161;" horiz-adv-x="444" 
d="M391 431l-62 -56c-25 28 -60 49 -100 49c-34 0 -90 -12 -90 -60c0 -51 63 -59 100 -63c59 -6 104 -25 132 -53c25 -25 38 -61 38 -97c0 -38 -12 -77 -40 -104c-35 -35 -86 -52 -139 -52s-106 15 -144 47c-21 17 -37 33 -51 53l61 46c27 -33 77 -68 119 -68
c41 0 71 12 89 30c11 11 18 26 18 49c0 22 -9 39 -28 51c-17 10 -37 16 -69 18c-47 3 -100 14 -134 48c-23 22 -35 56 -35 89c0 35 10 71 35 96c35 35 84 52 137 51c60 0 121 -24 163 -74zM375 779l-122 -154h-71l-123 154h80l78 -120l78 120h80z" />
    <glyph glyph-name="yacute" unicode="&#xfd;" horiz-adv-x="534" 
d="M66 -257l1 81c31 1 60 13 80 32c12 11 24 27 32 44c12 25 26 57 36 87l13 39l-192 474h90l147 -369l144 369h88l-201 -505c-6 -15 -10 -28 -16 -42c-10 -28 -22 -56 -35 -84c-10 -24 -29 -53 -49 -72c-36 -34 -80 -52 -138 -54zM364 773l-128 -161h-67l104 161h91z" />
    <glyph glyph-name="ydieresis" unicode="&#xff;" horiz-adv-x="534" 
d="M66 -257l1 81c31 1 60 13 80 32c12 11 24 27 32 44c12 25 26 57 36 87l13 39l-192 474h90l147 -369l144 369h88l-201 -505c-6 -15 -10 -28 -16 -42c-10 -28 -22 -56 -35 -84c-10 -24 -29 -53 -49 -72c-36 -34 -80 -52 -138 -54zM96 612v94h94v-94h-94zM343 612v94h94v-94
h-94z" />
    <glyph glyph-name="zcaron" unicode="&#x17e;" horiz-adv-x="492" 
d="M66 420v80h376l-1 -38l-256 -382h257v-80h-392v37l261 383h-245zM399 779l-122 -154h-71l-123 154h80l78 -120l78 120h80z" />
    <glyph glyph-name="equal" unicode="=" horiz-adv-x="608" 
d="M80 365v83h448v-83h-448zM80 156v84h448v-84h-448z" />
    <glyph glyph-name="backslash" unicode="\" horiz-adv-x="594" 
d="M501 -250l-486 1000h93l486 -1000h-93z" />
    <glyph glyph-name="underscore" unicode="_" horiz-adv-x="804" 
d="M100 -210v85h604v-85h-604z" />
    <glyph glyph-name="bar" unicode="|" horiz-adv-x="202" 
d="M60 -250v1000h82v-1000h-82z" />
    <glyph glyph-name="quotedblleft" unicode="&#x201c;" horiz-adv-x="403" 
d="M300 750l37 -23c-25 -42 -41 -84 -40 -138h44l2 -103h-110v71c0 73 26 139 67 193zM127 750l37 -23c-25 -42 -40 -84 -39 -138h43l2 -103h-110v71c0 73 26 139 67 193z" />
    <glyph glyph-name="quotedblright" unicode="&#x201d;" horiz-adv-x="403" 
d="M103 486l-37 23c25 42 41 84 40 138h-44l-2 103h110v-71c0 -73 -26 -139 -67 -193zM276 486l-37 23c25 42 40 84 39 138h-43l-2 103h110v-71c0 -73 -26 -139 -67 -193z" />
    <glyph glyph-name="endash" unicode="&#x2013;" horiz-adv-x="674" 
d="M100 258v86h474v-86h-474z" />
    <glyph glyph-name="emdash" unicode="&#x2014;" horiz-adv-x="778" 
d="M100 258v86h578v-86h-578z" />
    <glyph glyph-name="brokenbar" unicode="&#xa6;" horiz-adv-x="282" 
d="M100 750h82v-411h-82v411zM182 -250h-82v411h82v-411z" />
    <glyph glyph-name="minus" unicode="&#x2212;" horiz-adv-x="600" 
d="M108 259v84h448v-84h-448z" />
    <glyph glyph-name="periodcentered" unicode="&#xb7;" horiz-adv-x="289" 
d="M100 208v94h89v-94h-89z" />
    <glyph glyph-name="divide" unicode="&#xf7;" horiz-adv-x="648" 
d="M282 467v85h86v-85h-86zM282 50v85h86v-85h-86zM100 259v84h448v-84h-448z" />
    <glyph glyph-name="quoteleft" unicode="&#x2018;" horiz-adv-x="230" 
d="M127 750l37 -23c-25 -42 -40 -84 -39 -138h43l2 -103h-110v71c0 73 26 139 67 193z" />
    <glyph glyph-name="quoteright" unicode="&#x2019;" horiz-adv-x="230" 
d="M103 486l-37 23c25 42 41 84 40 138h-44l-2 103h110v-71c0 -73 -26 -139 -67 -193z" />
    <glyph glyph-name="quotesinglbase" unicode="&#x201a;" horiz-adv-x="230" 
d="M103 -161l-37 23c25 42 41 84 40 138h-46v103h110v-71c0 -73 -26 -139 -67 -193z" />
    <glyph glyph-name="quotedblbase" unicode="&#x201e;" horiz-adv-x="403" 
d="M103 -161l-37 23c25 42 41 84 40 138h-46v103h110v-71c0 -73 -26 -139 -67 -193zM276 -161l-37 23c25 42 40 84 39 138h-45v103h110v-71c0 -73 -26 -139 -67 -193z" />
    <glyph glyph-name="florin" unicode="&#x192;" horiz-adv-x="415" 
d="M8 -259l-8 85c68 8 138 51 138 130v460h-94v84h94v89c0 104 50 166 161 166c36 0 82 -9 116 -26l-41 -80c-17 16 -44 23 -75 23c-48 0 -78 -32 -79 -89l-1 -83h123v-84h-123v-457c0 -67 -23 -112 -57 -147c-37 -37 -89 -62 -154 -71z" />
    <glyph glyph-name="OE" unicode="&#x152;" horiz-adv-x="1067" 
d="M574 0v103c-55 -67 -133 -108 -224 -108c-179 0 -305 153 -305 355s126 355 305 355c91 0 169 -40 224 -107v102h433v-84h-350v-184h293v-84h-293v-264h360v-84h-443zM135 355c0 -151 89 -270 214 -270c126 0 214 119 214 270s-88 267 -214 267
c-125 0 -214 -116 -214 -267z" />
    <glyph glyph-name="oe" unicode="&#x153;" horiz-adv-x="938" 
d="M890 298c3 -31 3 -45 2 -74l-367 -14c13 -80 68 -132 150 -132c54 0 95 23 121 59l76 -36c-42 -64 -112 -106 -197 -106s-154 39 -196 102c-41 -63 -110 -102 -195 -102c-141 0 -239 108 -239 255s98 255 239 255c84 0 153 -39 194 -101c40 62 107 101 192 101
c121 0 210 -87 220 -207zM131 250c0 -102 58 -172 153 -172c98 0 152 70 152 172s-54 172 -152 172s-153 -70 -153 -172zM670 422c-87 0 -135 -54 -146 -137l280 10c-9 79 -52 127 -134 127z" />
    <glyph glyph-name="exclamdown" unicode="&#xa1;" horiz-adv-x="289" 
d="M189 500v-94h-89v94h89zM189 -116v-134h-89v134l32 377h24z" />
    <glyph glyph-name="Thorn" unicode="&#xde;" horiz-adv-x="549" 
d="M60 0v700h82v-127h101c159 0 261 -83 261 -222c0 -126 -95 -223 -249 -223h-112v-128h-83zM411 355c0 93 -61 137 -169 137h-99v-281h99c116 0 169 49 169 144z" />
    <glyph glyph-name="Eth" unicode="&#xd0;" horiz-adv-x="655" 
d="M88 0v304h-88v86h88v310h212c84 0 158 -31 212 -86c61 -63 98 -156 98 -264c0 -106 -35 -197 -94 -260c-53 -57 -127 -90 -213 -90h-215zM300 390v-86h-130v-226h131c62 0 112 26 149 69c43 51 67 125 67 208c0 82 -29 155 -71 203c-37 42 -90 64 -149 64h-127v-232h130z
" />
    <glyph glyph-name="dollar" unicode="$" horiz-adv-x="594" 
d="M334 -100h-82v97c-63 7 -125 32 -172 80c-12 12 -24 25 -35 39l89 38c26 -31 67 -60 118 -69v253c-124 12 -190 61 -190 174c0 52 18 94 50 127c35 37 86 58 140 64v97h82v-99c58 -10 107 -37 147 -77c14 -14 29 -31 39 -47l-73 -50c-8 12 -20 26 -31 37
c-23 23 -50 41 -82 50v-197c129 -15 216 -90 214 -209c-1 -54 -20 -102 -55 -137c-40 -41 -99 -65 -159 -73v-98zM453 213c1 70 -42 107 -119 118v-245c35 6 62 20 83 40c24 22 36 52 36 87zM151 516c0 -57 33 -83 101 -93v195c-70 -10 -101 -51 -101 -102z" />
    <glyph glyph-name="section" unicode="&#xa7;" horiz-adv-x="607" 
d="M506 71c-5 -5 -10 -10 -16 -15c28 -27 42 -66 42 -118s-18 -94 -50 -127c-43 -46 -109 -66 -176 -66c-78 1 -143 31 -193 81c-14 14 -29 31 -39 47l73 50c8 -12 20 -26 31 -37c33 -34 75 -57 127 -57c96 0 138 45 138 105c0 70 -51 93 -154 97c-145 6 -245 83 -243 211
c1 54 20 102 55 137c5 5 10 10 15 14c-27 28 -41 67 -41 119s18 94 50 127c43 46 109 66 176 66c78 -1 143 -31 193 -81c14 -14 29 -31 39 -47l-73 -50c-8 12 -20 26 -31 37c-33 34 -75 57 -127 57c-96 0 -138 -45 -138 -105c0 -70 51 -93 154 -97c145 -6 245 -83 243 -211
c-1 -54 -20 -102 -55 -137zM307 335c-38 1 -71 5 -100 12c-11 -7 -21 -14 -30 -23c-24 -22 -36 -52 -36 -87c-1 -81 56 -118 159 -122c37 -1 70 -5 99 -12c11 6 22 14 31 23c24 22 36 52 36 87c1 81 -56 118 -159 122z" />
    <glyph glyph-name="cent" unicode="&#xa2;" horiz-adv-x="533" 
d="M327 -100h-82v99c-117 19 -195 119 -195 251c0 131 78 231 195 251v99h82v-98c68 -9 122 -44 156 -100c-29 -15 -47 -26 -74 -40c-20 27 -47 47 -82 56v-336c34 8 61 27 80 53l76 -37c-34 -56 -88 -91 -156 -100v-98zM135 250c0 -86 41 -149 110 -167v334
c-71 -18 -110 -81 -110 -167z" />
    <glyph glyph-name="eth" unicode="&#xf0;" horiz-adv-x="593" 
d="M289 795l67 -19l-22 -74c39 -12 72 -33 100 -60c76 -73 112 -191 113 -300c1 -101 -28 -212 -96 -280c-41 -41 -97 -67 -168 -67c-140 0 -238 108 -238 255s98 255 238 255c57 0 117 -26 173 -72c-28 94 -80 165 -149 188l-28 -86l-67 21l24 73c-34 -4 -65 -17 -90 -35
l-60 59c47 37 109 61 169 61l9 -1zM130 250c0 -102 58 -172 153 -172c98 0 154 70 154 172s-56 172 -154 172s-153 -70 -153 -172z" />
    <glyph glyph-name="asciitilde" unicode="~" horiz-adv-x="495" 
d="M390 361h60c-1 -66 -41 -134 -112 -134c-43 0 -78 19 -100 36c-20 16 -53 38 -78 38c-30 0 -50 -24 -55 -59h-59c-1 67 41 138 118 138c38 0 81 -29 112 -50c21 -14 41 -27 65 -27c27 0 46 25 49 58z" />
    <glyph glyph-name="bracketleft" unicode="[" horiz-adv-x="363" 
d="M303 -165v-85h-203v950h203v-85h-119v-780h119z" />
    <glyph glyph-name="bracketright" unicode="]" horiz-adv-x="363" 
d="M60 615v85h203v-950h-203v85h120v780h-120z" />
    <glyph glyph-name="asciicircum" unicode="^" horiz-adv-x="468" 
d="M276 400l147 -184h-97l-92 139l-92 -139h-97l147 184h84z" />
    <glyph glyph-name="ae" unicode="&#xe6;" horiz-adv-x="880" 
d="M832 298c3 -31 3 -45 2 -74l-367 -14c13 -80 68 -132 150 -132c54 0 95 23 121 59l76 -36c-42 -64 -112 -106 -197 -106c-90 0 -163 45 -203 116l-35 -35c-47 -47 -104 -81 -165 -81c-56 0 -99 16 -129 46c-27 27 -40 66 -39 105s16 78 45 107c42 41 106 63 168 63
c39 0 80 -6 120 -14c-8 37 -22 66 -40 82c-25 24 -62 38 -108 38c-44 0 -83 -7 -124 -35l-30 82c44 24 94 36 152 36c59 0 126 -20 171 -62c10 -9 18 -20 26 -31c40 58 105 93 186 93c121 0 210 -87 220 -207zM226 77c41 0 76 16 102 41c24 24 42 60 51 108
c-32 12 -71 21 -111 21c-33 0 -75 -11 -105 -33c-20 -14 -32 -40 -31 -65c0 -19 8 -37 23 -51c18 -15 44 -21 71 -21zM612 422c-87 0 -135 -54 -146 -137l280 10c-9 79 -52 127 -134 127z" />
    <glyph glyph-name="less" unicode="&#x3c;" horiz-adv-x="531" 
d="M45 252v100l456 191v-91l-368 -150l368 -144v-90z" />
    <glyph glyph-name="greater" unicode="&#x3e;" horiz-adv-x="531" 
d="M486 358v-100l-456 -190v90l367 150l-367 144v91z" />
    <glyph glyph-name="Euro" unicode="&#x20ac;" horiz-adv-x="693" 
d="M397 309l-40 -83h-152c35 -85 105 -140 192 -140c68 0 125 36 164 92l87 -43c-55 -87 -145 -140 -250 -140c-142 0 -251 93 -292 231h-121v83h106c-2 14 -2 28 -2 43c0 16 1 31 2 47h-106v83h123c42 134 150 223 290 223c106 0 193 -53 247 -137l-78 -43
c-39 61 -98 95 -170 95c-89 0 -160 -54 -194 -138h195l-41 -83h-175c-1 -14 -2 -28 -2 -42c0 -17 1 -33 3 -48h214z" />
    <glyph glyph-name="currency" unicode="&#xa4;" horiz-adv-x="597" 
d="M92 276c0 42 10 81 28 118c-24 24 -50 51 -74 75c21 22 40 39 59 59l69 -70c38 27 80 42 126 42c45 0 88 -15 125 -40c19 20 47 48 67 69c23 -22 38 -38 60 -60l-70 -73c18 -38 29 -78 29 -120c0 -44 -11 -84 -29 -122l70 -71c-18 -18 -42 -42 -59 -60l-67 68
c-37 -26 -81 -40 -126 -40c-46 0 -88 15 -126 41l-67 -68c-22 22 -42 41 -62 60l74 74c-17 36 -27 76 -27 118zM173 276c0 -86 49 -146 127 -146c84 0 129 60 129 146c0 85 -45 145 -129 145c-80 0 -127 -60 -127 -145z" />
    <glyph glyph-name="ordfeminine" unicode="&#xaa;" horiz-adv-x="443" 
d="M96 652l-23 69c37 20 76 29 126 29c48 0 91 -12 126 -38s58 -67 58 -123v-213h-66l-5 51c-37 -31 -83 -55 -127 -55c-33 0 -67 10 -96 30c-27 19 -44 48 -44 86c0 32 13 58 32 77c34 34 89 49 139 49c26 0 58 -3 96 -8c-16 59 -66 77 -113 77c-37 0 -69 -9 -103 -31z
M195 439c59 0 103 44 121 108c-29 8 -56 13 -86 13c-36 0 -109 -14 -109 -68c0 -39 39 -53 74 -53z" />
    <glyph glyph-name="twosuperior" unicode="&#xb2;" horiz-adv-x="388" 
d="M358 387v-53h-313v19l194 186c38 37 50 60 50 88c0 47 -40 74 -90 74c-51 0 -80 -18 -93 -48l-53 31c25 39 76 71 146 71s150 -37 153 -120c1 -38 -11 -71 -61 -120l-132 -128h199z" />
    <glyph glyph-name="threesuperior" unicode="&#xb3;" horiz-adv-x="381" 
d="M45 397l53 33c14 -31 44 -48 94 -48c67 0 91 30 91 80c0 48 -28 80 -92 80h-38v48h38c36 0 75 13 75 58c0 33 -23 55 -74 55c-34 0 -59 -13 -72 -32l-53 26c27 36 77 58 125 58c70 0 138 -39 138 -107c0 -29 -15 -58 -47 -80c39 -28 68 -68 68 -109
c0 -72 -54 -131 -159 -131c-73 0 -123 27 -147 69z" />
    <glyph glyph-name="onesuperior" unicode="&#xb9;" horiz-adv-x="200" 
d="M30 750h127v-416h-62v365h-65v51z" />
    <glyph glyph-name="ordmasculine" unicode="&#xba;" horiz-adv-x="472" 
d="M45 560c0 111 78 190 191 190s191 -79 191 -190c0 -110 -78 -188 -191 -188s-191 78 -191 188zM119 560c0 -74 44 -121 117 -121c77 0 117 47 117 121s-40 124 -117 124c-75 0 -117 -50 -117 -124z" />
    <glyph glyph-name="onequarter" unicode="&#xbc;" horiz-adv-x="809" 
d="M687 750l-492 -850h-90l491 850h91zM421 -7v38l231 290h25v-277h67v-51h-67v-93h-54v93h-202zM494 44h129v159zM65 750h127v-416h-62v365h-65v51z" />
    <glyph glyph-name="onehalf" unicode="&#xbd;" horiz-adv-x="940" 
d="M736 750l-492 -850h-90l491 850h91zM875 -47v-53h-313v19l194 186c38 37 50 60 50 88c0 47 -40 74 -90 74c-51 0 -80 -18 -93 -48l-53 31c25 39 76 71 146 71s150 -37 153 -120c1 -38 -11 -71 -61 -120l-133 -128h200zM65 750h127v-416h-62v365h-65v51z" />
    <glyph glyph-name="threequarters" unicode="&#xbe;" horiz-adv-x="870" 
d="M482 -7v38l231 290h25v-277h67v-51h-67v-93h-54v93h-202zM555 44h129v159zM755 750l-492 -850h-90l491 850h91zM65 397l53 33c14 -31 44 -48 94 -48c67 0 91 30 91 80c0 48 -28 80 -92 80h-38v48h38c36 0 75 13 75 58c0 33 -23 55 -74 55c-34 0 -59 -13 -72 -32l-53 26
c27 36 77 58 125 58c70 0 138 -39 138 -107c0 -29 -15 -58 -47 -80c39 -28 68 -68 68 -109c0 -72 -54 -131 -159 -131c-73 0 -123 27 -147 69z" />
    <glyph glyph-name="multiply" unicode="&#xd7;" horiz-adv-x="511" 
d="M60 436l58 59l138 -134l134 135l60 -61l-132 -133l133 -134l-58 -60l-133 134l-134 -134l-61 61l133 133z" />
    <glyph glyph-name="fraction" unicode="&#x2044;" horiz-adv-x="632" 
d="M632 750l-492 -850h-90l491 850h91z" />
    <glyph glyph-name="percent" unicode="%" horiz-adv-x="986" 
d="M301 -71h-91l474 821h91zM45 617c0 105 75 183 182 183s181 -78 181 -183c0 -103 -74 -180 -181 -180s-182 77 -182 180zM123 617c0 -64 39 -109 104 -109c69 0 104 45 104 109c0 67 -35 111 -104 111c-68 0 -104 -44 -104 -111zM593 80c0 105 75 182 182 182
s181 -77 181 -182c0 -103 -74 -180 -181 -180s-182 77 -182 180zM671 80c0 -65 39 -109 104 -109c69 0 104 44 104 109c0 67 -35 110 -104 110c-68 0 -104 -43 -104 -110z" />
    <glyph glyph-name="ampersand" unicode="&#x26;" horiz-adv-x="620" 
d="M620 40l-56 -57l-90 100c-19 -19 -36 -34 -56 -48c-49 -34 -106 -50 -159 -50c-64 0 -124 20 -169 70c-38 43 -59 94 -59 151c-1 63 24 125 74 175c14 14 31 29 55 46c-11 8 -20 17 -30 27c-34 36 -58 78 -57 133c1 44 17 83 53 119c30 30 74 49 127 49
c51 0 99 -17 132 -48c37 -35 55 -79 54 -128s-21 -87 -53 -118c-24 -23 -55 -42 -89 -56l175 -198l72 78l61 -59l-78 -81zM255 66c35 0 69 8 99 27c19 11 39 29 62 54l-194 217c-21 -11 -36 -22 -50 -36c-36 -33 -55 -79 -55 -123c0 -27 8 -56 24 -80c28 -42 72 -59 114 -59
zM258 676c-59 2 -105 -35 -105 -97c0 -31 12 -54 32 -77c15 -17 34 -35 55 -46c30 9 60 25 84 47c21 20 34 45 34 77c0 61 -47 95 -100 96z" />
    <glyph glyph-name="parenleft" unicode="(" horiz-adv-x="356" 
d="M305 775l23 -60c-159 -74 -200 -314 -200 -447c0 -142 38 -374 203 -461l-30 -57c-204 98 -258 337 -255 524c2 192 65 418 259 501z" />
    <glyph glyph-name="asterisk" unicode="*" horiz-adv-x="562" 
d="M237 648v102h89v-102l-28 -125l106 77l94 39l34 -81l-94 -40l-128 -27l99 -79l66 -79l-67 -57l-66 79l-61 121l-59 -119l-65 -81l-69 56l65 80l102 82l-131 24l-94 40l34 82l96 -41l106 -76z" />
    <glyph glyph-name="question" unicode="?" horiz-adv-x="552" 
d="M236 293c7 42 48 81 87 108c51 36 98 77 94 154c-4 82 -72 119 -147 119c-79 0 -126 -32 -146 -83l-79 47c36 69 111 117 225 117c117 0 237 -68 237 -203c0 -71 -39 -142 -98 -184c-28 -21 -52 -41 -75 -67c-16 -18 -27 -44 -28 -68l-77 2c0 16 2 33 7 58zM220 0v94h90
v-94h-90z" />
    <glyph glyph-name="at" unicode="@" horiz-adv-x="1148" 
d="M406 418c40 41 93 65 155 65c56 0 109 -32 146 -75l13 71h77c-13 -85 -31 -207 -42 -290c-5 -40 7 -73 29 -94c16 -16 41 -26 66 -26c48 0 87 25 108 71c21 44 30 100 30 153c0 209 -157 366 -372 366c-125 0 -244 -56 -330 -144c-77 -80 -127 -187 -127 -304
c0 -207 158 -370 372 -370c56 0 106 7 158 29l29 -86c-64 -26 -129 -34 -200 -34c-262 0 -458 190 -458 445c0 139 58 277 161 382c105 107 252 173 407 173c263 0 460 -192 459 -448c0 -61 -10 -128 -34 -187c-12 -30 -30 -56 -52 -76c-38 -35 -88 -55 -147 -56
c-54 -1 -115 14 -155 56c-17 18 -28 37 -38 65c-48 -48 -110 -79 -170 -79c-106 1 -167 77 -166 184c0 78 30 156 81 209zM411 222c0 -70 39 -121 105 -121c81 0 140 70 159 143v-1c4 14 5 31 5 48c0 62 -34 116 -120 116c-40 0 -76 -17 -101 -49c-32 -40 -48 -90 -48 -136z
" />
    <glyph glyph-name="braceleft" unicode="{" horiz-adv-x="358" 
d="M298 -188v-62h-76c-64 0 -121 40 -121 116c0 86 3 145 3 211c0 65 -18 107 -89 132v81c76 31 91 64 90 133c-1 80 -3 140 -3 211c0 76 57 116 121 116h75v-62h-30c-61 0 -82 -48 -82 -114c0 -51 2 -93 2 -144c0 -77 -31 -142 -119 -178c88 -40 118 -117 118 -182
c0 -60 -2 -97 -3 -144c-2 -75 19 -114 83 -114h31z" />
    <glyph glyph-name="perthousand" unicode="&#x2030;" horiz-adv-x="1345" 
d="M232 -70h-91l543 820h91zM45 617c0 105 75 183 181 183c107 0 181 -78 181 -183c0 -103 -74 -180 -181 -180c-106 0 -181 77 -181 180zM123 617c0 -64 38 -109 103 -109c70 0 104 45 104 109c0 67 -34 111 -104 111c-68 0 -103 -44 -103 -111zM511 80
c0 105 75 182 182 182s181 -77 181 -182c0 -103 -74 -180 -181 -180s-182 77 -182 180zM590 80c0 -65 38 -109 103 -109c69 0 104 44 104 109c0 67 -35 110 -104 110c-68 0 -103 -43 -103 -110zM952 80c0 105 75 182 181 182c108 0 182 -77 182 -182
c0 -103 -74 -180 -182 -180c-106 0 -181 77 -181 180zM1030 80c0 -65 39 -109 103 -109c70 0 104 44 104 109c0 67 -34 110 -104 110c-67 0 -103 -43 -103 -110z" />
    <glyph glyph-name="guilsinglleft" unicode="&#x2039;" horiz-adv-x="399" 
d="M369 50h-101l-223 223v54l223 223h101l-237 -250z" />
    <glyph glyph-name="trademark" unicode="&#x2122;" horiz-adv-x="909" 
d="M30 689v61h328v-61h-132v-364h-65v364h-131zM646 417h-25l-133 210v-302h-66v425h71l142 -227l145 227h69v-425h-65v308z" />
    <glyph glyph-name="paragraph" unicode="&#xb6;" horiz-adv-x="652" 
d="M602 708v-85h-104v-727h-84v727h-125v-727h-83v521c-86 0 -156 65 -156 145c0 81 65 146 153 146h399z" />
    <glyph glyph-name="degree" unicode="&#xb0;" horiz-adv-x="389" 
d="M15 589c0 94 77 171 172 171s172 -77 172 -171c0 -95 -77 -172 -172 -172s-172 77 -172 172zM87 590c0 -57 44 -100 100 -100s100 43 100 100c0 56 -44 100 -100 100s-100 -44 -100 -100z" />
    <glyph glyph-name="registered" unicode="&#xae;" horiz-adv-x="1017" 
d="M50 250c0 252 206 455 458 455s459 -203 459 -455s-207 -455 -459 -455s-458 203 -458 455zM135 253c0 -204 169 -377 373 -377c205 0 373 173 373 377s-168 371 -373 371c-204 0 -373 -167 -373 -371zM358 42v425h125c112 0 171 -49 171 -128c0 -52 -34 -100 -96 -123
c40 -54 89 -119 130 -174h-89l-120 163h-55v-163h-66zM583 339c0 47 -37 70 -102 70h-57v-147h63c65 0 96 27 96 77z" />
    <glyph glyph-name="guillemotleft" unicode="&#xab;" horiz-adv-x="630" 
d="M369 50h-101l-223 223v54l223 223h101l-236 -250zM600 50h-101l-222 223v54l222 223h101l-236 -250z" />
    <glyph glyph-name="copyright" unicode="&#xa9;" horiz-adv-x="1017" 
d="M50 250c0 252 206 455 458 455s459 -203 459 -455s-207 -455 -459 -455s-458 203 -458 455zM608 157l68 -31c-39 -56 -100 -91 -168 -91c-117 0 -202 94 -202 216s85 216 202 216c68 0 127 -34 167 -90l-61 -30c-24 35 -65 58 -107 58c-76 0 -129 -64 -129 -151
c0 -86 53 -153 129 -153c41 0 77 21 101 56zM135 253c0 -204 169 -377 373 -377c205 0 373 173 373 377s-168 371 -373 371c-204 0 -373 -167 -373 -371z" />
    <glyph glyph-name="sterling" unicode="&#xa3;" horiz-adv-x="600" 
d="M389 386v-79h-162c2 -17 5 -32 5 -58c0 -63 -21 -112 -78 -166h401v-83h-480l-1 87c53 37 70 83 70 142c0 28 -2 52 -6 78h-93v79h65c-20 50 -24 83 -23 117c1 49 17 97 55 135c45 45 111 67 183 67c115 0 190 -49 225 -118c-28 -18 -52 -30 -79 -47
c-20 51 -67 83 -146 83s-149 -48 -149 -131c0 -34 6 -65 27 -106h186z" />
    <glyph glyph-name="AE" unicode="&#xc6;" horiz-adv-x="853" 
d="M360 0v185h-183l-77 -185h-85l299 700h478v-84h-350v-184h294v-84h-294v-264h361v-84h-443zM213 270h147v351z" />
    <glyph glyph-name="germandbls" unicode="&#xdf;" horiz-adv-x="561" 
d="M235 389v81h22c66 0 110 39 110 105c0 62 -52 97 -111 97c-70 0 -114 -41 -114 -117l-1 -555h-81v555c0 63 20 116 59 152c32 30 77 48 134 48c60 0 118 -21 156 -61c26 -28 43 -64 43 -109c0 -56 -21 -101 -70 -132c85 -40 134 -123 134 -224c0 -135 -80 -233 -208 -234
c-39 0 -72 10 -99 26l37 63c15 -6 35 -12 50 -12c83 0 133 67 133 157c0 91 -49 160 -136 160h-58z" />
    <glyph glyph-name="parenright" unicode=")" horiz-adv-x="371" 
d="M66 -250l-23 60c159 74 200 314 200 447c0 142 -38 374 -203 461l30 57c204 -98 258 -337 255 -524c-2 -192 -65 -418 -259 -501z" />
    <glyph glyph-name="questiondown" unicode="&#xbf;" horiz-adv-x="552" 
d="M316 207c-7 -42 -48 -81 -87 -108c-51 -36 -98 -77 -94 -154c4 -82 72 -119 147 -119c79 0 126 32 146 83l79 -47c-36 -69 -111 -117 -225 -117c-117 0 -237 68 -237 203c0 71 39 142 98 184c28 21 52 41 75 67c16 18 27 44 28 68l77 -2c0 -16 -2 -33 -7 -58zM332 500
v-94h-90v94h90z" />
    <glyph glyph-name="braceright" unicode="}" horiz-adv-x="358" 
d="M60 688v62h76c64 0 121 -40 121 -116c0 -86 -3 -145 -3 -211c0 -65 18 -107 89 -132v-81c-76 -31 -91 -64 -90 -133c1 -80 3 -140 3 -211c0 -76 -57 -116 -121 -116h-75v62h30c61 0 82 48 82 114c0 51 -2 93 -2 144c0 77 31 142 119 178c-88 40 -118 117 -118 182
c0 60 2 97 3 144c2 75 -19 114 -83 114h-31z" />
    <glyph glyph-name="guilsinglright" unicode="&#x203a;" horiz-adv-x="399" 
d="M30 550h101l223 -223v-54l-223 -223h-101l237 250z" />
    <glyph glyph-name="guillemotright" unicode="&#xbb;" horiz-adv-x="630" 
d="M261 550h101l223 -223v-54l-223 -223h-101l236 250zM30 550h101l222 -223v-54l-222 -223h-101l236 250z" />
    <glyph glyph-name="a.sc" horiz-adv-x="539" 
d="M416 0l-50 130h-207l-48 -130h-86l196 511h87l195 -511h-87zM264 400l-72 -191h144z" />
    <glyph glyph-name="b.sc" horiz-adv-x="442" 
d="M40 0v511h123c127 0 205 -43 205 -130c0 -32 -16 -62 -45 -88c52 -31 82 -78 82 -132c0 -99 -76 -161 -198 -161h-167zM205 245h-84v-167h80c77 0 115 30 115 85c0 53 -40 82 -111 82zM280 379c0 43 -38 54 -107 54h-52v-112h41c81 0 118 16 118 58z" />
    <glyph glyph-name="c.sc" horiz-adv-x="509" 
d="M389 144l82 -36c-47 -71 -117 -112 -199 -112c-140 0 -239 112 -239 259c0 148 99 259 239 259c83 0 151 -41 197 -109l-77 -38c-28 45 -72 70 -121 70c-88 0 -151 -78 -151 -178s63 -180 151 -180c47 0 89 26 118 65z" />
    <glyph glyph-name="d.sc" horiz-adv-x="489" 
d="M40 0v511h169c66 0 124 -23 166 -64c48 -45 76 -113 76 -192c0 -77 -27 -143 -73 -189c-42 -42 -99 -66 -167 -66h-171zM312 394c-26 28 -64 43 -105 43h-86v-363h89c41 0 79 19 104 45c31 33 48 87 48 140c0 54 -21 103 -50 135z" />
    <glyph glyph-name="e.sc" horiz-adv-x="431" 
d="M40 0v511h344v-78h-262v-111h219v-78h-219v-166h269v-78h-351z" />
    <glyph glyph-name="f.sc" horiz-adv-x="427" 
d="M40 0v511h351v-78h-269v-140h223v-78h-223v-215h-82z" />
    <glyph glyph-name="g.sc" horiz-adv-x="510" 
d="M269 202v79h198v-281h-81v26c-33 -18 -73 -30 -114 -30c-140 0 -239 112 -239 259c0 148 99 259 239 259c83 0 151 -41 197 -109l-77 -38c-28 45 -72 70 -121 70c-88 0 -152 -78 -152 -178s64 -180 152 -180c44 0 89 22 115 57v66h-117z" />
    <glyph glyph-name="h.sc" horiz-adv-x="495" 
d="M364 0v244h-243v-244h-81v511h81v-189h243v189h81v-511h-81z" />
    <glyph glyph-name="i.sc" horiz-adv-x="158" 
d="M37 0v511h81v-511h-81z" />
    <glyph glyph-name="j.sc" horiz-adv-x="433" 
d="M24 57l56 65c29 -27 63 -44 117 -44c66 0 106 36 106 92v341h82v-349c0 -110 -95 -166 -200 -166c-60 0 -116 23 -161 61z" />
    <glyph glyph-name="k.sc" horiz-adv-x="437" 
d="M40 0v511h81v-191l168 191h102l-182 -207l224 -304h-107l-173 238l-32 -34v-204h-81z" />
    <glyph glyph-name="l.sc" horiz-adv-x="404" 
d="M40 0v511h81v-433h263v-78h-344z" />
    <glyph glyph-name="m.sc" horiz-adv-x="599" 
d="M546 511v-511h-81v367l-161 -256h-26l-156 248v-359h-81v511h84l167 -265l170 265h84z" />
    <glyph glyph-name="n.sc" horiz-adv-x="498" 
d="M449 0h-89l-239 358v-358h-81v511h87l241 -359v359h81v-511z" />
    <glyph glyph-name="o.sc" horiz-adv-x="547" 
d="M29 255c0 148 98 259 239 259c140 0 239 -111 239 -259c0 -147 -102 -259 -239 -259c-141 0 -239 112 -239 259zM116 259c0 -100 63 -180 151 -180s151 80 151 180s-63 178 -151 178s-151 -78 -151 -178z" />
    <glyph glyph-name="p.sc" horiz-adv-x="428" 
d="M40 0v511h147c125 0 205 -63 205 -166c0 -94 -75 -166 -196 -166h-74v-179h-82zM303 348c0 59 -42 87 -117 87h-64v-178h64c80 0 117 31 117 91z" />
    <glyph glyph-name="q.sc" horiz-adv-x="547" 
d="M29 255c0 148 98 259 239 259c140 0 239 -111 239 -259c0 -70 -21 -128 -60 -174l64 -81h-102l-24 28c-35 -20 -74 -32 -117 -32c-141 0 -239 112 -239 259zM334 221l56 -71c17 30 28 69 28 109c0 100 -63 178 -151 178s-151 -78 -151 -178s63 -180 151 -180
c23 0 45 7 65 16l-99 126h101z" />
    <glyph glyph-name="r.sc" horiz-adv-x="445" 
d="M40 0v511h149c134 0 201 -61 201 -157c0 -63 -42 -117 -109 -146l152 -208h-107l-142 193h-63v-193h-81zM304 355c0 56 -43 82 -118 82h-65v-170h71c75 0 112 33 112 88z" />
    <glyph glyph-name="s.sc" horiz-adv-x="463" 
d="M408 412l-70 -44c-7 9 -14 16 -29 31c-22 22 -52 37 -88 37c-65 0 -94 -28 -94 -64c0 -41 36 -56 106 -59c115 -4 194 -62 192 -157c-1 -42 -16 -77 -44 -103c-39 -38 -102 -57 -159 -57c-59 0 -119 19 -165 61c-11 10 -17 17 -34 38l85 34c24 -27 66 -52 111 -52
c41 0 72 10 91 28c16 13 24 32 24 54c1 52 -37 75 -109 77c-119 3 -184 39 -184 133c0 40 14 70 40 95c35 35 87 50 140 50c59 -1 111 -21 151 -59c11 -10 23 -23 36 -43z" />
    <glyph glyph-name="t.sc" horiz-adv-x="424" 
d="M13 433v78h390v-78h-155v-433h-80v433h-155z" />
    <glyph glyph-name="u.sc" 
d="M497 511v-277c0 -144 -101 -238 -232 -238c-136 0 -232 92 -232 236v279h81v-267c0 -100 64 -165 151 -165c88 0 152 68 152 174v258h80z" />
    <glyph glyph-name="v.sc" horiz-adv-x="509" 
d="M98 511l152 -404l153 404h94l-195 -511h-105l-194 511h95z" />
    <glyph glyph-name="w.sc" horiz-adv-x="740" 
d="M345 442h47l111 -332l125 401h93l-169 -511h-92l-93 256l-94 -256h-94l-173 511h91l131 -401z" />
    <glyph glyph-name="x.sc" horiz-adv-x="463" 
d="M128 511l99 -157c31 52 64 106 95 157h98l-144 -231c56 -89 123 -192 179 -280h-103l-126 201c-41 -65 -85 -136 -125 -201h-101l176 279c-48 73 -102 158 -148 232h100z" />
    <glyph glyph-name="y.sc" horiz-adv-x="441" 
d="M6 511h94l116 -239l116 239h94l-169 -329v-182h-82v182z" />
    <glyph glyph-name="z.sc" horiz-adv-x="431" 
d="M32 0v42l238 391h-215v78h332v-42l-241 -391h245v-78h-359z" />
    <glyph glyph-name="agrave.sc" horiz-adv-x="539" 
d="M416 0l-50 130h-207l-48 -130h-86l196 511h87l195 -511h-87zM264 400l-72 -191h144zM299 612l-127 161h90c35 -54 69 -108 104 -161h-67z" />
    <glyph glyph-name="aacute.sc" horiz-adv-x="539" 
d="M416 0l-50 130h-207l-48 -130h-86l196 511h87l195 -511h-87zM264 400l-72 -191h144zM367 773l-128 -161h-67l104 161h91z" />
    <glyph glyph-name="acircumflex.sc" horiz-adv-x="539" 
d="M416 0l-50 130h-207l-48 -130h-86l196 511h87l195 -511h-87zM264 400l-72 -191h144zM304 779l123 -154h-81l-77 116l-77 -116h-81l123 154h70z" />
    <glyph glyph-name="atilde.sc" horiz-adv-x="539" 
d="M416 0l-50 130h-207l-48 -130h-86l196 511h87l195 -511h-87zM264 400l-72 -191h144zM391 714h51c-1 -56 -35 -114 -95 -114c-37 0 -67 16 -86 31c-17 13 -45 32 -66 32c-26 0 -43 -20 -47 -50h-50c-1 57 35 117 100 117c33 0 69 -24 96 -42c18 -12 35 -23 55 -23
c23 0 39 21 42 49z" />
    <glyph glyph-name="adieresis.sc" horiz-adv-x="539" 
d="M416 0l-50 130h-207l-48 -130h-86l196 511h87l195 -511h-87zM264 400l-72 -191h144zM99 612v94h94v-94h-94zM346 612v94h94v-94h-94z" />
    <glyph glyph-name="aring.sc" horiz-adv-x="539" 
d="M416 0l-50 130h-207l-48 -130h-86l196 511h87l195 -511h-87zM264 400l-72 -191h144zM167 704c0 56 46 102 102 102s102 -46 102 -102s-46 -102 -102 -102s-102 46 -102 102zM210 704c0 -33 26 -59 59 -59s58 26 58 59s-25 58 -58 58s-59 -25 -59 -58z" />
    <glyph glyph-name="ae.sc" horiz-adv-x="689" 
d="M289 0v130h-122l-58 -130h-83l232 511h374v-78h-262v-111h220v-78h-220v-166h271v-78h-352zM205 209h84v192z" />
    <glyph glyph-name="ccedilla.sc" horiz-adv-x="509" 
d="M207 -74l10 76c-110 25 -184 126 -184 253c0 148 99 259 239 259c83 0 151 -41 197 -109l-77 -38c-28 45 -72 70 -121 70c-88 0 -151 -78 -151 -178s63 -180 151 -180c47 0 89 26 118 65l82 -36c-47 -71 -117 -112 -199 -112c-6 0 -12 0 -18 1l-7 -29
c55 -5 88 -47 88 -98c0 -54 -45 -99 -99 -99c-25 0 -44 7 -62 21l26 32c9 -7 22 -11 36 -11c32 0 57 25 57 57c0 29 -20 56 -47 56h-39z" />
    <glyph glyph-name="egrave.sc" horiz-adv-x="431" 
d="M40 0v511h344v-78h-262v-111h219v-78h-219v-166h269v-78h-351zM245 612l-127 161h90c35 -54 69 -108 104 -161h-67z" />
    <glyph glyph-name="eacute.sc" horiz-adv-x="431" 
d="M40 0v511h344v-78h-262v-111h219v-78h-219v-166h269v-78h-351zM313 773l-128 -161h-67l104 161h91z" />
    <glyph glyph-name="ecircumflex.sc" horiz-adv-x="431" 
d="M40 0v511h344v-78h-262v-111h219v-78h-219v-166h269v-78h-351zM251 779l123 -154h-81l-77 116l-77 -116h-81l123 154h70z" />
    <glyph glyph-name="edieresis.sc" horiz-adv-x="431" 
d="M40 0v511h344v-78h-262v-111h219v-78h-219v-166h269v-78h-351zM45 612v94h94v-94h-94zM292 612v94h94v-94h-94z" />
    <glyph glyph-name="igrave.sc" horiz-adv-x="158" 
d="M37 0v511h81v-511h-81zM109 612l-127 161h90c35 -54 69 -108 104 -161h-67z" />
    <glyph glyph-name="iacute.sc" horiz-adv-x="158" 
d="M37 0v511h81v-511h-81zM177 773l-128 -161h-67l104 161h91z" />
    <glyph glyph-name="icircumflex.sc" horiz-adv-x="158" 
d="M37 0v511h81v-511h-81zM114 779l123 -154h-81l-77 116l-77 -116h-81l123 154h70z" />
    <glyph glyph-name="idieresis.sc" horiz-adv-x="158" 
d="M37 0v511h81v-511h-81zM-91 612v94h94v-94h-94zM156 612v94h94v-94h-94z" />
    <glyph glyph-name="eth.sc" horiz-adv-x="511" 
d="M61 0v213h-66v80h66v218h169c66 0 123 -24 165 -64c48 -46 77 -113 77 -192c0 -77 -28 -143 -74 -189c-42 -42 -99 -66 -167 -66h-170zM239 293v-80h-97v-139h89c41 0 79 19 104 45c31 33 47 87 47 140c0 54 -20 103 -50 135c-26 28 -63 43 -104 43h-86v-144h97z" />
    <glyph glyph-name="lslash.sc" horiz-adv-x="421" 
d="M-7 162v83l63 16v255h82v-235l128 32v-83l-128 -32v-119h265v-79h-347v178z" />
    <glyph glyph-name="ntilde.sc" horiz-adv-x="498" 
d="M449 0h-89l-239 358v-358h-81v511h87l241 -359v359h81v-511zM370 714h51c-1 -56 -35 -114 -95 -114c-37 0 -67 16 -86 31c-17 13 -45 32 -66 32c-26 0 -43 -20 -47 -50h-50c-1 57 35 117 100 117c33 0 69 -24 96 -42c18 -12 35 -23 55 -23c23 0 39 21 42 49z" />
    <glyph glyph-name="ograve.sc" horiz-adv-x="547" 
d="M29 255c0 148 98 259 239 259c140 0 239 -111 239 -259c0 -147 -102 -259 -239 -259c-141 0 -239 112 -239 259zM116 259c0 -100 63 -180 151 -180s151 80 151 180s-63 178 -151 178s-151 -78 -151 -178zM303 612l-127 161h90c35 -54 69 -108 104 -161h-67z" />
    <glyph glyph-name="oacute.sc" horiz-adv-x="547" 
d="M29 255c0 148 98 259 239 259c140 0 239 -111 239 -259c0 -147 -102 -259 -239 -259c-141 0 -239 112 -239 259zM116 259c0 -100 63 -180 151 -180s151 80 151 180s-63 178 -151 178s-151 -78 -151 -178zM371 773l-128 -161h-67l104 161h91z" />
    <glyph glyph-name="ocircumflex.sc" horiz-adv-x="547" 
d="M29 255c0 148 98 259 239 259c140 0 239 -111 239 -259c0 -147 -102 -259 -239 -259c-141 0 -239 112 -239 259zM116 259c0 -100 63 -180 151 -180s151 80 151 180s-63 178 -151 178s-151 -78 -151 -178zM308 779l123 -154h-81l-77 116l-77 -116h-81l123 154h70z" />
    <glyph glyph-name="otilde.sc" horiz-adv-x="547" 
d="M29 255c0 148 98 259 239 259c140 0 239 -111 239 -259c0 -147 -102 -259 -239 -259c-141 0 -239 112 -239 259zM116 259c0 -100 63 -180 151 -180s151 80 151 180s-63 178 -151 178s-151 -78 -151 -178zM395 714h51c-1 -56 -35 -114 -95 -114c-37 0 -67 16 -86 31
c-17 13 -45 32 -66 32c-26 0 -43 -20 -47 -50h-50c-1 57 35 117 100 117c33 0 69 -24 96 -42c18 -12 35 -23 55 -23c23 0 39 21 42 49z" />
    <glyph glyph-name="odieresis.sc" horiz-adv-x="547" 
d="M29 255c0 148 98 259 239 259c140 0 239 -111 239 -259c0 -147 -102 -259 -239 -259c-141 0 -239 112 -239 259zM116 259c0 -100 63 -180 151 -180s151 80 151 180s-63 178 -151 178s-151 -78 -151 -178zM103 612v94h94v-94h-94zM350 612v94h94v-94h-94z" />
    <glyph glyph-name="oslash.sc" horiz-adv-x="547" 
d="M158 -36h-91l46 90c-53 47 -84 117 -84 201c0 148 98 259 239 259c27 0 51 -4 77 -13l23 44h92l-44 -83c56 -48 91 -122 91 -207c0 -147 -102 -259 -239 -259c-30 0 -60 5 -87 16zM418 259c0 50 -16 95 -42 127l-155 -300c14 -5 29 -7 46 -7c88 0 151 80 151 180z
M116 259c0 -47 15 -93 39 -124l153 297c-13 4 -26 5 -41 5c-88 0 -151 -78 -151 -178z" />
    <glyph glyph-name="oe.sc" horiz-adv-x="832" 
d="M429 0v57c-41 -39 -96 -61 -159 -61c-140 0 -238 112 -238 259c0 148 98 259 238 259c62 0 118 -24 159 -61v58h343v-78h-262v-111h220v-78h-220v-166h270v-78h-351zM119 259c0 -100 63 -180 150 -180c89 0 151 80 151 180s-62 178 -151 178c-87 0 -150 -78 -150 -178z
" />
    <glyph glyph-name="ugrave.sc" 
d="M497 511v-277c0 -144 -101 -238 -232 -238c-136 0 -232 92 -232 236v279h81v-267c0 -100 64 -165 151 -165c88 0 152 68 152 174v258h80zM300 612l-127 161h90c35 -54 69 -108 104 -161h-67z" />
    <glyph glyph-name="uacute.sc" 
d="M497 511v-277c0 -144 -101 -238 -232 -238c-136 0 -232 92 -232 236v279h81v-267c0 -100 64 -165 151 -165c88 0 152 68 152 174v258h80zM368 773l-128 -161h-67l104 161h91z" />
    <glyph glyph-name="ucircumflex.sc" 
d="M497 511v-277c0 -144 -101 -238 -232 -238c-136 0 -232 92 -232 236v279h81v-267c0 -100 64 -165 151 -165c88 0 152 68 152 174v258h80zM305 779l123 -154h-81l-77 116l-77 -116h-81l123 154h70z" />
    <glyph glyph-name="udieresis.sc" 
d="M497 511v-277c0 -144 -101 -238 -232 -238c-136 0 -232 92 -232 236v279h81v-267c0 -100 64 -165 151 -165c88 0 152 68 152 174v258h80zM100 612v94h94v-94h-94zM347 612v94h94v-94h-94z" />
    <glyph glyph-name="yacute.sc" horiz-adv-x="441" 
d="M6 511h94l116 -239l116 239h94l-169 -329v-182h-82v182zM318 773l-128 -161h-67l104 161h91z" />
    <glyph glyph-name="thorn.sc" horiz-adv-x="428" 
d="M40 0v511h81v-90h66c125 0 205 -61 205 -165c0 -94 -75 -167 -196 -167h-74v-89h-82zM303 259c0 58 -42 86 -117 86h-64v-178h64c80 0 117 32 117 92z" />
    <glyph glyph-name="ydieresis.sc" horiz-adv-x="441" 
d="M6 511h94l116 -239l116 239h94l-169 -329v-182h-82v182zM50 612v94h94v-94h-94zM297 612v94h94v-94h-94z" />
    <glyph glyph-name="zcaron.sc" horiz-adv-x="431" 
d="M32 0v42l238 391h-215v78h332v-42l-241 -391h245v-78h-359zM373 779l-122 -154h-71l-123 154h80l78 -120l78 120h80z" />
    <glyph glyph-name="scaron.sc" horiz-adv-x="463" 
d="M408 412l-70 -44c-7 9 -14 16 -29 31c-22 22 -52 37 -88 37c-65 0 -94 -28 -94 -64c0 -41 36 -56 106 -59c115 -4 194 -62 192 -157c-1 -42 -16 -77 -44 -103c-39 -38 -102 -57 -159 -57c-59 0 -119 19 -165 61c-11 10 -17 17 -34 38l85 34c24 -27 66 -52 111 -52
c41 0 72 10 91 28c16 13 24 32 24 54c1 52 -37 75 -109 77c-119 3 -184 39 -184 133c0 40 14 70 40 95c35 35 87 50 140 50c59 -1 111 -21 151 -59c11 -10 23 -23 36 -43zM389 779l-122 -154h-71l-123 154h80l78 -120l78 120h80z" />
    <glyph glyph-name="A" unicode="A" horiz-adv-x="631" 
d="M526 0l-66 185h-292l-66 -185h-87l251 700h99l251 -700h-90zM315 593l-116 -323h231z" />
    <glyph glyph-name="ff2" horiz-adv-x="659" 
d="M267 -259l-8 85c68 8 138 51 138 130v460h-207v-416h-81v416h-94v84h94v87c1 109 51 168 178 168c54 0 101 -18 143 -51c26 33 68 51 128 51c36 0 82 -9 116 -26l-41 -80c-17 16 -44 23 -75 23c-47 0 -80 -31 -80 -85v-87h123v-84h-123v-457c0 -67 -23 -112 -57 -147
c-37 -37 -89 -62 -154 -71zM190 583v-83h207v118c-24 32 -64 55 -110 55c-78 0 -96 -44 -97 -90z" />
    <glyph glyph-name="Th" horiz-adv-x="1046" 
d="M564 750h81v-334c47 50 106 89 169 89c126 0 182 -85 182 -228v-277h-81v283c0 92 -42 140 -115 140c-94 0 -155 -84 -155 -179v-244h-81v616h-251v-616h-83v616h-205v84h539v50z" />
    <glyph glyph-name="oo" horiz-adv-x="940" 
d="M35 250c0 147 98 255 239 255c85 0 154 -40 196 -104c41 64 111 104 197 104c141 0 238 -108 238 -255s-97 -255 -238 -255c-86 0 -156 39 -197 103c-42 -64 -111 -103 -196 -103c-141 0 -239 108 -239 255zM514 250c0 -102 58 -172 153 -172c98 0 152 70 152 172
s-54 172 -152 172s-153 -70 -153 -172zM121 250c0 -102 58 -172 153 -172c98 0 152 70 152 172s-54 172 -152 172s-153 -70 -153 -172z" />
    <glyph glyph-name="ee" horiz-adv-x="901" 
d="M863 298c3 -31 3 -45 2 -74l-367 -14c13 -80 68 -132 150 -132c54 0 95 23 121 59l76 -36c-42 -64 -112 -106 -197 -106c-131 0 -225 94 -237 226l-288 -11c13 -80 68 -132 150 -132c45 0 81 17 107 43l57 -61c-42 -41 -99 -65 -164 -65c-140 0 -238 108 -238 255
s92 255 233 255c80 0 146 -39 185 -100c40 62 106 100 190 100c121 0 210 -87 220 -207zM643 422c-87 0 -135 -54 -146 -137l280 10c-9 79 -52 127 -134 127zM268 422c-87 0 -135 -54 -146 -137l280 10c-9 79 -52 127 -134 127z" />
    <glyph glyph-name="tt" horiz-adv-x="654" 
d="M408 622l81 21v-143h125v-85h-125l1 -247c0 -65 44 -90 101 -91l1 -82h-25c-108 3 -159 65 -159 157v263h-216l1 -247c0 -65 44 -90 101 -91l1 -82h-25c-108 3 -159 65 -159 157v263h-96v85h96v122l81 21v-143h216v122z" />
    </font>
</defs>
</svg>
