<?xml version="1.0" standalone="no"?>
<!DOCTYPE svg PUBLIC "-//W3C//DTD SVG 1.1//EN" "http://www.w3.org/Graphics/SVG/1.1/DTD/svg11.dtd" >
<svg xmlns="http://www.w3.org/2000/svg" xmlns:xlink="http://www.w3.org/1999/xlink" version="1.1">
<metadata>
Created by FontForge 20201107 at Mon Aug 16 04:12:19 2021
 By Jimmy Wärting
Vastine Personal Use
</metadata>
<defs>
<font id="VastinePersonalUse" horiz-adv-x="857" >
  <font-face 
    font-family="Vastine Personal Use"
    font-weight="400"
    font-stretch="normal"
    units-per-em="1000"
    panose-1="0 0 0 0 0 0 0 0 0 0"
    ascent="750"
    descent="-250"
    x-height="570"
    cap-height="700"
    bbox="-330 -215 5064 973"
    underline-thickness="50"
    underline-position="-150"
    unicode-range="U+0020-2265"
  />
<missing-glyph horiz-adv-x="250" 
 />
    <glyph glyph-name="dollar" unicode="VASTINE" horiz-adv-x="5078" 
d="M771 677h137c-128 -222 -255 -445 -383 -667h-96c-128 222 -255 445 -383 667h137c117 -204 177 -309 294 -513c117 204 178 309 294 513zM1110 677h97c127 -222 256 -445 383 -667h-138l-74 131l-439 -1l-75 -130h-137c128 222 255 445 383 667zM1007 259h303l-151 264z
M1819 558c-43 0 -78 -35 -78 -77c0 -43 34 -78 77 -78h329c107 0 196 -89 196 -197c0 -107 -88 -196 -196 -196h-328c-108 0 -197 88 -197 196h119c0 -41 33 -77 77 -77h328c44 0 78 34 78 78c0 43 -35 77 -77 77h-329c-50 0 -101 20 -136 56l-5 4c-34 36 -55 84 -55 137
c0 107 88 196 196 196h329c107 0 196 -88 196 -196h-118c-2 43 -36 77 -78 77h-328zM2421 558v119h721v-119h-301v-548h-119v548h-301zM3280 10v667h119v-667h-119zM4111 201v476h119v-667h-98l-469 476v-476h-119v667h99zM5064 558h-557v-155h502v-119h-502v-155h557v-119
h-677v667h677v-119z" />
    <glyph glyph-name=".notdef" horiz-adv-x="250" 
 />
    <glyph glyph-name=".null" horiz-adv-x="0" 
 />
    <glyph glyph-name=".null" horiz-adv-x="0" 
 />
    <glyph glyph-name="nonmarkingreturn" horiz-adv-x="250" 
 />
    <glyph glyph-name="space" unicode=" " horiz-adv-x="290" 
 />
    <glyph glyph-name="zero" unicode="0" horiz-adv-x="908" 
d="M40 541l-5 -22h-13l11 59c5 1 10 1 16 1c5 0 12 -1 16 -4c4 -2 7 -7 7 -12c0 -8 -4 -14 -8 -18c-5 -3 -13 -4 -20 -4h-4zM44 568l-2 -17c1 -1 1 -1 4 -1c8 0 13 5 13 12c0 5 -5 7 -10 7c-2 0 -4 0 -5 -1zM117 567h-23l-2 -12h22l-3 -11h-21l-3 -14h24l-2 -11h-37l11 60
h35zM135 543l-4 -24h-13l12 59c3 1 9 1 15 1s11 -1 16 -3c4 -3 7 -7 7 -11c0 -10 -7 -15 -14 -18c3 -2 5 -5 6 -11c0 -7 1 -14 1 -17h-12c0 2 -1 7 -2 14c0 8 -3 10 -8 10h-4zM140 568l-3 -16h5c7 0 13 5 13 11c0 4 -5 6 -10 6c-3 0 -4 0 -5 -1zM186 529c5 0 10 2 10 7
c0 3 -2 6 -8 8c-7 4 -12 8 -12 16c0 13 10 20 23 20c7 0 11 -2 14 -3l-4 -10c-2 0 -6 2 -11 1c-6 0 -9 -2 -9 -5c0 -4 3 -6 9 -9c7 -4 12 -9 12 -15c0 -14 -11 -21 -25 -21c-8 0 -14 2 -17 5l5 9c3 -1 7 -3 13 -3zM250 580c15 0 24 -11 24 -25c0 -11 -4 -22 -12 -29
c-4 -4 -12 -8 -21 -8c-15 0 -24 11 -24 25c0 10 5 22 11 28s13 9 22 9zM253 533c5 5 7 14 7 22c0 7 -2 14 -12 14c-4 0 -7 -2 -10 -4c-5 -5 -7 -15 -7 -21c0 -9 3 -15 12 -15c4 0 7 1 10 4zM293 540l-5 -21h-11l11 60h15l8 -23c2 -8 3 -14 5 -20c0 6 1 12 3 21l4 22h12
l-11 -60h-13l-9 24c-3 8 -4 14 -6 21c-1 -6 -2 -15 -3 -24zM353 534l-8 -15h-13l28 60h17l7 -60h-14l-1 15h-16zM362 557l-6 -13h13l-2 13v12c-2 -3 -4 -8 -5 -12zM402 579h13l-10 -49h23l-2 -11h-35zM473 579l-6 -35v-7c0 -5 3 -8 7 -8c7 0 12 4 14 15l6 35h14l-7 -35
c-4 -18 -11 -26 -28 -26c-12 0 -19 7 -19 19v8l6 34h13zM524 529c5 0 10 2 10 7c0 3 -3 6 -8 8c-7 4 -13 8 -13 16c0 13 11 20 24 20c7 0 12 -2 14 -3l-4 -10c-2 0 -7 2 -11 1c-6 0 -10 -2 -10 -5c0 -4 5 -6 10 -9c6 -4 11 -9 11 -15c0 -14 -11 -21 -24 -21
c-8 0 -15 2 -17 5l4 9c4 -1 8 -3 14 -3zM597 567h-22l-2 -12h21l-2 -11h-22l-2 -14h24l-3 -11h-36l11 60h35zM663 526c-6 -4 -12 -8 -22 -8c-15 0 -24 11 -24 25c0 10 4 22 12 28c4 6 12 9 21 9c16 0 24 -11 24 -25c0 -11 -3 -22 -11 -29zM630 544c0 -9 4 -15 13 -15
c4 0 8 1 9 4c5 5 9 14 9 22c0 7 -4 14 -13 14c-3 0 -7 -2 -10 -4c-5 -5 -8 -15 -8 -21zM697 564c0 -6 -2 -15 -4 -24l-4 -21h-13l12 60h15l8 -23c3 -8 5 -14 7 -20c0 6 1 12 2 21l3 22h13l-12 -60h-13l-9 24c-2 8 -4 14 -5 21zM748 579h12l-9 -49h22l-1 -11h-36zM799 544
l-4 -25h-13l5 25l-13 35h15l3 -15c1 -5 2 -8 3 -11c2 3 4 7 6 11l8 15h16zM837 525c0 5 3 9 9 9c4 0 7 -3 7 -8c0 -4 -4 -8 -9 -8s-7 4 -7 7zM861 579l-9 -40h-10l6 40h13zM54 294h-21v-17h19v-5h-19v-23h-7v50h28v-5zM93 268c0 -14 -10 -19 -18 -19c-10 0 -17 6 -17 18
s7 19 17 19c11 0 18 -7 18 -18zM65 267c0 -8 3 -14 10 -14s11 6 11 15c0 6 -3 13 -11 13s-10 -7 -10 -14zM107 249h-7v25v12h6l1 -8c2 5 6 8 10 8h1v-7c0 1 0 1 -1 1c-5 0 -8 -4 -9 -8c-1 -1 -1 -2 -1 -3v-20zM138 274c0 16 11 26 27 26c6 0 10 -1 12 -2l-2 -5
c-2 1 -6 2 -10 2c-12 0 -20 -8 -20 -21s7 -21 20 -21c3 0 8 2 10 3l2 -5c-2 -1 -7 -2 -14 -2c-14 0 -25 8 -25 25zM199 249c-10 0 -19 6 -19 18s9 19 19 19s18 -7 18 -18c0 -14 -10 -19 -18 -19zM199 281c-8 0 -12 -7 -12 -14c0 -8 5 -14 12 -14c6 0 11 6 11 15
c0 6 -4 13 -11 13zM276 249h-7v21c0 6 -2 11 -8 11c-3 0 -6 -3 -7 -7c0 0 -1 -1 -1 -2v-23h-6v23c0 4 -3 9 -7 9s-8 -4 -9 -7v-2v-23h-7v26v11h6v-7h1c1 4 5 7 11 7c5 0 8 -3 10 -7c1 2 3 3 5 5c1 2 3 2 7 2c5 0 12 -3 12 -15v-22zM338 271v-22h-6v21c0 6 -3 11 -8 11
c-4 0 -7 -3 -9 -7v-2v-23h-6v23c0 4 -3 9 -8 9c-4 0 -7 -4 -8 -7v-2v-23h-6v26c0 4 0 7 -1 11h6v-7h1c1 4 5 7 11 7c5 0 9 -3 9 -7l5 5s4 2 8 2c5 0 12 -3 12 -15zM379 270c0 -2 -1 -3 -1 -4h-25c0 -9 6 -13 12 -13c4 0 7 1 10 2l1 -4c-2 -1 -6 -2 -12 -2
c-11 0 -18 6 -18 18c0 10 7 19 17 19c12 0 16 -10 16 -16zM353 271h19c0 3 -2 10 -10 10c-6 0 -9 -6 -9 -10zM386 274v12h5l1 -8c2 5 6 8 10 8h2v-7c-1 1 -2 1 -3 1c-3 0 -7 -4 -8 -8v-3v-20h-7v25zM436 251c-2 -1 -6 -2 -11 -2c-11 0 -18 7 -18 18s8 19 19 19
c4 0 8 -1 10 -2l-2 -5c-1 1 -4 2 -8 2c-8 0 -12 -7 -12 -14c0 -8 4 -14 12 -14c4 0 7 2 9 2zM446 300c3 0 5 -2 5 -5c0 -1 -2 -3 -5 -3c-2 0 -4 2 -4 3c0 3 2 5 4 5zM443 249v37h7v-37h-7zM468 249c-7 0 -11 4 -11 9c0 10 8 15 22 15c0 3 -1 8 -8 8c-3 0 -7 -1 -9 -2l-2 4
c3 2 8 3 11 3c12 0 15 -7 15 -14v-14v-9h-6l-1 4c-2 -2 -6 -4 -11 -4zM479 268c-7 0 -15 -2 -15 -8c0 -5 3 -7 6 -7c4 0 7 3 9 6v2v7zM496 249v53h7v-53h-7zM513 258h8c-2 -6 -5 -14 -7 -18h-5c2 4 4 12 4 18zM545 249v49c3 1 7 2 12 2c6 0 11 -2 14 -5c4 -1 5 -5 5 -9
c0 -5 -1 -9 -4 -12c-4 -3 -9 -5 -15 -5c-2 0 -4 0 -6 1v-21h-6zM551 295v-21h6c7 0 12 3 12 11c0 7 -5 10 -11 10h-7zM584 249v53h6v-53h-6zM629 251c-3 -1 -7 -2 -13 -2c-11 0 -18 6 -18 18c0 10 7 19 17 19c12 0 15 -10 15 -16v-4h-25c0 -9 6 -13 12 -13c5 0 8 1 10 2z
M614 281c-6 0 -9 -6 -9 -10h19c0 3 -2 10 -10 10zM664 249h-6l-1 4c-1 -2 -5 -4 -11 -4c-7 0 -11 4 -11 9c0 10 8 15 22 15c0 3 -1 8 -7 8c-4 0 -8 -1 -10 -2l-2 4c3 2 8 3 12 3c11 0 14 -7 14 -14v-14v-9zM657 261v7c-6 0 -15 -2 -15 -8c0 -5 3 -7 6 -7c4 0 8 3 9 6v2z
M696 259c0 -6 -5 -10 -14 -10c-4 0 -8 1 -10 2l2 5c1 -1 4 -3 8 -3c5 0 7 2 7 5s-2 5 -7 7c-7 3 -9 7 -9 10c0 6 4 11 12 11c4 0 8 -1 10 -2l-2 -5c-1 1 -5 2 -8 2c-4 0 -6 -2 -6 -5c0 -2 2 -4 7 -6c7 -2 10 -5 10 -11zM733 270v-4h-25c0 -9 6 -13 12 -13c5 0 8 1 10 2l2 -4
c-3 -1 -7 -2 -13 -2c-11 0 -18 6 -18 18c0 10 7 19 18 19s14 -10 14 -16zM708 271h19c0 3 -2 10 -9 10s-10 -6 -10 -10zM784 299h6l-18 -50h-7l-16 50h7l8 -25c2 -6 4 -13 6 -18c1 5 3 12 5 18zM798 300c2 0 4 -2 4 -5c0 -1 -2 -3 -5 -3c-2 0 -3 2 -3 3c0 3 1 5 4 5z
M794 249v37h7v-37h-7zM820 253c5 0 7 2 7 5s-2 5 -7 7c-7 3 -10 7 -10 10c0 6 5 11 13 11c4 0 7 -1 9 -2l-1 -5c-2 1 -5 2 -8 2c-4 0 -7 -2 -7 -5c0 -2 3 -4 8 -6c6 -2 9 -5 9 -11s-5 -10 -13 -10c-5 0 -9 1 -11 2l2 5c2 -1 5 -3 9 -3zM845 300c2 0 4 -2 4 -5
c0 -1 -2 -3 -4 -3c-3 0 -5 2 -5 3c0 3 2 5 5 5zM849 286v-37h-7v37h7zM877 280h-10v-19c0 -5 1 -8 5 -8c2 0 3 1 5 1v-4c-2 -1 -4 -1 -7 -1s-5 1 -7 2c-2 2 -3 5 -3 9v20h-5v6h5v8l7 1v-9h10v-6zM245 140h-13v8c-5 -7 -10 -9 -16 -9c-10 0 -16 7 -16 19c0 18 13 34 32 34
c2 0 5 0 7 -1l4 23h16l-11 -54c-1 -7 -2 -14 -3 -20zM223 151c4 0 9 4 11 14l3 14c-1 1 -3 2 -6 2c-9 0 -16 -10 -16 -21c0 -6 3 -9 8 -9zM285 207c0 -6 -4 -10 -8 -10c-5 0 -8 3 -8 8c0 4 4 8 8 8c5 0 8 -3 8 -6zM282 191l-9 -51h-16l10 51h15zM316 140l6 29v5
c0 4 -2 6 -5 6c-4 0 -11 -6 -13 -17l-5 -23h-14l7 34c1 7 1 13 2 17h14l-2 -8h1c5 6 10 9 18 9c9 0 13 -4 13 -14c0 -2 -1 -6 -2 -8l-4 -30h-16zM345 162l3 11h27l-2 -11h-28zM404 181c-3 0 -6 -2 -6 -4c0 -3 2 -4 6 -6c6 -2 12 -7 12 -14c0 -12 -10 -18 -24 -18
c-7 0 -12 2 -15 4l4 10c2 0 7 -3 12 -3s7 3 7 4c0 3 -1 4 -6 7c-6 3 -12 8 -12 13c0 12 10 18 23 18c6 0 11 -1 13 -3l-3 -10c-2 1 -6 2 -11 2zM446 179l-4 -17c0 -2 -1 -5 -1 -7s1 -3 5 -3h5l-2 -12c-3 -1 -7 -1 -10 -1c-9 0 -13 4 -13 11c0 3 0 5 1 9l4 20h-6l1 12h7l3 11
l15 4l-3 -15h10l-2 -12h-10zM505 140h-13l1 9c-6 -8 -12 -10 -19 -10c-8 0 -13 4 -13 14c0 3 1 6 1 10l6 28h14l-5 -27c0 -2 -1 -6 -1 -7c0 -4 2 -6 6 -6c6 0 11 6 12 17l4 23h17l-7 -34c-1 -6 -3 -13 -3 -17zM564 140h-13l1 8c-5 -7 -12 -9 -17 -9c-9 0 -17 7 -17 19
c0 18 14 34 33 34c3 0 5 0 8 -1l3 23h15l-10 -54c-1 -7 -2 -14 -3 -20zM541 151c5 0 11 4 13 14l2 14c-1 1 -3 2 -6 2c-10 0 -15 -10 -15 -21c0 -6 3 -9 6 -9zM605 207c0 -6 -5 -10 -10 -10c-3 0 -7 3 -7 8c0 4 4 8 8 8c5 0 9 -3 9 -6zM601 191l-9 -51h-16l10 51h15z
M627 139c-13 0 -21 9 -21 21c0 18 12 32 30 32c14 0 22 -9 22 -21c0 -18 -13 -32 -31 -32zM634 181c-8 0 -13 -12 -13 -21c0 -6 3 -9 9 -9c8 0 13 11 13 20c0 5 -3 10 -9 10zM671 139c-6 0 -9 4 -9 9s4 10 10 10c5 0 9 -4 9 -9c0 -6 -5 -10 -10 -10zM723 180
c-10 0 -17 -9 -17 -18c0 -8 5 -11 11 -11c3 0 7 2 10 2v-12c-4 -1 -8 -2 -14 -2c-14 0 -22 8 -22 21c0 18 13 32 33 32c4 0 8 -1 11 -2l-4 -11c-2 0 -4 1 -8 1zM757 139c-13 0 -21 9 -21 21c0 18 12 32 30 32c13 0 22 -9 22 -21c0 -18 -14 -32 -31 -32zM764 181
c-9 0 -13 -12 -13 -21c0 -6 3 -9 7 -9c9 0 14 11 14 20c0 5 -2 10 -8 10zM853 140l4 29c1 1 1 3 1 5c0 4 -2 6 -4 6c-5 0 -11 -7 -13 -16l-4 -24h-15l6 29v5c0 4 -1 6 -5 6c-5 0 -10 -7 -13 -17l-3 -23h-15l7 34c1 7 1 13 2 17h13l-1 -8c5 6 12 9 18 9c8 0 12 -4 12 -9
c5 6 12 9 18 9c8 0 13 -4 13 -13c0 -3 -1 -7 -1 -9l-6 -30h-14zM81 328c-39 1 -61 21 -61 48c0 22 13 28 20 28c16 0 21 -17 13 -24c0 13 -24 15 -24 -6c0 -23 21 -37 52 -37c40 0 48 41 48 71c0 21 1 65 -29 65c-1 0 -4 -1 -4 -11v-32v-1v-54c0 -12 7 -12 7 -12v-4h-44v4
s6 0 7 10v0v91c0 8 -1 14 -11 14c-6 0 -10 -4 -10 -6c0 -8 9 -7 9 -7c0 -11 -8 -13 -12 -13c-13 0 -14 11 -14 13c0 13 16 20 27 20c18 0 24 -7 45 -7c31 0 58 -16 58 -70c0 -38 -23 -82 -77 -80zM213 363v-4h-45v4s7 0 8 10v48c-1 11 -8 11 -8 11v3l36 7v-67
c0 -12 9 -12 9 -12zM191 475c8 0 13 -6 13 -13c0 -8 -5 -14 -13 -14s-13 6 -13 14c0 7 5 13 13 13zM259 432c4 4 12 11 24 11c13 0 25 -9 25 -26v-42c0 -11 5 -12 7 -12v-4h-44v4s6 0 7 10v47c0 14 -19 12 -19 -3v-42c0 -12 8 -12 8 -12v-4h-44v4s6 0 7 10v48
c-1 11 -7 11 -7 11v3l36 7v-10zM395 448c0 0 0 30 44 30c22 0 26 -9 35 -3c2 1 3 2 6 2v-30l-4 -1s-4 25 -37 25c-21 0 -28 -25 -14 -31c18 -8 70 -10 69 -52c-1 -17 -18 -29 -50 -29c-31 0 -34 8 -40 0h-4v31h4c0 -13 21 -22 39 -22c32 0 31 28 8 35c-21 6 -56 13 -56 45z
M544 438c0 0 -6 1 -8 -8v-57c1 -10 8 -10 8 -10v-4h-12c-10 0 -25 0 -25 23v47c-1 10 -9 9 -9 9v4c21 0 26 11 38 11v-11h8v-4zM552 438v5h43v-5s-6 1 -6 -9v-44c0 -20 19 -13 19 0v42c0 12 -7 11 -7 11v5h44v-5s-8 1 -9 -9v-56c1 -10 9 -10 9 -10v-4h-21
c-10 0 -16 8 -16 13c-3 -5 -9 -13 -21 -13s-27 8 -27 26v42c0 11 -7 11 -8 11zM769 340c0 -7 -5 -12 -16 -12c-10 0 -42 3 -47 34c-5 -2 -9 -3 -14 -3c-22 0 -41 19 -41 42s19 42 41 42c5 0 9 -2 13 -3v38l37 -6v-4s-7 1 -8 -11v-87c1 -25 8 -35 20 -37c-2 2 -3 5 -3 7
c0 5 3 9 9 9c5 0 9 -4 9 -9zM692 366c11 0 13 16 13 35c0 20 -2 36 -13 36s-13 -16 -13 -36c0 -19 2 -35 13 -35zM791 363v-4h-44v4s7 0 7 10v48c0 11 -7 11 -7 11v3l37 7v-67c0 -12 7 -12 7 -12zM756 462c0 7 6 13 14 13c7 0 13 -6 13 -13c0 -8 -6 -14 -13 -14
c-8 0 -14 6 -14 14zM875 401c0 -23 -19 -42 -42 -42s-41 19 -41 42s18 41 41 41s42 -18 42 -41zM833 366c12 0 13 16 13 35c0 20 -1 35 -13 35c-11 0 -12 -15 -12 -35c0 -19 1 -35 12 -35zM26 151v20h154v-20h-154zM460 605h-93l70 89h95zM876 605h-89l71 89h18v-89z
M180 605h-94l72 89h94zM600 605h-93l71 89h94zM112 694l-72 -89h-14v89h86zM320 605h-93l71 89h94zM741 605h-94l72 89h92zM437 113h95l-72 -90h-93zM787 23l71 90h18v-90h-89zM158 113h94l-72 -90h-94zM578 113h94l-72 -90h-93zM26 113h86l-72 -90h-14v90zM298 113h94
l-72 -90h-93zM719 113h92l-70 -90h-94z" />
    <glyph glyph-name="one" unicode="1" horiz-adv-x="908" 
d="M40 541l-5 -22h-13l11 59c5 1 10 1 16 1c5 0 12 -1 16 -4c4 -2 7 -7 7 -12c0 -8 -4 -14 -8 -18c-5 -3 -13 -4 -20 -4h-4zM44 568l-2 -17c1 -1 1 -1 4 -1c8 0 13 5 13 12c0 5 -5 7 -10 7c-2 0 -4 0 -5 -1zM117 567h-23l-2 -12h22l-3 -11h-21l-3 -14h24l-2 -11h-37l11 60
h35zM135 543l-4 -24h-13l12 59c3 1 9 1 15 1s11 -1 16 -3c4 -3 7 -7 7 -11c0 -10 -7 -15 -14 -18c3 -2 5 -5 6 -11c0 -7 1 -14 1 -17h-12c0 2 -1 7 -2 14c0 8 -3 10 -8 10h-4zM140 568l-3 -16h5c7 0 13 5 13 11c0 4 -5 6 -10 6c-3 0 -4 0 -5 -1zM186 529c5 0 10 2 10 7
c0 3 -2 6 -8 8c-7 4 -12 8 -12 16c0 13 10 20 23 20c7 0 11 -2 14 -3l-4 -10c-2 0 -6 2 -11 1c-6 0 -9 -2 -9 -5c0 -4 3 -6 9 -9c7 -4 12 -9 12 -15c0 -14 -11 -21 -25 -21c-8 0 -14 2 -17 5l5 9c3 -1 7 -3 13 -3zM250 580c15 0 24 -11 24 -25c0 -11 -4 -22 -12 -29
c-4 -4 -12 -8 -21 -8c-15 0 -24 11 -24 25c0 10 5 22 11 28s13 9 22 9zM253 533c5 5 7 14 7 22c0 7 -2 14 -12 14c-4 0 -7 -2 -10 -4c-5 -5 -7 -15 -7 -21c0 -9 3 -15 12 -15c4 0 7 1 10 4zM293 540l-5 -21h-11l11 60h15l8 -23c2 -8 3 -14 5 -20c0 6 1 12 3 21l4 22h12
l-11 -60h-13l-9 24c-3 8 -4 14 -6 21c-1 -6 -2 -15 -3 -24zM353 534l-8 -15h-13l28 60h17l7 -60h-14l-1 15h-16zM362 557l-6 -13h13l-2 13v12c-2 -3 -4 -8 -5 -12zM402 579h13l-10 -49h23l-2 -11h-35zM473 579l-6 -35v-7c0 -5 3 -8 7 -8c7 0 12 4 14 15l6 35h14l-7 -35
c-4 -18 -11 -26 -28 -26c-12 0 -19 7 -19 19v8l6 34h13zM524 529c5 0 10 2 10 7c0 3 -3 6 -8 8c-7 4 -13 8 -13 16c0 13 11 20 24 20c7 0 12 -2 14 -3l-4 -10c-2 0 -7 2 -11 1c-6 0 -10 -2 -10 -5c0 -4 5 -6 10 -9c6 -4 11 -9 11 -15c0 -14 -11 -21 -24 -21
c-8 0 -15 2 -17 5l4 9c4 -1 8 -3 14 -3zM597 567h-22l-2 -12h21l-2 -11h-22l-2 -14h24l-3 -11h-36l11 60h35zM663 526c-6 -4 -12 -8 -22 -8c-15 0 -24 11 -24 25c0 10 4 22 12 28c4 6 12 9 21 9c16 0 24 -11 24 -25c0 -11 -3 -22 -11 -29zM630 544c0 -9 4 -15 13 -15
c4 0 8 1 9 4c5 5 9 14 9 22c0 7 -4 14 -13 14c-3 0 -7 -2 -10 -4c-5 -5 -8 -15 -8 -21zM697 564c0 -6 -2 -15 -4 -24l-4 -21h-13l12 60h15l8 -23c3 -8 5 -14 7 -20c0 6 1 12 2 21l3 22h13l-12 -60h-13l-9 24c-2 8 -4 14 -5 21zM748 579h12l-9 -49h22l-1 -11h-36zM799 544
l-4 -25h-13l5 25l-13 35h15l3 -15c1 -5 2 -8 3 -11c2 3 4 7 6 11l8 15h16zM837 525c0 5 3 9 9 9c4 0 7 -3 7 -8c0 -4 -4 -8 -9 -8s-7 4 -7 7zM861 579l-9 -40h-10l6 40h13zM54 294h-21v-17h19v-5h-19v-23h-7v50h28v-5zM93 268c0 -14 -10 -19 -18 -19c-10 0 -17 6 -17 18
s7 19 17 19c11 0 18 -7 18 -18zM65 267c0 -8 3 -14 10 -14s11 6 11 15c0 6 -3 13 -11 13s-10 -7 -10 -14zM107 249h-7v25v12h6l1 -8c2 5 6 8 10 8h1v-7c0 1 0 1 -1 1c-5 0 -8 -4 -9 -8c-1 -1 -1 -2 -1 -3v-20zM138 274c0 16 11 26 27 26c6 0 10 -1 12 -2l-2 -5
c-2 1 -6 2 -10 2c-12 0 -20 -8 -20 -21s7 -21 20 -21c3 0 8 2 10 3l2 -5c-2 -1 -7 -2 -14 -2c-14 0 -25 8 -25 25zM199 249c-10 0 -19 6 -19 18s9 19 19 19s18 -7 18 -18c0 -14 -10 -19 -18 -19zM199 281c-8 0 -12 -7 -12 -14c0 -8 5 -14 12 -14c6 0 11 6 11 15
c0 6 -4 13 -11 13zM276 249h-7v21c0 6 -2 11 -8 11c-3 0 -6 -3 -7 -7c0 0 -1 -1 -1 -2v-23h-6v23c0 4 -3 9 -7 9s-8 -4 -9 -7v-2v-23h-7v26v11h6v-7h1c1 4 5 7 11 7c5 0 8 -3 10 -7c1 2 3 3 5 5c1 2 3 2 7 2c5 0 12 -3 12 -15v-22zM338 271v-22h-6v21c0 6 -3 11 -8 11
c-4 0 -7 -3 -9 -7v-2v-23h-6v23c0 4 -3 9 -8 9c-4 0 -7 -4 -8 -7v-2v-23h-6v26c0 4 0 7 -1 11h6v-7h1c1 4 5 7 11 7c5 0 9 -3 9 -7l5 5s4 2 8 2c5 0 12 -3 12 -15zM379 270c0 -2 -1 -3 -1 -4h-25c0 -9 6 -13 12 -13c4 0 7 1 10 2l1 -4c-2 -1 -6 -2 -12 -2
c-11 0 -18 6 -18 18c0 10 7 19 17 19c12 0 16 -10 16 -16zM353 271h19c0 3 -2 10 -10 10c-6 0 -9 -6 -9 -10zM386 274v12h5l1 -8c2 5 6 8 10 8h2v-7c-1 1 -2 1 -3 1c-3 0 -7 -4 -8 -8v-3v-20h-7v25zM436 251c-2 -1 -6 -2 -11 -2c-11 0 -18 7 -18 18s8 19 19 19
c4 0 8 -1 10 -2l-2 -5c-1 1 -4 2 -8 2c-8 0 -12 -7 -12 -14c0 -8 4 -14 12 -14c4 0 7 2 9 2zM446 300c3 0 5 -2 5 -5c0 -1 -2 -3 -5 -3c-2 0 -4 2 -4 3c0 3 2 5 4 5zM443 249v37h7v-37h-7zM468 249c-7 0 -11 4 -11 9c0 10 8 15 22 15c0 3 -1 8 -8 8c-3 0 -7 -1 -9 -2l-2 4
c3 2 8 3 11 3c12 0 15 -7 15 -14v-14v-9h-6l-1 4c-2 -2 -6 -4 -11 -4zM479 268c-7 0 -15 -2 -15 -8c0 -5 3 -7 6 -7c4 0 7 3 9 6v2v7zM496 249v53h7v-53h-7zM513 258h8c-2 -6 -5 -14 -7 -18h-5c2 4 4 12 4 18zM545 249v49c3 1 7 2 12 2c6 0 11 -2 14 -5c4 -1 5 -5 5 -9
c0 -5 -1 -9 -4 -12c-4 -3 -9 -5 -15 -5c-2 0 -4 0 -6 1v-21h-6zM551 295v-21h6c7 0 12 3 12 11c0 7 -5 10 -11 10h-7zM584 249v53h6v-53h-6zM629 251c-3 -1 -7 -2 -13 -2c-11 0 -18 6 -18 18c0 10 7 19 17 19c12 0 15 -10 15 -16v-4h-25c0 -9 6 -13 12 -13c5 0 8 1 10 2z
M614 281c-6 0 -9 -6 -9 -10h19c0 3 -2 10 -10 10zM664 249h-6l-1 4c-1 -2 -5 -4 -11 -4c-7 0 -11 4 -11 9c0 10 8 15 22 15c0 3 -1 8 -7 8c-4 0 -8 -1 -10 -2l-2 4c3 2 8 3 12 3c11 0 14 -7 14 -14v-14v-9zM657 261v7c-6 0 -15 -2 -15 -8c0 -5 3 -7 6 -7c4 0 8 3 9 6v2z
M696 259c0 -6 -5 -10 -14 -10c-4 0 -8 1 -10 2l2 5c1 -1 4 -3 8 -3c5 0 7 2 7 5s-2 5 -7 7c-7 3 -9 7 -9 10c0 6 4 11 12 11c4 0 8 -1 10 -2l-2 -5c-1 1 -5 2 -8 2c-4 0 -6 -2 -6 -5c0 -2 2 -4 7 -6c7 -2 10 -5 10 -11zM733 270v-4h-25c0 -9 6 -13 12 -13c5 0 8 1 10 2l2 -4
c-3 -1 -7 -2 -13 -2c-11 0 -18 6 -18 18c0 10 7 19 18 19s14 -10 14 -16zM708 271h19c0 3 -2 10 -9 10s-10 -6 -10 -10zM784 299h6l-18 -50h-7l-16 50h7l8 -25c2 -6 4 -13 6 -18c1 5 3 12 5 18zM798 300c2 0 4 -2 4 -5c0 -1 -2 -3 -5 -3c-2 0 -3 2 -3 3c0 3 1 5 4 5z
M794 249v37h7v-37h-7zM820 253c5 0 7 2 7 5s-2 5 -7 7c-7 3 -10 7 -10 10c0 6 5 11 13 11c4 0 7 -1 9 -2l-1 -5c-2 1 -5 2 -8 2c-4 0 -7 -2 -7 -5c0 -2 3 -4 8 -6c6 -2 9 -5 9 -11s-5 -10 -13 -10c-5 0 -9 1 -11 2l2 5c2 -1 5 -3 9 -3zM845 300c2 0 4 -2 4 -5
c0 -1 -2 -3 -4 -3c-3 0 -5 2 -5 3c0 3 2 5 5 5zM849 286v-37h-7v37h7zM877 280h-10v-19c0 -5 1 -8 5 -8c2 0 3 1 5 1v-4c-2 -1 -4 -1 -7 -1s-5 1 -7 2c-2 2 -3 5 -3 9v20h-5v6h5v8l7 1v-9h10v-6zM245 140h-13v8c-5 -7 -10 -9 -16 -9c-10 0 -16 7 -16 19c0 18 13 34 32 34
c2 0 5 0 7 -1l4 23h16l-11 -54c-1 -7 -2 -14 -3 -20zM223 151c4 0 9 4 11 14l3 14c-1 1 -3 2 -6 2c-9 0 -16 -10 -16 -21c0 -6 3 -9 8 -9zM285 207c0 -6 -4 -10 -8 -10c-5 0 -8 3 -8 8c0 4 4 8 8 8c5 0 8 -3 8 -6zM282 191l-9 -51h-16l10 51h15zM316 140l6 29v5
c0 4 -2 6 -5 6c-4 0 -11 -6 -13 -17l-5 -23h-14l7 34c1 7 1 13 2 17h14l-2 -8h1c5 6 10 9 18 9c9 0 13 -4 13 -14c0 -2 -1 -6 -2 -8l-4 -30h-16zM345 162l3 11h27l-2 -11h-28zM404 181c-3 0 -6 -2 -6 -4c0 -3 2 -4 6 -6c6 -2 12 -7 12 -14c0 -12 -10 -18 -24 -18
c-7 0 -12 2 -15 4l4 10c2 0 7 -3 12 -3s7 3 7 4c0 3 -1 4 -6 7c-6 3 -12 8 -12 13c0 12 10 18 23 18c6 0 11 -1 13 -3l-3 -10c-2 1 -6 2 -11 2zM446 179l-4 -17c0 -2 -1 -5 -1 -7s1 -3 5 -3h5l-2 -12c-3 -1 -7 -1 -10 -1c-9 0 -13 4 -13 11c0 3 0 5 1 9l4 20h-6l1 12h7l3 11
l15 4l-3 -15h10l-2 -12h-10zM505 140h-13l1 9c-6 -8 -12 -10 -19 -10c-8 0 -13 4 -13 14c0 3 1 6 1 10l6 28h14l-5 -27c0 -2 -1 -6 -1 -7c0 -4 2 -6 6 -6c6 0 11 6 12 17l4 23h17l-7 -34c-1 -6 -3 -13 -3 -17zM564 140h-13l1 8c-5 -7 -12 -9 -17 -9c-9 0 -17 7 -17 19
c0 18 14 34 33 34c3 0 5 0 8 -1l3 23h15l-10 -54c-1 -7 -2 -14 -3 -20zM541 151c5 0 11 4 13 14l2 14c-1 1 -3 2 -6 2c-10 0 -15 -10 -15 -21c0 -6 3 -9 6 -9zM605 207c0 -6 -5 -10 -10 -10c-3 0 -7 3 -7 8c0 4 4 8 8 8c5 0 9 -3 9 -6zM601 191l-9 -51h-16l10 51h15z
M627 139c-13 0 -21 9 -21 21c0 18 12 32 30 32c14 0 22 -9 22 -21c0 -18 -13 -32 -31 -32zM634 181c-8 0 -13 -12 -13 -21c0 -6 3 -9 9 -9c8 0 13 11 13 20c0 5 -3 10 -9 10zM671 139c-6 0 -9 4 -9 9s4 10 10 10c5 0 9 -4 9 -9c0 -6 -5 -10 -10 -10zM723 180
c-10 0 -17 -9 -17 -18c0 -8 5 -11 11 -11c3 0 7 2 10 2v-12c-4 -1 -8 -2 -14 -2c-14 0 -22 8 -22 21c0 18 13 32 33 32c4 0 8 -1 11 -2l-4 -11c-2 0 -4 1 -8 1zM757 139c-13 0 -21 9 -21 21c0 18 12 32 30 32c13 0 22 -9 22 -21c0 -18 -14 -32 -31 -32zM764 181
c-9 0 -13 -12 -13 -21c0 -6 3 -9 7 -9c9 0 14 11 14 20c0 5 -2 10 -8 10zM853 140l4 29c1 1 1 3 1 5c0 4 -2 6 -4 6c-5 0 -11 -7 -13 -16l-4 -24h-15l6 29v5c0 4 -1 6 -5 6c-5 0 -10 -7 -13 -17l-3 -23h-15l7 34c1 7 1 13 2 17h13l-1 -8c5 6 12 9 18 9c8 0 12 -4 12 -9
c5 6 12 9 18 9c8 0 13 -4 13 -13c0 -3 -1 -7 -1 -9l-6 -30h-14zM81 328c-39 1 -61 21 -61 48c0 22 13 28 20 28c16 0 21 -17 13 -24c0 13 -24 15 -24 -6c0 -23 21 -37 52 -37c40 0 48 41 48 71c0 21 1 65 -29 65c-1 0 -4 -1 -4 -11v-32v-1v-54c0 -12 7 -12 7 -12v-4h-44v4
s6 0 7 10v0v91c0 8 -1 14 -11 14c-6 0 -10 -4 -10 -6c0 -8 9 -7 9 -7c0 -11 -8 -13 -12 -13c-13 0 -14 11 -14 13c0 13 16 20 27 20c18 0 24 -7 45 -7c31 0 58 -16 58 -70c0 -38 -23 -82 -77 -80zM213 363v-4h-45v4s7 0 8 10v48c-1 11 -8 11 -8 11v3l36 7v-67
c0 -12 9 -12 9 -12zM191 475c8 0 13 -6 13 -13c0 -8 -5 -14 -13 -14s-13 6 -13 14c0 7 5 13 13 13zM259 432c4 4 12 11 24 11c13 0 25 -9 25 -26v-42c0 -11 5 -12 7 -12v-4h-44v4s6 0 7 10v47c0 14 -19 12 -19 -3v-42c0 -12 8 -12 8 -12v-4h-44v4s6 0 7 10v48
c-1 11 -7 11 -7 11v3l36 7v-10zM395 448c0 0 0 30 44 30c22 0 26 -9 35 -3c2 1 3 2 6 2v-30l-4 -1s-4 25 -37 25c-21 0 -28 -25 -14 -31c18 -8 70 -10 69 -52c-1 -17 -18 -29 -50 -29c-31 0 -34 8 -40 0h-4v31h4c0 -13 21 -22 39 -22c32 0 31 28 8 35c-21 6 -56 13 -56 45z
M544 438c0 0 -6 1 -8 -8v-57c1 -10 8 -10 8 -10v-4h-12c-10 0 -25 0 -25 23v47c-1 10 -9 9 -9 9v4c21 0 26 11 38 11v-11h8v-4zM552 438v5h43v-5s-6 1 -6 -9v-44c0 -20 19 -13 19 0v42c0 12 -7 11 -7 11v5h44v-5s-8 1 -9 -9v-56c1 -10 9 -10 9 -10v-4h-21
c-10 0 -16 8 -16 13c-3 -5 -9 -13 -21 -13s-27 8 -27 26v42c0 11 -7 11 -8 11zM769 340c0 -7 -5 -12 -16 -12c-10 0 -42 3 -47 34c-5 -2 -9 -3 -14 -3c-22 0 -41 19 -41 42s19 42 41 42c5 0 9 -2 13 -3v38l37 -6v-4s-7 1 -8 -11v-87c1 -25 8 -35 20 -37c-2 2 -3 5 -3 7
c0 5 3 9 9 9c5 0 9 -4 9 -9zM692 366c11 0 13 16 13 35c0 20 -2 36 -13 36s-13 -16 -13 -36c0 -19 2 -35 13 -35zM791 363v-4h-44v4s7 0 7 10v48c0 11 -7 11 -7 11v3l37 7v-67c0 -12 7 -12 7 -12zM756 462c0 7 6 13 14 13c7 0 13 -6 13 -13c0 -8 -6 -14 -13 -14
c-8 0 -14 6 -14 14zM875 401c0 -23 -19 -42 -42 -42s-41 19 -41 42s18 41 41 41s42 -18 42 -41zM833 366c12 0 13 16 13 35c0 20 -1 35 -13 35c-11 0 -12 -15 -12 -35c0 -19 1 -35 12 -35zM26 151v20h154v-20h-154zM460 605h-93l70 89h95zM876 605h-89l71 89h18v-89z
M180 605h-94l72 89h94zM600 605h-93l71 89h94zM112 694l-72 -89h-14v89h86zM320 605h-93l71 89h94zM741 605h-94l72 89h92zM437 113h95l-72 -90h-93zM787 23l71 90h18v-90h-89zM158 113h94l-72 -90h-94zM578 113h94l-72 -90h-93zM26 113h86l-72 -90h-14v90zM298 113h94
l-72 -90h-93zM719 113h92l-70 -90h-94z" />
    <glyph glyph-name="two" unicode="2" horiz-adv-x="908" 
d="M40 541l-5 -22h-13l11 59c5 1 10 1 16 1c5 0 12 -1 16 -4c4 -2 7 -7 7 -12c0 -8 -4 -14 -8 -18c-5 -3 -13 -4 -20 -4h-4zM44 568l-2 -17c1 -1 1 -1 4 -1c8 0 13 5 13 12c0 5 -5 7 -10 7c-2 0 -4 0 -5 -1zM117 567h-23l-2 -12h22l-3 -11h-21l-3 -14h24l-2 -11h-37l11 60
h35zM135 543l-4 -24h-13l12 59c3 1 9 1 15 1s11 -1 16 -3c4 -3 7 -7 7 -11c0 -10 -7 -15 -14 -18c3 -2 5 -5 6 -11c0 -7 1 -14 1 -17h-12c0 2 -1 7 -2 14c0 8 -3 10 -8 10h-4zM140 568l-3 -16h5c7 0 13 5 13 11c0 4 -5 6 -10 6c-3 0 -4 0 -5 -1zM186 529c5 0 10 2 10 7
c0 3 -2 6 -8 8c-7 4 -12 8 -12 16c0 13 10 20 23 20c7 0 11 -2 14 -3l-4 -10c-2 0 -6 2 -11 1c-6 0 -9 -2 -9 -5c0 -4 3 -6 9 -9c7 -4 12 -9 12 -15c0 -14 -11 -21 -25 -21c-8 0 -14 2 -17 5l5 9c3 -1 7 -3 13 -3zM250 580c15 0 24 -11 24 -25c0 -11 -4 -22 -12 -29
c-4 -4 -12 -8 -21 -8c-15 0 -24 11 -24 25c0 10 5 22 11 28s13 9 22 9zM253 533c5 5 7 14 7 22c0 7 -2 14 -12 14c-4 0 -7 -2 -10 -4c-5 -5 -7 -15 -7 -21c0 -9 3 -15 12 -15c4 0 7 1 10 4zM293 540l-5 -21h-11l11 60h15l8 -23c2 -8 3 -14 5 -20c0 6 1 12 3 21l4 22h12
l-11 -60h-13l-9 24c-3 8 -4 14 -6 21c-1 -6 -2 -15 -3 -24zM353 534l-8 -15h-13l28 60h17l7 -60h-14l-1 15h-16zM362 557l-6 -13h13l-2 13v12c-2 -3 -4 -8 -5 -12zM402 579h13l-10 -49h23l-2 -11h-35zM473 579l-6 -35v-7c0 -5 3 -8 7 -8c7 0 12 4 14 15l6 35h14l-7 -35
c-4 -18 -11 -26 -28 -26c-12 0 -19 7 -19 19v8l6 34h13zM524 529c5 0 10 2 10 7c0 3 -3 6 -8 8c-7 4 -13 8 -13 16c0 13 11 20 24 20c7 0 12 -2 14 -3l-4 -10c-2 0 -7 2 -11 1c-6 0 -10 -2 -10 -5c0 -4 5 -6 10 -9c6 -4 11 -9 11 -15c0 -14 -11 -21 -24 -21
c-8 0 -15 2 -17 5l4 9c4 -1 8 -3 14 -3zM597 567h-22l-2 -12h21l-2 -11h-22l-2 -14h24l-3 -11h-36l11 60h35zM663 526c-6 -4 -12 -8 -22 -8c-15 0 -24 11 -24 25c0 10 4 22 12 28c4 6 12 9 21 9c16 0 24 -11 24 -25c0 -11 -3 -22 -11 -29zM630 544c0 -9 4 -15 13 -15
c4 0 8 1 9 4c5 5 9 14 9 22c0 7 -4 14 -13 14c-3 0 -7 -2 -10 -4c-5 -5 -8 -15 -8 -21zM697 564c0 -6 -2 -15 -4 -24l-4 -21h-13l12 60h15l8 -23c3 -8 5 -14 7 -20c0 6 1 12 2 21l3 22h13l-12 -60h-13l-9 24c-2 8 -4 14 -5 21zM748 579h12l-9 -49h22l-1 -11h-36zM799 544
l-4 -25h-13l5 25l-13 35h15l3 -15c1 -5 2 -8 3 -11c2 3 4 7 6 11l8 15h16zM837 525c0 5 3 9 9 9c4 0 7 -3 7 -8c0 -4 -4 -8 -9 -8s-7 4 -7 7zM861 579l-9 -40h-10l6 40h13zM54 294h-21v-17h19v-5h-19v-23h-7v50h28v-5zM93 268c0 -14 -10 -19 -18 -19c-10 0 -17 6 -17 18
s7 19 17 19c11 0 18 -7 18 -18zM65 267c0 -8 3 -14 10 -14s11 6 11 15c0 6 -3 13 -11 13s-10 -7 -10 -14zM107 249h-7v25v12h6l1 -8c2 5 6 8 10 8h1v-7c0 1 0 1 -1 1c-5 0 -8 -4 -9 -8c-1 -1 -1 -2 -1 -3v-20zM138 274c0 16 11 26 27 26c6 0 10 -1 12 -2l-2 -5
c-2 1 -6 2 -10 2c-12 0 -20 -8 -20 -21s7 -21 20 -21c3 0 8 2 10 3l2 -5c-2 -1 -7 -2 -14 -2c-14 0 -25 8 -25 25zM199 249c-10 0 -19 6 -19 18s9 19 19 19s18 -7 18 -18c0 -14 -10 -19 -18 -19zM199 281c-8 0 -12 -7 -12 -14c0 -8 5 -14 12 -14c6 0 11 6 11 15
c0 6 -4 13 -11 13zM276 249h-7v21c0 6 -2 11 -8 11c-3 0 -6 -3 -7 -7c0 0 -1 -1 -1 -2v-23h-6v23c0 4 -3 9 -7 9s-8 -4 -9 -7v-2v-23h-7v26v11h6v-7h1c1 4 5 7 11 7c5 0 8 -3 10 -7c1 2 3 3 5 5c1 2 3 2 7 2c5 0 12 -3 12 -15v-22zM338 271v-22h-6v21c0 6 -3 11 -8 11
c-4 0 -7 -3 -9 -7v-2v-23h-6v23c0 4 -3 9 -8 9c-4 0 -7 -4 -8 -7v-2v-23h-6v26c0 4 0 7 -1 11h6v-7h1c1 4 5 7 11 7c5 0 9 -3 9 -7l5 5s4 2 8 2c5 0 12 -3 12 -15zM379 270c0 -2 -1 -3 -1 -4h-25c0 -9 6 -13 12 -13c4 0 7 1 10 2l1 -4c-2 -1 -6 -2 -12 -2
c-11 0 -18 6 -18 18c0 10 7 19 17 19c12 0 16 -10 16 -16zM353 271h19c0 3 -2 10 -10 10c-6 0 -9 -6 -9 -10zM386 274v12h5l1 -8c2 5 6 8 10 8h2v-7c-1 1 -2 1 -3 1c-3 0 -7 -4 -8 -8v-3v-20h-7v25zM436 251c-2 -1 -6 -2 -11 -2c-11 0 -18 7 -18 18s8 19 19 19
c4 0 8 -1 10 -2l-2 -5c-1 1 -4 2 -8 2c-8 0 -12 -7 -12 -14c0 -8 4 -14 12 -14c4 0 7 2 9 2zM446 300c3 0 5 -2 5 -5c0 -1 -2 -3 -5 -3c-2 0 -4 2 -4 3c0 3 2 5 4 5zM443 249v37h7v-37h-7zM468 249c-7 0 -11 4 -11 9c0 10 8 15 22 15c0 3 -1 8 -8 8c-3 0 -7 -1 -9 -2l-2 4
c3 2 8 3 11 3c12 0 15 -7 15 -14v-14v-9h-6l-1 4c-2 -2 -6 -4 -11 -4zM479 268c-7 0 -15 -2 -15 -8c0 -5 3 -7 6 -7c4 0 7 3 9 6v2v7zM496 249v53h7v-53h-7zM513 258h8c-2 -6 -5 -14 -7 -18h-5c2 4 4 12 4 18zM545 249v49c3 1 7 2 12 2c6 0 11 -2 14 -5c4 -1 5 -5 5 -9
c0 -5 -1 -9 -4 -12c-4 -3 -9 -5 -15 -5c-2 0 -4 0 -6 1v-21h-6zM551 295v-21h6c7 0 12 3 12 11c0 7 -5 10 -11 10h-7zM584 249v53h6v-53h-6zM629 251c-3 -1 -7 -2 -13 -2c-11 0 -18 6 -18 18c0 10 7 19 17 19c12 0 15 -10 15 -16v-4h-25c0 -9 6 -13 12 -13c5 0 8 1 10 2z
M614 281c-6 0 -9 -6 -9 -10h19c0 3 -2 10 -10 10zM664 249h-6l-1 4c-1 -2 -5 -4 -11 -4c-7 0 -11 4 -11 9c0 10 8 15 22 15c0 3 -1 8 -7 8c-4 0 -8 -1 -10 -2l-2 4c3 2 8 3 12 3c11 0 14 -7 14 -14v-14v-9zM657 261v7c-6 0 -15 -2 -15 -8c0 -5 3 -7 6 -7c4 0 8 3 9 6v2z
M696 259c0 -6 -5 -10 -14 -10c-4 0 -8 1 -10 2l2 5c1 -1 4 -3 8 -3c5 0 7 2 7 5s-2 5 -7 7c-7 3 -9 7 -9 10c0 6 4 11 12 11c4 0 8 -1 10 -2l-2 -5c-1 1 -5 2 -8 2c-4 0 -6 -2 -6 -5c0 -2 2 -4 7 -6c7 -2 10 -5 10 -11zM733 270v-4h-25c0 -9 6 -13 12 -13c5 0 8 1 10 2l2 -4
c-3 -1 -7 -2 -13 -2c-11 0 -18 6 -18 18c0 10 7 19 18 19s14 -10 14 -16zM708 271h19c0 3 -2 10 -9 10s-10 -6 -10 -10zM784 299h6l-18 -50h-7l-16 50h7l8 -25c2 -6 4 -13 6 -18c1 5 3 12 5 18zM798 300c2 0 4 -2 4 -5c0 -1 -2 -3 -5 -3c-2 0 -3 2 -3 3c0 3 1 5 4 5z
M794 249v37h7v-37h-7zM820 253c5 0 7 2 7 5s-2 5 -7 7c-7 3 -10 7 -10 10c0 6 5 11 13 11c4 0 7 -1 9 -2l-1 -5c-2 1 -5 2 -8 2c-4 0 -7 -2 -7 -5c0 -2 3 -4 8 -6c6 -2 9 -5 9 -11s-5 -10 -13 -10c-5 0 -9 1 -11 2l2 5c2 -1 5 -3 9 -3zM845 300c2 0 4 -2 4 -5
c0 -1 -2 -3 -4 -3c-3 0 -5 2 -5 3c0 3 2 5 5 5zM849 286v-37h-7v37h7zM877 280h-10v-19c0 -5 1 -8 5 -8c2 0 3 1 5 1v-4c-2 -1 -4 -1 -7 -1s-5 1 -7 2c-2 2 -3 5 -3 9v20h-5v6h5v8l7 1v-9h10v-6zM245 140h-13v8c-5 -7 -10 -9 -16 -9c-10 0 -16 7 -16 19c0 18 13 34 32 34
c2 0 5 0 7 -1l4 23h16l-11 -54c-1 -7 -2 -14 -3 -20zM223 151c4 0 9 4 11 14l3 14c-1 1 -3 2 -6 2c-9 0 -16 -10 -16 -21c0 -6 3 -9 8 -9zM285 207c0 -6 -4 -10 -8 -10c-5 0 -8 3 -8 8c0 4 4 8 8 8c5 0 8 -3 8 -6zM282 191l-9 -51h-16l10 51h15zM316 140l6 29v5
c0 4 -2 6 -5 6c-4 0 -11 -6 -13 -17l-5 -23h-14l7 34c1 7 1 13 2 17h14l-2 -8h1c5 6 10 9 18 9c9 0 13 -4 13 -14c0 -2 -1 -6 -2 -8l-4 -30h-16zM345 162l3 11h27l-2 -11h-28zM404 181c-3 0 -6 -2 -6 -4c0 -3 2 -4 6 -6c6 -2 12 -7 12 -14c0 -12 -10 -18 -24 -18
c-7 0 -12 2 -15 4l4 10c2 0 7 -3 12 -3s7 3 7 4c0 3 -1 4 -6 7c-6 3 -12 8 -12 13c0 12 10 18 23 18c6 0 11 -1 13 -3l-3 -10c-2 1 -6 2 -11 2zM446 179l-4 -17c0 -2 -1 -5 -1 -7s1 -3 5 -3h5l-2 -12c-3 -1 -7 -1 -10 -1c-9 0 -13 4 -13 11c0 3 0 5 1 9l4 20h-6l1 12h7l3 11
l15 4l-3 -15h10l-2 -12h-10zM505 140h-13l1 9c-6 -8 -12 -10 -19 -10c-8 0 -13 4 -13 14c0 3 1 6 1 10l6 28h14l-5 -27c0 -2 -1 -6 -1 -7c0 -4 2 -6 6 -6c6 0 11 6 12 17l4 23h17l-7 -34c-1 -6 -3 -13 -3 -17zM564 140h-13l1 8c-5 -7 -12 -9 -17 -9c-9 0 -17 7 -17 19
c0 18 14 34 33 34c3 0 5 0 8 -1l3 23h15l-10 -54c-1 -7 -2 -14 -3 -20zM541 151c5 0 11 4 13 14l2 14c-1 1 -3 2 -6 2c-10 0 -15 -10 -15 -21c0 -6 3 -9 6 -9zM605 207c0 -6 -5 -10 -10 -10c-3 0 -7 3 -7 8c0 4 4 8 8 8c5 0 9 -3 9 -6zM601 191l-9 -51h-16l10 51h15z
M627 139c-13 0 -21 9 -21 21c0 18 12 32 30 32c14 0 22 -9 22 -21c0 -18 -13 -32 -31 -32zM634 181c-8 0 -13 -12 -13 -21c0 -6 3 -9 9 -9c8 0 13 11 13 20c0 5 -3 10 -9 10zM671 139c-6 0 -9 4 -9 9s4 10 10 10c5 0 9 -4 9 -9c0 -6 -5 -10 -10 -10zM723 180
c-10 0 -17 -9 -17 -18c0 -8 5 -11 11 -11c3 0 7 2 10 2v-12c-4 -1 -8 -2 -14 -2c-14 0 -22 8 -22 21c0 18 13 32 33 32c4 0 8 -1 11 -2l-4 -11c-2 0 -4 1 -8 1zM757 139c-13 0 -21 9 -21 21c0 18 12 32 30 32c13 0 22 -9 22 -21c0 -18 -14 -32 -31 -32zM764 181
c-9 0 -13 -12 -13 -21c0 -6 3 -9 7 -9c9 0 14 11 14 20c0 5 -2 10 -8 10zM853 140l4 29c1 1 1 3 1 5c0 4 -2 6 -4 6c-5 0 -11 -7 -13 -16l-4 -24h-15l6 29v5c0 4 -1 6 -5 6c-5 0 -10 -7 -13 -17l-3 -23h-15l7 34c1 7 1 13 2 17h13l-1 -8c5 6 12 9 18 9c8 0 12 -4 12 -9
c5 6 12 9 18 9c8 0 13 -4 13 -13c0 -3 -1 -7 -1 -9l-6 -30h-14zM81 328c-39 1 -61 21 -61 48c0 22 13 28 20 28c16 0 21 -17 13 -24c0 13 -24 15 -24 -6c0 -23 21 -37 52 -37c40 0 48 41 48 71c0 21 1 65 -29 65c-1 0 -4 -1 -4 -11v-32v-1v-54c0 -12 7 -12 7 -12v-4h-44v4
s6 0 7 10v0v91c0 8 -1 14 -11 14c-6 0 -10 -4 -10 -6c0 -8 9 -7 9 -7c0 -11 -8 -13 -12 -13c-13 0 -14 11 -14 13c0 13 16 20 27 20c18 0 24 -7 45 -7c31 0 58 -16 58 -70c0 -38 -23 -82 -77 -80zM213 363v-4h-45v4s7 0 8 10v48c-1 11 -8 11 -8 11v3l36 7v-67
c0 -12 9 -12 9 -12zM191 475c8 0 13 -6 13 -13c0 -8 -5 -14 -13 -14s-13 6 -13 14c0 7 5 13 13 13zM259 432c4 4 12 11 24 11c13 0 25 -9 25 -26v-42c0 -11 5 -12 7 -12v-4h-44v4s6 0 7 10v47c0 14 -19 12 -19 -3v-42c0 -12 8 -12 8 -12v-4h-44v4s6 0 7 10v48
c-1 11 -7 11 -7 11v3l36 7v-10zM395 448c0 0 0 30 44 30c22 0 26 -9 35 -3c2 1 3 2 6 2v-30l-4 -1s-4 25 -37 25c-21 0 -28 -25 -14 -31c18 -8 70 -10 69 -52c-1 -17 -18 -29 -50 -29c-31 0 -34 8 -40 0h-4v31h4c0 -13 21 -22 39 -22c32 0 31 28 8 35c-21 6 -56 13 -56 45z
M544 438c0 0 -6 1 -8 -8v-57c1 -10 8 -10 8 -10v-4h-12c-10 0 -25 0 -25 23v47c-1 10 -9 9 -9 9v4c21 0 26 11 38 11v-11h8v-4zM552 438v5h43v-5s-6 1 -6 -9v-44c0 -20 19 -13 19 0v42c0 12 -7 11 -7 11v5h44v-5s-8 1 -9 -9v-56c1 -10 9 -10 9 -10v-4h-21
c-10 0 -16 8 -16 13c-3 -5 -9 -13 -21 -13s-27 8 -27 26v42c0 11 -7 11 -8 11zM769 340c0 -7 -5 -12 -16 -12c-10 0 -42 3 -47 34c-5 -2 -9 -3 -14 -3c-22 0 -41 19 -41 42s19 42 41 42c5 0 9 -2 13 -3v38l37 -6v-4s-7 1 -8 -11v-87c1 -25 8 -35 20 -37c-2 2 -3 5 -3 7
c0 5 3 9 9 9c5 0 9 -4 9 -9zM692 366c11 0 13 16 13 35c0 20 -2 36 -13 36s-13 -16 -13 -36c0 -19 2 -35 13 -35zM791 363v-4h-44v4s7 0 7 10v48c0 11 -7 11 -7 11v3l37 7v-67c0 -12 7 -12 7 -12zM756 462c0 7 6 13 14 13c7 0 13 -6 13 -13c0 -8 -6 -14 -13 -14
c-8 0 -14 6 -14 14zM875 401c0 -23 -19 -42 -42 -42s-41 19 -41 42s18 41 41 41s42 -18 42 -41zM833 366c12 0 13 16 13 35c0 20 -1 35 -13 35c-11 0 -12 -15 -12 -35c0 -19 1 -35 12 -35zM26 151v20h154v-20h-154zM460 605h-93l70 89h95zM876 605h-89l71 89h18v-89z
M180 605h-94l72 89h94zM600 605h-93l71 89h94zM112 694l-72 -89h-14v89h86zM320 605h-93l71 89h94zM741 605h-94l72 89h92zM437 113h95l-72 -90h-93zM787 23l71 90h18v-90h-89zM158 113h94l-72 -90h-94zM578 113h94l-72 -90h-93zM26 113h86l-72 -90h-14v90zM298 113h94
l-72 -90h-93zM719 113h92l-70 -90h-94z" />
    <glyph glyph-name="three" unicode="3" horiz-adv-x="908" 
d="M40 541l-5 -22h-13l11 59c5 1 10 1 16 1c5 0 12 -1 16 -4c4 -2 7 -7 7 -12c0 -8 -4 -14 -8 -18c-5 -3 -13 -4 -20 -4h-4zM44 568l-2 -17c1 -1 1 -1 4 -1c8 0 13 5 13 12c0 5 -5 7 -10 7c-2 0 -4 0 -5 -1zM117 567h-23l-2 -12h22l-3 -11h-21l-3 -14h24l-2 -11h-37l11 60
h35zM135 543l-4 -24h-13l12 59c3 1 9 1 15 1s11 -1 16 -3c4 -3 7 -7 7 -11c0 -10 -7 -15 -14 -18c3 -2 5 -5 6 -11c0 -7 1 -14 1 -17h-12c0 2 -1 7 -2 14c0 8 -3 10 -8 10h-4zM140 568l-3 -16h5c7 0 13 5 13 11c0 4 -5 6 -10 6c-3 0 -4 0 -5 -1zM186 529c5 0 10 2 10 7
c0 3 -2 6 -8 8c-7 4 -12 8 -12 16c0 13 10 20 23 20c7 0 11 -2 14 -3l-4 -10c-2 0 -6 2 -11 1c-6 0 -9 -2 -9 -5c0 -4 3 -6 9 -9c7 -4 12 -9 12 -15c0 -14 -11 -21 -25 -21c-8 0 -14 2 -17 5l5 9c3 -1 7 -3 13 -3zM250 580c15 0 24 -11 24 -25c0 -11 -4 -22 -12 -29
c-4 -4 -12 -8 -21 -8c-15 0 -24 11 -24 25c0 10 5 22 11 28s13 9 22 9zM253 533c5 5 7 14 7 22c0 7 -2 14 -12 14c-4 0 -7 -2 -10 -4c-5 -5 -7 -15 -7 -21c0 -9 3 -15 12 -15c4 0 7 1 10 4zM293 540l-5 -21h-11l11 60h15l8 -23c2 -8 3 -14 5 -20c0 6 1 12 3 21l4 22h12
l-11 -60h-13l-9 24c-3 8 -4 14 -6 21c-1 -6 -2 -15 -3 -24zM353 534l-8 -15h-13l28 60h17l7 -60h-14l-1 15h-16zM362 557l-6 -13h13l-2 13v12c-2 -3 -4 -8 -5 -12zM402 579h13l-10 -49h23l-2 -11h-35zM473 579l-6 -35v-7c0 -5 3 -8 7 -8c7 0 12 4 14 15l6 35h14l-7 -35
c-4 -18 -11 -26 -28 -26c-12 0 -19 7 -19 19v8l6 34h13zM524 529c5 0 10 2 10 7c0 3 -3 6 -8 8c-7 4 -13 8 -13 16c0 13 11 20 24 20c7 0 12 -2 14 -3l-4 -10c-2 0 -7 2 -11 1c-6 0 -10 -2 -10 -5c0 -4 5 -6 10 -9c6 -4 11 -9 11 -15c0 -14 -11 -21 -24 -21
c-8 0 -15 2 -17 5l4 9c4 -1 8 -3 14 -3zM597 567h-22l-2 -12h21l-2 -11h-22l-2 -14h24l-3 -11h-36l11 60h35zM663 526c-6 -4 -12 -8 -22 -8c-15 0 -24 11 -24 25c0 10 4 22 12 28c4 6 12 9 21 9c16 0 24 -11 24 -25c0 -11 -3 -22 -11 -29zM630 544c0 -9 4 -15 13 -15
c4 0 8 1 9 4c5 5 9 14 9 22c0 7 -4 14 -13 14c-3 0 -7 -2 -10 -4c-5 -5 -8 -15 -8 -21zM697 564c0 -6 -2 -15 -4 -24l-4 -21h-13l12 60h15l8 -23c3 -8 5 -14 7 -20c0 6 1 12 2 21l3 22h13l-12 -60h-13l-9 24c-2 8 -4 14 -5 21zM748 579h12l-9 -49h22l-1 -11h-36zM799 544
l-4 -25h-13l5 25l-13 35h15l3 -15c1 -5 2 -8 3 -11c2 3 4 7 6 11l8 15h16zM837 525c0 5 3 9 9 9c4 0 7 -3 7 -8c0 -4 -4 -8 -9 -8s-7 4 -7 7zM861 579l-9 -40h-10l6 40h13zM54 294h-21v-17h19v-5h-19v-23h-7v50h28v-5zM93 268c0 -14 -10 -19 -18 -19c-10 0 -17 6 -17 18
s7 19 17 19c11 0 18 -7 18 -18zM65 267c0 -8 3 -14 10 -14s11 6 11 15c0 6 -3 13 -11 13s-10 -7 -10 -14zM107 249h-7v25v12h6l1 -8c2 5 6 8 10 8h1v-7c0 1 0 1 -1 1c-5 0 -8 -4 -9 -8c-1 -1 -1 -2 -1 -3v-20zM138 274c0 16 11 26 27 26c6 0 10 -1 12 -2l-2 -5
c-2 1 -6 2 -10 2c-12 0 -20 -8 -20 -21s7 -21 20 -21c3 0 8 2 10 3l2 -5c-2 -1 -7 -2 -14 -2c-14 0 -25 8 -25 25zM199 249c-10 0 -19 6 -19 18s9 19 19 19s18 -7 18 -18c0 -14 -10 -19 -18 -19zM199 281c-8 0 -12 -7 -12 -14c0 -8 5 -14 12 -14c6 0 11 6 11 15
c0 6 -4 13 -11 13zM276 249h-7v21c0 6 -2 11 -8 11c-3 0 -6 -3 -7 -7c0 0 -1 -1 -1 -2v-23h-6v23c0 4 -3 9 -7 9s-8 -4 -9 -7v-2v-23h-7v26v11h6v-7h1c1 4 5 7 11 7c5 0 8 -3 10 -7c1 2 3 3 5 5c1 2 3 2 7 2c5 0 12 -3 12 -15v-22zM338 271v-22h-6v21c0 6 -3 11 -8 11
c-4 0 -7 -3 -9 -7v-2v-23h-6v23c0 4 -3 9 -8 9c-4 0 -7 -4 -8 -7v-2v-23h-6v26c0 4 0 7 -1 11h6v-7h1c1 4 5 7 11 7c5 0 9 -3 9 -7l5 5s4 2 8 2c5 0 12 -3 12 -15zM379 270c0 -2 -1 -3 -1 -4h-25c0 -9 6 -13 12 -13c4 0 7 1 10 2l1 -4c-2 -1 -6 -2 -12 -2
c-11 0 -18 6 -18 18c0 10 7 19 17 19c12 0 16 -10 16 -16zM353 271h19c0 3 -2 10 -10 10c-6 0 -9 -6 -9 -10zM386 274v12h5l1 -8c2 5 6 8 10 8h2v-7c-1 1 -2 1 -3 1c-3 0 -7 -4 -8 -8v-3v-20h-7v25zM436 251c-2 -1 -6 -2 -11 -2c-11 0 -18 7 -18 18s8 19 19 19
c4 0 8 -1 10 -2l-2 -5c-1 1 -4 2 -8 2c-8 0 -12 -7 -12 -14c0 -8 4 -14 12 -14c4 0 7 2 9 2zM446 300c3 0 5 -2 5 -5c0 -1 -2 -3 -5 -3c-2 0 -4 2 -4 3c0 3 2 5 4 5zM443 249v37h7v-37h-7zM468 249c-7 0 -11 4 -11 9c0 10 8 15 22 15c0 3 -1 8 -8 8c-3 0 -7 -1 -9 -2l-2 4
c3 2 8 3 11 3c12 0 15 -7 15 -14v-14v-9h-6l-1 4c-2 -2 -6 -4 -11 -4zM479 268c-7 0 -15 -2 -15 -8c0 -5 3 -7 6 -7c4 0 7 3 9 6v2v7zM496 249v53h7v-53h-7zM513 258h8c-2 -6 -5 -14 -7 -18h-5c2 4 4 12 4 18zM545 249v49c3 1 7 2 12 2c6 0 11 -2 14 -5c4 -1 5 -5 5 -9
c0 -5 -1 -9 -4 -12c-4 -3 -9 -5 -15 -5c-2 0 -4 0 -6 1v-21h-6zM551 295v-21h6c7 0 12 3 12 11c0 7 -5 10 -11 10h-7zM584 249v53h6v-53h-6zM629 251c-3 -1 -7 -2 -13 -2c-11 0 -18 6 -18 18c0 10 7 19 17 19c12 0 15 -10 15 -16v-4h-25c0 -9 6 -13 12 -13c5 0 8 1 10 2z
M614 281c-6 0 -9 -6 -9 -10h19c0 3 -2 10 -10 10zM664 249h-6l-1 4c-1 -2 -5 -4 -11 -4c-7 0 -11 4 -11 9c0 10 8 15 22 15c0 3 -1 8 -7 8c-4 0 -8 -1 -10 -2l-2 4c3 2 8 3 12 3c11 0 14 -7 14 -14v-14v-9zM657 261v7c-6 0 -15 -2 -15 -8c0 -5 3 -7 6 -7c4 0 8 3 9 6v2z
M696 259c0 -6 -5 -10 -14 -10c-4 0 -8 1 -10 2l2 5c1 -1 4 -3 8 -3c5 0 7 2 7 5s-2 5 -7 7c-7 3 -9 7 -9 10c0 6 4 11 12 11c4 0 8 -1 10 -2l-2 -5c-1 1 -5 2 -8 2c-4 0 -6 -2 -6 -5c0 -2 2 -4 7 -6c7 -2 10 -5 10 -11zM733 270v-4h-25c0 -9 6 -13 12 -13c5 0 8 1 10 2l2 -4
c-3 -1 -7 -2 -13 -2c-11 0 -18 6 -18 18c0 10 7 19 18 19s14 -10 14 -16zM708 271h19c0 3 -2 10 -9 10s-10 -6 -10 -10zM784 299h6l-18 -50h-7l-16 50h7l8 -25c2 -6 4 -13 6 -18c1 5 3 12 5 18zM798 300c2 0 4 -2 4 -5c0 -1 -2 -3 -5 -3c-2 0 -3 2 -3 3c0 3 1 5 4 5z
M794 249v37h7v-37h-7zM820 253c5 0 7 2 7 5s-2 5 -7 7c-7 3 -10 7 -10 10c0 6 5 11 13 11c4 0 7 -1 9 -2l-1 -5c-2 1 -5 2 -8 2c-4 0 -7 -2 -7 -5c0 -2 3 -4 8 -6c6 -2 9 -5 9 -11s-5 -10 -13 -10c-5 0 -9 1 -11 2l2 5c2 -1 5 -3 9 -3zM845 300c2 0 4 -2 4 -5
c0 -1 -2 -3 -4 -3c-3 0 -5 2 -5 3c0 3 2 5 5 5zM849 286v-37h-7v37h7zM877 280h-10v-19c0 -5 1 -8 5 -8c2 0 3 1 5 1v-4c-2 -1 -4 -1 -7 -1s-5 1 -7 2c-2 2 -3 5 -3 9v20h-5v6h5v8l7 1v-9h10v-6zM245 140h-13v8c-5 -7 -10 -9 -16 -9c-10 0 -16 7 -16 19c0 18 13 34 32 34
c2 0 5 0 7 -1l4 23h16l-11 -54c-1 -7 -2 -14 -3 -20zM223 151c4 0 9 4 11 14l3 14c-1 1 -3 2 -6 2c-9 0 -16 -10 -16 -21c0 -6 3 -9 8 -9zM285 207c0 -6 -4 -10 -8 -10c-5 0 -8 3 -8 8c0 4 4 8 8 8c5 0 8 -3 8 -6zM282 191l-9 -51h-16l10 51h15zM316 140l6 29v5
c0 4 -2 6 -5 6c-4 0 -11 -6 -13 -17l-5 -23h-14l7 34c1 7 1 13 2 17h14l-2 -8h1c5 6 10 9 18 9c9 0 13 -4 13 -14c0 -2 -1 -6 -2 -8l-4 -30h-16zM345 162l3 11h27l-2 -11h-28zM404 181c-3 0 -6 -2 -6 -4c0 -3 2 -4 6 -6c6 -2 12 -7 12 -14c0 -12 -10 -18 -24 -18
c-7 0 -12 2 -15 4l4 10c2 0 7 -3 12 -3s7 3 7 4c0 3 -1 4 -6 7c-6 3 -12 8 -12 13c0 12 10 18 23 18c6 0 11 -1 13 -3l-3 -10c-2 1 -6 2 -11 2zM446 179l-4 -17c0 -2 -1 -5 -1 -7s1 -3 5 -3h5l-2 -12c-3 -1 -7 -1 -10 -1c-9 0 -13 4 -13 11c0 3 0 5 1 9l4 20h-6l1 12h7l3 11
l15 4l-3 -15h10l-2 -12h-10zM505 140h-13l1 9c-6 -8 -12 -10 -19 -10c-8 0 -13 4 -13 14c0 3 1 6 1 10l6 28h14l-5 -27c0 -2 -1 -6 -1 -7c0 -4 2 -6 6 -6c6 0 11 6 12 17l4 23h17l-7 -34c-1 -6 -3 -13 -3 -17zM564 140h-13l1 8c-5 -7 -12 -9 -17 -9c-9 0 -17 7 -17 19
c0 18 14 34 33 34c3 0 5 0 8 -1l3 23h15l-10 -54c-1 -7 -2 -14 -3 -20zM541 151c5 0 11 4 13 14l2 14c-1 1 -3 2 -6 2c-10 0 -15 -10 -15 -21c0 -6 3 -9 6 -9zM605 207c0 -6 -5 -10 -10 -10c-3 0 -7 3 -7 8c0 4 4 8 8 8c5 0 9 -3 9 -6zM601 191l-9 -51h-16l10 51h15z
M627 139c-13 0 -21 9 -21 21c0 18 12 32 30 32c14 0 22 -9 22 -21c0 -18 -13 -32 -31 -32zM634 181c-8 0 -13 -12 -13 -21c0 -6 3 -9 9 -9c8 0 13 11 13 20c0 5 -3 10 -9 10zM671 139c-6 0 -9 4 -9 9s4 10 10 10c5 0 9 -4 9 -9c0 -6 -5 -10 -10 -10zM723 180
c-10 0 -17 -9 -17 -18c0 -8 5 -11 11 -11c3 0 7 2 10 2v-12c-4 -1 -8 -2 -14 -2c-14 0 -22 8 -22 21c0 18 13 32 33 32c4 0 8 -1 11 -2l-4 -11c-2 0 -4 1 -8 1zM757 139c-13 0 -21 9 -21 21c0 18 12 32 30 32c13 0 22 -9 22 -21c0 -18 -14 -32 -31 -32zM764 181
c-9 0 -13 -12 -13 -21c0 -6 3 -9 7 -9c9 0 14 11 14 20c0 5 -2 10 -8 10zM853 140l4 29c1 1 1 3 1 5c0 4 -2 6 -4 6c-5 0 -11 -7 -13 -16l-4 -24h-15l6 29v5c0 4 -1 6 -5 6c-5 0 -10 -7 -13 -17l-3 -23h-15l7 34c1 7 1 13 2 17h13l-1 -8c5 6 12 9 18 9c8 0 12 -4 12 -9
c5 6 12 9 18 9c8 0 13 -4 13 -13c0 -3 -1 -7 -1 -9l-6 -30h-14zM81 328c-39 1 -61 21 -61 48c0 22 13 28 20 28c16 0 21 -17 13 -24c0 13 -24 15 -24 -6c0 -23 21 -37 52 -37c40 0 48 41 48 71c0 21 1 65 -29 65c-1 0 -4 -1 -4 -11v-32v-1v-54c0 -12 7 -12 7 -12v-4h-44v4
s6 0 7 10v0v91c0 8 -1 14 -11 14c-6 0 -10 -4 -10 -6c0 -8 9 -7 9 -7c0 -11 -8 -13 -12 -13c-13 0 -14 11 -14 13c0 13 16 20 27 20c18 0 24 -7 45 -7c31 0 58 -16 58 -70c0 -38 -23 -82 -77 -80zM213 363v-4h-45v4s7 0 8 10v48c-1 11 -8 11 -8 11v3l36 7v-67
c0 -12 9 -12 9 -12zM191 475c8 0 13 -6 13 -13c0 -8 -5 -14 -13 -14s-13 6 -13 14c0 7 5 13 13 13zM259 432c4 4 12 11 24 11c13 0 25 -9 25 -26v-42c0 -11 5 -12 7 -12v-4h-44v4s6 0 7 10v47c0 14 -19 12 -19 -3v-42c0 -12 8 -12 8 -12v-4h-44v4s6 0 7 10v48
c-1 11 -7 11 -7 11v3l36 7v-10zM395 448c0 0 0 30 44 30c22 0 26 -9 35 -3c2 1 3 2 6 2v-30l-4 -1s-4 25 -37 25c-21 0 -28 -25 -14 -31c18 -8 70 -10 69 -52c-1 -17 -18 -29 -50 -29c-31 0 -34 8 -40 0h-4v31h4c0 -13 21 -22 39 -22c32 0 31 28 8 35c-21 6 -56 13 -56 45z
M544 438c0 0 -6 1 -8 -8v-57c1 -10 8 -10 8 -10v-4h-12c-10 0 -25 0 -25 23v47c-1 10 -9 9 -9 9v4c21 0 26 11 38 11v-11h8v-4zM552 438v5h43v-5s-6 1 -6 -9v-44c0 -20 19 -13 19 0v42c0 12 -7 11 -7 11v5h44v-5s-8 1 -9 -9v-56c1 -10 9 -10 9 -10v-4h-21
c-10 0 -16 8 -16 13c-3 -5 -9 -13 -21 -13s-27 8 -27 26v42c0 11 -7 11 -8 11zM769 340c0 -7 -5 -12 -16 -12c-10 0 -42 3 -47 34c-5 -2 -9 -3 -14 -3c-22 0 -41 19 -41 42s19 42 41 42c5 0 9 -2 13 -3v38l37 -6v-4s-7 1 -8 -11v-87c1 -25 8 -35 20 -37c-2 2 -3 5 -3 7
c0 5 3 9 9 9c5 0 9 -4 9 -9zM692 366c11 0 13 16 13 35c0 20 -2 36 -13 36s-13 -16 -13 -36c0 -19 2 -35 13 -35zM791 363v-4h-44v4s7 0 7 10v48c0 11 -7 11 -7 11v3l37 7v-67c0 -12 7 -12 7 -12zM756 462c0 7 6 13 14 13c7 0 13 -6 13 -13c0 -8 -6 -14 -13 -14
c-8 0 -14 6 -14 14zM875 401c0 -23 -19 -42 -42 -42s-41 19 -41 42s18 41 41 41s42 -18 42 -41zM833 366c12 0 13 16 13 35c0 20 -1 35 -13 35c-11 0 -12 -15 -12 -35c0 -19 1 -35 12 -35zM26 151v20h154v-20h-154zM460 605h-93l70 89h95zM876 605h-89l71 89h18v-89z
M180 605h-94l72 89h94zM600 605h-93l71 89h94zM112 694l-72 -89h-14v89h86zM320 605h-93l71 89h94zM741 605h-94l72 89h92zM437 113h95l-72 -90h-93zM787 23l71 90h18v-90h-89zM158 113h94l-72 -90h-94zM578 113h94l-72 -90h-93zM26 113h86l-72 -90h-14v90zM298 113h94
l-72 -90h-93zM719 113h92l-70 -90h-94z" />
    <glyph glyph-name="four" unicode="4" horiz-adv-x="908" 
d="M40 541l-5 -22h-13l11 59c5 1 10 1 16 1c5 0 12 -1 16 -4c4 -2 7 -7 7 -12c0 -8 -4 -14 -8 -18c-5 -3 -13 -4 -20 -4h-4zM44 568l-2 -17c1 -1 1 -1 4 -1c8 0 13 5 13 12c0 5 -5 7 -10 7c-2 0 -4 0 -5 -1zM117 567h-23l-2 -12h22l-3 -11h-21l-3 -14h24l-2 -11h-37l11 60
h35zM135 543l-4 -24h-13l12 59c3 1 9 1 15 1s11 -1 16 -3c4 -3 7 -7 7 -11c0 -10 -7 -15 -14 -18c3 -2 5 -5 6 -11c0 -7 1 -14 1 -17h-12c0 2 -1 7 -2 14c0 8 -3 10 -8 10h-4zM140 568l-3 -16h5c7 0 13 5 13 11c0 4 -5 6 -10 6c-3 0 -4 0 -5 -1zM186 529c5 0 10 2 10 7
c0 3 -2 6 -8 8c-7 4 -12 8 -12 16c0 13 10 20 23 20c7 0 11 -2 14 -3l-4 -10c-2 0 -6 2 -11 1c-6 0 -9 -2 -9 -5c0 -4 3 -6 9 -9c7 -4 12 -9 12 -15c0 -14 -11 -21 -25 -21c-8 0 -14 2 -17 5l5 9c3 -1 7 -3 13 -3zM250 580c15 0 24 -11 24 -25c0 -11 -4 -22 -12 -29
c-4 -4 -12 -8 -21 -8c-15 0 -24 11 -24 25c0 10 5 22 11 28s13 9 22 9zM253 533c5 5 7 14 7 22c0 7 -2 14 -12 14c-4 0 -7 -2 -10 -4c-5 -5 -7 -15 -7 -21c0 -9 3 -15 12 -15c4 0 7 1 10 4zM293 540l-5 -21h-11l11 60h15l8 -23c2 -8 3 -14 5 -20c0 6 1 12 3 21l4 22h12
l-11 -60h-13l-9 24c-3 8 -4 14 -6 21c-1 -6 -2 -15 -3 -24zM353 534l-8 -15h-13l28 60h17l7 -60h-14l-1 15h-16zM362 557l-6 -13h13l-2 13v12c-2 -3 -4 -8 -5 -12zM402 579h13l-10 -49h23l-2 -11h-35zM473 579l-6 -35v-7c0 -5 3 -8 7 -8c7 0 12 4 14 15l6 35h14l-7 -35
c-4 -18 -11 -26 -28 -26c-12 0 -19 7 -19 19v8l6 34h13zM524 529c5 0 10 2 10 7c0 3 -3 6 -8 8c-7 4 -13 8 -13 16c0 13 11 20 24 20c7 0 12 -2 14 -3l-4 -10c-2 0 -7 2 -11 1c-6 0 -10 -2 -10 -5c0 -4 5 -6 10 -9c6 -4 11 -9 11 -15c0 -14 -11 -21 -24 -21
c-8 0 -15 2 -17 5l4 9c4 -1 8 -3 14 -3zM597 567h-22l-2 -12h21l-2 -11h-22l-2 -14h24l-3 -11h-36l11 60h35zM663 526c-6 -4 -12 -8 -22 -8c-15 0 -24 11 -24 25c0 10 4 22 12 28c4 6 12 9 21 9c16 0 24 -11 24 -25c0 -11 -3 -22 -11 -29zM630 544c0 -9 4 -15 13 -15
c4 0 8 1 9 4c5 5 9 14 9 22c0 7 -4 14 -13 14c-3 0 -7 -2 -10 -4c-5 -5 -8 -15 -8 -21zM697 564c0 -6 -2 -15 -4 -24l-4 -21h-13l12 60h15l8 -23c3 -8 5 -14 7 -20c0 6 1 12 2 21l3 22h13l-12 -60h-13l-9 24c-2 8 -4 14 -5 21zM748 579h12l-9 -49h22l-1 -11h-36zM799 544
l-4 -25h-13l5 25l-13 35h15l3 -15c1 -5 2 -8 3 -11c2 3 4 7 6 11l8 15h16zM837 525c0 5 3 9 9 9c4 0 7 -3 7 -8c0 -4 -4 -8 -9 -8s-7 4 -7 7zM861 579l-9 -40h-10l6 40h13zM54 294h-21v-17h19v-5h-19v-23h-7v50h28v-5zM93 268c0 -14 -10 -19 -18 -19c-10 0 -17 6 -17 18
s7 19 17 19c11 0 18 -7 18 -18zM65 267c0 -8 3 -14 10 -14s11 6 11 15c0 6 -3 13 -11 13s-10 -7 -10 -14zM107 249h-7v25v12h6l1 -8c2 5 6 8 10 8h1v-7c0 1 0 1 -1 1c-5 0 -8 -4 -9 -8c-1 -1 -1 -2 -1 -3v-20zM138 274c0 16 11 26 27 26c6 0 10 -1 12 -2l-2 -5
c-2 1 -6 2 -10 2c-12 0 -20 -8 -20 -21s7 -21 20 -21c3 0 8 2 10 3l2 -5c-2 -1 -7 -2 -14 -2c-14 0 -25 8 -25 25zM199 249c-10 0 -19 6 -19 18s9 19 19 19s18 -7 18 -18c0 -14 -10 -19 -18 -19zM199 281c-8 0 -12 -7 -12 -14c0 -8 5 -14 12 -14c6 0 11 6 11 15
c0 6 -4 13 -11 13zM276 249h-7v21c0 6 -2 11 -8 11c-3 0 -6 -3 -7 -7c0 0 -1 -1 -1 -2v-23h-6v23c0 4 -3 9 -7 9s-8 -4 -9 -7v-2v-23h-7v26v11h6v-7h1c1 4 5 7 11 7c5 0 8 -3 10 -7c1 2 3 3 5 5c1 2 3 2 7 2c5 0 12 -3 12 -15v-22zM338 271v-22h-6v21c0 6 -3 11 -8 11
c-4 0 -7 -3 -9 -7v-2v-23h-6v23c0 4 -3 9 -8 9c-4 0 -7 -4 -8 -7v-2v-23h-6v26c0 4 0 7 -1 11h6v-7h1c1 4 5 7 11 7c5 0 9 -3 9 -7l5 5s4 2 8 2c5 0 12 -3 12 -15zM379 270c0 -2 -1 -3 -1 -4h-25c0 -9 6 -13 12 -13c4 0 7 1 10 2l1 -4c-2 -1 -6 -2 -12 -2
c-11 0 -18 6 -18 18c0 10 7 19 17 19c12 0 16 -10 16 -16zM353 271h19c0 3 -2 10 -10 10c-6 0 -9 -6 -9 -10zM386 274v12h5l1 -8c2 5 6 8 10 8h2v-7c-1 1 -2 1 -3 1c-3 0 -7 -4 -8 -8v-3v-20h-7v25zM436 251c-2 -1 -6 -2 -11 -2c-11 0 -18 7 -18 18s8 19 19 19
c4 0 8 -1 10 -2l-2 -5c-1 1 -4 2 -8 2c-8 0 -12 -7 -12 -14c0 -8 4 -14 12 -14c4 0 7 2 9 2zM446 300c3 0 5 -2 5 -5c0 -1 -2 -3 -5 -3c-2 0 -4 2 -4 3c0 3 2 5 4 5zM443 249v37h7v-37h-7zM468 249c-7 0 -11 4 -11 9c0 10 8 15 22 15c0 3 -1 8 -8 8c-3 0 -7 -1 -9 -2l-2 4
c3 2 8 3 11 3c12 0 15 -7 15 -14v-14v-9h-6l-1 4c-2 -2 -6 -4 -11 -4zM479 268c-7 0 -15 -2 -15 -8c0 -5 3 -7 6 -7c4 0 7 3 9 6v2v7zM496 249v53h7v-53h-7zM513 258h8c-2 -6 -5 -14 -7 -18h-5c2 4 4 12 4 18zM545 249v49c3 1 7 2 12 2c6 0 11 -2 14 -5c4 -1 5 -5 5 -9
c0 -5 -1 -9 -4 -12c-4 -3 -9 -5 -15 -5c-2 0 -4 0 -6 1v-21h-6zM551 295v-21h6c7 0 12 3 12 11c0 7 -5 10 -11 10h-7zM584 249v53h6v-53h-6zM629 251c-3 -1 -7 -2 -13 -2c-11 0 -18 6 -18 18c0 10 7 19 17 19c12 0 15 -10 15 -16v-4h-25c0 -9 6 -13 12 -13c5 0 8 1 10 2z
M614 281c-6 0 -9 -6 -9 -10h19c0 3 -2 10 -10 10zM664 249h-6l-1 4c-1 -2 -5 -4 -11 -4c-7 0 -11 4 -11 9c0 10 8 15 22 15c0 3 -1 8 -7 8c-4 0 -8 -1 -10 -2l-2 4c3 2 8 3 12 3c11 0 14 -7 14 -14v-14v-9zM657 261v7c-6 0 -15 -2 -15 -8c0 -5 3 -7 6 -7c4 0 8 3 9 6v2z
M696 259c0 -6 -5 -10 -14 -10c-4 0 -8 1 -10 2l2 5c1 -1 4 -3 8 -3c5 0 7 2 7 5s-2 5 -7 7c-7 3 -9 7 -9 10c0 6 4 11 12 11c4 0 8 -1 10 -2l-2 -5c-1 1 -5 2 -8 2c-4 0 -6 -2 -6 -5c0 -2 2 -4 7 -6c7 -2 10 -5 10 -11zM733 270v-4h-25c0 -9 6 -13 12 -13c5 0 8 1 10 2l2 -4
c-3 -1 -7 -2 -13 -2c-11 0 -18 6 -18 18c0 10 7 19 18 19s14 -10 14 -16zM708 271h19c0 3 -2 10 -9 10s-10 -6 -10 -10zM784 299h6l-18 -50h-7l-16 50h7l8 -25c2 -6 4 -13 6 -18c1 5 3 12 5 18zM798 300c2 0 4 -2 4 -5c0 -1 -2 -3 -5 -3c-2 0 -3 2 -3 3c0 3 1 5 4 5z
M794 249v37h7v-37h-7zM820 253c5 0 7 2 7 5s-2 5 -7 7c-7 3 -10 7 -10 10c0 6 5 11 13 11c4 0 7 -1 9 -2l-1 -5c-2 1 -5 2 -8 2c-4 0 -7 -2 -7 -5c0 -2 3 -4 8 -6c6 -2 9 -5 9 -11s-5 -10 -13 -10c-5 0 -9 1 -11 2l2 5c2 -1 5 -3 9 -3zM845 300c2 0 4 -2 4 -5
c0 -1 -2 -3 -4 -3c-3 0 -5 2 -5 3c0 3 2 5 5 5zM849 286v-37h-7v37h7zM877 280h-10v-19c0 -5 1 -8 5 -8c2 0 3 1 5 1v-4c-2 -1 -4 -1 -7 -1s-5 1 -7 2c-2 2 -3 5 -3 9v20h-5v6h5v8l7 1v-9h10v-6zM245 140h-13v8c-5 -7 -10 -9 -16 -9c-10 0 -16 7 -16 19c0 18 13 34 32 34
c2 0 5 0 7 -1l4 23h16l-11 -54c-1 -7 -2 -14 -3 -20zM223 151c4 0 9 4 11 14l3 14c-1 1 -3 2 -6 2c-9 0 -16 -10 -16 -21c0 -6 3 -9 8 -9zM285 207c0 -6 -4 -10 -8 -10c-5 0 -8 3 -8 8c0 4 4 8 8 8c5 0 8 -3 8 -6zM282 191l-9 -51h-16l10 51h15zM316 140l6 29v5
c0 4 -2 6 -5 6c-4 0 -11 -6 -13 -17l-5 -23h-14l7 34c1 7 1 13 2 17h14l-2 -8h1c5 6 10 9 18 9c9 0 13 -4 13 -14c0 -2 -1 -6 -2 -8l-4 -30h-16zM345 162l3 11h27l-2 -11h-28zM404 181c-3 0 -6 -2 -6 -4c0 -3 2 -4 6 -6c6 -2 12 -7 12 -14c0 -12 -10 -18 -24 -18
c-7 0 -12 2 -15 4l4 10c2 0 7 -3 12 -3s7 3 7 4c0 3 -1 4 -6 7c-6 3 -12 8 -12 13c0 12 10 18 23 18c6 0 11 -1 13 -3l-3 -10c-2 1 -6 2 -11 2zM446 179l-4 -17c0 -2 -1 -5 -1 -7s1 -3 5 -3h5l-2 -12c-3 -1 -7 -1 -10 -1c-9 0 -13 4 -13 11c0 3 0 5 1 9l4 20h-6l1 12h7l3 11
l15 4l-3 -15h10l-2 -12h-10zM505 140h-13l1 9c-6 -8 -12 -10 -19 -10c-8 0 -13 4 -13 14c0 3 1 6 1 10l6 28h14l-5 -27c0 -2 -1 -6 -1 -7c0 -4 2 -6 6 -6c6 0 11 6 12 17l4 23h17l-7 -34c-1 -6 -3 -13 -3 -17zM564 140h-13l1 8c-5 -7 -12 -9 -17 -9c-9 0 -17 7 -17 19
c0 18 14 34 33 34c3 0 5 0 8 -1l3 23h15l-10 -54c-1 -7 -2 -14 -3 -20zM541 151c5 0 11 4 13 14l2 14c-1 1 -3 2 -6 2c-10 0 -15 -10 -15 -21c0 -6 3 -9 6 -9zM605 207c0 -6 -5 -10 -10 -10c-3 0 -7 3 -7 8c0 4 4 8 8 8c5 0 9 -3 9 -6zM601 191l-9 -51h-16l10 51h15z
M627 139c-13 0 -21 9 -21 21c0 18 12 32 30 32c14 0 22 -9 22 -21c0 -18 -13 -32 -31 -32zM634 181c-8 0 -13 -12 -13 -21c0 -6 3 -9 9 -9c8 0 13 11 13 20c0 5 -3 10 -9 10zM671 139c-6 0 -9 4 -9 9s4 10 10 10c5 0 9 -4 9 -9c0 -6 -5 -10 -10 -10zM723 180
c-10 0 -17 -9 -17 -18c0 -8 5 -11 11 -11c3 0 7 2 10 2v-12c-4 -1 -8 -2 -14 -2c-14 0 -22 8 -22 21c0 18 13 32 33 32c4 0 8 -1 11 -2l-4 -11c-2 0 -4 1 -8 1zM757 139c-13 0 -21 9 -21 21c0 18 12 32 30 32c13 0 22 -9 22 -21c0 -18 -14 -32 -31 -32zM764 181
c-9 0 -13 -12 -13 -21c0 -6 3 -9 7 -9c9 0 14 11 14 20c0 5 -2 10 -8 10zM853 140l4 29c1 1 1 3 1 5c0 4 -2 6 -4 6c-5 0 -11 -7 -13 -16l-4 -24h-15l6 29v5c0 4 -1 6 -5 6c-5 0 -10 -7 -13 -17l-3 -23h-15l7 34c1 7 1 13 2 17h13l-1 -8c5 6 12 9 18 9c8 0 12 -4 12 -9
c5 6 12 9 18 9c8 0 13 -4 13 -13c0 -3 -1 -7 -1 -9l-6 -30h-14zM81 328c-39 1 -61 21 -61 48c0 22 13 28 20 28c16 0 21 -17 13 -24c0 13 -24 15 -24 -6c0 -23 21 -37 52 -37c40 0 48 41 48 71c0 21 1 65 -29 65c-1 0 -4 -1 -4 -11v-32v-1v-54c0 -12 7 -12 7 -12v-4h-44v4
s6 0 7 10v0v91c0 8 -1 14 -11 14c-6 0 -10 -4 -10 -6c0 -8 9 -7 9 -7c0 -11 -8 -13 -12 -13c-13 0 -14 11 -14 13c0 13 16 20 27 20c18 0 24 -7 45 -7c31 0 58 -16 58 -70c0 -38 -23 -82 -77 -80zM213 363v-4h-45v4s7 0 8 10v48c-1 11 -8 11 -8 11v3l36 7v-67
c0 -12 9 -12 9 -12zM191 475c8 0 13 -6 13 -13c0 -8 -5 -14 -13 -14s-13 6 -13 14c0 7 5 13 13 13zM259 432c4 4 12 11 24 11c13 0 25 -9 25 -26v-42c0 -11 5 -12 7 -12v-4h-44v4s6 0 7 10v47c0 14 -19 12 -19 -3v-42c0 -12 8 -12 8 -12v-4h-44v4s6 0 7 10v48
c-1 11 -7 11 -7 11v3l36 7v-10zM395 448c0 0 0 30 44 30c22 0 26 -9 35 -3c2 1 3 2 6 2v-30l-4 -1s-4 25 -37 25c-21 0 -28 -25 -14 -31c18 -8 70 -10 69 -52c-1 -17 -18 -29 -50 -29c-31 0 -34 8 -40 0h-4v31h4c0 -13 21 -22 39 -22c32 0 31 28 8 35c-21 6 -56 13 -56 45z
M544 438c0 0 -6 1 -8 -8v-57c1 -10 8 -10 8 -10v-4h-12c-10 0 -25 0 -25 23v47c-1 10 -9 9 -9 9v4c21 0 26 11 38 11v-11h8v-4zM552 438v5h43v-5s-6 1 -6 -9v-44c0 -20 19 -13 19 0v42c0 12 -7 11 -7 11v5h44v-5s-8 1 -9 -9v-56c1 -10 9 -10 9 -10v-4h-21
c-10 0 -16 8 -16 13c-3 -5 -9 -13 -21 -13s-27 8 -27 26v42c0 11 -7 11 -8 11zM769 340c0 -7 -5 -12 -16 -12c-10 0 -42 3 -47 34c-5 -2 -9 -3 -14 -3c-22 0 -41 19 -41 42s19 42 41 42c5 0 9 -2 13 -3v38l37 -6v-4s-7 1 -8 -11v-87c1 -25 8 -35 20 -37c-2 2 -3 5 -3 7
c0 5 3 9 9 9c5 0 9 -4 9 -9zM692 366c11 0 13 16 13 35c0 20 -2 36 -13 36s-13 -16 -13 -36c0 -19 2 -35 13 -35zM791 363v-4h-44v4s7 0 7 10v48c0 11 -7 11 -7 11v3l37 7v-67c0 -12 7 -12 7 -12zM756 462c0 7 6 13 14 13c7 0 13 -6 13 -13c0 -8 -6 -14 -13 -14
c-8 0 -14 6 -14 14zM875 401c0 -23 -19 -42 -42 -42s-41 19 -41 42s18 41 41 41s42 -18 42 -41zM833 366c12 0 13 16 13 35c0 20 -1 35 -13 35c-11 0 -12 -15 -12 -35c0 -19 1 -35 12 -35zM26 151v20h154v-20h-154zM460 605h-93l70 89h95zM876 605h-89l71 89h18v-89z
M180 605h-94l72 89h94zM600 605h-93l71 89h94zM112 694l-72 -89h-14v89h86zM320 605h-93l71 89h94zM741 605h-94l72 89h92zM437 113h95l-72 -90h-93zM787 23l71 90h18v-90h-89zM158 113h94l-72 -90h-94zM578 113h94l-72 -90h-93zM26 113h86l-72 -90h-14v90zM298 113h94
l-72 -90h-93zM719 113h92l-70 -90h-94z" />
    <glyph glyph-name="five" unicode="5" horiz-adv-x="908" 
d="M40 541l-5 -22h-13l11 59c5 1 10 1 16 1c5 0 12 -1 16 -4c4 -2 7 -7 7 -12c0 -8 -4 -14 -8 -18c-5 -3 -13 -4 -20 -4h-4zM44 568l-2 -17c1 -1 1 -1 4 -1c8 0 13 5 13 12c0 5 -5 7 -10 7c-2 0 -4 0 -5 -1zM117 567h-23l-2 -12h22l-3 -11h-21l-3 -14h24l-2 -11h-37l11 60
h35zM135 543l-4 -24h-13l12 59c3 1 9 1 15 1s11 -1 16 -3c4 -3 7 -7 7 -11c0 -10 -7 -15 -14 -18c3 -2 5 -5 6 -11c0 -7 1 -14 1 -17h-12c0 2 -1 7 -2 14c0 8 -3 10 -8 10h-4zM140 568l-3 -16h5c7 0 13 5 13 11c0 4 -5 6 -10 6c-3 0 -4 0 -5 -1zM186 529c5 0 10 2 10 7
c0 3 -2 6 -8 8c-7 4 -12 8 -12 16c0 13 10 20 23 20c7 0 11 -2 14 -3l-4 -10c-2 0 -6 2 -11 1c-6 0 -9 -2 -9 -5c0 -4 3 -6 9 -9c7 -4 12 -9 12 -15c0 -14 -11 -21 -25 -21c-8 0 -14 2 -17 5l5 9c3 -1 7 -3 13 -3zM250 580c15 0 24 -11 24 -25c0 -11 -4 -22 -12 -29
c-4 -4 -12 -8 -21 -8c-15 0 -24 11 -24 25c0 10 5 22 11 28s13 9 22 9zM253 533c5 5 7 14 7 22c0 7 -2 14 -12 14c-4 0 -7 -2 -10 -4c-5 -5 -7 -15 -7 -21c0 -9 3 -15 12 -15c4 0 7 1 10 4zM293 540l-5 -21h-11l11 60h15l8 -23c2 -8 3 -14 5 -20c0 6 1 12 3 21l4 22h12
l-11 -60h-13l-9 24c-3 8 -4 14 -6 21c-1 -6 -2 -15 -3 -24zM353 534l-8 -15h-13l28 60h17l7 -60h-14l-1 15h-16zM362 557l-6 -13h13l-2 13v12c-2 -3 -4 -8 -5 -12zM402 579h13l-10 -49h23l-2 -11h-35zM473 579l-6 -35v-7c0 -5 3 -8 7 -8c7 0 12 4 14 15l6 35h14l-7 -35
c-4 -18 -11 -26 -28 -26c-12 0 -19 7 -19 19v8l6 34h13zM524 529c5 0 10 2 10 7c0 3 -3 6 -8 8c-7 4 -13 8 -13 16c0 13 11 20 24 20c7 0 12 -2 14 -3l-4 -10c-2 0 -7 2 -11 1c-6 0 -10 -2 -10 -5c0 -4 5 -6 10 -9c6 -4 11 -9 11 -15c0 -14 -11 -21 -24 -21
c-8 0 -15 2 -17 5l4 9c4 -1 8 -3 14 -3zM597 567h-22l-2 -12h21l-2 -11h-22l-2 -14h24l-3 -11h-36l11 60h35zM663 526c-6 -4 -12 -8 -22 -8c-15 0 -24 11 -24 25c0 10 4 22 12 28c4 6 12 9 21 9c16 0 24 -11 24 -25c0 -11 -3 -22 -11 -29zM630 544c0 -9 4 -15 13 -15
c4 0 8 1 9 4c5 5 9 14 9 22c0 7 -4 14 -13 14c-3 0 -7 -2 -10 -4c-5 -5 -8 -15 -8 -21zM697 564c0 -6 -2 -15 -4 -24l-4 -21h-13l12 60h15l8 -23c3 -8 5 -14 7 -20c0 6 1 12 2 21l3 22h13l-12 -60h-13l-9 24c-2 8 -4 14 -5 21zM748 579h12l-9 -49h22l-1 -11h-36zM799 544
l-4 -25h-13l5 25l-13 35h15l3 -15c1 -5 2 -8 3 -11c2 3 4 7 6 11l8 15h16zM837 525c0 5 3 9 9 9c4 0 7 -3 7 -8c0 -4 -4 -8 -9 -8s-7 4 -7 7zM861 579l-9 -40h-10l6 40h13zM54 294h-21v-17h19v-5h-19v-23h-7v50h28v-5zM93 268c0 -14 -10 -19 -18 -19c-10 0 -17 6 -17 18
s7 19 17 19c11 0 18 -7 18 -18zM65 267c0 -8 3 -14 10 -14s11 6 11 15c0 6 -3 13 -11 13s-10 -7 -10 -14zM107 249h-7v25v12h6l1 -8c2 5 6 8 10 8h1v-7c0 1 0 1 -1 1c-5 0 -8 -4 -9 -8c-1 -1 -1 -2 -1 -3v-20zM138 274c0 16 11 26 27 26c6 0 10 -1 12 -2l-2 -5
c-2 1 -6 2 -10 2c-12 0 -20 -8 -20 -21s7 -21 20 -21c3 0 8 2 10 3l2 -5c-2 -1 -7 -2 -14 -2c-14 0 -25 8 -25 25zM199 249c-10 0 -19 6 -19 18s9 19 19 19s18 -7 18 -18c0 -14 -10 -19 -18 -19zM199 281c-8 0 -12 -7 -12 -14c0 -8 5 -14 12 -14c6 0 11 6 11 15
c0 6 -4 13 -11 13zM276 249h-7v21c0 6 -2 11 -8 11c-3 0 -6 -3 -7 -7c0 0 -1 -1 -1 -2v-23h-6v23c0 4 -3 9 -7 9s-8 -4 -9 -7v-2v-23h-7v26v11h6v-7h1c1 4 5 7 11 7c5 0 8 -3 10 -7c1 2 3 3 5 5c1 2 3 2 7 2c5 0 12 -3 12 -15v-22zM338 271v-22h-6v21c0 6 -3 11 -8 11
c-4 0 -7 -3 -9 -7v-2v-23h-6v23c0 4 -3 9 -8 9c-4 0 -7 -4 -8 -7v-2v-23h-6v26c0 4 0 7 -1 11h6v-7h1c1 4 5 7 11 7c5 0 9 -3 9 -7l5 5s4 2 8 2c5 0 12 -3 12 -15zM379 270c0 -2 -1 -3 -1 -4h-25c0 -9 6 -13 12 -13c4 0 7 1 10 2l1 -4c-2 -1 -6 -2 -12 -2
c-11 0 -18 6 -18 18c0 10 7 19 17 19c12 0 16 -10 16 -16zM353 271h19c0 3 -2 10 -10 10c-6 0 -9 -6 -9 -10zM386 274v12h5l1 -8c2 5 6 8 10 8h2v-7c-1 1 -2 1 -3 1c-3 0 -7 -4 -8 -8v-3v-20h-7v25zM436 251c-2 -1 -6 -2 -11 -2c-11 0 -18 7 -18 18s8 19 19 19
c4 0 8 -1 10 -2l-2 -5c-1 1 -4 2 -8 2c-8 0 -12 -7 -12 -14c0 -8 4 -14 12 -14c4 0 7 2 9 2zM446 300c3 0 5 -2 5 -5c0 -1 -2 -3 -5 -3c-2 0 -4 2 -4 3c0 3 2 5 4 5zM443 249v37h7v-37h-7zM468 249c-7 0 -11 4 -11 9c0 10 8 15 22 15c0 3 -1 8 -8 8c-3 0 -7 -1 -9 -2l-2 4
c3 2 8 3 11 3c12 0 15 -7 15 -14v-14v-9h-6l-1 4c-2 -2 -6 -4 -11 -4zM479 268c-7 0 -15 -2 -15 -8c0 -5 3 -7 6 -7c4 0 7 3 9 6v2v7zM496 249v53h7v-53h-7zM513 258h8c-2 -6 -5 -14 -7 -18h-5c2 4 4 12 4 18zM545 249v49c3 1 7 2 12 2c6 0 11 -2 14 -5c4 -1 5 -5 5 -9
c0 -5 -1 -9 -4 -12c-4 -3 -9 -5 -15 -5c-2 0 -4 0 -6 1v-21h-6zM551 295v-21h6c7 0 12 3 12 11c0 7 -5 10 -11 10h-7zM584 249v53h6v-53h-6zM629 251c-3 -1 -7 -2 -13 -2c-11 0 -18 6 -18 18c0 10 7 19 17 19c12 0 15 -10 15 -16v-4h-25c0 -9 6 -13 12 -13c5 0 8 1 10 2z
M614 281c-6 0 -9 -6 -9 -10h19c0 3 -2 10 -10 10zM664 249h-6l-1 4c-1 -2 -5 -4 -11 -4c-7 0 -11 4 -11 9c0 10 8 15 22 15c0 3 -1 8 -7 8c-4 0 -8 -1 -10 -2l-2 4c3 2 8 3 12 3c11 0 14 -7 14 -14v-14v-9zM657 261v7c-6 0 -15 -2 -15 -8c0 -5 3 -7 6 -7c4 0 8 3 9 6v2z
M696 259c0 -6 -5 -10 -14 -10c-4 0 -8 1 -10 2l2 5c1 -1 4 -3 8 -3c5 0 7 2 7 5s-2 5 -7 7c-7 3 -9 7 -9 10c0 6 4 11 12 11c4 0 8 -1 10 -2l-2 -5c-1 1 -5 2 -8 2c-4 0 -6 -2 -6 -5c0 -2 2 -4 7 -6c7 -2 10 -5 10 -11zM733 270v-4h-25c0 -9 6 -13 12 -13c5 0 8 1 10 2l2 -4
c-3 -1 -7 -2 -13 -2c-11 0 -18 6 -18 18c0 10 7 19 18 19s14 -10 14 -16zM708 271h19c0 3 -2 10 -9 10s-10 -6 -10 -10zM784 299h6l-18 -50h-7l-16 50h7l8 -25c2 -6 4 -13 6 -18c1 5 3 12 5 18zM798 300c2 0 4 -2 4 -5c0 -1 -2 -3 -5 -3c-2 0 -3 2 -3 3c0 3 1 5 4 5z
M794 249v37h7v-37h-7zM820 253c5 0 7 2 7 5s-2 5 -7 7c-7 3 -10 7 -10 10c0 6 5 11 13 11c4 0 7 -1 9 -2l-1 -5c-2 1 -5 2 -8 2c-4 0 -7 -2 -7 -5c0 -2 3 -4 8 -6c6 -2 9 -5 9 -11s-5 -10 -13 -10c-5 0 -9 1 -11 2l2 5c2 -1 5 -3 9 -3zM845 300c2 0 4 -2 4 -5
c0 -1 -2 -3 -4 -3c-3 0 -5 2 -5 3c0 3 2 5 5 5zM849 286v-37h-7v37h7zM877 280h-10v-19c0 -5 1 -8 5 -8c2 0 3 1 5 1v-4c-2 -1 -4 -1 -7 -1s-5 1 -7 2c-2 2 -3 5 -3 9v20h-5v6h5v8l7 1v-9h10v-6zM245 140h-13v8c-5 -7 -10 -9 -16 -9c-10 0 -16 7 -16 19c0 18 13 34 32 34
c2 0 5 0 7 -1l4 23h16l-11 -54c-1 -7 -2 -14 -3 -20zM223 151c4 0 9 4 11 14l3 14c-1 1 -3 2 -6 2c-9 0 -16 -10 -16 -21c0 -6 3 -9 8 -9zM285 207c0 -6 -4 -10 -8 -10c-5 0 -8 3 -8 8c0 4 4 8 8 8c5 0 8 -3 8 -6zM282 191l-9 -51h-16l10 51h15zM316 140l6 29v5
c0 4 -2 6 -5 6c-4 0 -11 -6 -13 -17l-5 -23h-14l7 34c1 7 1 13 2 17h14l-2 -8h1c5 6 10 9 18 9c9 0 13 -4 13 -14c0 -2 -1 -6 -2 -8l-4 -30h-16zM345 162l3 11h27l-2 -11h-28zM404 181c-3 0 -6 -2 -6 -4c0 -3 2 -4 6 -6c6 -2 12 -7 12 -14c0 -12 -10 -18 -24 -18
c-7 0 -12 2 -15 4l4 10c2 0 7 -3 12 -3s7 3 7 4c0 3 -1 4 -6 7c-6 3 -12 8 -12 13c0 12 10 18 23 18c6 0 11 -1 13 -3l-3 -10c-2 1 -6 2 -11 2zM446 179l-4 -17c0 -2 -1 -5 -1 -7s1 -3 5 -3h5l-2 -12c-3 -1 -7 -1 -10 -1c-9 0 -13 4 -13 11c0 3 0 5 1 9l4 20h-6l1 12h7l3 11
l15 4l-3 -15h10l-2 -12h-10zM505 140h-13l1 9c-6 -8 -12 -10 -19 -10c-8 0 -13 4 -13 14c0 3 1 6 1 10l6 28h14l-5 -27c0 -2 -1 -6 -1 -7c0 -4 2 -6 6 -6c6 0 11 6 12 17l4 23h17l-7 -34c-1 -6 -3 -13 -3 -17zM564 140h-13l1 8c-5 -7 -12 -9 -17 -9c-9 0 -17 7 -17 19
c0 18 14 34 33 34c3 0 5 0 8 -1l3 23h15l-10 -54c-1 -7 -2 -14 -3 -20zM541 151c5 0 11 4 13 14l2 14c-1 1 -3 2 -6 2c-10 0 -15 -10 -15 -21c0 -6 3 -9 6 -9zM605 207c0 -6 -5 -10 -10 -10c-3 0 -7 3 -7 8c0 4 4 8 8 8c5 0 9 -3 9 -6zM601 191l-9 -51h-16l10 51h15z
M627 139c-13 0 -21 9 -21 21c0 18 12 32 30 32c14 0 22 -9 22 -21c0 -18 -13 -32 -31 -32zM634 181c-8 0 -13 -12 -13 -21c0 -6 3 -9 9 -9c8 0 13 11 13 20c0 5 -3 10 -9 10zM671 139c-6 0 -9 4 -9 9s4 10 10 10c5 0 9 -4 9 -9c0 -6 -5 -10 -10 -10zM723 180
c-10 0 -17 -9 -17 -18c0 -8 5 -11 11 -11c3 0 7 2 10 2v-12c-4 -1 -8 -2 -14 -2c-14 0 -22 8 -22 21c0 18 13 32 33 32c4 0 8 -1 11 -2l-4 -11c-2 0 -4 1 -8 1zM757 139c-13 0 -21 9 -21 21c0 18 12 32 30 32c13 0 22 -9 22 -21c0 -18 -14 -32 -31 -32zM764 181
c-9 0 -13 -12 -13 -21c0 -6 3 -9 7 -9c9 0 14 11 14 20c0 5 -2 10 -8 10zM853 140l4 29c1 1 1 3 1 5c0 4 -2 6 -4 6c-5 0 -11 -7 -13 -16l-4 -24h-15l6 29v5c0 4 -1 6 -5 6c-5 0 -10 -7 -13 -17l-3 -23h-15l7 34c1 7 1 13 2 17h13l-1 -8c5 6 12 9 18 9c8 0 12 -4 12 -9
c5 6 12 9 18 9c8 0 13 -4 13 -13c0 -3 -1 -7 -1 -9l-6 -30h-14zM81 328c-39 1 -61 21 -61 48c0 22 13 28 20 28c16 0 21 -17 13 -24c0 13 -24 15 -24 -6c0 -23 21 -37 52 -37c40 0 48 41 48 71c0 21 1 65 -29 65c-1 0 -4 -1 -4 -11v-32v-1v-54c0 -12 7 -12 7 -12v-4h-44v4
s6 0 7 10v0v91c0 8 -1 14 -11 14c-6 0 -10 -4 -10 -6c0 -8 9 -7 9 -7c0 -11 -8 -13 -12 -13c-13 0 -14 11 -14 13c0 13 16 20 27 20c18 0 24 -7 45 -7c31 0 58 -16 58 -70c0 -38 -23 -82 -77 -80zM213 363v-4h-45v4s7 0 8 10v48c-1 11 -8 11 -8 11v3l36 7v-67
c0 -12 9 -12 9 -12zM191 475c8 0 13 -6 13 -13c0 -8 -5 -14 -13 -14s-13 6 -13 14c0 7 5 13 13 13zM259 432c4 4 12 11 24 11c13 0 25 -9 25 -26v-42c0 -11 5 -12 7 -12v-4h-44v4s6 0 7 10v47c0 14 -19 12 -19 -3v-42c0 -12 8 -12 8 -12v-4h-44v4s6 0 7 10v48
c-1 11 -7 11 -7 11v3l36 7v-10zM395 448c0 0 0 30 44 30c22 0 26 -9 35 -3c2 1 3 2 6 2v-30l-4 -1s-4 25 -37 25c-21 0 -28 -25 -14 -31c18 -8 70 -10 69 -52c-1 -17 -18 -29 -50 -29c-31 0 -34 8 -40 0h-4v31h4c0 -13 21 -22 39 -22c32 0 31 28 8 35c-21 6 -56 13 -56 45z
M544 438c0 0 -6 1 -8 -8v-57c1 -10 8 -10 8 -10v-4h-12c-10 0 -25 0 -25 23v47c-1 10 -9 9 -9 9v4c21 0 26 11 38 11v-11h8v-4zM552 438v5h43v-5s-6 1 -6 -9v-44c0 -20 19 -13 19 0v42c0 12 -7 11 -7 11v5h44v-5s-8 1 -9 -9v-56c1 -10 9 -10 9 -10v-4h-21
c-10 0 -16 8 -16 13c-3 -5 -9 -13 -21 -13s-27 8 -27 26v42c0 11 -7 11 -8 11zM769 340c0 -7 -5 -12 -16 -12c-10 0 -42 3 -47 34c-5 -2 -9 -3 -14 -3c-22 0 -41 19 -41 42s19 42 41 42c5 0 9 -2 13 -3v38l37 -6v-4s-7 1 -8 -11v-87c1 -25 8 -35 20 -37c-2 2 -3 5 -3 7
c0 5 3 9 9 9c5 0 9 -4 9 -9zM692 366c11 0 13 16 13 35c0 20 -2 36 -13 36s-13 -16 -13 -36c0 -19 2 -35 13 -35zM791 363v-4h-44v4s7 0 7 10v48c0 11 -7 11 -7 11v3l37 7v-67c0 -12 7 -12 7 -12zM756 462c0 7 6 13 14 13c7 0 13 -6 13 -13c0 -8 -6 -14 -13 -14
c-8 0 -14 6 -14 14zM875 401c0 -23 -19 -42 -42 -42s-41 19 -41 42s18 41 41 41s42 -18 42 -41zM833 366c12 0 13 16 13 35c0 20 -1 35 -13 35c-11 0 -12 -15 -12 -35c0 -19 1 -35 12 -35zM26 151v20h154v-20h-154zM460 605h-93l70 89h95zM876 605h-89l71 89h18v-89z
M180 605h-94l72 89h94zM600 605h-93l71 89h94zM112 694l-72 -89h-14v89h86zM320 605h-93l71 89h94zM741 605h-94l72 89h92zM437 113h95l-72 -90h-93zM787 23l71 90h18v-90h-89zM158 113h94l-72 -90h-94zM578 113h94l-72 -90h-93zM26 113h86l-72 -90h-14v90zM298 113h94
l-72 -90h-93zM719 113h92l-70 -90h-94z" />
    <glyph glyph-name="six" unicode="6" horiz-adv-x="908" 
d="M40 541l-5 -22h-13l11 59c5 1 10 1 16 1c5 0 12 -1 16 -4c4 -2 7 -7 7 -12c0 -8 -4 -14 -8 -18c-5 -3 -13 -4 -20 -4h-4zM44 568l-2 -17c1 -1 1 -1 4 -1c8 0 13 5 13 12c0 5 -5 7 -10 7c-2 0 -4 0 -5 -1zM117 567h-23l-2 -12h22l-3 -11h-21l-3 -14h24l-2 -11h-37l11 60
h35zM135 543l-4 -24h-13l12 59c3 1 9 1 15 1s11 -1 16 -3c4 -3 7 -7 7 -11c0 -10 -7 -15 -14 -18c3 -2 5 -5 6 -11c0 -7 1 -14 1 -17h-12c0 2 -1 7 -2 14c0 8 -3 10 -8 10h-4zM140 568l-3 -16h5c7 0 13 5 13 11c0 4 -5 6 -10 6c-3 0 -4 0 -5 -1zM186 529c5 0 10 2 10 7
c0 3 -2 6 -8 8c-7 4 -12 8 -12 16c0 13 10 20 23 20c7 0 11 -2 14 -3l-4 -10c-2 0 -6 2 -11 1c-6 0 -9 -2 -9 -5c0 -4 3 -6 9 -9c7 -4 12 -9 12 -15c0 -14 -11 -21 -25 -21c-8 0 -14 2 -17 5l5 9c3 -1 7 -3 13 -3zM250 580c15 0 24 -11 24 -25c0 -11 -4 -22 -12 -29
c-4 -4 -12 -8 -21 -8c-15 0 -24 11 -24 25c0 10 5 22 11 28s13 9 22 9zM253 533c5 5 7 14 7 22c0 7 -2 14 -12 14c-4 0 -7 -2 -10 -4c-5 -5 -7 -15 -7 -21c0 -9 3 -15 12 -15c4 0 7 1 10 4zM293 540l-5 -21h-11l11 60h15l8 -23c2 -8 3 -14 5 -20c0 6 1 12 3 21l4 22h12
l-11 -60h-13l-9 24c-3 8 -4 14 -6 21c-1 -6 -2 -15 -3 -24zM353 534l-8 -15h-13l28 60h17l7 -60h-14l-1 15h-16zM362 557l-6 -13h13l-2 13v12c-2 -3 -4 -8 -5 -12zM402 579h13l-10 -49h23l-2 -11h-35zM473 579l-6 -35v-7c0 -5 3 -8 7 -8c7 0 12 4 14 15l6 35h14l-7 -35
c-4 -18 -11 -26 -28 -26c-12 0 -19 7 -19 19v8l6 34h13zM524 529c5 0 10 2 10 7c0 3 -3 6 -8 8c-7 4 -13 8 -13 16c0 13 11 20 24 20c7 0 12 -2 14 -3l-4 -10c-2 0 -7 2 -11 1c-6 0 -10 -2 -10 -5c0 -4 5 -6 10 -9c6 -4 11 -9 11 -15c0 -14 -11 -21 -24 -21
c-8 0 -15 2 -17 5l4 9c4 -1 8 -3 14 -3zM597 567h-22l-2 -12h21l-2 -11h-22l-2 -14h24l-3 -11h-36l11 60h35zM663 526c-6 -4 -12 -8 -22 -8c-15 0 -24 11 -24 25c0 10 4 22 12 28c4 6 12 9 21 9c16 0 24 -11 24 -25c0 -11 -3 -22 -11 -29zM630 544c0 -9 4 -15 13 -15
c4 0 8 1 9 4c5 5 9 14 9 22c0 7 -4 14 -13 14c-3 0 -7 -2 -10 -4c-5 -5 -8 -15 -8 -21zM697 564c0 -6 -2 -15 -4 -24l-4 -21h-13l12 60h15l8 -23c3 -8 5 -14 7 -20c0 6 1 12 2 21l3 22h13l-12 -60h-13l-9 24c-2 8 -4 14 -5 21zM748 579h12l-9 -49h22l-1 -11h-36zM799 544
l-4 -25h-13l5 25l-13 35h15l3 -15c1 -5 2 -8 3 -11c2 3 4 7 6 11l8 15h16zM837 525c0 5 3 9 9 9c4 0 7 -3 7 -8c0 -4 -4 -8 -9 -8s-7 4 -7 7zM861 579l-9 -40h-10l6 40h13zM54 294h-21v-17h19v-5h-19v-23h-7v50h28v-5zM93 268c0 -14 -10 -19 -18 -19c-10 0 -17 6 -17 18
s7 19 17 19c11 0 18 -7 18 -18zM65 267c0 -8 3 -14 10 -14s11 6 11 15c0 6 -3 13 -11 13s-10 -7 -10 -14zM107 249h-7v25v12h6l1 -8c2 5 6 8 10 8h1v-7c0 1 0 1 -1 1c-5 0 -8 -4 -9 -8c-1 -1 -1 -2 -1 -3v-20zM138 274c0 16 11 26 27 26c6 0 10 -1 12 -2l-2 -5
c-2 1 -6 2 -10 2c-12 0 -20 -8 -20 -21s7 -21 20 -21c3 0 8 2 10 3l2 -5c-2 -1 -7 -2 -14 -2c-14 0 -25 8 -25 25zM199 249c-10 0 -19 6 -19 18s9 19 19 19s18 -7 18 -18c0 -14 -10 -19 -18 -19zM199 281c-8 0 -12 -7 -12 -14c0 -8 5 -14 12 -14c6 0 11 6 11 15
c0 6 -4 13 -11 13zM276 249h-7v21c0 6 -2 11 -8 11c-3 0 -6 -3 -7 -7c0 0 -1 -1 -1 -2v-23h-6v23c0 4 -3 9 -7 9s-8 -4 -9 -7v-2v-23h-7v26v11h6v-7h1c1 4 5 7 11 7c5 0 8 -3 10 -7c1 2 3 3 5 5c1 2 3 2 7 2c5 0 12 -3 12 -15v-22zM338 271v-22h-6v21c0 6 -3 11 -8 11
c-4 0 -7 -3 -9 -7v-2v-23h-6v23c0 4 -3 9 -8 9c-4 0 -7 -4 -8 -7v-2v-23h-6v26c0 4 0 7 -1 11h6v-7h1c1 4 5 7 11 7c5 0 9 -3 9 -7l5 5s4 2 8 2c5 0 12 -3 12 -15zM379 270c0 -2 -1 -3 -1 -4h-25c0 -9 6 -13 12 -13c4 0 7 1 10 2l1 -4c-2 -1 -6 -2 -12 -2
c-11 0 -18 6 -18 18c0 10 7 19 17 19c12 0 16 -10 16 -16zM353 271h19c0 3 -2 10 -10 10c-6 0 -9 -6 -9 -10zM386 274v12h5l1 -8c2 5 6 8 10 8h2v-7c-1 1 -2 1 -3 1c-3 0 -7 -4 -8 -8v-3v-20h-7v25zM436 251c-2 -1 -6 -2 -11 -2c-11 0 -18 7 -18 18s8 19 19 19
c4 0 8 -1 10 -2l-2 -5c-1 1 -4 2 -8 2c-8 0 -12 -7 -12 -14c0 -8 4 -14 12 -14c4 0 7 2 9 2zM446 300c3 0 5 -2 5 -5c0 -1 -2 -3 -5 -3c-2 0 -4 2 -4 3c0 3 2 5 4 5zM443 249v37h7v-37h-7zM468 249c-7 0 -11 4 -11 9c0 10 8 15 22 15c0 3 -1 8 -8 8c-3 0 -7 -1 -9 -2l-2 4
c3 2 8 3 11 3c12 0 15 -7 15 -14v-14v-9h-6l-1 4c-2 -2 -6 -4 -11 -4zM479 268c-7 0 -15 -2 -15 -8c0 -5 3 -7 6 -7c4 0 7 3 9 6v2v7zM496 249v53h7v-53h-7zM513 258h8c-2 -6 -5 -14 -7 -18h-5c2 4 4 12 4 18zM545 249v49c3 1 7 2 12 2c6 0 11 -2 14 -5c4 -1 5 -5 5 -9
c0 -5 -1 -9 -4 -12c-4 -3 -9 -5 -15 -5c-2 0 -4 0 -6 1v-21h-6zM551 295v-21h6c7 0 12 3 12 11c0 7 -5 10 -11 10h-7zM584 249v53h6v-53h-6zM629 251c-3 -1 -7 -2 -13 -2c-11 0 -18 6 -18 18c0 10 7 19 17 19c12 0 15 -10 15 -16v-4h-25c0 -9 6 -13 12 -13c5 0 8 1 10 2z
M614 281c-6 0 -9 -6 -9 -10h19c0 3 -2 10 -10 10zM664 249h-6l-1 4c-1 -2 -5 -4 -11 -4c-7 0 -11 4 -11 9c0 10 8 15 22 15c0 3 -1 8 -7 8c-4 0 -8 -1 -10 -2l-2 4c3 2 8 3 12 3c11 0 14 -7 14 -14v-14v-9zM657 261v7c-6 0 -15 -2 -15 -8c0 -5 3 -7 6 -7c4 0 8 3 9 6v2z
M696 259c0 -6 -5 -10 -14 -10c-4 0 -8 1 -10 2l2 5c1 -1 4 -3 8 -3c5 0 7 2 7 5s-2 5 -7 7c-7 3 -9 7 -9 10c0 6 4 11 12 11c4 0 8 -1 10 -2l-2 -5c-1 1 -5 2 -8 2c-4 0 -6 -2 -6 -5c0 -2 2 -4 7 -6c7 -2 10 -5 10 -11zM733 270v-4h-25c0 -9 6 -13 12 -13c5 0 8 1 10 2l2 -4
c-3 -1 -7 -2 -13 -2c-11 0 -18 6 -18 18c0 10 7 19 18 19s14 -10 14 -16zM708 271h19c0 3 -2 10 -9 10s-10 -6 -10 -10zM784 299h6l-18 -50h-7l-16 50h7l8 -25c2 -6 4 -13 6 -18c1 5 3 12 5 18zM798 300c2 0 4 -2 4 -5c0 -1 -2 -3 -5 -3c-2 0 -3 2 -3 3c0 3 1 5 4 5z
M794 249v37h7v-37h-7zM820 253c5 0 7 2 7 5s-2 5 -7 7c-7 3 -10 7 -10 10c0 6 5 11 13 11c4 0 7 -1 9 -2l-1 -5c-2 1 -5 2 -8 2c-4 0 -7 -2 -7 -5c0 -2 3 -4 8 -6c6 -2 9 -5 9 -11s-5 -10 -13 -10c-5 0 -9 1 -11 2l2 5c2 -1 5 -3 9 -3zM845 300c2 0 4 -2 4 -5
c0 -1 -2 -3 -4 -3c-3 0 -5 2 -5 3c0 3 2 5 5 5zM849 286v-37h-7v37h7zM877 280h-10v-19c0 -5 1 -8 5 -8c2 0 3 1 5 1v-4c-2 -1 -4 -1 -7 -1s-5 1 -7 2c-2 2 -3 5 -3 9v20h-5v6h5v8l7 1v-9h10v-6zM245 140h-13v8c-5 -7 -10 -9 -16 -9c-10 0 -16 7 -16 19c0 18 13 34 32 34
c2 0 5 0 7 -1l4 23h16l-11 -54c-1 -7 -2 -14 -3 -20zM223 151c4 0 9 4 11 14l3 14c-1 1 -3 2 -6 2c-9 0 -16 -10 -16 -21c0 -6 3 -9 8 -9zM285 207c0 -6 -4 -10 -8 -10c-5 0 -8 3 -8 8c0 4 4 8 8 8c5 0 8 -3 8 -6zM282 191l-9 -51h-16l10 51h15zM316 140l6 29v5
c0 4 -2 6 -5 6c-4 0 -11 -6 -13 -17l-5 -23h-14l7 34c1 7 1 13 2 17h14l-2 -8h1c5 6 10 9 18 9c9 0 13 -4 13 -14c0 -2 -1 -6 -2 -8l-4 -30h-16zM345 162l3 11h27l-2 -11h-28zM404 181c-3 0 -6 -2 -6 -4c0 -3 2 -4 6 -6c6 -2 12 -7 12 -14c0 -12 -10 -18 -24 -18
c-7 0 -12 2 -15 4l4 10c2 0 7 -3 12 -3s7 3 7 4c0 3 -1 4 -6 7c-6 3 -12 8 -12 13c0 12 10 18 23 18c6 0 11 -1 13 -3l-3 -10c-2 1 -6 2 -11 2zM446 179l-4 -17c0 -2 -1 -5 -1 -7s1 -3 5 -3h5l-2 -12c-3 -1 -7 -1 -10 -1c-9 0 -13 4 -13 11c0 3 0 5 1 9l4 20h-6l1 12h7l3 11
l15 4l-3 -15h10l-2 -12h-10zM505 140h-13l1 9c-6 -8 -12 -10 -19 -10c-8 0 -13 4 -13 14c0 3 1 6 1 10l6 28h14l-5 -27c0 -2 -1 -6 -1 -7c0 -4 2 -6 6 -6c6 0 11 6 12 17l4 23h17l-7 -34c-1 -6 -3 -13 -3 -17zM564 140h-13l1 8c-5 -7 -12 -9 -17 -9c-9 0 -17 7 -17 19
c0 18 14 34 33 34c3 0 5 0 8 -1l3 23h15l-10 -54c-1 -7 -2 -14 -3 -20zM541 151c5 0 11 4 13 14l2 14c-1 1 -3 2 -6 2c-10 0 -15 -10 -15 -21c0 -6 3 -9 6 -9zM605 207c0 -6 -5 -10 -10 -10c-3 0 -7 3 -7 8c0 4 4 8 8 8c5 0 9 -3 9 -6zM601 191l-9 -51h-16l10 51h15z
M627 139c-13 0 -21 9 -21 21c0 18 12 32 30 32c14 0 22 -9 22 -21c0 -18 -13 -32 -31 -32zM634 181c-8 0 -13 -12 -13 -21c0 -6 3 -9 9 -9c8 0 13 11 13 20c0 5 -3 10 -9 10zM671 139c-6 0 -9 4 -9 9s4 10 10 10c5 0 9 -4 9 -9c0 -6 -5 -10 -10 -10zM723 180
c-10 0 -17 -9 -17 -18c0 -8 5 -11 11 -11c3 0 7 2 10 2v-12c-4 -1 -8 -2 -14 -2c-14 0 -22 8 -22 21c0 18 13 32 33 32c4 0 8 -1 11 -2l-4 -11c-2 0 -4 1 -8 1zM757 139c-13 0 -21 9 -21 21c0 18 12 32 30 32c13 0 22 -9 22 -21c0 -18 -14 -32 -31 -32zM764 181
c-9 0 -13 -12 -13 -21c0 -6 3 -9 7 -9c9 0 14 11 14 20c0 5 -2 10 -8 10zM853 140l4 29c1 1 1 3 1 5c0 4 -2 6 -4 6c-5 0 -11 -7 -13 -16l-4 -24h-15l6 29v5c0 4 -1 6 -5 6c-5 0 -10 -7 -13 -17l-3 -23h-15l7 34c1 7 1 13 2 17h13l-1 -8c5 6 12 9 18 9c8 0 12 -4 12 -9
c5 6 12 9 18 9c8 0 13 -4 13 -13c0 -3 -1 -7 -1 -9l-6 -30h-14zM81 328c-39 1 -61 21 -61 48c0 22 13 28 20 28c16 0 21 -17 13 -24c0 13 -24 15 -24 -6c0 -23 21 -37 52 -37c40 0 48 41 48 71c0 21 1 65 -29 65c-1 0 -4 -1 -4 -11v-32v-1v-54c0 -12 7 -12 7 -12v-4h-44v4
s6 0 7 10v0v91c0 8 -1 14 -11 14c-6 0 -10 -4 -10 -6c0 -8 9 -7 9 -7c0 -11 -8 -13 -12 -13c-13 0 -14 11 -14 13c0 13 16 20 27 20c18 0 24 -7 45 -7c31 0 58 -16 58 -70c0 -38 -23 -82 -77 -80zM213 363v-4h-45v4s7 0 8 10v48c-1 11 -8 11 -8 11v3l36 7v-67
c0 -12 9 -12 9 -12zM191 475c8 0 13 -6 13 -13c0 -8 -5 -14 -13 -14s-13 6 -13 14c0 7 5 13 13 13zM259 432c4 4 12 11 24 11c13 0 25 -9 25 -26v-42c0 -11 5 -12 7 -12v-4h-44v4s6 0 7 10v47c0 14 -19 12 -19 -3v-42c0 -12 8 -12 8 -12v-4h-44v4s6 0 7 10v48
c-1 11 -7 11 -7 11v3l36 7v-10zM395 448c0 0 0 30 44 30c22 0 26 -9 35 -3c2 1 3 2 6 2v-30l-4 -1s-4 25 -37 25c-21 0 -28 -25 -14 -31c18 -8 70 -10 69 -52c-1 -17 -18 -29 -50 -29c-31 0 -34 8 -40 0h-4v31h4c0 -13 21 -22 39 -22c32 0 31 28 8 35c-21 6 -56 13 -56 45z
M544 438c0 0 -6 1 -8 -8v-57c1 -10 8 -10 8 -10v-4h-12c-10 0 -25 0 -25 23v47c-1 10 -9 9 -9 9v4c21 0 26 11 38 11v-11h8v-4zM552 438v5h43v-5s-6 1 -6 -9v-44c0 -20 19 -13 19 0v42c0 12 -7 11 -7 11v5h44v-5s-8 1 -9 -9v-56c1 -10 9 -10 9 -10v-4h-21
c-10 0 -16 8 -16 13c-3 -5 -9 -13 -21 -13s-27 8 -27 26v42c0 11 -7 11 -8 11zM769 340c0 -7 -5 -12 -16 -12c-10 0 -42 3 -47 34c-5 -2 -9 -3 -14 -3c-22 0 -41 19 -41 42s19 42 41 42c5 0 9 -2 13 -3v38l37 -6v-4s-7 1 -8 -11v-87c1 -25 8 -35 20 -37c-2 2 -3 5 -3 7
c0 5 3 9 9 9c5 0 9 -4 9 -9zM692 366c11 0 13 16 13 35c0 20 -2 36 -13 36s-13 -16 -13 -36c0 -19 2 -35 13 -35zM791 363v-4h-44v4s7 0 7 10v48c0 11 -7 11 -7 11v3l37 7v-67c0 -12 7 -12 7 -12zM756 462c0 7 6 13 14 13c7 0 13 -6 13 -13c0 -8 -6 -14 -13 -14
c-8 0 -14 6 -14 14zM875 401c0 -23 -19 -42 -42 -42s-41 19 -41 42s18 41 41 41s42 -18 42 -41zM833 366c12 0 13 16 13 35c0 20 -1 35 -13 35c-11 0 -12 -15 -12 -35c0 -19 1 -35 12 -35zM26 151v20h154v-20h-154zM460 605h-93l70 89h95zM876 605h-89l71 89h18v-89z
M180 605h-94l72 89h94zM600 605h-93l71 89h94zM112 694l-72 -89h-14v89h86zM320 605h-93l71 89h94zM741 605h-94l72 89h92zM437 113h95l-72 -90h-93zM787 23l71 90h18v-90h-89zM158 113h94l-72 -90h-94zM578 113h94l-72 -90h-93zM26 113h86l-72 -90h-14v90zM298 113h94
l-72 -90h-93zM719 113h92l-70 -90h-94z" />
    <glyph glyph-name="seven" unicode="7" horiz-adv-x="908" 
d="M40 541l-5 -22h-13l11 59c5 1 10 1 16 1c5 0 12 -1 16 -4c4 -2 7 -7 7 -12c0 -8 -4 -14 -8 -18c-5 -3 -13 -4 -20 -4h-4zM44 568l-2 -17c1 -1 1 -1 4 -1c8 0 13 5 13 12c0 5 -5 7 -10 7c-2 0 -4 0 -5 -1zM117 567h-23l-2 -12h22l-3 -11h-21l-3 -14h24l-2 -11h-37l11 60
h35zM135 543l-4 -24h-13l12 59c3 1 9 1 15 1s11 -1 16 -3c4 -3 7 -7 7 -11c0 -10 -7 -15 -14 -18c3 -2 5 -5 6 -11c0 -7 1 -14 1 -17h-12c0 2 -1 7 -2 14c0 8 -3 10 -8 10h-4zM140 568l-3 -16h5c7 0 13 5 13 11c0 4 -5 6 -10 6c-3 0 -4 0 -5 -1zM186 529c5 0 10 2 10 7
c0 3 -2 6 -8 8c-7 4 -12 8 -12 16c0 13 10 20 23 20c7 0 11 -2 14 -3l-4 -10c-2 0 -6 2 -11 1c-6 0 -9 -2 -9 -5c0 -4 3 -6 9 -9c7 -4 12 -9 12 -15c0 -14 -11 -21 -25 -21c-8 0 -14 2 -17 5l5 9c3 -1 7 -3 13 -3zM250 580c15 0 24 -11 24 -25c0 -11 -4 -22 -12 -29
c-4 -4 -12 -8 -21 -8c-15 0 -24 11 -24 25c0 10 5 22 11 28s13 9 22 9zM253 533c5 5 7 14 7 22c0 7 -2 14 -12 14c-4 0 -7 -2 -10 -4c-5 -5 -7 -15 -7 -21c0 -9 3 -15 12 -15c4 0 7 1 10 4zM293 540l-5 -21h-11l11 60h15l8 -23c2 -8 3 -14 5 -20c0 6 1 12 3 21l4 22h12
l-11 -60h-13l-9 24c-3 8 -4 14 -6 21c-1 -6 -2 -15 -3 -24zM353 534l-8 -15h-13l28 60h17l7 -60h-14l-1 15h-16zM362 557l-6 -13h13l-2 13v12c-2 -3 -4 -8 -5 -12zM402 579h13l-10 -49h23l-2 -11h-35zM473 579l-6 -35v-7c0 -5 3 -8 7 -8c7 0 12 4 14 15l6 35h14l-7 -35
c-4 -18 -11 -26 -28 -26c-12 0 -19 7 -19 19v8l6 34h13zM524 529c5 0 10 2 10 7c0 3 -3 6 -8 8c-7 4 -13 8 -13 16c0 13 11 20 24 20c7 0 12 -2 14 -3l-4 -10c-2 0 -7 2 -11 1c-6 0 -10 -2 -10 -5c0 -4 5 -6 10 -9c6 -4 11 -9 11 -15c0 -14 -11 -21 -24 -21
c-8 0 -15 2 -17 5l4 9c4 -1 8 -3 14 -3zM597 567h-22l-2 -12h21l-2 -11h-22l-2 -14h24l-3 -11h-36l11 60h35zM663 526c-6 -4 -12 -8 -22 -8c-15 0 -24 11 -24 25c0 10 4 22 12 28c4 6 12 9 21 9c16 0 24 -11 24 -25c0 -11 -3 -22 -11 -29zM630 544c0 -9 4 -15 13 -15
c4 0 8 1 9 4c5 5 9 14 9 22c0 7 -4 14 -13 14c-3 0 -7 -2 -10 -4c-5 -5 -8 -15 -8 -21zM697 564c0 -6 -2 -15 -4 -24l-4 -21h-13l12 60h15l8 -23c3 -8 5 -14 7 -20c0 6 1 12 2 21l3 22h13l-12 -60h-13l-9 24c-2 8 -4 14 -5 21zM748 579h12l-9 -49h22l-1 -11h-36zM799 544
l-4 -25h-13l5 25l-13 35h15l3 -15c1 -5 2 -8 3 -11c2 3 4 7 6 11l8 15h16zM837 525c0 5 3 9 9 9c4 0 7 -3 7 -8c0 -4 -4 -8 -9 -8s-7 4 -7 7zM861 579l-9 -40h-10l6 40h13zM54 294h-21v-17h19v-5h-19v-23h-7v50h28v-5zM93 268c0 -14 -10 -19 -18 -19c-10 0 -17 6 -17 18
s7 19 17 19c11 0 18 -7 18 -18zM65 267c0 -8 3 -14 10 -14s11 6 11 15c0 6 -3 13 -11 13s-10 -7 -10 -14zM107 249h-7v25v12h6l1 -8c2 5 6 8 10 8h1v-7c0 1 0 1 -1 1c-5 0 -8 -4 -9 -8c-1 -1 -1 -2 -1 -3v-20zM138 274c0 16 11 26 27 26c6 0 10 -1 12 -2l-2 -5
c-2 1 -6 2 -10 2c-12 0 -20 -8 -20 -21s7 -21 20 -21c3 0 8 2 10 3l2 -5c-2 -1 -7 -2 -14 -2c-14 0 -25 8 -25 25zM199 249c-10 0 -19 6 -19 18s9 19 19 19s18 -7 18 -18c0 -14 -10 -19 -18 -19zM199 281c-8 0 -12 -7 -12 -14c0 -8 5 -14 12 -14c6 0 11 6 11 15
c0 6 -4 13 -11 13zM276 249h-7v21c0 6 -2 11 -8 11c-3 0 -6 -3 -7 -7c0 0 -1 -1 -1 -2v-23h-6v23c0 4 -3 9 -7 9s-8 -4 -9 -7v-2v-23h-7v26v11h6v-7h1c1 4 5 7 11 7c5 0 8 -3 10 -7c1 2 3 3 5 5c1 2 3 2 7 2c5 0 12 -3 12 -15v-22zM338 271v-22h-6v21c0 6 -3 11 -8 11
c-4 0 -7 -3 -9 -7v-2v-23h-6v23c0 4 -3 9 -8 9c-4 0 -7 -4 -8 -7v-2v-23h-6v26c0 4 0 7 -1 11h6v-7h1c1 4 5 7 11 7c5 0 9 -3 9 -7l5 5s4 2 8 2c5 0 12 -3 12 -15zM379 270c0 -2 -1 -3 -1 -4h-25c0 -9 6 -13 12 -13c4 0 7 1 10 2l1 -4c-2 -1 -6 -2 -12 -2
c-11 0 -18 6 -18 18c0 10 7 19 17 19c12 0 16 -10 16 -16zM353 271h19c0 3 -2 10 -10 10c-6 0 -9 -6 -9 -10zM386 274v12h5l1 -8c2 5 6 8 10 8h2v-7c-1 1 -2 1 -3 1c-3 0 -7 -4 -8 -8v-3v-20h-7v25zM436 251c-2 -1 -6 -2 -11 -2c-11 0 -18 7 -18 18s8 19 19 19
c4 0 8 -1 10 -2l-2 -5c-1 1 -4 2 -8 2c-8 0 -12 -7 -12 -14c0 -8 4 -14 12 -14c4 0 7 2 9 2zM446 300c3 0 5 -2 5 -5c0 -1 -2 -3 -5 -3c-2 0 -4 2 -4 3c0 3 2 5 4 5zM443 249v37h7v-37h-7zM468 249c-7 0 -11 4 -11 9c0 10 8 15 22 15c0 3 -1 8 -8 8c-3 0 -7 -1 -9 -2l-2 4
c3 2 8 3 11 3c12 0 15 -7 15 -14v-14v-9h-6l-1 4c-2 -2 -6 -4 -11 -4zM479 268c-7 0 -15 -2 -15 -8c0 -5 3 -7 6 -7c4 0 7 3 9 6v2v7zM496 249v53h7v-53h-7zM513 258h8c-2 -6 -5 -14 -7 -18h-5c2 4 4 12 4 18zM545 249v49c3 1 7 2 12 2c6 0 11 -2 14 -5c4 -1 5 -5 5 -9
c0 -5 -1 -9 -4 -12c-4 -3 -9 -5 -15 -5c-2 0 -4 0 -6 1v-21h-6zM551 295v-21h6c7 0 12 3 12 11c0 7 -5 10 -11 10h-7zM584 249v53h6v-53h-6zM629 251c-3 -1 -7 -2 -13 -2c-11 0 -18 6 -18 18c0 10 7 19 17 19c12 0 15 -10 15 -16v-4h-25c0 -9 6 -13 12 -13c5 0 8 1 10 2z
M614 281c-6 0 -9 -6 -9 -10h19c0 3 -2 10 -10 10zM664 249h-6l-1 4c-1 -2 -5 -4 -11 -4c-7 0 -11 4 -11 9c0 10 8 15 22 15c0 3 -1 8 -7 8c-4 0 -8 -1 -10 -2l-2 4c3 2 8 3 12 3c11 0 14 -7 14 -14v-14v-9zM657 261v7c-6 0 -15 -2 -15 -8c0 -5 3 -7 6 -7c4 0 8 3 9 6v2z
M696 259c0 -6 -5 -10 -14 -10c-4 0 -8 1 -10 2l2 5c1 -1 4 -3 8 -3c5 0 7 2 7 5s-2 5 -7 7c-7 3 -9 7 -9 10c0 6 4 11 12 11c4 0 8 -1 10 -2l-2 -5c-1 1 -5 2 -8 2c-4 0 -6 -2 -6 -5c0 -2 2 -4 7 -6c7 -2 10 -5 10 -11zM733 270v-4h-25c0 -9 6 -13 12 -13c5 0 8 1 10 2l2 -4
c-3 -1 -7 -2 -13 -2c-11 0 -18 6 -18 18c0 10 7 19 18 19s14 -10 14 -16zM708 271h19c0 3 -2 10 -9 10s-10 -6 -10 -10zM784 299h6l-18 -50h-7l-16 50h7l8 -25c2 -6 4 -13 6 -18c1 5 3 12 5 18zM798 300c2 0 4 -2 4 -5c0 -1 -2 -3 -5 -3c-2 0 -3 2 -3 3c0 3 1 5 4 5z
M794 249v37h7v-37h-7zM820 253c5 0 7 2 7 5s-2 5 -7 7c-7 3 -10 7 -10 10c0 6 5 11 13 11c4 0 7 -1 9 -2l-1 -5c-2 1 -5 2 -8 2c-4 0 -7 -2 -7 -5c0 -2 3 -4 8 -6c6 -2 9 -5 9 -11s-5 -10 -13 -10c-5 0 -9 1 -11 2l2 5c2 -1 5 -3 9 -3zM845 300c2 0 4 -2 4 -5
c0 -1 -2 -3 -4 -3c-3 0 -5 2 -5 3c0 3 2 5 5 5zM849 286v-37h-7v37h7zM877 280h-10v-19c0 -5 1 -8 5 -8c2 0 3 1 5 1v-4c-2 -1 -4 -1 -7 -1s-5 1 -7 2c-2 2 -3 5 -3 9v20h-5v6h5v8l7 1v-9h10v-6zM245 140h-13v8c-5 -7 -10 -9 -16 -9c-10 0 -16 7 -16 19c0 18 13 34 32 34
c2 0 5 0 7 -1l4 23h16l-11 -54c-1 -7 -2 -14 -3 -20zM223 151c4 0 9 4 11 14l3 14c-1 1 -3 2 -6 2c-9 0 -16 -10 -16 -21c0 -6 3 -9 8 -9zM285 207c0 -6 -4 -10 -8 -10c-5 0 -8 3 -8 8c0 4 4 8 8 8c5 0 8 -3 8 -6zM282 191l-9 -51h-16l10 51h15zM316 140l6 29v5
c0 4 -2 6 -5 6c-4 0 -11 -6 -13 -17l-5 -23h-14l7 34c1 7 1 13 2 17h14l-2 -8h1c5 6 10 9 18 9c9 0 13 -4 13 -14c0 -2 -1 -6 -2 -8l-4 -30h-16zM345 162l3 11h27l-2 -11h-28zM404 181c-3 0 -6 -2 -6 -4c0 -3 2 -4 6 -6c6 -2 12 -7 12 -14c0 -12 -10 -18 -24 -18
c-7 0 -12 2 -15 4l4 10c2 0 7 -3 12 -3s7 3 7 4c0 3 -1 4 -6 7c-6 3 -12 8 -12 13c0 12 10 18 23 18c6 0 11 -1 13 -3l-3 -10c-2 1 -6 2 -11 2zM446 179l-4 -17c0 -2 -1 -5 -1 -7s1 -3 5 -3h5l-2 -12c-3 -1 -7 -1 -10 -1c-9 0 -13 4 -13 11c0 3 0 5 1 9l4 20h-6l1 12h7l3 11
l15 4l-3 -15h10l-2 -12h-10zM505 140h-13l1 9c-6 -8 -12 -10 -19 -10c-8 0 -13 4 -13 14c0 3 1 6 1 10l6 28h14l-5 -27c0 -2 -1 -6 -1 -7c0 -4 2 -6 6 -6c6 0 11 6 12 17l4 23h17l-7 -34c-1 -6 -3 -13 -3 -17zM564 140h-13l1 8c-5 -7 -12 -9 -17 -9c-9 0 -17 7 -17 19
c0 18 14 34 33 34c3 0 5 0 8 -1l3 23h15l-10 -54c-1 -7 -2 -14 -3 -20zM541 151c5 0 11 4 13 14l2 14c-1 1 -3 2 -6 2c-10 0 -15 -10 -15 -21c0 -6 3 -9 6 -9zM605 207c0 -6 -5 -10 -10 -10c-3 0 -7 3 -7 8c0 4 4 8 8 8c5 0 9 -3 9 -6zM601 191l-9 -51h-16l10 51h15z
M627 139c-13 0 -21 9 -21 21c0 18 12 32 30 32c14 0 22 -9 22 -21c0 -18 -13 -32 -31 -32zM634 181c-8 0 -13 -12 -13 -21c0 -6 3 -9 9 -9c8 0 13 11 13 20c0 5 -3 10 -9 10zM671 139c-6 0 -9 4 -9 9s4 10 10 10c5 0 9 -4 9 -9c0 -6 -5 -10 -10 -10zM723 180
c-10 0 -17 -9 -17 -18c0 -8 5 -11 11 -11c3 0 7 2 10 2v-12c-4 -1 -8 -2 -14 -2c-14 0 -22 8 -22 21c0 18 13 32 33 32c4 0 8 -1 11 -2l-4 -11c-2 0 -4 1 -8 1zM757 139c-13 0 -21 9 -21 21c0 18 12 32 30 32c13 0 22 -9 22 -21c0 -18 -14 -32 -31 -32zM764 181
c-9 0 -13 -12 -13 -21c0 -6 3 -9 7 -9c9 0 14 11 14 20c0 5 -2 10 -8 10zM853 140l4 29c1 1 1 3 1 5c0 4 -2 6 -4 6c-5 0 -11 -7 -13 -16l-4 -24h-15l6 29v5c0 4 -1 6 -5 6c-5 0 -10 -7 -13 -17l-3 -23h-15l7 34c1 7 1 13 2 17h13l-1 -8c5 6 12 9 18 9c8 0 12 -4 12 -9
c5 6 12 9 18 9c8 0 13 -4 13 -13c0 -3 -1 -7 -1 -9l-6 -30h-14zM81 328c-39 1 -61 21 -61 48c0 22 13 28 20 28c16 0 21 -17 13 -24c0 13 -24 15 -24 -6c0 -23 21 -37 52 -37c40 0 48 41 48 71c0 21 1 65 -29 65c-1 0 -4 -1 -4 -11v-32v-1v-54c0 -12 7 -12 7 -12v-4h-44v4
s6 0 7 10v0v91c0 8 -1 14 -11 14c-6 0 -10 -4 -10 -6c0 -8 9 -7 9 -7c0 -11 -8 -13 -12 -13c-13 0 -14 11 -14 13c0 13 16 20 27 20c18 0 24 -7 45 -7c31 0 58 -16 58 -70c0 -38 -23 -82 -77 -80zM213 363v-4h-45v4s7 0 8 10v48c-1 11 -8 11 -8 11v3l36 7v-67
c0 -12 9 -12 9 -12zM191 475c8 0 13 -6 13 -13c0 -8 -5 -14 -13 -14s-13 6 -13 14c0 7 5 13 13 13zM259 432c4 4 12 11 24 11c13 0 25 -9 25 -26v-42c0 -11 5 -12 7 -12v-4h-44v4s6 0 7 10v47c0 14 -19 12 -19 -3v-42c0 -12 8 -12 8 -12v-4h-44v4s6 0 7 10v48
c-1 11 -7 11 -7 11v3l36 7v-10zM395 448c0 0 0 30 44 30c22 0 26 -9 35 -3c2 1 3 2 6 2v-30l-4 -1s-4 25 -37 25c-21 0 -28 -25 -14 -31c18 -8 70 -10 69 -52c-1 -17 -18 -29 -50 -29c-31 0 -34 8 -40 0h-4v31h4c0 -13 21 -22 39 -22c32 0 31 28 8 35c-21 6 -56 13 -56 45z
M544 438c0 0 -6 1 -8 -8v-57c1 -10 8 -10 8 -10v-4h-12c-10 0 -25 0 -25 23v47c-1 10 -9 9 -9 9v4c21 0 26 11 38 11v-11h8v-4zM552 438v5h43v-5s-6 1 -6 -9v-44c0 -20 19 -13 19 0v42c0 12 -7 11 -7 11v5h44v-5s-8 1 -9 -9v-56c1 -10 9 -10 9 -10v-4h-21
c-10 0 -16 8 -16 13c-3 -5 -9 -13 -21 -13s-27 8 -27 26v42c0 11 -7 11 -8 11zM769 340c0 -7 -5 -12 -16 -12c-10 0 -42 3 -47 34c-5 -2 -9 -3 -14 -3c-22 0 -41 19 -41 42s19 42 41 42c5 0 9 -2 13 -3v38l37 -6v-4s-7 1 -8 -11v-87c1 -25 8 -35 20 -37c-2 2 -3 5 -3 7
c0 5 3 9 9 9c5 0 9 -4 9 -9zM692 366c11 0 13 16 13 35c0 20 -2 36 -13 36s-13 -16 -13 -36c0 -19 2 -35 13 -35zM791 363v-4h-44v4s7 0 7 10v48c0 11 -7 11 -7 11v3l37 7v-67c0 -12 7 -12 7 -12zM756 462c0 7 6 13 14 13c7 0 13 -6 13 -13c0 -8 -6 -14 -13 -14
c-8 0 -14 6 -14 14zM875 401c0 -23 -19 -42 -42 -42s-41 19 -41 42s18 41 41 41s42 -18 42 -41zM833 366c12 0 13 16 13 35c0 20 -1 35 -13 35c-11 0 -12 -15 -12 -35c0 -19 1 -35 12 -35zM26 151v20h154v-20h-154zM460 605h-93l70 89h95zM876 605h-89l71 89h18v-89z
M180 605h-94l72 89h94zM600 605h-93l71 89h94zM112 694l-72 -89h-14v89h86zM320 605h-93l71 89h94zM741 605h-94l72 89h92zM437 113h95l-72 -90h-93zM787 23l71 90h18v-90h-89zM158 113h94l-72 -90h-94zM578 113h94l-72 -90h-93zM26 113h86l-72 -90h-14v90zM298 113h94
l-72 -90h-93zM719 113h92l-70 -90h-94z" />
    <glyph glyph-name="eight" unicode="8" horiz-adv-x="908" 
d="M40 541l-5 -22h-13l11 59c5 1 10 1 16 1c5 0 12 -1 16 -4c4 -2 7 -7 7 -12c0 -8 -4 -14 -8 -18c-5 -3 -13 -4 -20 -4h-4zM44 568l-2 -17c1 -1 1 -1 4 -1c8 0 13 5 13 12c0 5 -5 7 -10 7c-2 0 -4 0 -5 -1zM117 567h-23l-2 -12h22l-3 -11h-21l-3 -14h24l-2 -11h-37l11 60
h35zM135 543l-4 -24h-13l12 59c3 1 9 1 15 1s11 -1 16 -3c4 -3 7 -7 7 -11c0 -10 -7 -15 -14 -18c3 -2 5 -5 6 -11c0 -7 1 -14 1 -17h-12c0 2 -1 7 -2 14c0 8 -3 10 -8 10h-4zM140 568l-3 -16h5c7 0 13 5 13 11c0 4 -5 6 -10 6c-3 0 -4 0 -5 -1zM186 529c5 0 10 2 10 7
c0 3 -2 6 -8 8c-7 4 -12 8 -12 16c0 13 10 20 23 20c7 0 11 -2 14 -3l-4 -10c-2 0 -6 2 -11 1c-6 0 -9 -2 -9 -5c0 -4 3 -6 9 -9c7 -4 12 -9 12 -15c0 -14 -11 -21 -25 -21c-8 0 -14 2 -17 5l5 9c3 -1 7 -3 13 -3zM250 580c15 0 24 -11 24 -25c0 -11 -4 -22 -12 -29
c-4 -4 -12 -8 -21 -8c-15 0 -24 11 -24 25c0 10 5 22 11 28s13 9 22 9zM253 533c5 5 7 14 7 22c0 7 -2 14 -12 14c-4 0 -7 -2 -10 -4c-5 -5 -7 -15 -7 -21c0 -9 3 -15 12 -15c4 0 7 1 10 4zM293 540l-5 -21h-11l11 60h15l8 -23c2 -8 3 -14 5 -20c0 6 1 12 3 21l4 22h12
l-11 -60h-13l-9 24c-3 8 -4 14 -6 21c-1 -6 -2 -15 -3 -24zM353 534l-8 -15h-13l28 60h17l7 -60h-14l-1 15h-16zM362 557l-6 -13h13l-2 13v12c-2 -3 -4 -8 -5 -12zM402 579h13l-10 -49h23l-2 -11h-35zM473 579l-6 -35v-7c0 -5 3 -8 7 -8c7 0 12 4 14 15l6 35h14l-7 -35
c-4 -18 -11 -26 -28 -26c-12 0 -19 7 -19 19v8l6 34h13zM524 529c5 0 10 2 10 7c0 3 -3 6 -8 8c-7 4 -13 8 -13 16c0 13 11 20 24 20c7 0 12 -2 14 -3l-4 -10c-2 0 -7 2 -11 1c-6 0 -10 -2 -10 -5c0 -4 5 -6 10 -9c6 -4 11 -9 11 -15c0 -14 -11 -21 -24 -21
c-8 0 -15 2 -17 5l4 9c4 -1 8 -3 14 -3zM597 567h-22l-2 -12h21l-2 -11h-22l-2 -14h24l-3 -11h-36l11 60h35zM663 526c-6 -4 -12 -8 -22 -8c-15 0 -24 11 -24 25c0 10 4 22 12 28c4 6 12 9 21 9c16 0 24 -11 24 -25c0 -11 -3 -22 -11 -29zM630 544c0 -9 4 -15 13 -15
c4 0 8 1 9 4c5 5 9 14 9 22c0 7 -4 14 -13 14c-3 0 -7 -2 -10 -4c-5 -5 -8 -15 -8 -21zM697 564c0 -6 -2 -15 -4 -24l-4 -21h-13l12 60h15l8 -23c3 -8 5 -14 7 -20c0 6 1 12 2 21l3 22h13l-12 -60h-13l-9 24c-2 8 -4 14 -5 21zM748 579h12l-9 -49h22l-1 -11h-36zM799 544
l-4 -25h-13l5 25l-13 35h15l3 -15c1 -5 2 -8 3 -11c2 3 4 7 6 11l8 15h16zM837 525c0 5 3 9 9 9c4 0 7 -3 7 -8c0 -4 -4 -8 -9 -8s-7 4 -7 7zM861 579l-9 -40h-10l6 40h13zM54 294h-21v-17h19v-5h-19v-23h-7v50h28v-5zM93 268c0 -14 -10 -19 -18 -19c-10 0 -17 6 -17 18
s7 19 17 19c11 0 18 -7 18 -18zM65 267c0 -8 3 -14 10 -14s11 6 11 15c0 6 -3 13 -11 13s-10 -7 -10 -14zM107 249h-7v25v12h6l1 -8c2 5 6 8 10 8h1v-7c0 1 0 1 -1 1c-5 0 -8 -4 -9 -8c-1 -1 -1 -2 -1 -3v-20zM138 274c0 16 11 26 27 26c6 0 10 -1 12 -2l-2 -5
c-2 1 -6 2 -10 2c-12 0 -20 -8 -20 -21s7 -21 20 -21c3 0 8 2 10 3l2 -5c-2 -1 -7 -2 -14 -2c-14 0 -25 8 -25 25zM199 249c-10 0 -19 6 -19 18s9 19 19 19s18 -7 18 -18c0 -14 -10 -19 -18 -19zM199 281c-8 0 -12 -7 -12 -14c0 -8 5 -14 12 -14c6 0 11 6 11 15
c0 6 -4 13 -11 13zM276 249h-7v21c0 6 -2 11 -8 11c-3 0 -6 -3 -7 -7c0 0 -1 -1 -1 -2v-23h-6v23c0 4 -3 9 -7 9s-8 -4 -9 -7v-2v-23h-7v26v11h6v-7h1c1 4 5 7 11 7c5 0 8 -3 10 -7c1 2 3 3 5 5c1 2 3 2 7 2c5 0 12 -3 12 -15v-22zM338 271v-22h-6v21c0 6 -3 11 -8 11
c-4 0 -7 -3 -9 -7v-2v-23h-6v23c0 4 -3 9 -8 9c-4 0 -7 -4 -8 -7v-2v-23h-6v26c0 4 0 7 -1 11h6v-7h1c1 4 5 7 11 7c5 0 9 -3 9 -7l5 5s4 2 8 2c5 0 12 -3 12 -15zM379 270c0 -2 -1 -3 -1 -4h-25c0 -9 6 -13 12 -13c4 0 7 1 10 2l1 -4c-2 -1 -6 -2 -12 -2
c-11 0 -18 6 -18 18c0 10 7 19 17 19c12 0 16 -10 16 -16zM353 271h19c0 3 -2 10 -10 10c-6 0 -9 -6 -9 -10zM386 274v12h5l1 -8c2 5 6 8 10 8h2v-7c-1 1 -2 1 -3 1c-3 0 -7 -4 -8 -8v-3v-20h-7v25zM436 251c-2 -1 -6 -2 -11 -2c-11 0 -18 7 -18 18s8 19 19 19
c4 0 8 -1 10 -2l-2 -5c-1 1 -4 2 -8 2c-8 0 -12 -7 -12 -14c0 -8 4 -14 12 -14c4 0 7 2 9 2zM446 300c3 0 5 -2 5 -5c0 -1 -2 -3 -5 -3c-2 0 -4 2 -4 3c0 3 2 5 4 5zM443 249v37h7v-37h-7zM468 249c-7 0 -11 4 -11 9c0 10 8 15 22 15c0 3 -1 8 -8 8c-3 0 -7 -1 -9 -2l-2 4
c3 2 8 3 11 3c12 0 15 -7 15 -14v-14v-9h-6l-1 4c-2 -2 -6 -4 -11 -4zM479 268c-7 0 -15 -2 -15 -8c0 -5 3 -7 6 -7c4 0 7 3 9 6v2v7zM496 249v53h7v-53h-7zM513 258h8c-2 -6 -5 -14 -7 -18h-5c2 4 4 12 4 18zM545 249v49c3 1 7 2 12 2c6 0 11 -2 14 -5c4 -1 5 -5 5 -9
c0 -5 -1 -9 -4 -12c-4 -3 -9 -5 -15 -5c-2 0 -4 0 -6 1v-21h-6zM551 295v-21h6c7 0 12 3 12 11c0 7 -5 10 -11 10h-7zM584 249v53h6v-53h-6zM629 251c-3 -1 -7 -2 -13 -2c-11 0 -18 6 -18 18c0 10 7 19 17 19c12 0 15 -10 15 -16v-4h-25c0 -9 6 -13 12 -13c5 0 8 1 10 2z
M614 281c-6 0 -9 -6 -9 -10h19c0 3 -2 10 -10 10zM664 249h-6l-1 4c-1 -2 -5 -4 -11 -4c-7 0 -11 4 -11 9c0 10 8 15 22 15c0 3 -1 8 -7 8c-4 0 -8 -1 -10 -2l-2 4c3 2 8 3 12 3c11 0 14 -7 14 -14v-14v-9zM657 261v7c-6 0 -15 -2 -15 -8c0 -5 3 -7 6 -7c4 0 8 3 9 6v2z
M696 259c0 -6 -5 -10 -14 -10c-4 0 -8 1 -10 2l2 5c1 -1 4 -3 8 -3c5 0 7 2 7 5s-2 5 -7 7c-7 3 -9 7 -9 10c0 6 4 11 12 11c4 0 8 -1 10 -2l-2 -5c-1 1 -5 2 -8 2c-4 0 -6 -2 -6 -5c0 -2 2 -4 7 -6c7 -2 10 -5 10 -11zM733 270v-4h-25c0 -9 6 -13 12 -13c5 0 8 1 10 2l2 -4
c-3 -1 -7 -2 -13 -2c-11 0 -18 6 -18 18c0 10 7 19 18 19s14 -10 14 -16zM708 271h19c0 3 -2 10 -9 10s-10 -6 -10 -10zM784 299h6l-18 -50h-7l-16 50h7l8 -25c2 -6 4 -13 6 -18c1 5 3 12 5 18zM798 300c2 0 4 -2 4 -5c0 -1 -2 -3 -5 -3c-2 0 -3 2 -3 3c0 3 1 5 4 5z
M794 249v37h7v-37h-7zM820 253c5 0 7 2 7 5s-2 5 -7 7c-7 3 -10 7 -10 10c0 6 5 11 13 11c4 0 7 -1 9 -2l-1 -5c-2 1 -5 2 -8 2c-4 0 -7 -2 -7 -5c0 -2 3 -4 8 -6c6 -2 9 -5 9 -11s-5 -10 -13 -10c-5 0 -9 1 -11 2l2 5c2 -1 5 -3 9 -3zM845 300c2 0 4 -2 4 -5
c0 -1 -2 -3 -4 -3c-3 0 -5 2 -5 3c0 3 2 5 5 5zM849 286v-37h-7v37h7zM877 280h-10v-19c0 -5 1 -8 5 -8c2 0 3 1 5 1v-4c-2 -1 -4 -1 -7 -1s-5 1 -7 2c-2 2 -3 5 -3 9v20h-5v6h5v8l7 1v-9h10v-6zM245 140h-13v8c-5 -7 -10 -9 -16 -9c-10 0 -16 7 -16 19c0 18 13 34 32 34
c2 0 5 0 7 -1l4 23h16l-11 -54c-1 -7 -2 -14 -3 -20zM223 151c4 0 9 4 11 14l3 14c-1 1 -3 2 -6 2c-9 0 -16 -10 -16 -21c0 -6 3 -9 8 -9zM285 207c0 -6 -4 -10 -8 -10c-5 0 -8 3 -8 8c0 4 4 8 8 8c5 0 8 -3 8 -6zM282 191l-9 -51h-16l10 51h15zM316 140l6 29v5
c0 4 -2 6 -5 6c-4 0 -11 -6 -13 -17l-5 -23h-14l7 34c1 7 1 13 2 17h14l-2 -8h1c5 6 10 9 18 9c9 0 13 -4 13 -14c0 -2 -1 -6 -2 -8l-4 -30h-16zM345 162l3 11h27l-2 -11h-28zM404 181c-3 0 -6 -2 -6 -4c0 -3 2 -4 6 -6c6 -2 12 -7 12 -14c0 -12 -10 -18 -24 -18
c-7 0 -12 2 -15 4l4 10c2 0 7 -3 12 -3s7 3 7 4c0 3 -1 4 -6 7c-6 3 -12 8 -12 13c0 12 10 18 23 18c6 0 11 -1 13 -3l-3 -10c-2 1 -6 2 -11 2zM446 179l-4 -17c0 -2 -1 -5 -1 -7s1 -3 5 -3h5l-2 -12c-3 -1 -7 -1 -10 -1c-9 0 -13 4 -13 11c0 3 0 5 1 9l4 20h-6l1 12h7l3 11
l15 4l-3 -15h10l-2 -12h-10zM505 140h-13l1 9c-6 -8 -12 -10 -19 -10c-8 0 -13 4 -13 14c0 3 1 6 1 10l6 28h14l-5 -27c0 -2 -1 -6 -1 -7c0 -4 2 -6 6 -6c6 0 11 6 12 17l4 23h17l-7 -34c-1 -6 -3 -13 -3 -17zM564 140h-13l1 8c-5 -7 -12 -9 -17 -9c-9 0 -17 7 -17 19
c0 18 14 34 33 34c3 0 5 0 8 -1l3 23h15l-10 -54c-1 -7 -2 -14 -3 -20zM541 151c5 0 11 4 13 14l2 14c-1 1 -3 2 -6 2c-10 0 -15 -10 -15 -21c0 -6 3 -9 6 -9zM605 207c0 -6 -5 -10 -10 -10c-3 0 -7 3 -7 8c0 4 4 8 8 8c5 0 9 -3 9 -6zM601 191l-9 -51h-16l10 51h15z
M627 139c-13 0 -21 9 -21 21c0 18 12 32 30 32c14 0 22 -9 22 -21c0 -18 -13 -32 -31 -32zM634 181c-8 0 -13 -12 -13 -21c0 -6 3 -9 9 -9c8 0 13 11 13 20c0 5 -3 10 -9 10zM671 139c-6 0 -9 4 -9 9s4 10 10 10c5 0 9 -4 9 -9c0 -6 -5 -10 -10 -10zM723 180
c-10 0 -17 -9 -17 -18c0 -8 5 -11 11 -11c3 0 7 2 10 2v-12c-4 -1 -8 -2 -14 -2c-14 0 -22 8 -22 21c0 18 13 32 33 32c4 0 8 -1 11 -2l-4 -11c-2 0 -4 1 -8 1zM757 139c-13 0 -21 9 -21 21c0 18 12 32 30 32c13 0 22 -9 22 -21c0 -18 -14 -32 -31 -32zM764 181
c-9 0 -13 -12 -13 -21c0 -6 3 -9 7 -9c9 0 14 11 14 20c0 5 -2 10 -8 10zM853 140l4 29c1 1 1 3 1 5c0 4 -2 6 -4 6c-5 0 -11 -7 -13 -16l-4 -24h-15l6 29v5c0 4 -1 6 -5 6c-5 0 -10 -7 -13 -17l-3 -23h-15l7 34c1 7 1 13 2 17h13l-1 -8c5 6 12 9 18 9c8 0 12 -4 12 -9
c5 6 12 9 18 9c8 0 13 -4 13 -13c0 -3 -1 -7 -1 -9l-6 -30h-14zM81 328c-39 1 -61 21 -61 48c0 22 13 28 20 28c16 0 21 -17 13 -24c0 13 -24 15 -24 -6c0 -23 21 -37 52 -37c40 0 48 41 48 71c0 21 1 65 -29 65c-1 0 -4 -1 -4 -11v-32v-1v-54c0 -12 7 -12 7 -12v-4h-44v4
s6 0 7 10v0v91c0 8 -1 14 -11 14c-6 0 -10 -4 -10 -6c0 -8 9 -7 9 -7c0 -11 -8 -13 -12 -13c-13 0 -14 11 -14 13c0 13 16 20 27 20c18 0 24 -7 45 -7c31 0 58 -16 58 -70c0 -38 -23 -82 -77 -80zM213 363v-4h-45v4s7 0 8 10v48c-1 11 -8 11 -8 11v3l36 7v-67
c0 -12 9 -12 9 -12zM191 475c8 0 13 -6 13 -13c0 -8 -5 -14 -13 -14s-13 6 -13 14c0 7 5 13 13 13zM259 432c4 4 12 11 24 11c13 0 25 -9 25 -26v-42c0 -11 5 -12 7 -12v-4h-44v4s6 0 7 10v47c0 14 -19 12 -19 -3v-42c0 -12 8 -12 8 -12v-4h-44v4s6 0 7 10v48
c-1 11 -7 11 -7 11v3l36 7v-10zM395 448c0 0 0 30 44 30c22 0 26 -9 35 -3c2 1 3 2 6 2v-30l-4 -1s-4 25 -37 25c-21 0 -28 -25 -14 -31c18 -8 70 -10 69 -52c-1 -17 -18 -29 -50 -29c-31 0 -34 8 -40 0h-4v31h4c0 -13 21 -22 39 -22c32 0 31 28 8 35c-21 6 -56 13 -56 45z
M544 438c0 0 -6 1 -8 -8v-57c1 -10 8 -10 8 -10v-4h-12c-10 0 -25 0 -25 23v47c-1 10 -9 9 -9 9v4c21 0 26 11 38 11v-11h8v-4zM552 438v5h43v-5s-6 1 -6 -9v-44c0 -20 19 -13 19 0v42c0 12 -7 11 -7 11v5h44v-5s-8 1 -9 -9v-56c1 -10 9 -10 9 -10v-4h-21
c-10 0 -16 8 -16 13c-3 -5 -9 -13 -21 -13s-27 8 -27 26v42c0 11 -7 11 -8 11zM769 340c0 -7 -5 -12 -16 -12c-10 0 -42 3 -47 34c-5 -2 -9 -3 -14 -3c-22 0 -41 19 -41 42s19 42 41 42c5 0 9 -2 13 -3v38l37 -6v-4s-7 1 -8 -11v-87c1 -25 8 -35 20 -37c-2 2 -3 5 -3 7
c0 5 3 9 9 9c5 0 9 -4 9 -9zM692 366c11 0 13 16 13 35c0 20 -2 36 -13 36s-13 -16 -13 -36c0 -19 2 -35 13 -35zM791 363v-4h-44v4s7 0 7 10v48c0 11 -7 11 -7 11v3l37 7v-67c0 -12 7 -12 7 -12zM756 462c0 7 6 13 14 13c7 0 13 -6 13 -13c0 -8 -6 -14 -13 -14
c-8 0 -14 6 -14 14zM875 401c0 -23 -19 -42 -42 -42s-41 19 -41 42s18 41 41 41s42 -18 42 -41zM833 366c12 0 13 16 13 35c0 20 -1 35 -13 35c-11 0 -12 -15 -12 -35c0 -19 1 -35 12 -35zM26 151v20h154v-20h-154zM460 605h-93l70 89h95zM876 605h-89l71 89h18v-89z
M180 605h-94l72 89h94zM600 605h-93l71 89h94zM112 694l-72 -89h-14v89h86zM320 605h-93l71 89h94zM741 605h-94l72 89h92zM437 113h95l-72 -90h-93zM787 23l71 90h18v-90h-89zM158 113h94l-72 -90h-94zM578 113h94l-72 -90h-93zM26 113h86l-72 -90h-14v90zM298 113h94
l-72 -90h-93zM719 113h92l-70 -90h-94z" />
    <glyph glyph-name="nine" unicode="9" horiz-adv-x="908" 
d="M40 541l-5 -22h-13l11 59c5 1 10 1 16 1c5 0 12 -1 16 -4c4 -2 7 -7 7 -12c0 -8 -4 -14 -8 -18c-5 -3 -13 -4 -20 -4h-4zM44 568l-2 -17c1 -1 1 -1 4 -1c8 0 13 5 13 12c0 5 -5 7 -10 7c-2 0 -4 0 -5 -1zM117 567h-23l-2 -12h22l-3 -11h-21l-3 -14h24l-2 -11h-37l11 60
h35zM135 543l-4 -24h-13l12 59c3 1 9 1 15 1s11 -1 16 -3c4 -3 7 -7 7 -11c0 -10 -7 -15 -14 -18c3 -2 5 -5 6 -11c0 -7 1 -14 1 -17h-12c0 2 -1 7 -2 14c0 8 -3 10 -8 10h-4zM140 568l-3 -16h5c7 0 13 5 13 11c0 4 -5 6 -10 6c-3 0 -4 0 -5 -1zM186 529c5 0 10 2 10 7
c0 3 -2 6 -8 8c-7 4 -12 8 -12 16c0 13 10 20 23 20c7 0 11 -2 14 -3l-4 -10c-2 0 -6 2 -11 1c-6 0 -9 -2 -9 -5c0 -4 3 -6 9 -9c7 -4 12 -9 12 -15c0 -14 -11 -21 -25 -21c-8 0 -14 2 -17 5l5 9c3 -1 7 -3 13 -3zM250 580c15 0 24 -11 24 -25c0 -11 -4 -22 -12 -29
c-4 -4 -12 -8 -21 -8c-15 0 -24 11 -24 25c0 10 5 22 11 28s13 9 22 9zM253 533c5 5 7 14 7 22c0 7 -2 14 -12 14c-4 0 -7 -2 -10 -4c-5 -5 -7 -15 -7 -21c0 -9 3 -15 12 -15c4 0 7 1 10 4zM293 540l-5 -21h-11l11 60h15l8 -23c2 -8 3 -14 5 -20c0 6 1 12 3 21l4 22h12
l-11 -60h-13l-9 24c-3 8 -4 14 -6 21c-1 -6 -2 -15 -3 -24zM353 534l-8 -15h-13l28 60h17l7 -60h-14l-1 15h-16zM362 557l-6 -13h13l-2 13v12c-2 -3 -4 -8 -5 -12zM402 579h13l-10 -49h23l-2 -11h-35zM473 579l-6 -35v-7c0 -5 3 -8 7 -8c7 0 12 4 14 15l6 35h14l-7 -35
c-4 -18 -11 -26 -28 -26c-12 0 -19 7 -19 19v8l6 34h13zM524 529c5 0 10 2 10 7c0 3 -3 6 -8 8c-7 4 -13 8 -13 16c0 13 11 20 24 20c7 0 12 -2 14 -3l-4 -10c-2 0 -7 2 -11 1c-6 0 -10 -2 -10 -5c0 -4 5 -6 10 -9c6 -4 11 -9 11 -15c0 -14 -11 -21 -24 -21
c-8 0 -15 2 -17 5l4 9c4 -1 8 -3 14 -3zM597 567h-22l-2 -12h21l-2 -11h-22l-2 -14h24l-3 -11h-36l11 60h35zM663 526c-6 -4 -12 -8 -22 -8c-15 0 -24 11 -24 25c0 10 4 22 12 28c4 6 12 9 21 9c16 0 24 -11 24 -25c0 -11 -3 -22 -11 -29zM630 544c0 -9 4 -15 13 -15
c4 0 8 1 9 4c5 5 9 14 9 22c0 7 -4 14 -13 14c-3 0 -7 -2 -10 -4c-5 -5 -8 -15 -8 -21zM697 564c0 -6 -2 -15 -4 -24l-4 -21h-13l12 60h15l8 -23c3 -8 5 -14 7 -20c0 6 1 12 2 21l3 22h13l-12 -60h-13l-9 24c-2 8 -4 14 -5 21zM748 579h12l-9 -49h22l-1 -11h-36zM799 544
l-4 -25h-13l5 25l-13 35h15l3 -15c1 -5 2 -8 3 -11c2 3 4 7 6 11l8 15h16zM837 525c0 5 3 9 9 9c4 0 7 -3 7 -8c0 -4 -4 -8 -9 -8s-7 4 -7 7zM861 579l-9 -40h-10l6 40h13zM54 294h-21v-17h19v-5h-19v-23h-7v50h28v-5zM93 268c0 -14 -10 -19 -18 -19c-10 0 -17 6 -17 18
s7 19 17 19c11 0 18 -7 18 -18zM65 267c0 -8 3 -14 10 -14s11 6 11 15c0 6 -3 13 -11 13s-10 -7 -10 -14zM107 249h-7v25v12h6l1 -8c2 5 6 8 10 8h1v-7c0 1 0 1 -1 1c-5 0 -8 -4 -9 -8c-1 -1 -1 -2 -1 -3v-20zM138 274c0 16 11 26 27 26c6 0 10 -1 12 -2l-2 -5
c-2 1 -6 2 -10 2c-12 0 -20 -8 -20 -21s7 -21 20 -21c3 0 8 2 10 3l2 -5c-2 -1 -7 -2 -14 -2c-14 0 -25 8 -25 25zM199 249c-10 0 -19 6 -19 18s9 19 19 19s18 -7 18 -18c0 -14 -10 -19 -18 -19zM199 281c-8 0 -12 -7 -12 -14c0 -8 5 -14 12 -14c6 0 11 6 11 15
c0 6 -4 13 -11 13zM276 249h-7v21c0 6 -2 11 -8 11c-3 0 -6 -3 -7 -7c0 0 -1 -1 -1 -2v-23h-6v23c0 4 -3 9 -7 9s-8 -4 -9 -7v-2v-23h-7v26v11h6v-7h1c1 4 5 7 11 7c5 0 8 -3 10 -7c1 2 3 3 5 5c1 2 3 2 7 2c5 0 12 -3 12 -15v-22zM338 271v-22h-6v21c0 6 -3 11 -8 11
c-4 0 -7 -3 -9 -7v-2v-23h-6v23c0 4 -3 9 -8 9c-4 0 -7 -4 -8 -7v-2v-23h-6v26c0 4 0 7 -1 11h6v-7h1c1 4 5 7 11 7c5 0 9 -3 9 -7l5 5s4 2 8 2c5 0 12 -3 12 -15zM379 270c0 -2 -1 -3 -1 -4h-25c0 -9 6 -13 12 -13c4 0 7 1 10 2l1 -4c-2 -1 -6 -2 -12 -2
c-11 0 -18 6 -18 18c0 10 7 19 17 19c12 0 16 -10 16 -16zM353 271h19c0 3 -2 10 -10 10c-6 0 -9 -6 -9 -10zM386 274v12h5l1 -8c2 5 6 8 10 8h2v-7c-1 1 -2 1 -3 1c-3 0 -7 -4 -8 -8v-3v-20h-7v25zM436 251c-2 -1 -6 -2 -11 -2c-11 0 -18 7 -18 18s8 19 19 19
c4 0 8 -1 10 -2l-2 -5c-1 1 -4 2 -8 2c-8 0 -12 -7 -12 -14c0 -8 4 -14 12 -14c4 0 7 2 9 2zM446 300c3 0 5 -2 5 -5c0 -1 -2 -3 -5 -3c-2 0 -4 2 -4 3c0 3 2 5 4 5zM443 249v37h7v-37h-7zM468 249c-7 0 -11 4 -11 9c0 10 8 15 22 15c0 3 -1 8 -8 8c-3 0 -7 -1 -9 -2l-2 4
c3 2 8 3 11 3c12 0 15 -7 15 -14v-14v-9h-6l-1 4c-2 -2 -6 -4 -11 -4zM479 268c-7 0 -15 -2 -15 -8c0 -5 3 -7 6 -7c4 0 7 3 9 6v2v7zM496 249v53h7v-53h-7zM513 258h8c-2 -6 -5 -14 -7 -18h-5c2 4 4 12 4 18zM545 249v49c3 1 7 2 12 2c6 0 11 -2 14 -5c4 -1 5 -5 5 -9
c0 -5 -1 -9 -4 -12c-4 -3 -9 -5 -15 -5c-2 0 -4 0 -6 1v-21h-6zM551 295v-21h6c7 0 12 3 12 11c0 7 -5 10 -11 10h-7zM584 249v53h6v-53h-6zM629 251c-3 -1 -7 -2 -13 -2c-11 0 -18 6 -18 18c0 10 7 19 17 19c12 0 15 -10 15 -16v-4h-25c0 -9 6 -13 12 -13c5 0 8 1 10 2z
M614 281c-6 0 -9 -6 -9 -10h19c0 3 -2 10 -10 10zM664 249h-6l-1 4c-1 -2 -5 -4 -11 -4c-7 0 -11 4 -11 9c0 10 8 15 22 15c0 3 -1 8 -7 8c-4 0 -8 -1 -10 -2l-2 4c3 2 8 3 12 3c11 0 14 -7 14 -14v-14v-9zM657 261v7c-6 0 -15 -2 -15 -8c0 -5 3 -7 6 -7c4 0 8 3 9 6v2z
M696 259c0 -6 -5 -10 -14 -10c-4 0 -8 1 -10 2l2 5c1 -1 4 -3 8 -3c5 0 7 2 7 5s-2 5 -7 7c-7 3 -9 7 -9 10c0 6 4 11 12 11c4 0 8 -1 10 -2l-2 -5c-1 1 -5 2 -8 2c-4 0 -6 -2 -6 -5c0 -2 2 -4 7 -6c7 -2 10 -5 10 -11zM733 270v-4h-25c0 -9 6 -13 12 -13c5 0 8 1 10 2l2 -4
c-3 -1 -7 -2 -13 -2c-11 0 -18 6 -18 18c0 10 7 19 18 19s14 -10 14 -16zM708 271h19c0 3 -2 10 -9 10s-10 -6 -10 -10zM784 299h6l-18 -50h-7l-16 50h7l8 -25c2 -6 4 -13 6 -18c1 5 3 12 5 18zM798 300c2 0 4 -2 4 -5c0 -1 -2 -3 -5 -3c-2 0 -3 2 -3 3c0 3 1 5 4 5z
M794 249v37h7v-37h-7zM820 253c5 0 7 2 7 5s-2 5 -7 7c-7 3 -10 7 -10 10c0 6 5 11 13 11c4 0 7 -1 9 -2l-1 -5c-2 1 -5 2 -8 2c-4 0 -7 -2 -7 -5c0 -2 3 -4 8 -6c6 -2 9 -5 9 -11s-5 -10 -13 -10c-5 0 -9 1 -11 2l2 5c2 -1 5 -3 9 -3zM845 300c2 0 4 -2 4 -5
c0 -1 -2 -3 -4 -3c-3 0 -5 2 -5 3c0 3 2 5 5 5zM849 286v-37h-7v37h7zM877 280h-10v-19c0 -5 1 -8 5 -8c2 0 3 1 5 1v-4c-2 -1 -4 -1 -7 -1s-5 1 -7 2c-2 2 -3 5 -3 9v20h-5v6h5v8l7 1v-9h10v-6zM245 140h-13v8c-5 -7 -10 -9 -16 -9c-10 0 -16 7 -16 19c0 18 13 34 32 34
c2 0 5 0 7 -1l4 23h16l-11 -54c-1 -7 -2 -14 -3 -20zM223 151c4 0 9 4 11 14l3 14c-1 1 -3 2 -6 2c-9 0 -16 -10 -16 -21c0 -6 3 -9 8 -9zM285 207c0 -6 -4 -10 -8 -10c-5 0 -8 3 -8 8c0 4 4 8 8 8c5 0 8 -3 8 -6zM282 191l-9 -51h-16l10 51h15zM316 140l6 29v5
c0 4 -2 6 -5 6c-4 0 -11 -6 -13 -17l-5 -23h-14l7 34c1 7 1 13 2 17h14l-2 -8h1c5 6 10 9 18 9c9 0 13 -4 13 -14c0 -2 -1 -6 -2 -8l-4 -30h-16zM345 162l3 11h27l-2 -11h-28zM404 181c-3 0 -6 -2 -6 -4c0 -3 2 -4 6 -6c6 -2 12 -7 12 -14c0 -12 -10 -18 -24 -18
c-7 0 -12 2 -15 4l4 10c2 0 7 -3 12 -3s7 3 7 4c0 3 -1 4 -6 7c-6 3 -12 8 -12 13c0 12 10 18 23 18c6 0 11 -1 13 -3l-3 -10c-2 1 -6 2 -11 2zM446 179l-4 -17c0 -2 -1 -5 -1 -7s1 -3 5 -3h5l-2 -12c-3 -1 -7 -1 -10 -1c-9 0 -13 4 -13 11c0 3 0 5 1 9l4 20h-6l1 12h7l3 11
l15 4l-3 -15h10l-2 -12h-10zM505 140h-13l1 9c-6 -8 -12 -10 -19 -10c-8 0 -13 4 -13 14c0 3 1 6 1 10l6 28h14l-5 -27c0 -2 -1 -6 -1 -7c0 -4 2 -6 6 -6c6 0 11 6 12 17l4 23h17l-7 -34c-1 -6 -3 -13 -3 -17zM564 140h-13l1 8c-5 -7 -12 -9 -17 -9c-9 0 -17 7 -17 19
c0 18 14 34 33 34c3 0 5 0 8 -1l3 23h15l-10 -54c-1 -7 -2 -14 -3 -20zM541 151c5 0 11 4 13 14l2 14c-1 1 -3 2 -6 2c-10 0 -15 -10 -15 -21c0 -6 3 -9 6 -9zM605 207c0 -6 -5 -10 -10 -10c-3 0 -7 3 -7 8c0 4 4 8 8 8c5 0 9 -3 9 -6zM601 191l-9 -51h-16l10 51h15z
M627 139c-13 0 -21 9 -21 21c0 18 12 32 30 32c14 0 22 -9 22 -21c0 -18 -13 -32 -31 -32zM634 181c-8 0 -13 -12 -13 -21c0 -6 3 -9 9 -9c8 0 13 11 13 20c0 5 -3 10 -9 10zM671 139c-6 0 -9 4 -9 9s4 10 10 10c5 0 9 -4 9 -9c0 -6 -5 -10 -10 -10zM723 180
c-10 0 -17 -9 -17 -18c0 -8 5 -11 11 -11c3 0 7 2 10 2v-12c-4 -1 -8 -2 -14 -2c-14 0 -22 8 -22 21c0 18 13 32 33 32c4 0 8 -1 11 -2l-4 -11c-2 0 -4 1 -8 1zM757 139c-13 0 -21 9 -21 21c0 18 12 32 30 32c13 0 22 -9 22 -21c0 -18 -14 -32 -31 -32zM764 181
c-9 0 -13 -12 -13 -21c0 -6 3 -9 7 -9c9 0 14 11 14 20c0 5 -2 10 -8 10zM853 140l4 29c1 1 1 3 1 5c0 4 -2 6 -4 6c-5 0 -11 -7 -13 -16l-4 -24h-15l6 29v5c0 4 -1 6 -5 6c-5 0 -10 -7 -13 -17l-3 -23h-15l7 34c1 7 1 13 2 17h13l-1 -8c5 6 12 9 18 9c8 0 12 -4 12 -9
c5 6 12 9 18 9c8 0 13 -4 13 -13c0 -3 -1 -7 -1 -9l-6 -30h-14zM81 328c-39 1 -61 21 -61 48c0 22 13 28 20 28c16 0 21 -17 13 -24c0 13 -24 15 -24 -6c0 -23 21 -37 52 -37c40 0 48 41 48 71c0 21 1 65 -29 65c-1 0 -4 -1 -4 -11v-32v-1v-54c0 -12 7 -12 7 -12v-4h-44v4
s6 0 7 10v0v91c0 8 -1 14 -11 14c-6 0 -10 -4 -10 -6c0 -8 9 -7 9 -7c0 -11 -8 -13 -12 -13c-13 0 -14 11 -14 13c0 13 16 20 27 20c18 0 24 -7 45 -7c31 0 58 -16 58 -70c0 -38 -23 -82 -77 -80zM213 363v-4h-45v4s7 0 8 10v48c-1 11 -8 11 -8 11v3l36 7v-67
c0 -12 9 -12 9 -12zM191 475c8 0 13 -6 13 -13c0 -8 -5 -14 -13 -14s-13 6 -13 14c0 7 5 13 13 13zM259 432c4 4 12 11 24 11c13 0 25 -9 25 -26v-42c0 -11 5 -12 7 -12v-4h-44v4s6 0 7 10v47c0 14 -19 12 -19 -3v-42c0 -12 8 -12 8 -12v-4h-44v4s6 0 7 10v48
c-1 11 -7 11 -7 11v3l36 7v-10zM395 448c0 0 0 30 44 30c22 0 26 -9 35 -3c2 1 3 2 6 2v-30l-4 -1s-4 25 -37 25c-21 0 -28 -25 -14 -31c18 -8 70 -10 69 -52c-1 -17 -18 -29 -50 -29c-31 0 -34 8 -40 0h-4v31h4c0 -13 21 -22 39 -22c32 0 31 28 8 35c-21 6 -56 13 -56 45z
M544 438c0 0 -6 1 -8 -8v-57c1 -10 8 -10 8 -10v-4h-12c-10 0 -25 0 -25 23v47c-1 10 -9 9 -9 9v4c21 0 26 11 38 11v-11h8v-4zM552 438v5h43v-5s-6 1 -6 -9v-44c0 -20 19 -13 19 0v42c0 12 -7 11 -7 11v5h44v-5s-8 1 -9 -9v-56c1 -10 9 -10 9 -10v-4h-21
c-10 0 -16 8 -16 13c-3 -5 -9 -13 -21 -13s-27 8 -27 26v42c0 11 -7 11 -8 11zM769 340c0 -7 -5 -12 -16 -12c-10 0 -42 3 -47 34c-5 -2 -9 -3 -14 -3c-22 0 -41 19 -41 42s19 42 41 42c5 0 9 -2 13 -3v38l37 -6v-4s-7 1 -8 -11v-87c1 -25 8 -35 20 -37c-2 2 -3 5 -3 7
c0 5 3 9 9 9c5 0 9 -4 9 -9zM692 366c11 0 13 16 13 35c0 20 -2 36 -13 36s-13 -16 -13 -36c0 -19 2 -35 13 -35zM791 363v-4h-44v4s7 0 7 10v48c0 11 -7 11 -7 11v3l37 7v-67c0 -12 7 -12 7 -12zM756 462c0 7 6 13 14 13c7 0 13 -6 13 -13c0 -8 -6 -14 -13 -14
c-8 0 -14 6 -14 14zM875 401c0 -23 -19 -42 -42 -42s-41 19 -41 42s18 41 41 41s42 -18 42 -41zM833 366c12 0 13 16 13 35c0 20 -1 35 -13 35c-11 0 -12 -15 -12 -35c0 -19 1 -35 12 -35zM26 151v20h154v-20h-154zM460 605h-93l70 89h95zM876 605h-89l71 89h18v-89z
M180 605h-94l72 89h94zM600 605h-93l71 89h94zM112 694l-72 -89h-14v89h86zM320 605h-93l71 89h94zM741 605h-94l72 89h92zM437 113h95l-72 -90h-93zM787 23l71 90h18v-90h-89zM158 113h94l-72 -90h-94zM578 113h94l-72 -90h-93zM26 113h86l-72 -90h-14v90zM298 113h94
l-72 -90h-93zM719 113h92l-70 -90h-94z" />
    <glyph glyph-name="A" unicode="A" horiz-adv-x="946" 
d="M184 0h-144c134 233 268 467 402 700h102c133 -233 268 -467 402 -700h-145l-78 137l-461 -1zM334 261h318l-159 277z" />
    <glyph glyph-name="B" unicode="B" horiz-adv-x="867" 
d="M100 0v700h489c100 0 191 -87 193 -186c1 -40 -11 -70 -34 -96c-3 -4 -7 -7 -12 -11c77 -24 121 -109 121 -186c0 -123 -100 -221 -220 -221h-537zM225 431h365c37 0 66 28 66 73c0 44 -31 71 -66 71h-365v-144zM225 125h412c54 0 95 45 95 96c0 54 -45 95 -95 95h-412
v-191z" />
    <glyph glyph-name="C" unicode="C" horiz-adv-x="898" 
d="M120 358c0 193 162 350 355 350h155c110 0 206 -52 267 -118l-83 -86c-47 52 -130 81 -183 81h-157c-107 0 -231 -86 -231 -231c0 -118 96 -230 232 -230h156c72 0 138 35 184 81l83 -87c-59 -63 -159 -118 -266 -118h-154c-202 0 -358 159 -358 358z" />
    <glyph glyph-name="D" unicode="D" horiz-adv-x="868" 
d="M507 0h-407v700h407c192 0 351 -157 351 -350c0 -192 -158 -350 -351 -350zM225 575v-450h282c115 0 225 95 225 225c0 117 -94 225 -225 225h-282z" />
    <glyph glyph-name="E" unicode="E" horiz-adv-x="810" 
d="M225 575v-162h527v-125h-527v-163h585v-125h-710v700h710v-125h-585z" />
    <glyph glyph-name="F" unicode="F" horiz-adv-x="810" 
d="M225 575v-162h526v-125h-526v-288h-125v700h710v-125h-585z" />
    <glyph glyph-name="G" unicode="G" horiz-adv-x="957" 
d="M606 585h-132c-126 0 -230 -103 -231 -231c0 -129 107 -231 231 -231h133c100 0 181 62 204 158h-286v123h428c3 -27 3 -52 3 -79c-8 -183 -167 -325 -349 -325h-133c-195 0 -354 160 -354 354s159 354 354 354h133c114 0 209 -48 277 -128l-95 -78
c-46 56 -119 83 -183 83z" />
    <glyph glyph-name="H" unicode="H" 
d="M225 413h507v287h125v-700h-125v287h-507v-287h-125v700h125v-287z" />
    <glyph glyph-name="I" unicode="I" horiz-adv-x="224" 
d="M100 0v700h124v-700h-124z" />
    <glyph glyph-name="J" unicode="J" horiz-adv-x="764" 
d="M634 700h126v-479c0 -121 -100 -221 -221 -221h-222c-61 0 -118 25 -159 68c-43 44 -65 97 -61 189h124c-1 -82 38 -132 96 -132h223c51 0 94 42 94 96v479z" />
    <glyph glyph-name="K" unicode="K" horiz-adv-x="922" 
d="M225 350l473 350h212l-413 -305l415 -395h-181l-336 320l-170 -125v-195h-125v700h125v-350z" />
    <glyph glyph-name="L" unicode="L" horiz-adv-x="784" 
d="M225 700v-575h559v-125h-684v700h125z" />
    <glyph glyph-name="M" unicode="M" horiz-adv-x="913" 
d="M788 462l-246 -340h-71l-246 340v-462h-125v700h107l300 -414l300 414h106v-700h-125v462z" />
    <glyph glyph-name="N" unicode="N" horiz-adv-x="820" 
d="M225 0h-125v700h104l491 -500v500h125v-700h-103l-492 500v-500z" />
    <glyph glyph-name="O" unicode="O" horiz-adv-x="989" 
d="M635 708c195 0 354 -159 354 -354s-159 -354 -354 -354h-161c-195 0 -354 159 -354 354s159 354 354 354h161zM635 123c127 0 231 104 231 231s-104 231 -231 231h-161c-127 0 -231 -104 -231 -231s104 -231 231 -231h161z" />
    <glyph glyph-name="P" unicode="P" horiz-adv-x="839" 
d="M100 700h498c131 0 237 -106 237 -237c0 -128 -107 -234 -236 -234h-374v-229h-125v700zM225 575v-221h374c60 0 110 50 110 109c0 62 -50 112 -111 112h-373z" />
    <glyph glyph-name="Q" unicode="Q" horiz-adv-x="1005" 
d="M476 708h162c199 0 358 -167 356 -356c-1 -87 -27 -149 -74 -212l80 -56l-70 -102l-102 70c-58 -37 -125 -56 -190 -56h-163c-195 0 -355 160 -355 356s160 356 356 356zM637 187l75 96l105 -72c31 34 53 86 53 141c0 132 -110 232 -232 232h-162
c-120 0 -232 -98 -232 -233c0 -118 97 -230 234 -230h130c33 0 63 8 90 24z" />
    <glyph glyph-name="R" unicode="R" horiz-adv-x="918" 
d="M225 0h-125v700h497c132 0 239 -107 237 -236c-1 -105 -69 -187 -168 -215v-1l242 -248h-176l-221 229h-286v-229zM225 575v-221h373c62 0 111 51 111 110c0 58 -47 111 -111 111h-373z" />
    <glyph glyph-name="S" unicode="S" 
d="M857 494h-124c-2 46 -38 81 -82 81h-344c-45 0 -82 -37 -82 -81c0 -45 36 -81 81 -81h345c113 0 206 -94 206 -207s-92 -206 -206 -206h-344c-113 0 -207 92 -207 206h125c0 -43 35 -81 81 -81h344c46 0 82 36 82 82c0 45 -37 81 -81 81h-345c-52 0 -106 21 -143 58l-5 5
c-36 37 -58 88 -58 143c0 113 93 206 206 206h345c113 0 206 -92 206 -206z" />
    <glyph glyph-name="T" unicode="T" 
d="M541 0h-125v575h-316v125h757v-125h-316v-575z" />
    <glyph glyph-name="U" unicode="U" horiz-adv-x="864" 
d="M857 700v-474c0 -125 -101 -226 -226 -226h-304c-125 0 -227 100 -227 226v474h125v-473c0 -60 48 -102 101 -102h305c56 0 101 46 101 102v473h125z" />
    <glyph glyph-name="V" unicode="V" horiz-adv-x="945" 
d="M40 700h144c123 -214 186 -324 309 -538c122 214 186 324 308 538h144c-134 -233 -268 -467 -402 -700h-101c-134 233 -268 467 -402 700z" />
    <glyph glyph-name="W" unicode="W" horiz-adv-x="1253" 
d="M411 200l182 500h108l181 -500l233 500h138l-324 -700h-107l-176 481l-175 -481h-106l-325 700h137z" />
    <glyph glyph-name="X" unicode="X" horiz-adv-x="1001" 
d="M640 350l361 -350h-179l-271 263l-269 -263h-182l361 350l-361 350h180l271 -263l271 263h179z" />
    <glyph glyph-name="Y" unicode="Y" horiz-adv-x="1039" 
d="M279 700l290 -281l290 281h180l-407 -395v-305h-125v305l-407 395h179z" />
    <glyph glyph-name="Z" unicode="Z" 
d="M100 700h757v-108l-543 -467h543v-125h-757v105l544 470h-544v125z" />
    <glyph glyph-name="a" unicode="a" horiz-adv-x="783" 
d="M276 2c-96 0 -176 77 -176 174s77 177 175 177h310c28 0 52 -9 73 -23v65c0 42 -33 66 -77 66h-303c-27 0 -57 -15 -72 -44l-85 66c5 10 12 19 19 28c6 6 11 12 18 17c29 25 68 42 110 42h349c90 0 166 -78 166 -168v-400h-58l-14 23c-29 -15 -59 -23 -104 -23h-331z
M295 108h291c38 0 70 31 70 69c0 39 -32 69 -69 69h-292c-38 0 -69 -30 -69 -69c0 -37 31 -69 69 -69z" />
    <glyph glyph-name="b" unicode="b" horiz-adv-x="810" 
d="M555 570c135 0 245 -111 245 -246v-77c0 -135 -110 -245 -245 -245h-206c-46 0 -93 18 -124 51v-51h-125v736h125v-216c31 29 74 48 120 48h210zM675 247v77c0 66 -54 121 -120 121h-210c-66 0 -120 -55 -120 -121v-77c0 -66 54 -120 120 -120h210c66 0 120 54 120 120z
" />
    <glyph glyph-name="c" unicode="c" horiz-adv-x="797" 
d="M375 127h235c34 0 64 13 86 35l101 -80c-44 -48 -114 -80 -187 -80h-235c-136 0 -255 107 -255 245v71c0 137 111 252 250 252h240c77 0 143 -34 187 -80l-101 -81c-23 23 -56 36 -86 36h-235c-68 0 -123 -55 -123 -121v-77c0 -66 56 -120 123 -120z" />
    <glyph glyph-name="d" unicode="d" horiz-adv-x="810" 
d="M695 738h125v-736h-125v51c-30 -33 -77 -51 -124 -51h-205c-135 0 -246 110 -246 245v77c0 135 111 246 246 246h209c47 0 89 -19 120 -48v216zM695 247v77c0 66 -54 121 -120 121h-209c-67 0 -121 -55 -121 -121v-77c0 -66 54 -120 121 -120h209c66 0 120 54 120 120z
" />
    <glyph glyph-name="e" unicode="e" horiz-adv-x="802" 
d="M801 248h-566v-29c0 -65 49 -108 118 -108h229c41 0 75 19 98 49l87 -63c-31 -48 -93 -95 -174 -95h-274c-115 0 -209 93 -209 208v147c0 116 93 213 210 213h272c68 0 132 -33 173 -92c27 -41 37 -86 36 -154v-76zM343 466c-58 0 -105 -46 -106 -114h438
c0 60 -43 114 -106 114h-226z" />
    <glyph glyph-name="f" unicode="f" horiz-adv-x="640" 
d="M205 534c16 115 107 204 226 204h209v-125h-209c-46 0 -88 -32 -99 -79h180v-124h-183v-408h-125v408h-104v124h105z" />
    <glyph glyph-name="g" unicode="g" horiz-adv-x="795" 
d="M675 570h125v-605c0 -55 -21 -99 -60 -133c-1 -1 -2 -2 -3 -2c-28 -26 -70 -41 -110 -41h-345c-48 0 -90 19 -121 49c-8 9 -18 20 -25 31l85 67c16 -23 38 -38 71 -38h301c46 0 82 26 82 72v80c-29 -29 -73 -48 -121 -48h-198c-139 0 -246 111 -246 249v69
c0 140 107 250 245 250h196c46 0 94 -20 124 -54v54zM675 247v77c0 66 -54 121 -120 121h-200c-66 0 -120 -55 -120 -121v-74c0 -69 53 -123 120 -123h200c61 0 120 50 120 120z" />
    <glyph glyph-name="h" unicode="h" horiz-adv-x="774" 
d="M225 738v-216c31 29 71 48 120 48h184c135 0 245 -112 245 -246v-322h-125v322c0 66 -54 121 -120 121h-179c-71 0 -125 -52 -125 -127v-316h-125v736h125z" />
    <glyph glyph-name="i" unicode="i" horiz-adv-x="225" 
d="M100 634v97h125v-97h-125zM100 2v545h125v-545h-125z" />
    <glyph glyph-name="j" unicode="j" horiz-adv-x="693" 
d="M569 634v96h124v-96h-124zM100 2h127c7 -52 39 -76 77 -76h186c41 0 79 34 79 79v542h124v-553c0 -99 -83 -183 -182 -183h-229c-55 0 -103 24 -140 67c-24 28 -39 66 -42 124z" />
    <glyph glyph-name="k" unicode="k" horiz-adv-x="823" 
d="M225 328l89 61l253 181h208l-301 -218l349 -350h-173l-277 274l-148 -105v-169h-125v736h125v-410z" />
    <glyph glyph-name="l" unicode="l" horiz-adv-x="225" 
d="M225 2h-125v736h125v-736z" />
    <glyph glyph-name="m" unicode="m" horiz-adv-x="1113" 
d="M225 570v-52c30 31 80 52 126 52h79c52 0 100 -19 142 -54c13 -10 25 -21 34 -33c11 13 23 24 34 33c35 32 87 54 143 54h91c131 0 239 -109 239 -239v-329h-125v330c0 61 -51 112 -114 112h-91c-63 0 -114 -50 -114 -112v-330h-125v330c0 60 -49 113 -114 113h-91
c-65 0 -114 -53 -114 -113v-330h-125v568h125z" />
    <glyph glyph-name="n" unicode="n" horiz-adv-x="774" 
d="M225 570v-54c33 33 80 54 136 54h167c136 0 246 -110 246 -246v-322h-125v323c0 68 -57 119 -121 119l-183 1c-70 0 -120 -59 -120 -120v-323h-125v568h125z" />
    <glyph glyph-name="o" unicode="o" horiz-adv-x="820" 
d="M575 570c135 0 245 -111 245 -246v-77c0 -135 -110 -245 -245 -245h-210c-134 0 -245 110 -245 245v77c0 135 111 246 245 246h210zM695 247v77c0 66 -54 121 -120 121h-210c-66 0 -120 -55 -120 -121v-77c0 -66 54 -120 120 -120h210c66 0 120 54 120 120z" />
    <glyph glyph-name="p" unicode="p" horiz-adv-x="752" 
d="M497 570c135 0 245 -111 245 -246v-77c0 -135 -110 -245 -245 -245h-151c-47 0 -90 18 -121 48v-216h-125v736h125v-55c25 30 72 55 141 55h131zM617 247v77c0 66 -54 121 -120 121h-151c-67 0 -121 -55 -121 -121v-77c0 -66 54 -120 121 -120h151c66 0 120 54 120 120z
" />
    <glyph glyph-name="q" unicode="q" horiz-adv-x="752" 
d="M637 570h125v-736h-125v215c-31 -29 -73 -47 -120 -47h-152c-134 0 -245 110 -245 245v77c0 135 111 246 245 246h131c69 0 116 -25 141 -55v55zM637 247v77c0 66 -54 121 -120 121h-152c-66 0 -120 -55 -120 -121v-77c0 -66 54 -120 120 -120h152c66 0 120 54 120 120z
" />
    <glyph glyph-name="r" unicode="r" horiz-adv-x="500" 
d="M225 570v-54c30 31 76 54 135 54h140v-126h-155c-66 0 -120 -54 -120 -120v-322h-125v568h125z" />
    <glyph glyph-name="s" unicode="s" horiz-adv-x="763" 
d="M764 400h-115c-1 34 -26 61 -57 61h-320c-31 0 -57 -26 -57 -60c0 -35 26 -61 57 -61h336c33 0 63 -11 89 -31c3 -2 5 -4 8 -6c8 -7 20 -20 27 -32c20 -30 31 -62 31 -100c0 -88 -63 -169 -155 -169h-352c-91 0 -156 81 -156 169h115c0 -34 26 -61 57 -61h320
c30 0 56 26 56 61s-26 60 -56 60h-336c-56 0 -106 34 -132 83c-15 23 -24 55 -24 87c0 86 65 169 155 169h353c91 0 156 -83 156 -170z" />
    <glyph glyph-name="t" unicode="t" horiz-adv-x="635" 
d="M343 738v-168h200v-125h-200l1 -199c0 -63 58 -119 124 -119h167v-125h-166c-133 0 -251 110 -251 244v199h-118v125h118v168h125z" />
    <glyph glyph-name="u" unicode="u" horiz-adv-x="724" 
d="M599 2v54c-29 -32 -82 -54 -129 -54h-125c-46 0 -89 18 -120 47c-73 34 -125 110 -125 198v323h125v-323c0 -66 54 -120 120 -120h133c66 0 121 54 121 120v323h125v-568h-125z" />
    <glyph glyph-name="v" unicode="v" horiz-adv-x="784" 
d="M412 139l231 431h141l-302 -568h-141l-301 568h141z" />
    <glyph glyph-name="w" unicode="w" horiz-adv-x="1046" 
d="M426 2h-132l-254 568h136l176 -388l126 388h131l125 -388l176 388h136l-254 -568h-132l-117 359z" />
    <glyph glyph-name="x" unicode="x" horiz-adv-x="827" 
d="M659 2l-195 199l-196 -199h-168l280 294l-261 274h168l176 -181l178 181h168l-261 -274l279 -294h-168z" />
    <glyph glyph-name="y" unicode="y" horiz-adv-x="843" 
d="M472 139l231 431h141l-302 -569l-51 -94c-38 -74 -121 -119 -200 -113c-49 2 -93 15 -130 43l-14 10l58 94l13 -8c18 -13 44 -20 69 -20c31 0 62 11 81 34l1 1c13 22 20 33 32 54l-301 568h141z" />
    <glyph glyph-name="z" unicode="z" horiz-adv-x="755" 
d="M755 445l-430 -318h430v-125h-655v123l433 320h-433v125h655v-125z" />
    <glyph glyph-name="exclam" unicode="!" horiz-adv-x="225" 
d="M224 152h-124v549h124v-549zM224 1h-124v96h124v-96z" />
    <glyph glyph-name="exclam" unicode="&#xe900;" horiz-adv-x="225" 
d="M224 152h-124v549h124v-549zM224 1h-124v96h124v-96z" />
    <glyph glyph-name="numbersign" unicode="#" horiz-adv-x="1196" 
d="M1143 444h-214l-68 -157h215l-54 -124h-214l-63 -147h-135l63 147h-224l-63 -147h-135l63 147h-214l53 124h214l68 157h-214l53 125h214l63 147h136l-64 -147h224l63 147h135l-63 -147h214zM727 287l67 157h-224l-68 -157h225z" />
    <glyph glyph-name="numbersign" unicode="&#xe901;" horiz-adv-x="1196" 
d="M1143 444h-214l-68 -157h215l-54 -124h-214l-63 -147h-135l63 147h-224l-63 -147h-135l63 147h-214l53 124h214l68 157h-214l53 125h214l63 147h136l-64 -147h224l63 147h135l-63 -147h214zM727 287l67 157h-224l-68 -157h225z" />
    <glyph glyph-name="percent" unicode="%" horiz-adv-x="908" 
d="M40 541l-5 -22h-13l11 59c5 1 10 1 16 1c5 0 12 -1 16 -4c4 -2 7 -7 7 -12c0 -8 -4 -14 -8 -18c-5 -3 -13 -4 -20 -4h-4zM44 568l-2 -17c1 -1 1 -1 4 -1c8 0 13 5 13 12c0 5 -5 7 -10 7c-2 0 -4 0 -5 -1zM117 567h-23l-2 -12h22l-3 -11h-21l-3 -14h24l-2 -11h-37l11 60
h35zM135 543l-4 -24h-13l12 59c3 1 9 1 15 1s11 -1 16 -3c4 -3 7 -7 7 -11c0 -10 -7 -15 -14 -18c3 -2 5 -5 6 -11c0 -7 1 -14 1 -17h-12c0 2 -1 7 -2 14c0 8 -3 10 -8 10h-4zM140 568l-3 -16h5c7 0 13 5 13 11c0 4 -5 6 -10 6c-3 0 -4 0 -5 -1zM186 529c5 0 10 2 10 7
c0 3 -2 6 -8 8c-7 4 -12 8 -12 16c0 13 10 20 23 20c7 0 11 -2 14 -3l-4 -10c-2 0 -6 2 -11 1c-6 0 -9 -2 -9 -5c0 -4 3 -6 9 -9c7 -4 12 -9 12 -15c0 -14 -11 -21 -25 -21c-8 0 -14 2 -17 5l5 9c3 -1 7 -3 13 -3zM250 580c15 0 24 -11 24 -25c0 -11 -4 -22 -12 -29
c-4 -4 -12 -8 -21 -8c-15 0 -24 11 -24 25c0 10 5 22 11 28s13 9 22 9zM253 533c5 5 7 14 7 22c0 7 -2 14 -12 14c-4 0 -7 -2 -10 -4c-5 -5 -7 -15 -7 -21c0 -9 3 -15 12 -15c4 0 7 1 10 4zM293 540l-5 -21h-11l11 60h15l8 -23c2 -8 3 -14 5 -20c0 6 1 12 3 21l4 22h12
l-11 -60h-13l-9 24c-3 8 -4 14 -6 21c-1 -6 -2 -15 -3 -24zM353 534l-8 -15h-13l28 60h17l7 -60h-14l-1 15h-16zM362 557l-6 -13h13l-2 13v12c-2 -3 -4 -8 -5 -12zM402 579h13l-10 -49h23l-2 -11h-35zM473 579l-6 -35v-7c0 -5 3 -8 7 -8c7 0 12 4 14 15l6 35h14l-7 -35
c-4 -18 -11 -26 -28 -26c-12 0 -19 7 -19 19v8l6 34h13zM524 529c5 0 10 2 10 7c0 3 -3 6 -8 8c-7 4 -13 8 -13 16c0 13 11 20 24 20c7 0 12 -2 14 -3l-4 -10c-2 0 -7 2 -11 1c-6 0 -10 -2 -10 -5c0 -4 5 -6 10 -9c6 -4 11 -9 11 -15c0 -14 -11 -21 -24 -21
c-8 0 -15 2 -17 5l4 9c4 -1 8 -3 14 -3zM597 567h-22l-2 -12h21l-2 -11h-22l-2 -14h24l-3 -11h-36l11 60h35zM663 526c-6 -4 -12 -8 -22 -8c-15 0 -24 11 -24 25c0 10 4 22 12 28c4 6 12 9 21 9c16 0 24 -11 24 -25c0 -11 -3 -22 -11 -29zM630 544c0 -9 4 -15 13 -15
c4 0 8 1 9 4c5 5 9 14 9 22c0 7 -4 14 -13 14c-3 0 -7 -2 -10 -4c-5 -5 -8 -15 -8 -21zM697 564c0 -6 -2 -15 -4 -24l-4 -21h-13l12 60h15l8 -23c3 -8 5 -14 7 -20c0 6 1 12 2 21l3 22h13l-12 -60h-13l-9 24c-2 8 -4 14 -5 21zM748 579h12l-9 -49h22l-1 -11h-36zM799 544
l-4 -25h-13l5 25l-13 35h15l3 -15c1 -5 2 -8 3 -11c2 3 4 7 6 11l8 15h16zM837 525c0 5 3 9 9 9c4 0 7 -3 7 -8c0 -4 -4 -8 -9 -8s-7 4 -7 7zM861 579l-9 -40h-10l6 40h13zM54 294h-21v-17h19v-5h-19v-23h-7v50h28v-5zM93 268c0 -14 -10 -19 -18 -19c-10 0 -17 6 -17 18
s7 19 17 19c11 0 18 -7 18 -18zM65 267c0 -8 3 -14 10 -14s11 6 11 15c0 6 -3 13 -11 13s-10 -7 -10 -14zM107 249h-7v25v12h6l1 -8c2 5 6 8 10 8h1v-7c0 1 0 1 -1 1c-5 0 -8 -4 -9 -8c-1 -1 -1 -2 -1 -3v-20zM138 274c0 16 11 26 27 26c6 0 10 -1 12 -2l-2 -5
c-2 1 -6 2 -10 2c-12 0 -20 -8 -20 -21s7 -21 20 -21c3 0 8 2 10 3l2 -5c-2 -1 -7 -2 -14 -2c-14 0 -25 8 -25 25zM199 249c-10 0 -19 6 -19 18s9 19 19 19s18 -7 18 -18c0 -14 -10 -19 -18 -19zM199 281c-8 0 -12 -7 -12 -14c0 -8 5 -14 12 -14c6 0 11 6 11 15
c0 6 -4 13 -11 13zM276 249h-7v21c0 6 -2 11 -8 11c-3 0 -6 -3 -7 -7c0 0 -1 -1 -1 -2v-23h-6v23c0 4 -3 9 -7 9s-8 -4 -9 -7v-2v-23h-7v26v11h6v-7h1c1 4 5 7 11 7c5 0 8 -3 10 -7c1 2 3 3 5 5c1 2 3 2 7 2c5 0 12 -3 12 -15v-22zM338 271v-22h-6v21c0 6 -3 11 -8 11
c-4 0 -7 -3 -9 -7v-2v-23h-6v23c0 4 -3 9 -8 9c-4 0 -7 -4 -8 -7v-2v-23h-6v26c0 4 0 7 -1 11h6v-7h1c1 4 5 7 11 7c5 0 9 -3 9 -7l5 5s4 2 8 2c5 0 12 -3 12 -15zM379 270c0 -2 -1 -3 -1 -4h-25c0 -9 6 -13 12 -13c4 0 7 1 10 2l1 -4c-2 -1 -6 -2 -12 -2
c-11 0 -18 6 -18 18c0 10 7 19 17 19c12 0 16 -10 16 -16zM353 271h19c0 3 -2 10 -10 10c-6 0 -9 -6 -9 -10zM386 274v12h5l1 -8c2 5 6 8 10 8h2v-7c-1 1 -2 1 -3 1c-3 0 -7 -4 -8 -8v-3v-20h-7v25zM436 251c-2 -1 -6 -2 -11 -2c-11 0 -18 7 -18 18s8 19 19 19
c4 0 8 -1 10 -2l-2 -5c-1 1 -4 2 -8 2c-8 0 -12 -7 -12 -14c0 -8 4 -14 12 -14c4 0 7 2 9 2zM446 300c3 0 5 -2 5 -5c0 -1 -2 -3 -5 -3c-2 0 -4 2 -4 3c0 3 2 5 4 5zM443 249v37h7v-37h-7zM468 249c-7 0 -11 4 -11 9c0 10 8 15 22 15c0 3 -1 8 -8 8c-3 0 -7 -1 -9 -2l-2 4
c3 2 8 3 11 3c12 0 15 -7 15 -14v-14v-9h-6l-1 4c-2 -2 -6 -4 -11 -4zM479 268c-7 0 -15 -2 -15 -8c0 -5 3 -7 6 -7c4 0 7 3 9 6v2v7zM496 249v53h7v-53h-7zM513 258h8c-2 -6 -5 -14 -7 -18h-5c2 4 4 12 4 18zM545 249v49c3 1 7 2 12 2c6 0 11 -2 14 -5c4 -1 5 -5 5 -9
c0 -5 -1 -9 -4 -12c-4 -3 -9 -5 -15 -5c-2 0 -4 0 -6 1v-21h-6zM551 295v-21h6c7 0 12 3 12 11c0 7 -5 10 -11 10h-7zM584 249v53h6v-53h-6zM629 251c-3 -1 -7 -2 -13 -2c-11 0 -18 6 -18 18c0 10 7 19 17 19c12 0 15 -10 15 -16v-4h-25c0 -9 6 -13 12 -13c5 0 8 1 10 2z
M614 281c-6 0 -9 -6 -9 -10h19c0 3 -2 10 -10 10zM664 249h-6l-1 4c-1 -2 -5 -4 -11 -4c-7 0 -11 4 -11 9c0 10 8 15 22 15c0 3 -1 8 -7 8c-4 0 -8 -1 -10 -2l-2 4c3 2 8 3 12 3c11 0 14 -7 14 -14v-14v-9zM657 261v7c-6 0 -15 -2 -15 -8c0 -5 3 -7 6 -7c4 0 8 3 9 6v2z
M696 259c0 -6 -5 -10 -14 -10c-4 0 -8 1 -10 2l2 5c1 -1 4 -3 8 -3c5 0 7 2 7 5s-2 5 -7 7c-7 3 -9 7 -9 10c0 6 4 11 12 11c4 0 8 -1 10 -2l-2 -5c-1 1 -5 2 -8 2c-4 0 -6 -2 -6 -5c0 -2 2 -4 7 -6c7 -2 10 -5 10 -11zM733 270v-4h-25c0 -9 6 -13 12 -13c5 0 8 1 10 2l2 -4
c-3 -1 -7 -2 -13 -2c-11 0 -18 6 -18 18c0 10 7 19 18 19s14 -10 14 -16zM708 271h19c0 3 -2 10 -9 10s-10 -6 -10 -10zM784 299h6l-18 -50h-7l-16 50h7l8 -25c2 -6 4 -13 6 -18c1 5 3 12 5 18zM798 300c2 0 4 -2 4 -5c0 -1 -2 -3 -5 -3c-2 0 -3 2 -3 3c0 3 1 5 4 5z
M794 249v37h7v-37h-7zM820 253c5 0 7 2 7 5s-2 5 -7 7c-7 3 -10 7 -10 10c0 6 5 11 13 11c4 0 7 -1 9 -2l-1 -5c-2 1 -5 2 -8 2c-4 0 -7 -2 -7 -5c0 -2 3 -4 8 -6c6 -2 9 -5 9 -11s-5 -10 -13 -10c-5 0 -9 1 -11 2l2 5c2 -1 5 -3 9 -3zM845 300c2 0 4 -2 4 -5
c0 -1 -2 -3 -4 -3c-3 0 -5 2 -5 3c0 3 2 5 5 5zM849 286v-37h-7v37h7zM877 280h-10v-19c0 -5 1 -8 5 -8c2 0 3 1 5 1v-4c-2 -1 -4 -1 -7 -1s-5 1 -7 2c-2 2 -3 5 -3 9v20h-5v6h5v8l7 1v-9h10v-6zM245 140h-13v8c-5 -7 -10 -9 -16 -9c-10 0 -16 7 -16 19c0 18 13 34 32 34
c2 0 5 0 7 -1l4 23h16l-11 -54c-1 -7 -2 -14 -3 -20zM223 151c4 0 9 4 11 14l3 14c-1 1 -3 2 -6 2c-9 0 -16 -10 -16 -21c0 -6 3 -9 8 -9zM285 207c0 -6 -4 -10 -8 -10c-5 0 -8 3 -8 8c0 4 4 8 8 8c5 0 8 -3 8 -6zM282 191l-9 -51h-16l10 51h15zM316 140l6 29v5
c0 4 -2 6 -5 6c-4 0 -11 -6 -13 -17l-5 -23h-14l7 34c1 7 1 13 2 17h14l-2 -8h1c5 6 10 9 18 9c9 0 13 -4 13 -14c0 -2 -1 -6 -2 -8l-4 -30h-16zM345 162l3 11h27l-2 -11h-28zM404 181c-3 0 -6 -2 -6 -4c0 -3 2 -4 6 -6c6 -2 12 -7 12 -14c0 -12 -10 -18 -24 -18
c-7 0 -12 2 -15 4l4 10c2 0 7 -3 12 -3s7 3 7 4c0 3 -1 4 -6 7c-6 3 -12 8 -12 13c0 12 10 18 23 18c6 0 11 -1 13 -3l-3 -10c-2 1 -6 2 -11 2zM446 179l-4 -17c0 -2 -1 -5 -1 -7s1 -3 5 -3h5l-2 -12c-3 -1 -7 -1 -10 -1c-9 0 -13 4 -13 11c0 3 0 5 1 9l4 20h-6l1 12h7l3 11
l15 4l-3 -15h10l-2 -12h-10zM505 140h-13l1 9c-6 -8 -12 -10 -19 -10c-8 0 -13 4 -13 14c0 3 1 6 1 10l6 28h14l-5 -27c0 -2 -1 -6 -1 -7c0 -4 2 -6 6 -6c6 0 11 6 12 17l4 23h17l-7 -34c-1 -6 -3 -13 -3 -17zM564 140h-13l1 8c-5 -7 -12 -9 -17 -9c-9 0 -17 7 -17 19
c0 18 14 34 33 34c3 0 5 0 8 -1l3 23h15l-10 -54c-1 -7 -2 -14 -3 -20zM541 151c5 0 11 4 13 14l2 14c-1 1 -3 2 -6 2c-10 0 -15 -10 -15 -21c0 -6 3 -9 6 -9zM605 207c0 -6 -5 -10 -10 -10c-3 0 -7 3 -7 8c0 4 4 8 8 8c5 0 9 -3 9 -6zM601 191l-9 -51h-16l10 51h15z
M627 139c-13 0 -21 9 -21 21c0 18 12 32 30 32c14 0 22 -9 22 -21c0 -18 -13 -32 -31 -32zM634 181c-8 0 -13 -12 -13 -21c0 -6 3 -9 9 -9c8 0 13 11 13 20c0 5 -3 10 -9 10zM671 139c-6 0 -9 4 -9 9s4 10 10 10c5 0 9 -4 9 -9c0 -6 -5 -10 -10 -10zM723 180
c-10 0 -17 -9 -17 -18c0 -8 5 -11 11 -11c3 0 7 2 10 2v-12c-4 -1 -8 -2 -14 -2c-14 0 -22 8 -22 21c0 18 13 32 33 32c4 0 8 -1 11 -2l-4 -11c-2 0 -4 1 -8 1zM757 139c-13 0 -21 9 -21 21c0 18 12 32 30 32c13 0 22 -9 22 -21c0 -18 -14 -32 -31 -32zM764 181
c-9 0 -13 -12 -13 -21c0 -6 3 -9 7 -9c9 0 14 11 14 20c0 5 -2 10 -8 10zM853 140l4 29c1 1 1 3 1 5c0 4 -2 6 -4 6c-5 0 -11 -7 -13 -16l-4 -24h-15l6 29v5c0 4 -1 6 -5 6c-5 0 -10 -7 -13 -17l-3 -23h-15l7 34c1 7 1 13 2 17h13l-1 -8c5 6 12 9 18 9c8 0 12 -4 12 -9
c5 6 12 9 18 9c8 0 13 -4 13 -13c0 -3 -1 -7 -1 -9l-6 -30h-14zM81 328c-39 1 -61 21 -61 48c0 22 13 28 20 28c16 0 21 -17 13 -24c0 13 -24 15 -24 -6c0 -23 21 -37 52 -37c40 0 48 41 48 71c0 21 1 65 -29 65c-1 0 -4 -1 -4 -11v-32v-1v-54c0 -12 7 -12 7 -12v-4h-44v4
s6 0 7 10v0v91c0 8 -1 14 -11 14c-6 0 -10 -4 -10 -6c0 -8 9 -7 9 -7c0 -11 -8 -13 -12 -13c-13 0 -14 11 -14 13c0 13 16 20 27 20c18 0 24 -7 45 -7c31 0 58 -16 58 -70c0 -38 -23 -82 -77 -80zM213 363v-4h-45v4s7 0 8 10v48c-1 11 -8 11 -8 11v3l36 7v-67
c0 -12 9 -12 9 -12zM191 475c8 0 13 -6 13 -13c0 -8 -5 -14 -13 -14s-13 6 -13 14c0 7 5 13 13 13zM259 432c4 4 12 11 24 11c13 0 25 -9 25 -26v-42c0 -11 5 -12 7 -12v-4h-44v4s6 0 7 10v47c0 14 -19 12 -19 -3v-42c0 -12 8 -12 8 -12v-4h-44v4s6 0 7 10v48
c-1 11 -7 11 -7 11v3l36 7v-10zM395 448c0 0 0 30 44 30c22 0 26 -9 35 -3c2 1 3 2 6 2v-30l-4 -1s-4 25 -37 25c-21 0 -28 -25 -14 -31c18 -8 70 -10 69 -52c-1 -17 -18 -29 -50 -29c-31 0 -34 8 -40 0h-4v31h4c0 -13 21 -22 39 -22c32 0 31 28 8 35c-21 6 -56 13 -56 45z
M544 438c0 0 -6 1 -8 -8v-57c1 -10 8 -10 8 -10v-4h-12c-10 0 -25 0 -25 23v47c-1 10 -9 9 -9 9v4c21 0 26 11 38 11v-11h8v-4zM552 438v5h43v-5s-6 1 -6 -9v-44c0 -20 19 -13 19 0v42c0 12 -7 11 -7 11v5h44v-5s-8 1 -9 -9v-56c1 -10 9 -10 9 -10v-4h-21
c-10 0 -16 8 -16 13c-3 -5 -9 -13 -21 -13s-27 8 -27 26v42c0 11 -7 11 -8 11zM769 340c0 -7 -5 -12 -16 -12c-10 0 -42 3 -47 34c-5 -2 -9 -3 -14 -3c-22 0 -41 19 -41 42s19 42 41 42c5 0 9 -2 13 -3v38l37 -6v-4s-7 1 -8 -11v-87c1 -25 8 -35 20 -37c-2 2 -3 5 -3 7
c0 5 3 9 9 9c5 0 9 -4 9 -9zM692 366c11 0 13 16 13 35c0 20 -2 36 -13 36s-13 -16 -13 -36c0 -19 2 -35 13 -35zM791 363v-4h-44v4s7 0 7 10v48c0 11 -7 11 -7 11v3l37 7v-67c0 -12 7 -12 7 -12zM756 462c0 7 6 13 14 13c7 0 13 -6 13 -13c0 -8 -6 -14 -13 -14
c-8 0 -14 6 -14 14zM875 401c0 -23 -19 -42 -42 -42s-41 19 -41 42s18 41 41 41s42 -18 42 -41zM833 366c12 0 13 16 13 35c0 20 -1 35 -13 35c-11 0 -12 -15 -12 -35c0 -19 1 -35 12 -35zM26 151v20h154v-20h-154zM460 605h-93l70 89h95zM876 605h-89l71 89h18v-89z
M180 605h-94l72 89h94zM600 605h-93l71 89h94zM112 694l-72 -89h-14v89h86zM320 605h-93l71 89h94zM741 605h-94l72 89h92zM437 113h95l-72 -90h-93zM787 23l71 90h18v-90h-89zM158 113h94l-72 -90h-94zM578 113h94l-72 -90h-93zM26 113h86l-72 -90h-14v90zM298 113h94
l-72 -90h-93zM719 113h92l-70 -90h-94z" />
    <glyph glyph-name="percent" unicode="&#xe903;" horiz-adv-x="908" 
d="M40 541l-5 -22h-13l11 59c5 1 10 1 16 1c5 0 12 -1 16 -4c4 -2 7 -7 7 -12c0 -8 -4 -14 -8 -18c-5 -3 -13 -4 -20 -4h-4zM44 568l-2 -17c1 -1 1 -1 4 -1c8 0 13 5 13 12c0 5 -5 7 -10 7c-2 0 -4 0 -5 -1zM117 567h-23l-2 -12h22l-3 -11h-21l-3 -14h24l-2 -11h-37l11 60
h35zM135 543l-4 -24h-13l12 59c3 1 9 1 15 1s11 -1 16 -3c4 -3 7 -7 7 -11c0 -10 -7 -15 -14 -18c3 -2 5 -5 6 -11c0 -7 1 -14 1 -17h-12c0 2 -1 7 -2 14c0 8 -3 10 -8 10h-4zM140 568l-3 -16h5c7 0 13 5 13 11c0 4 -5 6 -10 6c-3 0 -4 0 -5 -1zM186 529c5 0 10 2 10 7
c0 3 -2 6 -8 8c-7 4 -12 8 -12 16c0 13 10 20 23 20c7 0 11 -2 14 -3l-4 -10c-2 0 -6 2 -11 1c-6 0 -9 -2 -9 -5c0 -4 3 -6 9 -9c7 -4 12 -9 12 -15c0 -14 -11 -21 -25 -21c-8 0 -14 2 -17 5l5 9c3 -1 7 -3 13 -3zM250 580c15 0 24 -11 24 -25c0 -11 -4 -22 -12 -29
c-4 -4 -12 -8 -21 -8c-15 0 -24 11 -24 25c0 10 5 22 11 28s13 9 22 9zM253 533c5 5 7 14 7 22c0 7 -2 14 -12 14c-4 0 -7 -2 -10 -4c-5 -5 -7 -15 -7 -21c0 -9 3 -15 12 -15c4 0 7 1 10 4zM293 540l-5 -21h-11l11 60h15l8 -23c2 -8 3 -14 5 -20c0 6 1 12 3 21l4 22h12
l-11 -60h-13l-9 24c-3 8 -4 14 -6 21c-1 -6 -2 -15 -3 -24zM353 534l-8 -15h-13l28 60h17l7 -60h-14l-1 15h-16zM362 557l-6 -13h13l-2 13v12c-2 -3 -4 -8 -5 -12zM402 579h13l-10 -49h23l-2 -11h-35zM473 579l-6 -35v-7c0 -5 3 -8 7 -8c7 0 12 4 14 15l6 35h14l-7 -35
c-4 -18 -11 -26 -28 -26c-12 0 -19 7 -19 19v8l6 34h13zM524 529c5 0 10 2 10 7c0 3 -3 6 -8 8c-7 4 -13 8 -13 16c0 13 11 20 24 20c7 0 12 -2 14 -3l-4 -10c-2 0 -7 2 -11 1c-6 0 -10 -2 -10 -5c0 -4 5 -6 10 -9c6 -4 11 -9 11 -15c0 -14 -11 -21 -24 -21
c-8 0 -15 2 -17 5l4 9c4 -1 8 -3 14 -3zM597 567h-22l-2 -12h21l-2 -11h-22l-2 -14h24l-3 -11h-36l11 60h35zM663 526c-6 -4 -12 -8 -22 -8c-15 0 -24 11 -24 25c0 10 4 22 12 28c4 6 12 9 21 9c16 0 24 -11 24 -25c0 -11 -3 -22 -11 -29zM630 544c0 -9 4 -15 13 -15
c4 0 8 1 9 4c5 5 9 14 9 22c0 7 -4 14 -13 14c-3 0 -7 -2 -10 -4c-5 -5 -8 -15 -8 -21zM697 564c0 -6 -2 -15 -4 -24l-4 -21h-13l12 60h15l8 -23c3 -8 5 -14 7 -20c0 6 1 12 2 21l3 22h13l-12 -60h-13l-9 24c-2 8 -4 14 -5 21zM748 579h12l-9 -49h22l-1 -11h-36zM799 544
l-4 -25h-13l5 25l-13 35h15l3 -15c1 -5 2 -8 3 -11c2 3 4 7 6 11l8 15h16zM837 525c0 5 3 9 9 9c4 0 7 -3 7 -8c0 -4 -4 -8 -9 -8s-7 4 -7 7zM861 579l-9 -40h-10l6 40h13zM54 294h-21v-17h19v-5h-19v-23h-7v50h28v-5zM93 268c0 -14 -10 -19 -18 -19c-10 0 -17 6 -17 18
s7 19 17 19c11 0 18 -7 18 -18zM65 267c0 -8 3 -14 10 -14s11 6 11 15c0 6 -3 13 -11 13s-10 -7 -10 -14zM107 249h-7v25v12h6l1 -8c2 5 6 8 10 8h1v-7c0 1 0 1 -1 1c-5 0 -8 -4 -9 -8c-1 -1 -1 -2 -1 -3v-20zM138 274c0 16 11 26 27 26c6 0 10 -1 12 -2l-2 -5
c-2 1 -6 2 -10 2c-12 0 -20 -8 -20 -21s7 -21 20 -21c3 0 8 2 10 3l2 -5c-2 -1 -7 -2 -14 -2c-14 0 -25 8 -25 25zM199 249c-10 0 -19 6 -19 18s9 19 19 19s18 -7 18 -18c0 -14 -10 -19 -18 -19zM199 281c-8 0 -12 -7 -12 -14c0 -8 5 -14 12 -14c6 0 11 6 11 15
c0 6 -4 13 -11 13zM276 249h-7v21c0 6 -2 11 -8 11c-3 0 -6 -3 -7 -7c0 0 -1 -1 -1 -2v-23h-6v23c0 4 -3 9 -7 9s-8 -4 -9 -7v-2v-23h-7v26v11h6v-7h1c1 4 5 7 11 7c5 0 8 -3 10 -7c1 2 3 3 5 5c1 2 3 2 7 2c5 0 12 -3 12 -15v-22zM338 271v-22h-6v21c0 6 -3 11 -8 11
c-4 0 -7 -3 -9 -7v-2v-23h-6v23c0 4 -3 9 -8 9c-4 0 -7 -4 -8 -7v-2v-23h-6v26c0 4 0 7 -1 11h6v-7h1c1 4 5 7 11 7c5 0 9 -3 9 -7l5 5s4 2 8 2c5 0 12 -3 12 -15zM379 270c0 -2 -1 -3 -1 -4h-25c0 -9 6 -13 12 -13c4 0 7 1 10 2l1 -4c-2 -1 -6 -2 -12 -2
c-11 0 -18 6 -18 18c0 10 7 19 17 19c12 0 16 -10 16 -16zM353 271h19c0 3 -2 10 -10 10c-6 0 -9 -6 -9 -10zM386 274v12h5l1 -8c2 5 6 8 10 8h2v-7c-1 1 -2 1 -3 1c-3 0 -7 -4 -8 -8v-3v-20h-7v25zM436 251c-2 -1 -6 -2 -11 -2c-11 0 -18 7 -18 18s8 19 19 19
c4 0 8 -1 10 -2l-2 -5c-1 1 -4 2 -8 2c-8 0 -12 -7 -12 -14c0 -8 4 -14 12 -14c4 0 7 2 9 2zM446 300c3 0 5 -2 5 -5c0 -1 -2 -3 -5 -3c-2 0 -4 2 -4 3c0 3 2 5 4 5zM443 249v37h7v-37h-7zM468 249c-7 0 -11 4 -11 9c0 10 8 15 22 15c0 3 -1 8 -8 8c-3 0 -7 -1 -9 -2l-2 4
c3 2 8 3 11 3c12 0 15 -7 15 -14v-14v-9h-6l-1 4c-2 -2 -6 -4 -11 -4zM479 268c-7 0 -15 -2 -15 -8c0 -5 3 -7 6 -7c4 0 7 3 9 6v2v7zM496 249v53h7v-53h-7zM513 258h8c-2 -6 -5 -14 -7 -18h-5c2 4 4 12 4 18zM545 249v49c3 1 7 2 12 2c6 0 11 -2 14 -5c4 -1 5 -5 5 -9
c0 -5 -1 -9 -4 -12c-4 -3 -9 -5 -15 -5c-2 0 -4 0 -6 1v-21h-6zM551 295v-21h6c7 0 12 3 12 11c0 7 -5 10 -11 10h-7zM584 249v53h6v-53h-6zM629 251c-3 -1 -7 -2 -13 -2c-11 0 -18 6 -18 18c0 10 7 19 17 19c12 0 15 -10 15 -16v-4h-25c0 -9 6 -13 12 -13c5 0 8 1 10 2z
M614 281c-6 0 -9 -6 -9 -10h19c0 3 -2 10 -10 10zM664 249h-6l-1 4c-1 -2 -5 -4 -11 -4c-7 0 -11 4 -11 9c0 10 8 15 22 15c0 3 -1 8 -7 8c-4 0 -8 -1 -10 -2l-2 4c3 2 8 3 12 3c11 0 14 -7 14 -14v-14v-9zM657 261v7c-6 0 -15 -2 -15 -8c0 -5 3 -7 6 -7c4 0 8 3 9 6v2z
M696 259c0 -6 -5 -10 -14 -10c-4 0 -8 1 -10 2l2 5c1 -1 4 -3 8 -3c5 0 7 2 7 5s-2 5 -7 7c-7 3 -9 7 -9 10c0 6 4 11 12 11c4 0 8 -1 10 -2l-2 -5c-1 1 -5 2 -8 2c-4 0 -6 -2 -6 -5c0 -2 2 -4 7 -6c7 -2 10 -5 10 -11zM733 270v-4h-25c0 -9 6 -13 12 -13c5 0 8 1 10 2l2 -4
c-3 -1 -7 -2 -13 -2c-11 0 -18 6 -18 18c0 10 7 19 18 19s14 -10 14 -16zM708 271h19c0 3 -2 10 -9 10s-10 -6 -10 -10zM784 299h6l-18 -50h-7l-16 50h7l8 -25c2 -6 4 -13 6 -18c1 5 3 12 5 18zM798 300c2 0 4 -2 4 -5c0 -1 -2 -3 -5 -3c-2 0 -3 2 -3 3c0 3 1 5 4 5z
M794 249v37h7v-37h-7zM820 253c5 0 7 2 7 5s-2 5 -7 7c-7 3 -10 7 -10 10c0 6 5 11 13 11c4 0 7 -1 9 -2l-1 -5c-2 1 -5 2 -8 2c-4 0 -7 -2 -7 -5c0 -2 3 -4 8 -6c6 -2 9 -5 9 -11s-5 -10 -13 -10c-5 0 -9 1 -11 2l2 5c2 -1 5 -3 9 -3zM845 300c2 0 4 -2 4 -5
c0 -1 -2 -3 -4 -3c-3 0 -5 2 -5 3c0 3 2 5 5 5zM849 286v-37h-7v37h7zM877 280h-10v-19c0 -5 1 -8 5 -8c2 0 3 1 5 1v-4c-2 -1 -4 -1 -7 -1s-5 1 -7 2c-2 2 -3 5 -3 9v20h-5v6h5v8l7 1v-9h10v-6zM245 140h-13v8c-5 -7 -10 -9 -16 -9c-10 0 -16 7 -16 19c0 18 13 34 32 34
c2 0 5 0 7 -1l4 23h16l-11 -54c-1 -7 -2 -14 -3 -20zM223 151c4 0 9 4 11 14l3 14c-1 1 -3 2 -6 2c-9 0 -16 -10 -16 -21c0 -6 3 -9 8 -9zM285 207c0 -6 -4 -10 -8 -10c-5 0 -8 3 -8 8c0 4 4 8 8 8c5 0 8 -3 8 -6zM282 191l-9 -51h-16l10 51h15zM316 140l6 29v5
c0 4 -2 6 -5 6c-4 0 -11 -6 -13 -17l-5 -23h-14l7 34c1 7 1 13 2 17h14l-2 -8h1c5 6 10 9 18 9c9 0 13 -4 13 -14c0 -2 -1 -6 -2 -8l-4 -30h-16zM345 162l3 11h27l-2 -11h-28zM404 181c-3 0 -6 -2 -6 -4c0 -3 2 -4 6 -6c6 -2 12 -7 12 -14c0 -12 -10 -18 -24 -18
c-7 0 -12 2 -15 4l4 10c2 0 7 -3 12 -3s7 3 7 4c0 3 -1 4 -6 7c-6 3 -12 8 -12 13c0 12 10 18 23 18c6 0 11 -1 13 -3l-3 -10c-2 1 -6 2 -11 2zM446 179l-4 -17c0 -2 -1 -5 -1 -7s1 -3 5 -3h5l-2 -12c-3 -1 -7 -1 -10 -1c-9 0 -13 4 -13 11c0 3 0 5 1 9l4 20h-6l1 12h7l3 11
l15 4l-3 -15h10l-2 -12h-10zM505 140h-13l1 9c-6 -8 -12 -10 -19 -10c-8 0 -13 4 -13 14c0 3 1 6 1 10l6 28h14l-5 -27c0 -2 -1 -6 -1 -7c0 -4 2 -6 6 -6c6 0 11 6 12 17l4 23h17l-7 -34c-1 -6 -3 -13 -3 -17zM564 140h-13l1 8c-5 -7 -12 -9 -17 -9c-9 0 -17 7 -17 19
c0 18 14 34 33 34c3 0 5 0 8 -1l3 23h15l-10 -54c-1 -7 -2 -14 -3 -20zM541 151c5 0 11 4 13 14l2 14c-1 1 -3 2 -6 2c-10 0 -15 -10 -15 -21c0 -6 3 -9 6 -9zM605 207c0 -6 -5 -10 -10 -10c-3 0 -7 3 -7 8c0 4 4 8 8 8c5 0 9 -3 9 -6zM601 191l-9 -51h-16l10 51h15z
M627 139c-13 0 -21 9 -21 21c0 18 12 32 30 32c14 0 22 -9 22 -21c0 -18 -13 -32 -31 -32zM634 181c-8 0 -13 -12 -13 -21c0 -6 3 -9 9 -9c8 0 13 11 13 20c0 5 -3 10 -9 10zM671 139c-6 0 -9 4 -9 9s4 10 10 10c5 0 9 -4 9 -9c0 -6 -5 -10 -10 -10zM723 180
c-10 0 -17 -9 -17 -18c0 -8 5 -11 11 -11c3 0 7 2 10 2v-12c-4 -1 -8 -2 -14 -2c-14 0 -22 8 -22 21c0 18 13 32 33 32c4 0 8 -1 11 -2l-4 -11c-2 0 -4 1 -8 1zM757 139c-13 0 -21 9 -21 21c0 18 12 32 30 32c13 0 22 -9 22 -21c0 -18 -14 -32 -31 -32zM764 181
c-9 0 -13 -12 -13 -21c0 -6 3 -9 7 -9c9 0 14 11 14 20c0 5 -2 10 -8 10zM853 140l4 29c1 1 1 3 1 5c0 4 -2 6 -4 6c-5 0 -11 -7 -13 -16l-4 -24h-15l6 29v5c0 4 -1 6 -5 6c-5 0 -10 -7 -13 -17l-3 -23h-15l7 34c1 7 1 13 2 17h13l-1 -8c5 6 12 9 18 9c8 0 12 -4 12 -9
c5 6 12 9 18 9c8 0 13 -4 13 -13c0 -3 -1 -7 -1 -9l-6 -30h-14zM81 328c-39 1 -61 21 -61 48c0 22 13 28 20 28c16 0 21 -17 13 -24c0 13 -24 15 -24 -6c0 -23 21 -37 52 -37c40 0 48 41 48 71c0 21 1 65 -29 65c-1 0 -4 -1 -4 -11v-32v-1v-54c0 -12 7 -12 7 -12v-4h-44v4
s6 0 7 10v0v91c0 8 -1 14 -11 14c-6 0 -10 -4 -10 -6c0 -8 9 -7 9 -7c0 -11 -8 -13 -12 -13c-13 0 -14 11 -14 13c0 13 16 20 27 20c18 0 24 -7 45 -7c31 0 58 -16 58 -70c0 -38 -23 -82 -77 -80zM213 363v-4h-45v4s7 0 8 10v48c-1 11 -8 11 -8 11v3l36 7v-67
c0 -12 9 -12 9 -12zM191 475c8 0 13 -6 13 -13c0 -8 -5 -14 -13 -14s-13 6 -13 14c0 7 5 13 13 13zM259 432c4 4 12 11 24 11c13 0 25 -9 25 -26v-42c0 -11 5 -12 7 -12v-4h-44v4s6 0 7 10v47c0 14 -19 12 -19 -3v-42c0 -12 8 -12 8 -12v-4h-44v4s6 0 7 10v48
c-1 11 -7 11 -7 11v3l36 7v-10zM395 448c0 0 0 30 44 30c22 0 26 -9 35 -3c2 1 3 2 6 2v-30l-4 -1s-4 25 -37 25c-21 0 -28 -25 -14 -31c18 -8 70 -10 69 -52c-1 -17 -18 -29 -50 -29c-31 0 -34 8 -40 0h-4v31h4c0 -13 21 -22 39 -22c32 0 31 28 8 35c-21 6 -56 13 -56 45z
M544 438c0 0 -6 1 -8 -8v-57c1 -10 8 -10 8 -10v-4h-12c-10 0 -25 0 -25 23v47c-1 10 -9 9 -9 9v4c21 0 26 11 38 11v-11h8v-4zM552 438v5h43v-5s-6 1 -6 -9v-44c0 -20 19 -13 19 0v42c0 12 -7 11 -7 11v5h44v-5s-8 1 -9 -9v-56c1 -10 9 -10 9 -10v-4h-21
c-10 0 -16 8 -16 13c-3 -5 -9 -13 -21 -13s-27 8 -27 26v42c0 11 -7 11 -8 11zM769 340c0 -7 -5 -12 -16 -12c-10 0 -42 3 -47 34c-5 -2 -9 -3 -14 -3c-22 0 -41 19 -41 42s19 42 41 42c5 0 9 -2 13 -3v38l37 -6v-4s-7 1 -8 -11v-87c1 -25 8 -35 20 -37c-2 2 -3 5 -3 7
c0 5 3 9 9 9c5 0 9 -4 9 -9zM692 366c11 0 13 16 13 35c0 20 -2 36 -13 36s-13 -16 -13 -36c0 -19 2 -35 13 -35zM791 363v-4h-44v4s7 0 7 10v48c0 11 -7 11 -7 11v3l37 7v-67c0 -12 7 -12 7 -12zM756 462c0 7 6 13 14 13c7 0 13 -6 13 -13c0 -8 -6 -14 -13 -14
c-8 0 -14 6 -14 14zM875 401c0 -23 -19 -42 -42 -42s-41 19 -41 42s18 41 41 41s42 -18 42 -41zM833 366c12 0 13 16 13 35c0 20 -1 35 -13 35c-11 0 -12 -15 -12 -35c0 -19 1 -35 12 -35zM26 151v20h154v-20h-154zM460 605h-93l70 89h95zM876 605h-89l71 89h18v-89z
M180 605h-94l72 89h94zM600 605h-93l71 89h94zM112 694l-72 -89h-14v89h86zM320 605h-93l71 89h94zM741 605h-94l72 89h92zM437 113h95l-72 -90h-93zM787 23l71 90h18v-90h-89zM158 113h94l-72 -90h-94zM578 113h94l-72 -90h-93zM26 113h86l-72 -90h-14v90zM298 113h94
l-72 -90h-93zM719 113h92l-70 -90h-94z" />
    <glyph glyph-name="ampersand" unicode="&#x26;" horiz-adv-x="908" 
d="M40 541l-5 -22h-13l11 59c5 1 10 1 16 1c5 0 12 -1 16 -4c4 -2 7 -7 7 -12c0 -8 -4 -14 -8 -18c-5 -3 -13 -4 -20 -4h-4zM44 568l-2 -17c1 -1 1 -1 4 -1c8 0 13 5 13 12c0 5 -5 7 -10 7c-2 0 -4 0 -5 -1zM117 567h-23l-2 -12h22l-3 -11h-21l-3 -14h24l-2 -11h-37l11 60
h35zM135 543l-4 -24h-13l12 59c3 1 9 1 15 1s11 -1 16 -3c4 -3 7 -7 7 -11c0 -10 -7 -15 -14 -18c3 -2 5 -5 6 -11c0 -7 1 -14 1 -17h-12c0 2 -1 7 -2 14c0 8 -3 10 -8 10h-4zM140 568l-3 -16h5c7 0 13 5 13 11c0 4 -5 6 -10 6c-3 0 -4 0 -5 -1zM186 529c5 0 10 2 10 7
c0 3 -2 6 -8 8c-7 4 -12 8 -12 16c0 13 10 20 23 20c7 0 11 -2 14 -3l-4 -10c-2 0 -6 2 -11 1c-6 0 -9 -2 -9 -5c0 -4 3 -6 9 -9c7 -4 12 -9 12 -15c0 -14 -11 -21 -25 -21c-8 0 -14 2 -17 5l5 9c3 -1 7 -3 13 -3zM250 580c15 0 24 -11 24 -25c0 -11 -4 -22 -12 -29
c-4 -4 -12 -8 -21 -8c-15 0 -24 11 -24 25c0 10 5 22 11 28s13 9 22 9zM253 533c5 5 7 14 7 22c0 7 -2 14 -12 14c-4 0 -7 -2 -10 -4c-5 -5 -7 -15 -7 -21c0 -9 3 -15 12 -15c4 0 7 1 10 4zM293 540l-5 -21h-11l11 60h15l8 -23c2 -8 3 -14 5 -20c0 6 1 12 3 21l4 22h12
l-11 -60h-13l-9 24c-3 8 -4 14 -6 21c-1 -6 -2 -15 -3 -24zM353 534l-8 -15h-13l28 60h17l7 -60h-14l-1 15h-16zM362 557l-6 -13h13l-2 13v12c-2 -3 -4 -8 -5 -12zM402 579h13l-10 -49h23l-2 -11h-35zM473 579l-6 -35v-7c0 -5 3 -8 7 -8c7 0 12 4 14 15l6 35h14l-7 -35
c-4 -18 -11 -26 -28 -26c-12 0 -19 7 -19 19v8l6 34h13zM524 529c5 0 10 2 10 7c0 3 -3 6 -8 8c-7 4 -13 8 -13 16c0 13 11 20 24 20c7 0 12 -2 14 -3l-4 -10c-2 0 -7 2 -11 1c-6 0 -10 -2 -10 -5c0 -4 5 -6 10 -9c6 -4 11 -9 11 -15c0 -14 -11 -21 -24 -21
c-8 0 -15 2 -17 5l4 9c4 -1 8 -3 14 -3zM597 567h-22l-2 -12h21l-2 -11h-22l-2 -14h24l-3 -11h-36l11 60h35zM663 526c-6 -4 -12 -8 -22 -8c-15 0 -24 11 -24 25c0 10 4 22 12 28c4 6 12 9 21 9c16 0 24 -11 24 -25c0 -11 -3 -22 -11 -29zM630 544c0 -9 4 -15 13 -15
c4 0 8 1 9 4c5 5 9 14 9 22c0 7 -4 14 -13 14c-3 0 -7 -2 -10 -4c-5 -5 -8 -15 -8 -21zM697 564c0 -6 -2 -15 -4 -24l-4 -21h-13l12 60h15l8 -23c3 -8 5 -14 7 -20c0 6 1 12 2 21l3 22h13l-12 -60h-13l-9 24c-2 8 -4 14 -5 21zM748 579h12l-9 -49h22l-1 -11h-36zM799 544
l-4 -25h-13l5 25l-13 35h15l3 -15c1 -5 2 -8 3 -11c2 3 4 7 6 11l8 15h16zM837 525c0 5 3 9 9 9c4 0 7 -3 7 -8c0 -4 -4 -8 -9 -8s-7 4 -7 7zM861 579l-9 -40h-10l6 40h13zM54 294h-21v-17h19v-5h-19v-23h-7v50h28v-5zM93 268c0 -14 -10 -19 -18 -19c-10 0 -17 6 -17 18
s7 19 17 19c11 0 18 -7 18 -18zM65 267c0 -8 3 -14 10 -14s11 6 11 15c0 6 -3 13 -11 13s-10 -7 -10 -14zM107 249h-7v25v12h6l1 -8c2 5 6 8 10 8h1v-7c0 1 0 1 -1 1c-5 0 -8 -4 -9 -8c-1 -1 -1 -2 -1 -3v-20zM138 274c0 16 11 26 27 26c6 0 10 -1 12 -2l-2 -5
c-2 1 -6 2 -10 2c-12 0 -20 -8 -20 -21s7 -21 20 -21c3 0 8 2 10 3l2 -5c-2 -1 -7 -2 -14 -2c-14 0 -25 8 -25 25zM199 249c-10 0 -19 6 -19 18s9 19 19 19s18 -7 18 -18c0 -14 -10 -19 -18 -19zM199 281c-8 0 -12 -7 -12 -14c0 -8 5 -14 12 -14c6 0 11 6 11 15
c0 6 -4 13 -11 13zM276 249h-7v21c0 6 -2 11 -8 11c-3 0 -6 -3 -7 -7c0 0 -1 -1 -1 -2v-23h-6v23c0 4 -3 9 -7 9s-8 -4 -9 -7v-2v-23h-7v26v11h6v-7h1c1 4 5 7 11 7c5 0 8 -3 10 -7c1 2 3 3 5 5c1 2 3 2 7 2c5 0 12 -3 12 -15v-22zM338 271v-22h-6v21c0 6 -3 11 -8 11
c-4 0 -7 -3 -9 -7v-2v-23h-6v23c0 4 -3 9 -8 9c-4 0 -7 -4 -8 -7v-2v-23h-6v26c0 4 0 7 -1 11h6v-7h1c1 4 5 7 11 7c5 0 9 -3 9 -7l5 5s4 2 8 2c5 0 12 -3 12 -15zM379 270c0 -2 -1 -3 -1 -4h-25c0 -9 6 -13 12 -13c4 0 7 1 10 2l1 -4c-2 -1 -6 -2 -12 -2
c-11 0 -18 6 -18 18c0 10 7 19 17 19c12 0 16 -10 16 -16zM353 271h19c0 3 -2 10 -10 10c-6 0 -9 -6 -9 -10zM386 274v12h5l1 -8c2 5 6 8 10 8h2v-7c-1 1 -2 1 -3 1c-3 0 -7 -4 -8 -8v-3v-20h-7v25zM436 251c-2 -1 -6 -2 -11 -2c-11 0 -18 7 -18 18s8 19 19 19
c4 0 8 -1 10 -2l-2 -5c-1 1 -4 2 -8 2c-8 0 -12 -7 -12 -14c0 -8 4 -14 12 -14c4 0 7 2 9 2zM446 300c3 0 5 -2 5 -5c0 -1 -2 -3 -5 -3c-2 0 -4 2 -4 3c0 3 2 5 4 5zM443 249v37h7v-37h-7zM468 249c-7 0 -11 4 -11 9c0 10 8 15 22 15c0 3 -1 8 -8 8c-3 0 -7 -1 -9 -2l-2 4
c3 2 8 3 11 3c12 0 15 -7 15 -14v-14v-9h-6l-1 4c-2 -2 -6 -4 -11 -4zM479 268c-7 0 -15 -2 -15 -8c0 -5 3 -7 6 -7c4 0 7 3 9 6v2v7zM496 249v53h7v-53h-7zM513 258h8c-2 -6 -5 -14 -7 -18h-5c2 4 4 12 4 18zM545 249v49c3 1 7 2 12 2c6 0 11 -2 14 -5c4 -1 5 -5 5 -9
c0 -5 -1 -9 -4 -12c-4 -3 -9 -5 -15 -5c-2 0 -4 0 -6 1v-21h-6zM551 295v-21h6c7 0 12 3 12 11c0 7 -5 10 -11 10h-7zM584 249v53h6v-53h-6zM629 251c-3 -1 -7 -2 -13 -2c-11 0 -18 6 -18 18c0 10 7 19 17 19c12 0 15 -10 15 -16v-4h-25c0 -9 6 -13 12 -13c5 0 8 1 10 2z
M614 281c-6 0 -9 -6 -9 -10h19c0 3 -2 10 -10 10zM664 249h-6l-1 4c-1 -2 -5 -4 -11 -4c-7 0 -11 4 -11 9c0 10 8 15 22 15c0 3 -1 8 -7 8c-4 0 -8 -1 -10 -2l-2 4c3 2 8 3 12 3c11 0 14 -7 14 -14v-14v-9zM657 261v7c-6 0 -15 -2 -15 -8c0 -5 3 -7 6 -7c4 0 8 3 9 6v2z
M696 259c0 -6 -5 -10 -14 -10c-4 0 -8 1 -10 2l2 5c1 -1 4 -3 8 -3c5 0 7 2 7 5s-2 5 -7 7c-7 3 -9 7 -9 10c0 6 4 11 12 11c4 0 8 -1 10 -2l-2 -5c-1 1 -5 2 -8 2c-4 0 -6 -2 -6 -5c0 -2 2 -4 7 -6c7 -2 10 -5 10 -11zM733 270v-4h-25c0 -9 6 -13 12 -13c5 0 8 1 10 2l2 -4
c-3 -1 -7 -2 -13 -2c-11 0 -18 6 -18 18c0 10 7 19 18 19s14 -10 14 -16zM708 271h19c0 3 -2 10 -9 10s-10 -6 -10 -10zM784 299h6l-18 -50h-7l-16 50h7l8 -25c2 -6 4 -13 6 -18c1 5 3 12 5 18zM798 300c2 0 4 -2 4 -5c0 -1 -2 -3 -5 -3c-2 0 -3 2 -3 3c0 3 1 5 4 5z
M794 249v37h7v-37h-7zM820 253c5 0 7 2 7 5s-2 5 -7 7c-7 3 -10 7 -10 10c0 6 5 11 13 11c4 0 7 -1 9 -2l-1 -5c-2 1 -5 2 -8 2c-4 0 -7 -2 -7 -5c0 -2 3 -4 8 -6c6 -2 9 -5 9 -11s-5 -10 -13 -10c-5 0 -9 1 -11 2l2 5c2 -1 5 -3 9 -3zM845 300c2 0 4 -2 4 -5
c0 -1 -2 -3 -4 -3c-3 0 -5 2 -5 3c0 3 2 5 5 5zM849 286v-37h-7v37h7zM877 280h-10v-19c0 -5 1 -8 5 -8c2 0 3 1 5 1v-4c-2 -1 -4 -1 -7 -1s-5 1 -7 2c-2 2 -3 5 -3 9v20h-5v6h5v8l7 1v-9h10v-6zM245 140h-13v8c-5 -7 -10 -9 -16 -9c-10 0 -16 7 -16 19c0 18 13 34 32 34
c2 0 5 0 7 -1l4 23h16l-11 -54c-1 -7 -2 -14 -3 -20zM223 151c4 0 9 4 11 14l3 14c-1 1 -3 2 -6 2c-9 0 -16 -10 -16 -21c0 -6 3 -9 8 -9zM285 207c0 -6 -4 -10 -8 -10c-5 0 -8 3 -8 8c0 4 4 8 8 8c5 0 8 -3 8 -6zM282 191l-9 -51h-16l10 51h15zM316 140l6 29v5
c0 4 -2 6 -5 6c-4 0 -11 -6 -13 -17l-5 -23h-14l7 34c1 7 1 13 2 17h14l-2 -8h1c5 6 10 9 18 9c9 0 13 -4 13 -14c0 -2 -1 -6 -2 -8l-4 -30h-16zM345 162l3 11h27l-2 -11h-28zM404 181c-3 0 -6 -2 -6 -4c0 -3 2 -4 6 -6c6 -2 12 -7 12 -14c0 -12 -10 -18 -24 -18
c-7 0 -12 2 -15 4l4 10c2 0 7 -3 12 -3s7 3 7 4c0 3 -1 4 -6 7c-6 3 -12 8 -12 13c0 12 10 18 23 18c6 0 11 -1 13 -3l-3 -10c-2 1 -6 2 -11 2zM446 179l-4 -17c0 -2 -1 -5 -1 -7s1 -3 5 -3h5l-2 -12c-3 -1 -7 -1 -10 -1c-9 0 -13 4 -13 11c0 3 0 5 1 9l4 20h-6l1 12h7l3 11
l15 4l-3 -15h10l-2 -12h-10zM505 140h-13l1 9c-6 -8 -12 -10 -19 -10c-8 0 -13 4 -13 14c0 3 1 6 1 10l6 28h14l-5 -27c0 -2 -1 -6 -1 -7c0 -4 2 -6 6 -6c6 0 11 6 12 17l4 23h17l-7 -34c-1 -6 -3 -13 -3 -17zM564 140h-13l1 8c-5 -7 -12 -9 -17 -9c-9 0 -17 7 -17 19
c0 18 14 34 33 34c3 0 5 0 8 -1l3 23h15l-10 -54c-1 -7 -2 -14 -3 -20zM541 151c5 0 11 4 13 14l2 14c-1 1 -3 2 -6 2c-10 0 -15 -10 -15 -21c0 -6 3 -9 6 -9zM605 207c0 -6 -5 -10 -10 -10c-3 0 -7 3 -7 8c0 4 4 8 8 8c5 0 9 -3 9 -6zM601 191l-9 -51h-16l10 51h15z
M627 139c-13 0 -21 9 -21 21c0 18 12 32 30 32c14 0 22 -9 22 -21c0 -18 -13 -32 -31 -32zM634 181c-8 0 -13 -12 -13 -21c0 -6 3 -9 9 -9c8 0 13 11 13 20c0 5 -3 10 -9 10zM671 139c-6 0 -9 4 -9 9s4 10 10 10c5 0 9 -4 9 -9c0 -6 -5 -10 -10 -10zM723 180
c-10 0 -17 -9 -17 -18c0 -8 5 -11 11 -11c3 0 7 2 10 2v-12c-4 -1 -8 -2 -14 -2c-14 0 -22 8 -22 21c0 18 13 32 33 32c4 0 8 -1 11 -2l-4 -11c-2 0 -4 1 -8 1zM757 139c-13 0 -21 9 -21 21c0 18 12 32 30 32c13 0 22 -9 22 -21c0 -18 -14 -32 -31 -32zM764 181
c-9 0 -13 -12 -13 -21c0 -6 3 -9 7 -9c9 0 14 11 14 20c0 5 -2 10 -8 10zM853 140l4 29c1 1 1 3 1 5c0 4 -2 6 -4 6c-5 0 -11 -7 -13 -16l-4 -24h-15l6 29v5c0 4 -1 6 -5 6c-5 0 -10 -7 -13 -17l-3 -23h-15l7 34c1 7 1 13 2 17h13l-1 -8c5 6 12 9 18 9c8 0 12 -4 12 -9
c5 6 12 9 18 9c8 0 13 -4 13 -13c0 -3 -1 -7 -1 -9l-6 -30h-14zM81 328c-39 1 -61 21 -61 48c0 22 13 28 20 28c16 0 21 -17 13 -24c0 13 -24 15 -24 -6c0 -23 21 -37 52 -37c40 0 48 41 48 71c0 21 1 65 -29 65c-1 0 -4 -1 -4 -11v-32v-1v-54c0 -12 7 -12 7 -12v-4h-44v4
s6 0 7 10v0v91c0 8 -1 14 -11 14c-6 0 -10 -4 -10 -6c0 -8 9 -7 9 -7c0 -11 -8 -13 -12 -13c-13 0 -14 11 -14 13c0 13 16 20 27 20c18 0 24 -7 45 -7c31 0 58 -16 58 -70c0 -38 -23 -82 -77 -80zM213 363v-4h-45v4s7 0 8 10v48c-1 11 -8 11 -8 11v3l36 7v-67
c0 -12 9 -12 9 -12zM191 475c8 0 13 -6 13 -13c0 -8 -5 -14 -13 -14s-13 6 -13 14c0 7 5 13 13 13zM259 432c4 4 12 11 24 11c13 0 25 -9 25 -26v-42c0 -11 5 -12 7 -12v-4h-44v4s6 0 7 10v47c0 14 -19 12 -19 -3v-42c0 -12 8 -12 8 -12v-4h-44v4s6 0 7 10v48
c-1 11 -7 11 -7 11v3l36 7v-10zM395 448c0 0 0 30 44 30c22 0 26 -9 35 -3c2 1 3 2 6 2v-30l-4 -1s-4 25 -37 25c-21 0 -28 -25 -14 -31c18 -8 70 -10 69 -52c-1 -17 -18 -29 -50 -29c-31 0 -34 8 -40 0h-4v31h4c0 -13 21 -22 39 -22c32 0 31 28 8 35c-21 6 -56 13 -56 45z
M544 438c0 0 -6 1 -8 -8v-57c1 -10 8 -10 8 -10v-4h-12c-10 0 -25 0 -25 23v47c-1 10 -9 9 -9 9v4c21 0 26 11 38 11v-11h8v-4zM552 438v5h43v-5s-6 1 -6 -9v-44c0 -20 19 -13 19 0v42c0 12 -7 11 -7 11v5h44v-5s-8 1 -9 -9v-56c1 -10 9 -10 9 -10v-4h-21
c-10 0 -16 8 -16 13c-3 -5 -9 -13 -21 -13s-27 8 -27 26v42c0 11 -7 11 -8 11zM769 340c0 -7 -5 -12 -16 -12c-10 0 -42 3 -47 34c-5 -2 -9 -3 -14 -3c-22 0 -41 19 -41 42s19 42 41 42c5 0 9 -2 13 -3v38l37 -6v-4s-7 1 -8 -11v-87c1 -25 8 -35 20 -37c-2 2 -3 5 -3 7
c0 5 3 9 9 9c5 0 9 -4 9 -9zM692 366c11 0 13 16 13 35c0 20 -2 36 -13 36s-13 -16 -13 -36c0 -19 2 -35 13 -35zM791 363v-4h-44v4s7 0 7 10v48c0 11 -7 11 -7 11v3l37 7v-67c0 -12 7 -12 7 -12zM756 462c0 7 6 13 14 13c7 0 13 -6 13 -13c0 -8 -6 -14 -13 -14
c-8 0 -14 6 -14 14zM875 401c0 -23 -19 -42 -42 -42s-41 19 -41 42s18 41 41 41s42 -18 42 -41zM833 366c12 0 13 16 13 35c0 20 -1 35 -13 35c-11 0 -12 -15 -12 -35c0 -19 1 -35 12 -35zM26 151v20h154v-20h-154zM460 605h-93l70 89h95zM876 605h-89l71 89h18v-89z
M180 605h-94l72 89h94zM600 605h-93l71 89h94zM112 694l-72 -89h-14v89h86zM320 605h-93l71 89h94zM741 605h-94l72 89h92zM437 113h95l-72 -90h-93zM787 23l71 90h18v-90h-89zM158 113h94l-72 -90h-94zM578 113h94l-72 -90h-93zM26 113h86l-72 -90h-14v90zM298 113h94
l-72 -90h-93zM719 113h92l-70 -90h-94z" />
    <glyph glyph-name="ampersand" unicode="&#xe904;" horiz-adv-x="908" 
d="M40 541l-5 -22h-13l11 59c5 1 10 1 16 1c5 0 12 -1 16 -4c4 -2 7 -7 7 -12c0 -8 -4 -14 -8 -18c-5 -3 -13 -4 -20 -4h-4zM44 568l-2 -17c1 -1 1 -1 4 -1c8 0 13 5 13 12c0 5 -5 7 -10 7c-2 0 -4 0 -5 -1zM117 567h-23l-2 -12h22l-3 -11h-21l-3 -14h24l-2 -11h-37l11 60
h35zM135 543l-4 -24h-13l12 59c3 1 9 1 15 1s11 -1 16 -3c4 -3 7 -7 7 -11c0 -10 -7 -15 -14 -18c3 -2 5 -5 6 -11c0 -7 1 -14 1 -17h-12c0 2 -1 7 -2 14c0 8 -3 10 -8 10h-4zM140 568l-3 -16h5c7 0 13 5 13 11c0 4 -5 6 -10 6c-3 0 -4 0 -5 -1zM186 529c5 0 10 2 10 7
c0 3 -2 6 -8 8c-7 4 -12 8 -12 16c0 13 10 20 23 20c7 0 11 -2 14 -3l-4 -10c-2 0 -6 2 -11 1c-6 0 -9 -2 -9 -5c0 -4 3 -6 9 -9c7 -4 12 -9 12 -15c0 -14 -11 -21 -25 -21c-8 0 -14 2 -17 5l5 9c3 -1 7 -3 13 -3zM250 580c15 0 24 -11 24 -25c0 -11 -4 -22 -12 -29
c-4 -4 -12 -8 -21 -8c-15 0 -24 11 -24 25c0 10 5 22 11 28s13 9 22 9zM253 533c5 5 7 14 7 22c0 7 -2 14 -12 14c-4 0 -7 -2 -10 -4c-5 -5 -7 -15 -7 -21c0 -9 3 -15 12 -15c4 0 7 1 10 4zM293 540l-5 -21h-11l11 60h15l8 -23c2 -8 3 -14 5 -20c0 6 1 12 3 21l4 22h12
l-11 -60h-13l-9 24c-3 8 -4 14 -6 21c-1 -6 -2 -15 -3 -24zM353 534l-8 -15h-13l28 60h17l7 -60h-14l-1 15h-16zM362 557l-6 -13h13l-2 13v12c-2 -3 -4 -8 -5 -12zM402 579h13l-10 -49h23l-2 -11h-35zM473 579l-6 -35v-7c0 -5 3 -8 7 -8c7 0 12 4 14 15l6 35h14l-7 -35
c-4 -18 -11 -26 -28 -26c-12 0 -19 7 -19 19v8l6 34h13zM524 529c5 0 10 2 10 7c0 3 -3 6 -8 8c-7 4 -13 8 -13 16c0 13 11 20 24 20c7 0 12 -2 14 -3l-4 -10c-2 0 -7 2 -11 1c-6 0 -10 -2 -10 -5c0 -4 5 -6 10 -9c6 -4 11 -9 11 -15c0 -14 -11 -21 -24 -21
c-8 0 -15 2 -17 5l4 9c4 -1 8 -3 14 -3zM597 567h-22l-2 -12h21l-2 -11h-22l-2 -14h24l-3 -11h-36l11 60h35zM663 526c-6 -4 -12 -8 -22 -8c-15 0 -24 11 -24 25c0 10 4 22 12 28c4 6 12 9 21 9c16 0 24 -11 24 -25c0 -11 -3 -22 -11 -29zM630 544c0 -9 4 -15 13 -15
c4 0 8 1 9 4c5 5 9 14 9 22c0 7 -4 14 -13 14c-3 0 -7 -2 -10 -4c-5 -5 -8 -15 -8 -21zM697 564c0 -6 -2 -15 -4 -24l-4 -21h-13l12 60h15l8 -23c3 -8 5 -14 7 -20c0 6 1 12 2 21l3 22h13l-12 -60h-13l-9 24c-2 8 -4 14 -5 21zM748 579h12l-9 -49h22l-1 -11h-36zM799 544
l-4 -25h-13l5 25l-13 35h15l3 -15c1 -5 2 -8 3 -11c2 3 4 7 6 11l8 15h16zM837 525c0 5 3 9 9 9c4 0 7 -3 7 -8c0 -4 -4 -8 -9 -8s-7 4 -7 7zM861 579l-9 -40h-10l6 40h13zM54 294h-21v-17h19v-5h-19v-23h-7v50h28v-5zM93 268c0 -14 -10 -19 -18 -19c-10 0 -17 6 -17 18
s7 19 17 19c11 0 18 -7 18 -18zM65 267c0 -8 3 -14 10 -14s11 6 11 15c0 6 -3 13 -11 13s-10 -7 -10 -14zM107 249h-7v25v12h6l1 -8c2 5 6 8 10 8h1v-7c0 1 0 1 -1 1c-5 0 -8 -4 -9 -8c-1 -1 -1 -2 -1 -3v-20zM138 274c0 16 11 26 27 26c6 0 10 -1 12 -2l-2 -5
c-2 1 -6 2 -10 2c-12 0 -20 -8 -20 -21s7 -21 20 -21c3 0 8 2 10 3l2 -5c-2 -1 -7 -2 -14 -2c-14 0 -25 8 -25 25zM199 249c-10 0 -19 6 -19 18s9 19 19 19s18 -7 18 -18c0 -14 -10 -19 -18 -19zM199 281c-8 0 -12 -7 -12 -14c0 -8 5 -14 12 -14c6 0 11 6 11 15
c0 6 -4 13 -11 13zM276 249h-7v21c0 6 -2 11 -8 11c-3 0 -6 -3 -7 -7c0 0 -1 -1 -1 -2v-23h-6v23c0 4 -3 9 -7 9s-8 -4 -9 -7v-2v-23h-7v26v11h6v-7h1c1 4 5 7 11 7c5 0 8 -3 10 -7c1 2 3 3 5 5c1 2 3 2 7 2c5 0 12 -3 12 -15v-22zM338 271v-22h-6v21c0 6 -3 11 -8 11
c-4 0 -7 -3 -9 -7v-2v-23h-6v23c0 4 -3 9 -8 9c-4 0 -7 -4 -8 -7v-2v-23h-6v26c0 4 0 7 -1 11h6v-7h1c1 4 5 7 11 7c5 0 9 -3 9 -7l5 5s4 2 8 2c5 0 12 -3 12 -15zM379 270c0 -2 -1 -3 -1 -4h-25c0 -9 6 -13 12 -13c4 0 7 1 10 2l1 -4c-2 -1 -6 -2 -12 -2
c-11 0 -18 6 -18 18c0 10 7 19 17 19c12 0 16 -10 16 -16zM353 271h19c0 3 -2 10 -10 10c-6 0 -9 -6 -9 -10zM386 274v12h5l1 -8c2 5 6 8 10 8h2v-7c-1 1 -2 1 -3 1c-3 0 -7 -4 -8 -8v-3v-20h-7v25zM436 251c-2 -1 -6 -2 -11 -2c-11 0 -18 7 -18 18s8 19 19 19
c4 0 8 -1 10 -2l-2 -5c-1 1 -4 2 -8 2c-8 0 -12 -7 -12 -14c0 -8 4 -14 12 -14c4 0 7 2 9 2zM446 300c3 0 5 -2 5 -5c0 -1 -2 -3 -5 -3c-2 0 -4 2 -4 3c0 3 2 5 4 5zM443 249v37h7v-37h-7zM468 249c-7 0 -11 4 -11 9c0 10 8 15 22 15c0 3 -1 8 -8 8c-3 0 -7 -1 -9 -2l-2 4
c3 2 8 3 11 3c12 0 15 -7 15 -14v-14v-9h-6l-1 4c-2 -2 -6 -4 -11 -4zM479 268c-7 0 -15 -2 -15 -8c0 -5 3 -7 6 -7c4 0 7 3 9 6v2v7zM496 249v53h7v-53h-7zM513 258h8c-2 -6 -5 -14 -7 -18h-5c2 4 4 12 4 18zM545 249v49c3 1 7 2 12 2c6 0 11 -2 14 -5c4 -1 5 -5 5 -9
c0 -5 -1 -9 -4 -12c-4 -3 -9 -5 -15 -5c-2 0 -4 0 -6 1v-21h-6zM551 295v-21h6c7 0 12 3 12 11c0 7 -5 10 -11 10h-7zM584 249v53h6v-53h-6zM629 251c-3 -1 -7 -2 -13 -2c-11 0 -18 6 -18 18c0 10 7 19 17 19c12 0 15 -10 15 -16v-4h-25c0 -9 6 -13 12 -13c5 0 8 1 10 2z
M614 281c-6 0 -9 -6 -9 -10h19c0 3 -2 10 -10 10zM664 249h-6l-1 4c-1 -2 -5 -4 -11 -4c-7 0 -11 4 -11 9c0 10 8 15 22 15c0 3 -1 8 -7 8c-4 0 -8 -1 -10 -2l-2 4c3 2 8 3 12 3c11 0 14 -7 14 -14v-14v-9zM657 261v7c-6 0 -15 -2 -15 -8c0 -5 3 -7 6 -7c4 0 8 3 9 6v2z
M696 259c0 -6 -5 -10 -14 -10c-4 0 -8 1 -10 2l2 5c1 -1 4 -3 8 -3c5 0 7 2 7 5s-2 5 -7 7c-7 3 -9 7 -9 10c0 6 4 11 12 11c4 0 8 -1 10 -2l-2 -5c-1 1 -5 2 -8 2c-4 0 -6 -2 -6 -5c0 -2 2 -4 7 -6c7 -2 10 -5 10 -11zM733 270v-4h-25c0 -9 6 -13 12 -13c5 0 8 1 10 2l2 -4
c-3 -1 -7 -2 -13 -2c-11 0 -18 6 -18 18c0 10 7 19 18 19s14 -10 14 -16zM708 271h19c0 3 -2 10 -9 10s-10 -6 -10 -10zM784 299h6l-18 -50h-7l-16 50h7l8 -25c2 -6 4 -13 6 -18c1 5 3 12 5 18zM798 300c2 0 4 -2 4 -5c0 -1 -2 -3 -5 -3c-2 0 -3 2 -3 3c0 3 1 5 4 5z
M794 249v37h7v-37h-7zM820 253c5 0 7 2 7 5s-2 5 -7 7c-7 3 -10 7 -10 10c0 6 5 11 13 11c4 0 7 -1 9 -2l-1 -5c-2 1 -5 2 -8 2c-4 0 -7 -2 -7 -5c0 -2 3 -4 8 -6c6 -2 9 -5 9 -11s-5 -10 -13 -10c-5 0 -9 1 -11 2l2 5c2 -1 5 -3 9 -3zM845 300c2 0 4 -2 4 -5
c0 -1 -2 -3 -4 -3c-3 0 -5 2 -5 3c0 3 2 5 5 5zM849 286v-37h-7v37h7zM877 280h-10v-19c0 -5 1 -8 5 -8c2 0 3 1 5 1v-4c-2 -1 -4 -1 -7 -1s-5 1 -7 2c-2 2 -3 5 -3 9v20h-5v6h5v8l7 1v-9h10v-6zM245 140h-13v8c-5 -7 -10 -9 -16 -9c-10 0 -16 7 -16 19c0 18 13 34 32 34
c2 0 5 0 7 -1l4 23h16l-11 -54c-1 -7 -2 -14 -3 -20zM223 151c4 0 9 4 11 14l3 14c-1 1 -3 2 -6 2c-9 0 -16 -10 -16 -21c0 -6 3 -9 8 -9zM285 207c0 -6 -4 -10 -8 -10c-5 0 -8 3 -8 8c0 4 4 8 8 8c5 0 8 -3 8 -6zM282 191l-9 -51h-16l10 51h15zM316 140l6 29v5
c0 4 -2 6 -5 6c-4 0 -11 -6 -13 -17l-5 -23h-14l7 34c1 7 1 13 2 17h14l-2 -8h1c5 6 10 9 18 9c9 0 13 -4 13 -14c0 -2 -1 -6 -2 -8l-4 -30h-16zM345 162l3 11h27l-2 -11h-28zM404 181c-3 0 -6 -2 -6 -4c0 -3 2 -4 6 -6c6 -2 12 -7 12 -14c0 -12 -10 -18 -24 -18
c-7 0 -12 2 -15 4l4 10c2 0 7 -3 12 -3s7 3 7 4c0 3 -1 4 -6 7c-6 3 -12 8 -12 13c0 12 10 18 23 18c6 0 11 -1 13 -3l-3 -10c-2 1 -6 2 -11 2zM446 179l-4 -17c0 -2 -1 -5 -1 -7s1 -3 5 -3h5l-2 -12c-3 -1 -7 -1 -10 -1c-9 0 -13 4 -13 11c0 3 0 5 1 9l4 20h-6l1 12h7l3 11
l15 4l-3 -15h10l-2 -12h-10zM505 140h-13l1 9c-6 -8 -12 -10 -19 -10c-8 0 -13 4 -13 14c0 3 1 6 1 10l6 28h14l-5 -27c0 -2 -1 -6 -1 -7c0 -4 2 -6 6 -6c6 0 11 6 12 17l4 23h17l-7 -34c-1 -6 -3 -13 -3 -17zM564 140h-13l1 8c-5 -7 -12 -9 -17 -9c-9 0 -17 7 -17 19
c0 18 14 34 33 34c3 0 5 0 8 -1l3 23h15l-10 -54c-1 -7 -2 -14 -3 -20zM541 151c5 0 11 4 13 14l2 14c-1 1 -3 2 -6 2c-10 0 -15 -10 -15 -21c0 -6 3 -9 6 -9zM605 207c0 -6 -5 -10 -10 -10c-3 0 -7 3 -7 8c0 4 4 8 8 8c5 0 9 -3 9 -6zM601 191l-9 -51h-16l10 51h15z
M627 139c-13 0 -21 9 -21 21c0 18 12 32 30 32c14 0 22 -9 22 -21c0 -18 -13 -32 -31 -32zM634 181c-8 0 -13 -12 -13 -21c0 -6 3 -9 9 -9c8 0 13 11 13 20c0 5 -3 10 -9 10zM671 139c-6 0 -9 4 -9 9s4 10 10 10c5 0 9 -4 9 -9c0 -6 -5 -10 -10 -10zM723 180
c-10 0 -17 -9 -17 -18c0 -8 5 -11 11 -11c3 0 7 2 10 2v-12c-4 -1 -8 -2 -14 -2c-14 0 -22 8 -22 21c0 18 13 32 33 32c4 0 8 -1 11 -2l-4 -11c-2 0 -4 1 -8 1zM757 139c-13 0 -21 9 -21 21c0 18 12 32 30 32c13 0 22 -9 22 -21c0 -18 -14 -32 -31 -32zM764 181
c-9 0 -13 -12 -13 -21c0 -6 3 -9 7 -9c9 0 14 11 14 20c0 5 -2 10 -8 10zM853 140l4 29c1 1 1 3 1 5c0 4 -2 6 -4 6c-5 0 -11 -7 -13 -16l-4 -24h-15l6 29v5c0 4 -1 6 -5 6c-5 0 -10 -7 -13 -17l-3 -23h-15l7 34c1 7 1 13 2 17h13l-1 -8c5 6 12 9 18 9c8 0 12 -4 12 -9
c5 6 12 9 18 9c8 0 13 -4 13 -13c0 -3 -1 -7 -1 -9l-6 -30h-14zM81 328c-39 1 -61 21 -61 48c0 22 13 28 20 28c16 0 21 -17 13 -24c0 13 -24 15 -24 -6c0 -23 21 -37 52 -37c40 0 48 41 48 71c0 21 1 65 -29 65c-1 0 -4 -1 -4 -11v-32v-1v-54c0 -12 7 -12 7 -12v-4h-44v4
s6 0 7 10v0v91c0 8 -1 14 -11 14c-6 0 -10 -4 -10 -6c0 -8 9 -7 9 -7c0 -11 -8 -13 -12 -13c-13 0 -14 11 -14 13c0 13 16 20 27 20c18 0 24 -7 45 -7c31 0 58 -16 58 -70c0 -38 -23 -82 -77 -80zM213 363v-4h-45v4s7 0 8 10v48c-1 11 -8 11 -8 11v3l36 7v-67
c0 -12 9 -12 9 -12zM191 475c8 0 13 -6 13 -13c0 -8 -5 -14 -13 -14s-13 6 -13 14c0 7 5 13 13 13zM259 432c4 4 12 11 24 11c13 0 25 -9 25 -26v-42c0 -11 5 -12 7 -12v-4h-44v4s6 0 7 10v47c0 14 -19 12 -19 -3v-42c0 -12 8 -12 8 -12v-4h-44v4s6 0 7 10v48
c-1 11 -7 11 -7 11v3l36 7v-10zM395 448c0 0 0 30 44 30c22 0 26 -9 35 -3c2 1 3 2 6 2v-30l-4 -1s-4 25 -37 25c-21 0 -28 -25 -14 -31c18 -8 70 -10 69 -52c-1 -17 -18 -29 -50 -29c-31 0 -34 8 -40 0h-4v31h4c0 -13 21 -22 39 -22c32 0 31 28 8 35c-21 6 -56 13 -56 45z
M544 438c0 0 -6 1 -8 -8v-57c1 -10 8 -10 8 -10v-4h-12c-10 0 -25 0 -25 23v47c-1 10 -9 9 -9 9v4c21 0 26 11 38 11v-11h8v-4zM552 438v5h43v-5s-6 1 -6 -9v-44c0 -20 19 -13 19 0v42c0 12 -7 11 -7 11v5h44v-5s-8 1 -9 -9v-56c1 -10 9 -10 9 -10v-4h-21
c-10 0 -16 8 -16 13c-3 -5 -9 -13 -21 -13s-27 8 -27 26v42c0 11 -7 11 -8 11zM769 340c0 -7 -5 -12 -16 -12c-10 0 -42 3 -47 34c-5 -2 -9 -3 -14 -3c-22 0 -41 19 -41 42s19 42 41 42c5 0 9 -2 13 -3v38l37 -6v-4s-7 1 -8 -11v-87c1 -25 8 -35 20 -37c-2 2 -3 5 -3 7
c0 5 3 9 9 9c5 0 9 -4 9 -9zM692 366c11 0 13 16 13 35c0 20 -2 36 -13 36s-13 -16 -13 -36c0 -19 2 -35 13 -35zM791 363v-4h-44v4s7 0 7 10v48c0 11 -7 11 -7 11v3l37 7v-67c0 -12 7 -12 7 -12zM756 462c0 7 6 13 14 13c7 0 13 -6 13 -13c0 -8 -6 -14 -13 -14
c-8 0 -14 6 -14 14zM875 401c0 -23 -19 -42 -42 -42s-41 19 -41 42s18 41 41 41s42 -18 42 -41zM833 366c12 0 13 16 13 35c0 20 -1 35 -13 35c-11 0 -12 -15 -12 -35c0 -19 1 -35 12 -35zM26 151v20h154v-20h-154zM460 605h-93l70 89h95zM876 605h-89l71 89h18v-89z
M180 605h-94l72 89h94zM600 605h-93l71 89h94zM112 694l-72 -89h-14v89h86zM320 605h-93l71 89h94zM741 605h-94l72 89h92zM437 113h95l-72 -90h-93zM787 23l71 90h18v-90h-89zM158 113h94l-72 -90h-94zM578 113h94l-72 -90h-93zM26 113h86l-72 -90h-14v90zM298 113h94
l-72 -90h-93zM719 113h92l-70 -90h-94z" />
    <glyph glyph-name="colon" unicode=":" horiz-adv-x="190" 
d="M190 342h-90v87h90v-87zM190 137h-90v87h90v-87z" />
    <glyph glyph-name="colon" unicode="&#xe90e;" horiz-adv-x="190" 
d="M190 342h-90v87h90v-87zM190 137h-90v87h90v-87z" />
    <glyph glyph-name="semicolon" unicode=";" horiz-adv-x="190" 
d="M190 342h-90v87h90v-87zM100 150v74h90v-74l-21 -40h-62l26 40h-33z" />
    <glyph glyph-name="semicolon" unicode="&#xe90f;" horiz-adv-x="190" 
d="M190 342h-90v87h90v-87zM100 150v74h90v-74l-21 -40h-62l26 40h-33z" />
    <glyph glyph-name="less" unicode="&#x3c;" horiz-adv-x="388" 
d="M388 518v-114l-199 -128l199 -128v-114l-288 185v114z" />
    <glyph glyph-name="less" unicode="&#xe910;" horiz-adv-x="388" 
d="M388 518v-114l-199 -128l199 -128v-114l-288 185v114z" />
    <glyph glyph-name="equal" unicode="=" horiz-adv-x="458" 
d="M459 319h-359v102h359v-102zM459 131h-359v102h359v-102z" />
    <glyph glyph-name="equal" unicode="&#xe911;" horiz-adv-x="458" 
d="M459 319h-359v102h359v-102zM459 131h-359v102h359v-102z" />
    <glyph glyph-name="greater" unicode="&#x3e;" horiz-adv-x="388" 
d="M100 518l288 -185v-114l-288 -185v114l200 128l-200 128v114z" />
    <glyph glyph-name="greater" unicode="&#xe912;" horiz-adv-x="388" 
d="M100 518l288 -185v-114l-288 -185v114l200 128l-200 128v114z" />
    <glyph glyph-name="question" unicode="?" horiz-adv-x="781" 
d="M569 701c117 0 214 -97 214 -214c0 -118 -96 -214 -214 -214h-13c-34 0 -61 -27 -61 -61v-71h-124v53c0 55 9 98 44 138c6 7 13 15 20 20c32 28 75 45 120 45h14c47 0 89 39 89 90c0 50 -39 90 -89 90h-253c-54 0 -92 -43 -90 -103h-125c-2 65 22 123 62 164
c40 39 94 63 152 63h254zM495 1h-124v84h124v-84z" />
    <glyph glyph-name="question" unicode="&#xe913;" horiz-adv-x="781" 
d="M569 701c117 0 214 -97 214 -214c0 -118 -96 -214 -214 -214h-13c-34 0 -61 -27 -61 -61v-71h-124v53c0 55 9 98 44 138c6 7 13 15 20 20c32 28 75 45 120 45h14c47 0 89 39 89 90c0 50 -39 90 -89 90h-253c-54 0 -92 -43 -90 -103h-125c-2 65 22 123 62 164
c40 39 94 63 152 63h254zM495 1h-124v84h124v-84z" />
    <glyph glyph-name="at" unicode="@" horiz-adv-x="1126" 
d="M901 765c118 0 225 -97 225 -226l1 -466c0 -41 -34 -74 -75 -74h-63h-13c-22 3 -68 12 -81 25l-26 -2c-28 -14 -58 -23 -84 -23h-337c-95 0 -176 83 -176 177c0 96 81 174 176 174h314c28 0 50 -8 68 -22v64c0 41 -31 66 -76 66h-305c-27 0 -57 -15 -71 -44l-85 66
c5 10 13 20 20 29c38 38 75 58 131 58h342c41 0 98 -19 123 -54c30 -33 46 -68 46 -114v-282c0 -7 3 -11 10 -11h39c7 0 12 4 12 11v421c0 71 -58 117 -116 117h-574c-61 0 -115 -49 -115 -115v-513c0 -69 55 -116 115 -116h544c10 0 42 1 56 3v-111c-9 -1 -17 -2 -25 -2
h-575c-125 0 -226 100 -226 226l1 513c0 122 99 225 221 225h579zM759 106c36 0 69 29 69 69c0 39 -32 69 -69 69h-292c-36 0 -69 -29 -69 -69c0 -39 31 -69 69 -69h292z" />
    <glyph glyph-name="at" unicode="&#xe914;" horiz-adv-x="1126" 
d="M901 765c118 0 225 -97 225 -226l1 -466c0 -41 -34 -74 -75 -74h-63h-13c-22 3 -68 12 -81 25l-26 -2c-28 -14 -58 -23 -84 -23h-337c-95 0 -176 83 -176 177c0 96 81 174 176 174h314c28 0 50 -8 68 -22v64c0 41 -31 66 -76 66h-305c-27 0 -57 -15 -71 -44l-85 66
c5 10 13 20 20 29c38 38 75 58 131 58h342c41 0 98 -19 123 -54c30 -33 46 -68 46 -114v-282c0 -7 3 -11 10 -11h39c7 0 12 4 12 11v421c0 71 -58 117 -116 117h-574c-61 0 -115 -49 -115 -115v-513c0 -69 55 -116 115 -116h544c10 0 42 1 56 3v-111c-9 -1 -17 -2 -25 -2
h-575c-125 0 -226 100 -226 226l1 513c0 122 99 225 221 225h579zM759 106c36 0 69 29 69 69c0 39 -32 69 -69 69h-292c-36 0 -69 -29 -69 -69c0 -39 31 -69 69 -69h292z" />
    <glyph glyph-name="bracketleft" unicode="[" horiz-adv-x="318" 
d="M318 519h-98v-461h98v-119h-218v700h218v-120z" />
    <glyph glyph-name="bracketleft" unicode="&#xe915;" horiz-adv-x="318" 
d="M318 519h-98v-461h98v-119h-218v700h218v-120z" />
    <glyph glyph-name="backslash" unicode="\" horiz-adv-x="622" 
d="M277 635l380 -700h-141l-380 700h141z" />
    <glyph glyph-name="backslash" unicode="&#xe916;" horiz-adv-x="622" 
d="M277 635l380 -700h-141l-380 700h141z" />
    <glyph glyph-name="bracketright" unicode="]" horiz-adv-x="318" 
d="M100 637h218v-700h-218v119h98v461h-98v120z" />
    <glyph glyph-name="bracketright" unicode="&#xe917;" horiz-adv-x="318" 
d="M100 637h218v-700h-218v119h98v461h-98v120z" />
    <glyph glyph-name="asciicircum" unicode="^" horiz-adv-x="459" 
d="M336 633l123 -192h-113l-66 103l-67 -103h-113l123 192h113z" />
    <glyph glyph-name="asciicircum" unicode="&#xe918;" horiz-adv-x="459" 
d="M336 633l123 -192h-113l-66 103l-67 -103h-113l123 192h113z" />
    <glyph glyph-name="underscore" unicode="_" horiz-adv-x="459" 
d="M459 -62h-359v109h359v-109z" />
    <glyph glyph-name="underscore" unicode="&#xe919;" horiz-adv-x="459" 
d="M459 -62h-359v109h359v-109z" />
    <glyph glyph-name="grave" unicode="`" horiz-adv-x="274" 
d="M222 686l52 -93h-91l-83 93h122z" />
    <glyph glyph-name="grave" unicode="&#xe91a;" horiz-adv-x="274" 
d="M222 686l52 -93h-91l-83 93h122z" />
    <glyph glyph-name="braceleft" unicode="{" horiz-adv-x="373" 
d="M289 454v-131l-47 -40l47 -40v-131c0 -31 46 -51 83 -54v-124c-121 -8 -208 73 -208 177v117l-64 55l64 55v116c0 108 89 185 209 179v-125c-36 -3 -84 -23 -84 -54z" />
    <glyph glyph-name="braceleft" unicode="&#xe91b;" horiz-adv-x="373" 
d="M289 454v-131l-47 -40l47 -40v-131c0 -31 46 -51 83 -54v-124c-121 -8 -208 73 -208 177v117l-64 55l64 55v116c0 108 89 185 209 179v-125c-36 -3 -84 -23 -84 -54z" />
    <glyph glyph-name="bar" unicode="|" horiz-adv-x="211" 
d="M211 -42h-111v700h111v-700z" />
    <glyph glyph-name="bar" unicode="&#xe91c;" horiz-adv-x="211" 
d="M211 -42h-111v700h111v-700z" />
    <glyph glyph-name="braceright" unicode="}" horiz-adv-x="372" 
d="M308 338l65 -55l-65 -55v-116c0 -105 -89 -187 -208 -179v125c47 4 84 23 84 53v132l47 40l-47 40v131c0 32 -34 51 -84 54v125c125 5 208 -77 208 -178v-117z" />
    <glyph glyph-name="braceright" unicode="&#xe91d;" horiz-adv-x="372" 
d="M308 338l65 -55l-65 -55v-116c0 -105 -89 -187 -208 -179v125c47 4 84 23 84 53v132l47 40l-47 40v131c0 32 -34 51 -84 54v125c125 5 208 -77 208 -178v-117z" />
    <glyph glyph-name="asciitilde" unicode="~" horiz-adv-x="520" 
d="M467 356l53 -92c-60 -38 -103 -53 -143 -53c-29 0 -57 8 -87 23c-17 8 -30 14 -46 14c-21 0 -46 -10 -90 -38l-54 91c61 39 105 55 144 55c30 0 57 -10 87 -24c16 -7 30 -12 46 -12c22 0 48 9 90 36z" />
    <glyph glyph-name="asciitilde" unicode="&#xe91e;" horiz-adv-x="520" 
d="M467 356l53 -92c-60 -38 -103 -53 -143 -53c-29 0 -57 8 -87 23c-17 8 -30 14 -46 14c-21 0 -46 -10 -90 -38l-54 91c61 39 105 55 144 55c30 0 57 -10 87 -24c16 -7 30 -12 46 -12c22 0 48 9 90 36z" />
    <glyph glyph-name="exclamdown" unicode="&#xa1;" horiz-adv-x="225" 
d="M224 537h-124v96h124v-96zM224 -67h-124v549h124v-549z" />
    <glyph glyph-name="exclamdown" unicode="&#xe91f;" horiz-adv-x="225" 
d="M224 537h-124v96h124v-96zM224 -67h-124v549h124v-549z" />
    <glyph glyph-name="cent" unicode="&#xa2;" horiz-adv-x="878" 
d="M611 92c65 0 139 35 184 81l83 -86c-80 -77 -162 -118 -267 -118h-146c-17 0 -32 1 -48 4l-35 -95h-117l45 122c-127 53 -210 187 -210 323c0 194 158 354 354 354h108l34 91h117l-36 -97c80 -14 156 -65 201 -112l-83 -86c-43 43 -99 71 -158 79l-179 -457
c14 -2 25 -3 43 -3h110zM350 120l171 433h-78c-119 -5 -218 -102 -220 -228c-1 -96 56 -171 127 -205z" />
    <glyph glyph-name="cent" unicode="&#xe920;" horiz-adv-x="878" 
d="M611 92c65 0 139 35 184 81l83 -86c-80 -77 -162 -118 -267 -118h-146c-17 0 -32 1 -48 4l-35 -95h-117l45 122c-127 53 -210 187 -210 323c0 194 158 354 354 354h108l34 91h117l-36 -97c80 -14 156 -65 201 -112l-83 -86c-43 43 -99 71 -158 79l-179 -457
c14 -2 25 -3 43 -3h110zM350 120l171 433h-78c-119 -5 -218 -102 -220 -228c-1 -96 56 -171 127 -205z" />
    <glyph glyph-name="sterling" unicode="&#xa3;" horiz-adv-x="622" 
d="M622 461h-118v40c-26 43 -94 56 -151 47c-31 -5 -55 -18 -71 -36c-36 -37 -36 -106 2 -149h177v-90h-120c4 -11 8 -22 10 -36c8 -58 -42 -117 -64 -144l-1 -7h221v39h115v-157h-484v136c39 33 97 89 95 126c-2 15 -8 29 -17 43h-116v90h52c-34 73 -11 178 55 240
c53 48 110 65 180 65c97 0 192 -41 235 -138v-69z" />
    <glyph glyph-name="sterling" unicode="&#xe921;" horiz-adv-x="622" 
d="M622 461h-118v40c-26 43 -94 56 -151 47c-31 -5 -55 -18 -71 -36c-36 -37 -36 -106 2 -149h177v-90h-120c4 -11 8 -22 10 -36c8 -58 -42 -117 -64 -144l-1 -7h221v39h115v-157h-484v136c39 33 97 89 95 126c-2 15 -8 29 -17 43h-116v90h52c-34 73 -11 178 55 240
c53 48 110 65 180 65c97 0 192 -41 235 -138v-69z" />
    <glyph glyph-name="currency" unicode="&#xa4;" horiz-adv-x="491" 
d="M455 247c0 -20 -3 -33 -7 -49l43 -44l-67 -66l-50 51c-13 -5 -27 -8 -42 -8h-64c-17 0 -33 2 -50 8l-51 -51l-67 66l43 44c-4 16 -7 31 -7 51v69c0 21 3 36 7 51l-43 43l67 67l50 -51c14 5 19 8 40 8h64c22 0 37 -3 53 -8l50 51l67 -67l-43 -43c4 -16 7 -33 7 -53v-69z
M361 260v47c0 19 -16 35 -35 35h-61c-19 0 -35 -16 -35 -35v-47c0 -20 16 -36 35 -36l61 1c20 0 35 16 35 35z" />
    <glyph glyph-name="currency" unicode="&#xe922;" horiz-adv-x="491" 
d="M455 247c0 -20 -3 -33 -7 -49l43 -44l-67 -66l-50 51c-13 -5 -27 -8 -42 -8h-64c-17 0 -33 2 -50 8l-51 -51l-67 66l43 44c-4 16 -7 31 -7 51v69c0 21 3 36 7 51l-43 43l67 67l50 -51c14 5 19 8 40 8h64c22 0 37 -3 53 -8l50 51l67 -67l-43 -43c4 -16 7 -33 7 -53v-69z
M361 260v47c0 19 -16 35 -35 35h-61c-19 0 -35 -16 -35 -35v-47c0 -20 16 -36 35 -36l61 1c20 0 35 16 35 35z" />
    <glyph glyph-name="yen" unicode="&#xa5;" horiz-adv-x="1039" 
d="M1040 668l-312 -303h197v-94h-288l-4 -4v-63h292v-94h-292v-142h-125v142h-292v94h292v63l-4 4h-289v94h198l-313 303h181l282 -274l14 -1l283 275h180z" />
    <glyph glyph-name="yen" unicode="&#xe923;" horiz-adv-x="1039" 
d="M1040 668l-312 -303h197v-94h-288l-4 -4v-63h292v-94h-292v-142h-125v142h-292v94h292v63l-4 4h-289v94h198l-313 303h181l282 -274l14 -1l283 275h180z" />
    <glyph glyph-name="brokenbar" unicode="&#xa6;" horiz-adv-x="211" 
d="M211 373h-111v295h111v-295zM211 -32h-111v295h111v-295z" />
    <glyph glyph-name="brokenbar" unicode="&#xe924;" horiz-adv-x="211" 
d="M211 373h-111v295h111v-295zM211 -32h-111v295h111v-295z" />
    <glyph glyph-name="section" unicode="&#xa7;" horiz-adv-x="763" 
d="M761 356c0 -38 -14 -66 -38 -93c-2 -2 -4 -4 -7 -8c29 -29 45 -58 45 -100c0 -84 -73 -149 -155 -149h-359c-35 0 -70 17 -96 36c-33 25 -52 71 -52 113h114c0 -28 25 -52 57 -52h320c32 0 56 24 56 52c0 29 -25 52 -56 52h-337c-39 0 -81 17 -104 41c-2 2 -7 8 -10 10
c-6 7 -12 13 -18 24c-14 20 -23 47 -23 74c0 42 19 76 39 94c2 1 4 4 6 6c-2 3 -5 7 -7 9c-6 7 -12 14 -16 21c-13 18 -22 41 -22 70c-1 47 22 91 61 119c26 19 60 31 95 31h352c81 0 155 -67 155 -149h-114c-1 32 -29 52 -57 52h-320c-33 0 -57 -25 -57 -52
c0 -28 25 -52 56 -52h337c28 0 57 -8 79 -21c3 -2 9 -5 11 -7c16 -11 25 -21 34 -33c18 -21 32 -56 31 -88zM590 304c30 0 57 22 57 52c0 27 -24 52 -57 52h-321c-32 0 -56 -24 -56 -52c0 -30 26 -52 56 -52h321z" />
    <glyph glyph-name="section" unicode="&#xe925;" horiz-adv-x="763" 
d="M761 356c0 -38 -14 -66 -38 -93c-2 -2 -4 -4 -7 -8c29 -29 45 -58 45 -100c0 -84 -73 -149 -155 -149h-359c-35 0 -70 17 -96 36c-33 25 -52 71 -52 113h114c0 -28 25 -52 57 -52h320c32 0 56 24 56 52c0 29 -25 52 -56 52h-337c-39 0 -81 17 -104 41c-2 2 -7 8 -10 10
c-6 7 -12 13 -18 24c-14 20 -23 47 -23 74c0 42 19 76 39 94c2 1 4 4 6 6c-2 3 -5 7 -7 9c-6 7 -12 14 -16 21c-13 18 -22 41 -22 70c-1 47 22 91 61 119c26 19 60 31 95 31h352c81 0 155 -67 155 -149h-114c-1 32 -29 52 -57 52h-320c-33 0 -57 -25 -57 -52
c0 -28 25 -52 56 -52h337c28 0 57 -8 79 -21c3 -2 9 -5 11 -7c16 -11 25 -21 34 -33c18 -21 32 -56 31 -88zM590 304c30 0 57 22 57 52c0 27 -24 52 -57 52h-321c-32 0 -56 -24 -56 -52c0 -30 26 -52 56 -52h321z" />
    <glyph glyph-name="dieresis" unicode="&#xa8;" horiz-adv-x="396" 
d="M188 639h-88v89h88v-89zM396 639h-88v89h88v-89z" />
    <glyph glyph-name="dieresis" unicode="&#xe926;" horiz-adv-x="396" 
d="M188 639h-88v89h88v-89zM396 639h-88v89h88v-89z" />
    <glyph glyph-name="copyright" unicode="&#xa9;" horiz-adv-x="1127" 
d="M901 909c125 0 226 -102 226 -226l-1 -512c0 -125 -102 -226 -225 -226h-575c-124 0 -226 101 -226 226v512c0 125 101 226 226 226h575zM1016 171v512c-1 65 -53 115 -116 115h-574c-64 0 -115 -52 -115 -115v-512c0 -64 51 -116 115 -116h575c59 0 115 48 115 116z
M529 586c-65 0 -122 -54 -122 -121v-77c0 -66 55 -120 122 -120h236c32 0 62 13 86 35l101 -80c-39 -45 -110 -80 -187 -80h-235c-137 0 -255 106 -255 245v72c0 142 113 250 255 250l235 1c78 0 146 -36 187 -80l-101 -81c-23 22 -53 36 -86 36h-236z" />
    <glyph glyph-name="copyright" unicode="&#xe927;" horiz-adv-x="1127" 
d="M901 909c125 0 226 -102 226 -226l-1 -512c0 -125 -102 -226 -225 -226h-575c-124 0 -226 101 -226 226v512c0 125 101 226 226 226h575zM1016 171v512c-1 65 -53 115 -116 115h-574c-64 0 -115 -52 -115 -115v-512c0 -64 51 -116 115 -116h575c59 0 115 48 115 116z
M529 586c-65 0 -122 -54 -122 -121v-77c0 -66 55 -120 122 -120h236c32 0 62 13 86 35l101 -80c-39 -45 -110 -80 -187 -80h-235c-137 0 -255 106 -255 245v72c0 142 113 250 255 250l235 1c78 0 146 -36 187 -80l-101 -81c-23 22 -53 36 -86 36h-236z" />
    <glyph glyph-name="ordfeminine" unicode="&#xaa;" horiz-adv-x="443" 
d="M408 614c22 -15 36 -41 36 -68v-201h-52l-5 5c-12 -3 -18 -5 -30 -5h-165c-51 0 -92 41 -92 92c0 49 42 90 91 90h126c13 0 40 -1 48 -4v19c0 16 -11 22 -29 22h-143c-11 0 -21 -5 -27 -15l-3 -6l-54 41l3 6c3 4 6 9 9 12c2 3 6 7 9 9c16 14 36 22 57 22h170
c11 0 44 -9 51 -19zM341 413c13 0 23 10 23 23s-10 24 -23 24h-138c-12 0 -24 -10 -24 -24c0 -13 12 -23 24 -23h138z" />
    <glyph glyph-name="ordfeminine" unicode="&#xe928;" horiz-adv-x="443" 
d="M408 614c22 -15 36 -41 36 -68v-201h-52l-5 5c-12 -3 -18 -5 -30 -5h-165c-51 0 -92 41 -92 92c0 49 42 90 91 90h126c13 0 40 -1 48 -4v19c0 16 -11 22 -29 22h-143c-11 0 -21 -5 -27 -15l-3 -6l-54 41l3 6c3 4 6 9 9 12c2 3 6 7 9 9c16 14 36 22 57 22h170
c11 0 44 -9 51 -19zM341 413c13 0 23 10 23 23s-10 24 -23 24h-138c-12 0 -24 -10 -24 -24c0 -13 12 -23 24 -23h138z" />
    <glyph glyph-name="guillemotleft" unicode="&#xab;" horiz-adv-x="641" 
d="M641 488v-114l-153 -98l153 -98v-114l-251 162v100zM100 326l252 162v-114l-154 -98l153 -98v-113l-251 160v101z" />
    <glyph glyph-name="guillemotleft" unicode="&#xe929;" horiz-adv-x="641" 
d="M641 488v-114l-153 -98l153 -98v-114l-251 162v100zM100 326l252 162v-114l-154 -98l153 -98v-113l-251 160v101z" />
    <glyph glyph-name="logicalnot" unicode="&#xac;" horiz-adv-x="631" 
d="M100 334h530v-192h-102v89h-428v103z" />
    <glyph glyph-name="logicalnot" unicode="&#xe92a;" horiz-adv-x="631" 
d="M100 334h530v-192h-102v89h-428v103z" />
    <glyph glyph-name="registered" unicode="&#xae;" horiz-adv-x="1126" 
d="M901 765c124 0 225 -102 225 -225v-515c0 -124 -101 -224 -226 -224h-574c-122 0 -226 100 -226 224v515c0 123 102 225 228 225h573zM1016 25v515c0 67 -53 115 -116 115h-574c-64 0 -115 -51 -115 -115v-515c0 -58 47 -114 118 -114h571c58 0 116 47 116 114zM884 370
c-1 -78 -53 -148 -122 -168l191 -196h-161l-169 174h-204v-174h-115v554h390c104 0 190 -85 190 -190zM419 295h275c41 0 75 34 75 76c0 38 -32 74 -75 74h-275v-150z" />
    <glyph glyph-name="registered" unicode="&#xe92b;" horiz-adv-x="1126" 
d="M901 765c124 0 225 -102 225 -225v-515c0 -124 -101 -224 -226 -224h-574c-122 0 -226 100 -226 224v515c0 123 102 225 228 225h573zM1016 25v515c0 67 -53 115 -116 115h-574c-64 0 -115 -51 -115 -115v-515c0 -58 47 -114 118 -114h571c58 0 116 47 116 114zM884 370
c-1 -78 -53 -148 -122 -168l191 -196h-161l-169 174h-204v-174h-115v554h390c104 0 190 -85 190 -190zM419 295h275c41 0 75 34 75 76c0 38 -32 74 -75 74h-275v-150z" />
    <glyph glyph-name="macron" unicode="&#xaf;" horiz-adv-x="460" 
d="M458 540h-358v96h358v-96z" />
    <glyph glyph-name="macron" unicode="&#xe92c;" horiz-adv-x="460" 
d="M458 540h-358v96h358v-96z" />
    <glyph glyph-name="degree" unicode="&#xb0;" horiz-adv-x="357" 
d="M278 634c44 0 79 -36 79 -80v-88c0 -42 -35 -77 -78 -77h-100c-44 0 -79 35 -79 78v88c0 44 35 79 79 79h99zM272 483v56c0 5 -4 9 -9 9h-68c-6 0 -10 -3 -10 -9v-55c0 -6 4 -10 10 -10h68c5 0 9 4 9 9z" />
    <glyph glyph-name="degree" unicode="&#xe92d;" horiz-adv-x="357" 
d="M278 634c44 0 79 -36 79 -80v-88c0 -42 -35 -77 -78 -77h-100c-44 0 -79 35 -79 78v88c0 44 35 79 79 79h99zM272 483v56c0 5 -4 9 -9 9h-68c-6 0 -10 -3 -10 -9v-55c0 -6 4 -10 10 -10h68c5 0 9 4 9 9z" />
    <glyph glyph-name="plusminus" unicode="&#xb1;" horiz-adv-x="427" 
d="M312 408h115v-96h-115v-115h-97v115h-115v96h115v115h97v-115zM427 42h-327v98h327v-98z" />
    <glyph glyph-name="plusminus" unicode="&#xe92e;" horiz-adv-x="427" 
d="M312 408h115v-96h-115v-115h-97v115h-115v96h115v115h97v-115zM427 42h-327v98h327v-98z" />
    <glyph glyph-name="twosuperior" unicode="&#xb2;" horiz-adv-x="414" 
d="M365 468l-90 -51h139v-77h-314v65l230 131h1c4 2 6 6 6 10c0 6 -4 10 -10 10h-140c-6 0 -11 -4 -11 -10v-29h-76v29c0 48 39 87 87 87h140c48 0 87 -39 87 -87c0 -33 -19 -64 -49 -78z" />
    <glyph glyph-name="twosuperior" unicode="&#xe92f;" horiz-adv-x="414" 
d="M365 468l-90 -51h139v-77h-314v65l230 131h1c4 2 6 6 6 10c0 6 -4 10 -10 10h-140c-6 0 -11 -4 -11 -10v-29h-76v29c0 48 39 87 87 87h140c48 0 87 -39 87 -87c0 -33 -19 -64 -49 -78z" />
    <glyph glyph-name="threesuperior" unicode="&#xb3;" horiz-adv-x="414" 
d="M391 501c15 -17 23 -41 23 -63c0 -54 -44 -98 -98 -98h-119c-54 0 -97 44 -97 98v16h77v-16c0 -12 9 -21 21 -21h118c12 0 22 9 22 21s-10 21 -22 21h-100v67h100c10 0 12 6 12 16c0 9 -5 14 -14 14h-115c-9 0 -14 -3 -14 -12v-11h-77v13c0 18 6 36 17 50
c16 23 42 37 70 37h122c47 0 86 -40 86 -87c0 -16 -4 -31 -12 -45z" />
    <glyph glyph-name="threesuperior" unicode="&#xe930;" horiz-adv-x="414" 
d="M391 501c15 -17 23 -41 23 -63c0 -54 -44 -98 -98 -98h-119c-54 0 -97 44 -97 98v16h77v-16c0 -12 9 -21 21 -21h118c12 0 22 9 22 21s-10 21 -22 21h-100v67h100c10 0 12 6 12 16c0 9 -5 14 -14 14h-115c-9 0 -14 -3 -14 -12v-11h-77v13c0 18 6 36 17 50
c16 23 42 37 70 37h122c47 0 86 -40 86 -87c0 -16 -4 -31 -12 -45z" />
    <glyph glyph-name="acute" unicode="&#xb4;" horiz-adv-x="273" 
d="M151 722h122l-83 -93h-90z" />
    <glyph glyph-name="acute" unicode="&#xe931;" horiz-adv-x="273" 
d="M151 722h122l-83 -93h-90z" />
    <glyph glyph-name="mu-grek" unicode="&#x3bc;" horiz-adv-x="631" 
d="M520 698h111v-243c0 -124 -101 -225 -225 -225h-81c-44 0 -84 16 -114 42v-274h-111v700h111v-243c0 -63 51 -114 114 -114h81c62 0 114 51 114 114v243z" />
    <glyph glyph-name="mu-grek" unicode="&#xe932;" horiz-adv-x="631" 
d="M520 698h111v-243c0 -124 -101 -225 -225 -225h-81c-44 0 -84 16 -114 42v-274h-111v700h111v-243c0 -63 51 -114 114 -114h81c62 0 114 51 114 114v243z" />
    <glyph glyph-name="paragraph" unicode="&#xb6;" horiz-adv-x="746" 
d="M280 703h466v-111h-59v-589h-110v589h-70v-589h-110v250h-116c-100 0 -181 81 -181 181v89c0 99 81 180 180 180z" />
    <glyph glyph-name="paragraph" unicode="&#xe933;" horiz-adv-x="746" 
d="M280 703h466v-111h-59v-589h-110v589h-70v-589h-110v250h-116c-100 0 -181 81 -181 181v89c0 99 81 180 180 180z" />
    <glyph glyph-name="periodcentered" unicode="&#xb7;" horiz-adv-x="207" 
d="M154 341c29 0 53 -24 53 -53s-24 -53 -53 -53c-30 0 -54 24 -54 53s24 53 54 53z" />
    <glyph glyph-name="periodcentered" unicode="&#xe934;" horiz-adv-x="207" 
d="M154 341c29 0 53 -24 53 -53s-24 -53 -53 -53c-30 0 -54 24 -54 53s24 53 54 53z" />
    <glyph glyph-name="cedilla" unicode="&#xb8;" horiz-adv-x="324" 
d="M249 56c40 -10 73 -53 73 -97c0 -56 -45 -101 -101 -101h-21c-56 0 -103 46 -102 103h71c1 -19 13 -32 30 -32h22c16 0 30 14 30 30c0 21 -23 40 -53 44l-19 1v101h70v-49z" />
    <glyph glyph-name="cedilla" unicode="&#xe935;" horiz-adv-x="324" 
d="M249 56c40 -10 73 -53 73 -97c0 -56 -45 -101 -101 -101h-21c-56 0 -103 46 -102 103h71c1 -19 13 -32 30 -32h22c16 0 30 14 30 30c0 21 -23 40 -53 44l-19 1v101h70v-49z" />
    <glyph glyph-name="onesuperior" unicode="&#xb9;" horiz-adv-x="216" 
d="M100 633h115v-292h-76v216h-39v76z" />
    <glyph glyph-name="onesuperior" unicode="&#xe936;" horiz-adv-x="216" 
d="M100 633h115v-292h-76v216h-39v76z" />
    <glyph glyph-name="ordmasculine" unicode="&#xba;" horiz-adv-x="456" 
d="M310 633c80 0 146 -66 146 -146c0 -81 -66 -146 -146 -146h-64c-80 0 -146 65 -146 146c0 80 66 146 146 146h64zM310 417c38 0 70 31 70 70c0 38 -32 70 -70 70h-64c-38 0 -70 -32 -70 -70c0 -39 32 -70 70 -70h64z" />
    <glyph glyph-name="ordmasculine" unicode="&#xe937;" horiz-adv-x="456" 
d="M310 633c80 0 146 -66 146 -146c0 -81 -66 -146 -146 -146h-64c-80 0 -146 65 -146 146c0 80 66 146 146 146h64zM310 417c38 0 70 31 70 70c0 38 -32 70 -70 70h-64c-38 0 -70 -32 -70 -70c0 -39 32 -70 70 -70h64z" />
    <glyph glyph-name="guillemotright" unicode="&#xbb;" horiz-adv-x="641" 
d="M390 488l251 -161v-101l-251 -162v113l153 99l-153 98v114zM100 487l251 -161v-100l-251 -162v114l153 98l-153 98v113z" />
    <glyph glyph-name="guillemotright" unicode="&#xe938;" horiz-adv-x="641" 
d="M390 488l251 -161v-101l-251 -162v113l153 99l-153 98v114zM100 487l251 -161v-100l-251 -162v114l153 98l-153 98v113z" />
    <glyph glyph-name="onequarter" unicode="&#xbc;" horiz-adv-x="826" 
d="M139 409v215h-39v76h115v-291h-76zM533 700h140l-377 -696h-141zM701 295l-95 -142h109v142h77v-142h34v-77h-34v-72h-77v72h-210v58l111 160z" />
    <glyph glyph-name="onequarter" unicode="&#xe939;" horiz-adv-x="826" 
d="M139 409v215h-39v76h115v-291h-76zM533 700h140l-377 -696h-141zM701 295l-95 -142h109v142h77v-142h34v-77h-34v-72h-77v72h-210v58l111 160z" />
    <glyph glyph-name="onehalf" unicode="&#xbd;" horiz-adv-x="863" 
d="M535 698h141l-380 -700h-141zM139 405v216h-39v77h115v-293h-76zM815 126l-91 -52h139v-76h-314v65l213 121c8 4 25 15 25 20s-5 10 -11 10h-140c-6 0 -11 -5 -11 -10v-29h-76v29c0 47 39 86 86 86h141c48 0 87 -39 87 -87c0 -32 -19 -63 -48 -77z" />
    <glyph glyph-name="onehalf" unicode="&#xe93a;" horiz-adv-x="863" 
d="M535 698h141l-380 -700h-141zM139 405v216h-39v77h115v-293h-76zM815 126l-91 -52h139v-76h-314v65l213 121c8 4 25 15 25 20s-5 10 -11 10h-140c-6 0 -11 -5 -11 -10v-29h-76v29c0 47 39 86 86 86h141c48 0 87 -39 87 -87c0 -32 -19 -63 -48 -77z" />
    <glyph glyph-name="threequarters" unicode="&#xbe;" horiz-adv-x="952" 
d="M660 696h140l-377 -696l-140 1zM315 523h-100v67h100c7 0 11 6 11 15s-4 15 -10 15h-121c-6 0 -11 -5 -11 -10v-13h-76v13c0 47 40 86 87 86h120c48 0 87 -39 87 -86c0 -16 -5 -33 -13 -45c15 -16 23 -41 23 -62c0 -54 -43 -98 -97 -98h-118c-27 0 -52 11 -69 30
c-18 18 -28 41 -28 68v15h76v-15c0 -13 10 -22 21 -22h118c12 0 21 10 21 21s-9 21 -21 21zM828 292l-96 -142h110v142h76v-142h34v-77h-34v-72h-76v72h-221v45l123 174h84z" />
    <glyph glyph-name="threequarters" unicode="&#xe93b;" horiz-adv-x="952" 
d="M660 696h140l-377 -696l-140 1zM315 523h-100v67h100c7 0 11 6 11 15s-4 15 -10 15h-121c-6 0 -11 -5 -11 -10v-13h-76v13c0 47 40 86 87 86h120c48 0 87 -39 87 -86c0 -16 -5 -33 -13 -45c15 -16 23 -41 23 -62c0 -54 -43 -98 -97 -98h-118c-27 0 -52 11 -69 30
c-18 18 -28 41 -28 68v15h76v-15c0 -13 10 -22 21 -22h118c12 0 21 10 21 21s-9 21 -21 21zM828 292l-96 -142h110v142h76v-142h34v-77h-34v-72h-76v72h-221v45l123 174h84z" />
    <glyph glyph-name="questiondown" unicode="&#xbf;" horiz-adv-x="781" 
d="M512 614h-124v84h124v-84zM657 224h124c2 -65 -21 -121 -62 -163c-40 -40 -93 -63 -153 -63h-252c-118 0 -214 96 -214 214s96 214 214 214h13c35 0 61 28 61 60v72h124v-71c0 -102 -82 -185 -185 -185h-13c-52 0 -90 -43 -90 -90c0 -52 43 -90 90 -90h253
c47 0 92 35 90 102z" />
    <glyph glyph-name="questiondown" unicode="&#xe93c;" horiz-adv-x="781" 
d="M512 614h-124v84h124v-84zM657 224h124c2 -65 -21 -121 -62 -163c-40 -40 -93 -63 -153 -63h-252c-118 0 -214 96 -214 214s96 214 214 214h13c35 0 61 28 61 60v72h124v-71c0 -102 -82 -185 -185 -185h-13c-52 0 -90 -43 -90 -90c0 -52 43 -90 90 -90h253
c47 0 92 35 90 102z" />
    <glyph glyph-name="AE" unicode="&#xc6;" horiz-adv-x="1597" 
d="M1596 573h-585v-163h527v-125h-527v-162h585v-125h-710v138h-442l-150 -138h-194l786 700h710v-125zM886 250v284l-308 -284h308z" />
    <glyph glyph-name="AE" unicode="&#xe945;" horiz-adv-x="1597" 
d="M1596 573h-585v-163h527v-125h-527v-162h585v-125h-710v138h-442l-150 -138h-194l786 700h710v-125zM886 250v284l-308 -284h308z" />
    <glyph glyph-name="Eth" unicode="&#xd0;" horiz-adv-x="959" 
d="M604 703c193 0 350 -157 350 -350s-157 -350 -350 -350h-407v298h-97v104h97v298h407zM604 128c124 0 225 101 225 225s-101 225 -225 225h-282v-173h253v-104h-253v-173h282z" />
    <glyph glyph-name="Eth" unicode="&#xe946;" horiz-adv-x="959" 
d="M604 703c193 0 350 -157 350 -350s-157 -350 -350 -350h-407v298h-97v104h97v298h407zM604 128c124 0 225 101 225 225s-101 225 -225 225h-282v-173h253v-104h-253v-173h282z" />
    <glyph glyph-name="multiply" unicode="&#xd7;" horiz-adv-x="443" 
d="M443 374l-90 -91l90 -91l-80 -81l-91 91l-91 -91l-81 81l91 91l-91 91l81 81l91 -91l91 91z" />
    <glyph glyph-name="multiply" unicode="&#xe948;" horiz-adv-x="443" 
d="M443 374l-90 -91l90 -91l-80 -81l-91 91l-91 -91l-81 81l91 91l-91 91l81 81l91 -91l91 91z" />
    <glyph glyph-name="Thorn" unicode="&#xde;" horiz-adv-x="676" 
d="M477 556c109 0 199 -89 199 -196v-82c0 -109 -90 -199 -200 -199h-265v-111h-111v700h111v-112h266zM565 278v81c0 46 -40 87 -88 87h-266v-256h265c48 0 89 40 89 88z" />
    <glyph glyph-name="Thorn" unicode="&#xe94a;" horiz-adv-x="676" 
d="M477 556c109 0 199 -89 199 -196v-82c0 -109 -90 -199 -200 -199h-265v-111h-111v700h111v-112h266zM565 278v81c0 46 -40 87 -88 87h-266v-256h265c48 0 89 40 89 88z" />
    <glyph glyph-name="germandbls" unicode="&#xdf;" horiz-adv-x="789" 
d="M668 412c71 -23 121 -103 121 -185v-10c0 -117 -99 -214 -217 -214h-176c-25 0 -46 12 -61 29l24 114c19 -10 51 -18 75 -18h138c51 0 92 42 92 91v6c0 52 -44 96 -97 96h-115v114h71c34 0 62 28 62 62v15c0 36 -30 66 -66 66h-233c-34 0 -61 -26 -61 -59v-516h-125v526
c2 95 73 174 170 174h249c106 2 191 -98 191 -181v-8c0 -46 -12 -77 -42 -102z" />
    <glyph glyph-name="germandbls" unicode="&#xe94b;" horiz-adv-x="789" 
d="M668 412c71 -23 121 -103 121 -185v-10c0 -117 -99 -214 -217 -214h-176c-25 0 -46 12 -61 29l24 114c19 -10 51 -18 75 -18h138c51 0 92 42 92 91v6c0 52 -44 96 -97 96h-115v114h71c34 0 62 28 62 62v15c0 36 -30 66 -66 66h-233c-34 0 -61 -26 -61 -59v-516h-125v526
c2 95 73 174 170 174h249c106 2 191 -98 191 -181v-8c0 -46 -12 -77 -42 -102z" />
    <glyph glyph-name="ae" unicode="&#xe6;" horiz-adv-x="1349" 
d="M1139 566c112 0 210 -95 210 -207v-115h-566v-29c0 -67 55 -108 118 -108h228c39 0 75 17 98 49l88 -63c-40 -59 -103 -95 -175 -95h-211c-56 0 -106 18 -139 45l-7 -45h-58l-4 23c-27 -14 -68 -23 -114 -23h-331c-100 0 -176 80 -176 179c0 95 81 172 175 172h307
c31 0 54 -9 75 -22v63c0 42 -27 67 -76 67h-303c-33 0 -58 -17 -72 -43l-85 65c29 53 85 87 146 87h348c28 0 53 -9 73 -23c17 -9 30 -23 41 -38c44 41 87 61 141 61h269zM785 348h438c-2 59 -43 114 -106 114h-226c-59 0 -106 -47 -106 -114zM587 104c36 0 69 30 69 70
c0 38 -32 69 -69 69h-292c-34 -2 -67 -35 -69 -70c0 -37 30 -69 71 -69h290z" />
    <glyph glyph-name="ae" unicode="&#xe94c;" horiz-adv-x="1349" 
d="M1139 566c112 0 210 -95 210 -207v-115h-566v-29c0 -67 55 -108 118 -108h228c39 0 75 17 98 49l88 -63c-40 -59 -103 -95 -175 -95h-211c-56 0 -106 18 -139 45l-7 -45h-58l-4 23c-27 -14 -68 -23 -114 -23h-331c-100 0 -176 80 -176 179c0 95 81 172 175 172h307
c31 0 54 -9 75 -22v63c0 42 -27 67 -76 67h-303c-33 0 -58 -17 -72 -43l-85 65c29 53 85 87 146 87h348c28 0 53 -9 73 -23c17 -9 30 -23 41 -38c44 41 87 61 141 61h269zM785 348h438c-2 59 -43 114 -106 114h-226c-59 0 -106 -47 -106 -114zM587 104c36 0 69 30 69 70
c0 38 -32 69 -69 69h-292c-34 -2 -67 -35 -69 -70c0 -37 30 -69 71 -69h290z" />
    <glyph glyph-name="Oslash" unicode="&#xd8;" horiz-adv-x="989" 
d="M737 691c148 -49 248 -178 250 -338c3 -187 -155 -355 -355 -354h-117c-12 0 -24 0 -35 1l-34 -92h-117l39 107c-150 48 -249 180 -250 338c-1 195 161 354 354 354h119c12 0 22 0 35 -1l33 92h117zM407 132l178 452h-8h-105c-117 0 -231 -95 -231 -231
c0 -103 69 -192 166 -221zM633 122c127 0 231 104 231 231c0 102 -69 192 -166 221l-178 -452h113z" />
    <glyph glyph-name="eth" unicode="&#xf0;" horiz-adv-x="868" 
d="M867 672l-103 -21c42 -136 36 -332 36 -332v-68c0 -138 -111 -248 -248 -248h-206c-134 0 -246 110 -246 242v87c0 126 113 239 239 239h216c49 0 91 -19 120 -48c0 0 -4 53 -25 111l-137 -26l-15 93l108 22c-16 24 -40 50 -63 67l91 45c34 -20 73 -66 91 -94l128 24z
M675 248v78c0 62 -51 120 -120 120h-210c-70 0 -120 -59 -120 -121v-76c0 -69 56 -121 120 -121h209c70 0 121 58 121 120z" />
    <glyph glyph-name="eth" unicode="&#xe94d;" horiz-adv-x="868" 
d="M867 672l-103 -21c42 -136 36 -332 36 -332v-68c0 -138 -111 -248 -248 -248h-206c-134 0 -246 110 -246 242v87c0 126 113 239 239 239h216c49 0 91 -19 120 -48c0 0 -4 53 -25 111l-137 -26l-15 93l108 22c-16 24 -40 50 -63 67l91 45c34 -20 73 -66 91 -94l128 24z
M675 248v78c0 62 -51 120 -120 120h-210c-70 0 -120 -59 -120 -121v-76c0 -69 56 -121 120 -121h209c70 0 121 58 121 120z" />
    <glyph glyph-name="divide" unicode="&#xf7;" horiz-adv-x="434" 
d="M315 424h-96v91h96v-91zM434 259h-334v89h334v-89zM314 91h-95v92h95v-92z" />
    <glyph glyph-name="divide" unicode="&#xe94e;" horiz-adv-x="434" 
d="M315 424h-96v91h96v-91zM434 259h-334v89h334v-89zM314 91h-95v92h95v-92z" />
    <glyph glyph-name="oslash" unicode="&#xf8;" horiz-adv-x="810" 
d="M639 559c104 -34 171 -128 171 -234v-77c0 -135 -110 -245 -245 -245h-147c-7 0 -15 0 -23 1l-34 -82h-119l39 92c-105 36 -171 130 -171 235v76c0 135 111 246 245 246h148c6 0 13 -1 22 -1l35 81h118zM324 133l156 313h-125c-70 0 -120 -59 -120 -121v-77
c0 -53 36 -101 89 -115zM685 248v77c0 53 -34 101 -89 116l-156 -313h125c71 0 120 60 120 120z" />
    <glyph glyph-name="thorn" unicode="&#xfe;" horiz-adv-x="676" 
d="M476 485c110 0 200 -89 200 -196v-84c0 -108 -90 -197 -200 -197h-265v-75h-111v626h111v-74h265zM565 207v81c0 46 -42 86 -89 86h-265v-256h265c49 0 89 41 89 89z" />
    <glyph glyph-name="thorn" unicode="&#xe950;" horiz-adv-x="676" 
d="M476 485c110 0 200 -89 200 -196v-84c0 -108 -90 -197 -200 -197h-265v-75h-111v626h111v-74h265zM565 207v81c0 46 -42 86 -89 86h-265v-256h265c49 0 89 41 89 89z" />
    <glyph glyph-name="dcaron" unicode="&#x10f;" horiz-adv-x="989" 
d="M904 736h90v-74l-21 -40h-62l27 40h-34v74zM685 520v216h125v-735h-125v51c-29 -32 -73 -51 -124 -51l-206 -1c-134 0 -245 111 -245 246v73c0 137 108 249 245 249h209c49 0 93 -19 121 -48zM684 245l1 74c0 75 -57 124 -120 124h-210c-66 0 -120 -53 -120 -124v-68
c0 -72 54 -126 120 -126h211c64 0 118 52 118 120z" />
    <glyph glyph-name="dcaron" unicode="&#xe952;" horiz-adv-x="989" 
d="M904 736h90v-74l-21 -40h-62l27 40h-34v74zM685 520v216h125v-735h-125v51c-29 -32 -73 -51 -124 -51l-206 -1c-134 0 -245 111 -245 246v73c0 137 108 249 245 249h209c49 0 93 -19 121 -48zM684 245l1 74c0 75 -57 124 -120 124h-210c-66 0 -120 -53 -120 -124v-68
c0 -72 54 -126 120 -126h211c64 0 118 52 118 120z" />
    <glyph glyph-name="Dcroat" unicode="&#x110;" horiz-adv-x="959" 
d="M604 703c193 0 350 -157 350 -350s-157 -350 -350 -350h-407v298h-97v104h97v298h407zM604 128c124 0 225 101 225 225s-101 225 -225 225h-282v-173h253v-104h-253v-173h282z" />
    <glyph glyph-name="dcroat" unicode="&#x111;" horiz-adv-x="810" 
d="M695 738h125v-29h47v-96h-47v-611h-125v51c-30 -33 -77 -51 -124 -51h-205c-135 0 -246 110 -246 245v77c0 135 111 246 246 246h209c47 0 89 -19 120 -48v91h-186v96h186v29zM695 247v77c0 66 -54 121 -120 121h-209c-67 0 -121 -55 -121 -121v-77
c0 -66 54 -120 121 -120h209c66 0 120 54 120 120z" />
    <glyph glyph-name="Hbar" unicode="&#x126;" horiz-adv-x="1066" 
d="M969 715v-93h97v-103h-97v-518h-129v292h-515v-292h-128v518h-97v103h97v93h129v-93h514v93h129zM840 422v97h-515v-97h515z" />
    <glyph glyph-name="Hbar" unicode="&#xe953;" horiz-adv-x="1066" 
d="M969 715v-93h97v-103h-97v-518h-129v292h-515v-292h-128v518h-97v103h97v93h129v-93h514v93h129zM840 422v97h-515v-97h515z" />
    <glyph glyph-name="hbar" unicode="&#x127;" horiz-adv-x="898" 
d="M772 520c73 -33 125 -110 125 -198v-322h-125v322c0 67 -54 121 -120 121h-183c-67 0 -121 -54 -121 -121v-322h-125v599h-123v83h123v54h125v-54h143v-83h-143v-79c31 29 74 48 121 48h183c47 0 89 -19 120 -48z" />
    <glyph glyph-name="hbar" unicode="&#xe954;" horiz-adv-x="898" 
d="M772 520c73 -33 125 -110 125 -198v-322h-125v322c0 67 -54 121 -120 121h-183c-67 0 -121 -54 -121 -121v-322h-125v599h-123v83h123v54h125v-54h143v-83h-143v-79c31 29 74 48 121 48h183c47 0 89 -19 120 -48z" />
    <glyph glyph-name="Lslash" unicode="&#x141;" horiz-adv-x="807" 
d="M359 128h448v-125h-573v243l-134 -89v134l134 89v323h125v-238l125 84v-134l-125 -83v-204z" />
    <glyph glyph-name="Lslash" unicode="&#xe955;" horiz-adv-x="807" 
d="M359 128h448v-125h-573v243l-134 -89v134l134 89v323h125v-238l125 84v-134l-125 -83v-204z" />
    <glyph glyph-name="lslash" unicode="&#x142;" horiz-adv-x="484" 
d="M359 465l125 84v-134l-125 -83v-329h-125v243l-134 -89v134l134 89v323h125v-238z" />
    <glyph glyph-name="lslash" unicode="&#xe956;" horiz-adv-x="484" 
d="M359 465l125 84v-134l-125 -83v-329h-125v243l-134 -89v134l134 89v323h125v-238z" />
    <glyph glyph-name="Eng" unicode="&#x14a;" horiz-adv-x="787" 
d="M529 701c134 0 245 -111 245 -245v-247c0 -114 -93 -208 -208 -208h-84v125h84c46 0 83 37 83 83v247c0 66 -54 120 -120 120h-184c-66 0 -120 -54 -120 -120v-455h-125v700h125v-53c23 27 73 53 135 53h169z" />
    <glyph glyph-name="Eng" unicode="&#xe957;" horiz-adv-x="787" 
d="M529 701c134 0 245 -111 245 -245v-247c0 -114 -93 -208 -208 -208h-84v125h84c46 0 83 37 83 83v247c0 66 -54 120 -120 120h-184c-66 0 -120 -54 -120 -120v-455h-125v700h125v-53c23 27 73 53 135 53h169z" />
    <glyph glyph-name="eng" unicode="&#x14b;" horiz-adv-x="787" 
d="M529 570c135 0 245 -111 245 -245v-248c0 -114 -94 -207 -208 -207h-84v125h84c46 0 83 37 83 83v243c0 67 -50 124 -120 124h-184c-66 0 -120 -55 -120 -120v-323h-125v568h125v-53c36 33 82 53 135 53h169z" />
    <glyph glyph-name="eng" unicode="&#xe958;" horiz-adv-x="787" 
d="M529 570c135 0 245 -111 245 -245v-248c0 -114 -94 -207 -208 -207h-84v125h84c46 0 83 37 83 83v243c0 67 -50 124 -120 124h-184c-66 0 -120 -55 -120 -120v-323h-125v568h125v-53c36 33 82 53 135 53h169z" />
    <glyph glyph-name="Tbar" unicode="&#x166;" horiz-adv-x="736" 
d="M736 576h-256v-191h163v-125h-163v-259h-125v259h-162v125h162v191h-255v125h636v-125z" />
    <glyph glyph-name="Tbar" unicode="&#xe959;" horiz-adv-x="736" 
d="M736 576h-256v-191h163v-125h-163v-259h-125v259h-162v125h162v191h-255v125h636v-125z" />
    <glyph glyph-name="tbar" unicode="&#x167;" horiz-adv-x="823" 
d="M695 213h127c3 -58 -14 -109 -47 -146c-35 -38 -83 -63 -140 -63h-197c-103 0 -188 84 -188 187v97h-150v111h150v89h-150v111h150v122h126v-122h150v-111h-150v-89h150v-111h-150v-87c0 -46 36 -83 82 -83h155c48 0 82 38 82 95z" />
    <glyph glyph-name="tbar" unicode="&#xe95a;" horiz-adv-x="823" 
d="M695 213h127c3 -58 -14 -109 -47 -146c-35 -38 -83 -63 -140 -63h-197c-103 0 -188 84 -188 187v97h-150v111h150v89h-150v111h150v122h126v-122h150v-111h-150v-89h150v-111h-150v-87c0 -46 36 -83 82 -83h155c48 0 82 38 82 95z" />
    <glyph glyph-name="longs" unicode="&#x17f;" horiz-adv-x="259" 
d="M100 543c0 107 65 160 234 157v-111c-56 0 -123 -22 -123 -51v-540l-111 2v543z" />
    <glyph glyph-name="longs" unicode="&#xe95b;" horiz-adv-x="259" 
d="M100 543c0 107 65 160 234 157v-111c-56 0 -123 -22 -123 -51v-540l-111 2v543z" />
    <glyph glyph-name="fhook" unicode="&#x192;" horiz-adv-x="712" 
d="M759 438l-91 83l-109 -189h133l-53 -98h-134l-172 -301h-142l-91 83l62 112l91 -83l110 189h-134l54 98h134l172 301h141l91 -83z" />
    <glyph glyph-name="fhook" unicode="&#xe95c;" horiz-adv-x="712" 
d="M759 438l-91 83l-109 -189h133l-53 -98h-134l-172 -301h-142l-91 83l62 112l91 -83l110 189h-134l54 98h134l172 301h141l91 -83z" />
    <glyph glyph-name="circumflexmod" unicode="&#x2c6;" horiz-adv-x="323" 
d="M211 743l112 -112h-88l-24 24l-23 -24h-88z" />
    <glyph glyph-name="circumflexmod" unicode="&#xe961;" horiz-adv-x="323" 
d="M211 743l112 -112h-88l-24 24l-23 -24h-88z" />
    <glyph glyph-name="caronmod" unicode="&#x2c7;" horiz-adv-x="322" 
d="M235 708h87l-111 -111l-111 111h87l24 -24z" />
    <glyph glyph-name="caronmod" unicode="&#xe962;" horiz-adv-x="322" 
d="M235 708h87l-111 -111l-111 111h87l24 -24z" />
    <glyph glyph-name="macronmod" unicode="&#x2c9;" horiz-adv-x="259" 
d="M259 647h-159v57h159v-57z" />
    <glyph glyph-name="macronmod" unicode="&#xe963;" horiz-adv-x="259" 
d="M259 647h-159v57h159v-57z" />
    <glyph glyph-name="brevemod" unicode="&#x2d8;" horiz-adv-x="339" 
d="M261 713h78c-10 -59 -58 -101 -117 -101h-5c-59 0 -107 43 -117 101h78c9 -19 25 -28 42 -28s33 9 41 28z" />
    <glyph glyph-name="brevemod" unicode="&#xe964;" horiz-adv-x="339" 
d="M261 713h78c-10 -59 -58 -101 -117 -101h-5c-59 0 -107 43 -117 101h78c9 -19 25 -28 42 -28s33 9 41 28z" />
    <glyph glyph-name="dotaccentmod" unicode="&#x2d9;" horiz-adv-x="175" 
d="M137 716c21 0 38 -17 38 -37c0 -21 -17 -37 -38 -37c-20 0 -37 16 -37 37c0 20 17 37 37 37z" />
    <glyph glyph-name="dotaccentmod" unicode="&#xe965;" horiz-adv-x="175" 
d="M137 716c21 0 38 -17 38 -37c0 -21 -17 -37 -38 -37c-20 0 -37 16 -37 37c0 20 17 37 37 37z" />
    <glyph glyph-name="tildemod" unicode="&#x2dc;" horiz-adv-x="305" 
d="M287 698l18 -50c-26 -27 -46 -36 -64 -36c-17 0 -32 9 -46 20c-10 8 -20 14 -30 14c-13 0 -28 -9 -47 -28l-18 50c26 27 46 37 64 37c16 0 31 -8 46 -20c10 -8 20 -14 32 -14s26 7 45 27z" />
    <glyph glyph-name="tildemod" unicode="&#xe966;" horiz-adv-x="305" 
d="M287 698l18 -50c-26 -27 -46 -36 -64 -36c-17 0 -32 9 -46 20c-10 8 -20 14 -30 14c-13 0 -28 -9 -47 -28l-18 50c26 27 46 37 64 37c16 0 31 -8 46 -20c10 -8 20 -14 32 -14s26 7 45 27z" />
    <glyph glyph-name="doubleacutemod" unicode="&#x2dd;" horiz-adv-x="429" 
d="M315 698h114l-89 -90h-71zM100 608l46 90h114l-89 -90h-71z" />
    <glyph glyph-name="doubleacutemod" unicode="&#xe967;" horiz-adv-x="429" 
d="M315 698h114l-89 -90h-71zM100 608l46 90h114l-89 -90h-71z" />
    <glyph glyph-name="pi-grek" unicode="&#x3c0;" horiz-adv-x="902" 
d="M100 633h802v-125h-215v-575h-125v575h-122v-575h-124v575h-216v125z" />
    <glyph glyph-name="pi-grek" unicode="&#xe95f;" horiz-adv-x="902" 
d="M100 633h802v-125h-215v-575h-125v575h-122v-575h-124v575h-216v125z" />
    <glyph glyph-name="endash" unicode="&#x2013;" horiz-adv-x="417" 
d="M417 209h-317v82h317v-82z" />
    <glyph glyph-name="endash" unicode="&#xe96a;" horiz-adv-x="417" 
d="M417 209h-317v82h317v-82z" />
    <glyph glyph-name="emdash" unicode="&#x2014;" horiz-adv-x="641" 
d="M641 209h-541v82h541v-82z" />
    <glyph glyph-name="emdash" unicode="&#xe96b;" horiz-adv-x="641" 
d="M641 209h-541v82h541v-82z" />
    <glyph glyph-name="quoteleft" unicode="&#x2018;" horiz-adv-x="177" 
d="M152 594h24v-66h-76v63l18 42h55z" />
    <glyph glyph-name="quoteleft" unicode="&#xe96c;" horiz-adv-x="177" 
d="M152 594h24v-66h-76v63l18 42h55z" />
    <glyph glyph-name="quoteright" unicode="&#x2019;" horiz-adv-x="177" 
d="M100 633h76v-64l-17 -41h-55l21 39h-25v66z" />
    <glyph glyph-name="quoteright" unicode="&#xe96d;" horiz-adv-x="177" 
d="M100 633h76v-64l-17 -41h-55l21 39h-25v66z" />
    <glyph glyph-name="quotesinglbase" unicode="&#x201a;" horiz-adv-x="177" 
d="M100 38h76v-64l-17 -41h-55l21 39h-25v66z" />
    <glyph glyph-name="quotesinglbase" unicode="&#xe96e;" horiz-adv-x="177" 
d="M100 38h76v-64l-17 -41h-55l21 39h-25v66z" />
    <glyph glyph-name="quotedblleft" unicode="&#x201c;" horiz-adv-x="319" 
d="M173 633l-21 -39h24v-66h-76v63l18 42h55zM295 594h24v-66h-76v63l18 42h55z" />
    <glyph glyph-name="quotedblleft" unicode="&#xe96f;" horiz-adv-x="319" 
d="M173 633l-21 -39h24v-66h-76v63l18 42h55zM295 594h24v-66h-76v63l18 42h55z" />
    <glyph glyph-name="quotedblright" unicode="&#x201d;" horiz-adv-x="319" 
d="M100 567v66h76v-64l-17 -41h-55l21 39h-25zM243 633h76v-64l-18 -41h-55l22 39h-25v66z" />
    <glyph glyph-name="quotedblright" unicode="&#xe970;" horiz-adv-x="319" 
d="M100 567v66h76v-64l-17 -41h-55l21 39h-25zM243 633h76v-64l-18 -41h-55l22 39h-25v66z" />
    <glyph glyph-name="quotedblbase" unicode="&#x201e;" horiz-adv-x="319" 
d="M100 -28v66h76v-64l-17 -41h-55l21 39h-25zM243 38h76v-64l-18 -41h-55l22 39h-25v66z" />
    <glyph glyph-name="quotedblbase" unicode="&#xe971;" horiz-adv-x="319" 
d="M100 -28v66h76v-64l-17 -41h-55l21 39h-25zM243 38h76v-64l-18 -41h-55l22 39h-25v66z" />
    <glyph glyph-name="dagger" unicode="&#x2020;" horiz-adv-x="534" 
d="M372 462h162v-110h-162v-419h-110v419h-162v110h162v171h110v-171z" />
    <glyph glyph-name="dagger" unicode="&#xe972;" horiz-adv-x="534" 
d="M372 462h162v-110h-162v-419h-110v419h-162v110h162v171h110v-171z" />
    <glyph glyph-name="daggerdbl" unicode="&#x2021;" horiz-adv-x="534" 
d="M534 347h-162v-128h162v-111h-162v-175h-110v175h-162v111h162v128h-162v111h162v175h110v-175h162v-111z" />
    <glyph glyph-name="daggerdbl" unicode="&#xe973;" horiz-adv-x="534" 
d="M534 347h-162v-128h162v-111h-162v-175h-110v175h-162v111h162v128h-162v111h162v175h110v-175h162v-111z" />
    <glyph glyph-name="bullet" unicode="&#x2022;" horiz-adv-x="226" 
d="M163 347c35 0 63 -28 63 -63c0 -34 -28 -63 -63 -63s-63 29 -63 63c0 35 28 63 63 63z" />
    <glyph glyph-name="bullet" unicode="&#xe974;" horiz-adv-x="226" 
d="M163 347c35 0 63 -28 63 -63c0 -34 -28 -63 -63 -63s-63 29 -63 63c0 35 28 63 63 63z" />
    <glyph glyph-name="ellipsis" unicode="&#x2026;" horiz-adv-x="520" 
d="M179 -70h-79v78h79v-78zM520 -70h-79v78h79v-78zM350 -70h-79v78h79v-78z" />
    <glyph glyph-name="ellipsis" unicode="&#xe975;" horiz-adv-x="520" 
d="M179 -70h-79v78h79v-78zM520 -70h-79v78h79v-78zM350 -70h-79v78h79v-78z" />
    <glyph glyph-name="guilsinglleft" unicode="&#x2039;" horiz-adv-x="275" 
d="M274 446v-102l-94 -61l94 -61v-102l-174 112v102z" />
    <glyph glyph-name="guilsinglleft" unicode="&#xe976;" horiz-adv-x="275" 
d="M274 446v-102l-94 -61l94 -61v-102l-174 112v102z" />
    <glyph glyph-name="guilsinglright" unicode="&#x203a;" horiz-adv-x="275" 
d="M100 446l175 -112v-102l-175 -112v102l95 61l-95 61v102z" />
    <glyph glyph-name="guilsinglright" unicode="&#xe977;" horiz-adv-x="275" 
d="M100 446l175 -112v-102l-175 -112v102l95 61l-95 61v102z" />
    <glyph glyph-name="fraction" unicode="&#x2044;" horiz-adv-x="622" 
d="M480 700h141l-380 -700h-141z" />
    <glyph glyph-name="fraction" unicode="&#xe978;" horiz-adv-x="622" 
d="M480 700h141l-380 -700h-141z" />
    <glyph glyph-name="frenchfrancsign" unicode="&#x20a3;" horiz-adv-x="956" 
d="M956 575h-585v-162h527v-125h-527v-77h175v-96h-175v-115h-125v115h-146v96h146v489h710v-125z" />
    <glyph glyph-name="frenchfrancsign" unicode="&#xe979;" horiz-adv-x="956" 
d="M956 575h-585v-162h527v-125h-527v-77h175v-96h-175v-115h-125v115h-146v96h146v489h710v-125z" />
    <glyph glyph-name="lirasign" unicode="&#x20a4;" horiz-adv-x="632" 
d="M632 562v-70h-118v41c-29 44 -95 55 -153 46c-21 -3 -47 -12 -67 -32c-28 -27 -34 -68 -25 -104h192v-77h-147c1 -2 3 -4 4 -6c12 -15 23 -27 31 -41h112v-77h-101c-3 -48 -44 -94 -63 -117l-1 -7h221v39h115v-158h-484v137c29 25 83 76 84 106h-132v77h119
c-12 17 -24 31 -34 44c-2 1 -3 2 -6 3h-79v77h48c-9 66 17 143 69 191c50 47 112 66 179 66c97 0 197 -41 236 -138z" />
    <glyph glyph-name="lirasign" unicode="&#xe97a;" horiz-adv-x="632" 
d="M632 562v-70h-118v41c-29 44 -95 55 -153 46c-21 -3 -47 -12 -67 -32c-28 -27 -34 -68 -25 -104h192v-77h-147c1 -2 3 -4 4 -6c12 -15 23 -27 31 -41h112v-77h-101c-3 -48 -44 -94 -63 -117l-1 -7h221v39h115v-158h-484v137c29 25 83 76 84 106h-132v77h119
c-12 17 -24 31 -34 44c-2 1 -3 2 -6 3h-79v77h48c-9 66 17 143 69 191c50 47 112 66 179 66c97 0 197 -41 236 -138z" />
    <glyph glyph-name="pesetasign" unicode="&#x20a7;" horiz-adv-x="1832" 
d="M1763 309c45 -34 69 -84 69 -140c0 -86 -65 -169 -155 -169h-531c-133 0 -253 108 -253 244v199h-66c0 -9 -1 -17 -3 -27c-17 -104 -112 -187 -226 -187h-373v-229h-125v700h499c90 0 176 -54 211 -132h83v150h125v-150h199v-51c22 29 65 51 106 51h353
c91 0 156 -82 156 -169h-115c0 32 -25 60 -57 60h-320c-31 0 -57 -27 -57 -60c0 -35 26 -61 57 -61h337c28 0 57 -9 78 -24c3 -1 5 -3 8 -5zM598 354c61 0 111 49 111 110s-49 111 -111 111h-373v-221h373zM1660 109c31 0 57 26 57 60s-25 61 -58 61h-336
c-31 0 -63 11 -87 29c-2 2 -6 5 -8 7c-30 27 -52 62 -55 103c-4 31 2 55 12 74h-167l1 -199c0 -74 57 -135 125 -135h42c-11 15 -17 39 -17 60h114c1 -35 27 -60 57 -60h320z" />
    <glyph glyph-name="pesetasign" unicode="&#xe97b;" horiz-adv-x="1832" 
d="M1763 309c45 -34 69 -84 69 -140c0 -86 -65 -169 -155 -169h-531c-133 0 -253 108 -253 244v199h-66c0 -9 -1 -17 -3 -27c-17 -104 -112 -187 -226 -187h-373v-229h-125v700h499c90 0 176 -54 211 -132h83v150h125v-150h199v-51c22 29 65 51 106 51h353
c91 0 156 -82 156 -169h-115c0 32 -25 60 -57 60h-320c-31 0 -57 -27 -57 -60c0 -35 26 -61 57 -61h337c28 0 57 -9 78 -24c3 -1 5 -3 8 -5zM598 354c61 0 111 49 111 110s-49 111 -111 111h-373v-221h373zM1660 109c31 0 57 26 57 60s-25 61 -58 61h-336
c-31 0 -63 11 -87 29c-2 2 -6 5 -8 7c-30 27 -52 62 -55 103c-4 31 2 55 12 74h-167l1 -199c0 -74 57 -135 125 -135h42c-11 15 -17 39 -17 60h114c1 -35 27 -60 57 -60h320z" />
    <glyph glyph-name="euro" unicode="&#x20ac;" horiz-adv-x="843" 
d="M544 581c-81 0 -153 -46 -189 -113h253v-85h-293c-1 -10 -2 -22 -2 -33s1 -22 2 -33h293v-85h-252c31 -68 115 -112 188 -112h299v-124h-299c-148 0 -286 96 -334 236h-110v85h92c-2 12 -2 24 -2 33c0 13 0 24 2 33h-92v85h110c10 31 26 58 44 84c56 86 172 152 289 152
h300v-123h-299z" />
    <glyph glyph-name="euro" unicode="&#xe97c;" horiz-adv-x="843" 
d="M544 581c-81 0 -153 -46 -189 -113h253v-85h-293c-1 -10 -2 -22 -2 -33s1 -22 2 -33h293v-85h-252c31 -68 115 -112 188 -112h299v-124h-299c-148 0 -286 96 -334 236h-110v85h92c-2 12 -2 24 -2 33c0 13 0 24 2 33h-92v85h110c10 31 26 58 44 84c56 86 172 152 289 152
h300v-123h-299z" />
    <glyph glyph-name="numerosign" unicode="&#x2116;" horiz-adv-x="1508" 
d="M695 200v500h125v-700h-103l-492 500v-500h-125v700h104zM1295 677c117 0 213 -100 213 -222v-68c0 -121 -95 -220 -213 -220h-176c-116 0 -212 99 -212 221v67c0 123 96 222 213 222h175zM1404 388v67c0 61 -48 111 -109 111h-176c-60 0 -108 -50 -108 -111v-67
c0 -61 49 -110 108 -110h177c59 0 108 50 108 110zM1508 0h-601v111h601v-111z" />
    <glyph glyph-name="numerosign" unicode="&#xe97d;" horiz-adv-x="1508" 
d="M695 200v500h125v-700h-103l-492 500v-500h-125v700h104zM1295 677c117 0 213 -100 213 -222v-68c0 -121 -95 -220 -213 -220h-176c-116 0 -212 99 -212 221v67c0 123 96 222 213 222h175zM1404 388v67c0 61 -48 111 -109 111h-176c-60 0 -108 -50 -108 -111v-67
c0 -61 49 -110 108 -110h177c59 0 108 50 108 110zM1508 0h-601v111h601v-111z" />
    <glyph glyph-name="trademark" unicode="&#x2122;" horiz-adv-x="1092" 
d="M100 608v92h451v-92h-179v-327h-93v327h-179zM1016 700h76v-418h-92v240l-124 -172h-51l-124 172v-240h-92v418h76l165 -228z" />
    <glyph glyph-name="trademark" unicode="&#xe97e;" horiz-adv-x="1092" 
d="M100 608v92h451v-92h-179v-327h-93v327h-179zM1016 700h76v-418h-92v240l-124 -172h-51l-124 172v-240h-92v418h76l165 -228z" />
    <glyph glyph-name="partialdifferential" unicode="&#x2202;" horiz-adv-x="715" 
d="M543 686c119 -44 166 -168 166 -286c1 -58 -10 -119 -31 -177c-51 -141 -200 -225 -346 -225c-75 0 -151 23 -196 86c-29 34 -46 90 -39 151c16 179 185 260 349 260c47 0 98 -6 153 -18c-11 49 -39 99 -88 118c-17 6 -35 9 -55 8c-157 -2 -239 -65 -240 -65l-48 83
c1 0 107 78 286 79c33 1 66 -5 89 -14zM527 169c58 48 82 135 85 207c-61 15 -116 22 -164 22c-74 0 -176 -19 -219 -88c-25 -32 -33 -57 -36 -87s5 -65 20 -83c31 -34 76 -45 121 -45c71 0 140 26 193 74z" />
    <glyph glyph-name="partialdifferential" unicode="&#xe97f;" horiz-adv-x="715" 
d="M543 686c119 -44 166 -168 166 -286c1 -58 -10 -119 -31 -177c-51 -141 -200 -225 -346 -225c-75 0 -151 23 -196 86c-29 34 -46 90 -39 151c16 179 185 260 349 260c47 0 98 -6 153 -18c-11 49 -39 99 -88 118c-17 6 -35 9 -55 8c-157 -2 -239 -65 -240 -65l-48 83
c1 0 107 78 286 79c33 1 66 -5 89 -14zM527 169c58 48 82 135 85 207c-61 15 -116 22 -164 22c-74 0 -176 -19 -219 -88c-25 -32 -33 -57 -36 -87s5 -65 20 -83c31 -34 76 -45 121 -45c71 0 140 26 193 74z" />
    <glyph glyph-name="Delta-grek" unicode="&#x394;" horiz-adv-x="980" 
d="M604 702l376 -699h-880l377 699h127zM534 599l-257 -486h516z" />
    <glyph glyph-name="Delta-grek" unicode="&#xe980;" horiz-adv-x="980" 
d="M604 702l376 -699h-880l377 699h127zM534 599l-257 -486h516z" />
    <glyph glyph-name="naryproduct" unicode="&#x220f;" horiz-adv-x="670" 
d="M100 700h570v-700h-120v580h-330v-580h-120v700z" />
    <glyph glyph-name="naryproduct" unicode="&#xe981;" horiz-adv-x="670" 
d="M100 700h570v-700h-120v580h-330v-580h-120v700z" />
    <glyph glyph-name="narysummation" unicode="&#x2211;" horiz-adv-x="711" 
d="M711 700v-120h-426l252 -230l-252 -230h426v-120h-611v120l252 230l-252 230v120h611z" />
    <glyph glyph-name="narysummation" unicode="&#xe982;" horiz-adv-x="711" 
d="M711 700v-120h-426l252 -230l-252 -230h426v-120h-611v120l252 230l-252 230v120h611z" />
    <glyph glyph-name="minus" unicode="&#x2212;" horiz-adv-x="543" 
d="M542 292h-442v111h442v-111z" />
    <glyph glyph-name="minus" unicode="&#xe983;" horiz-adv-x="543" 
d="M542 292h-442v111h442v-111z" />
    <glyph glyph-name="squareroot" unicode="&#x221a;" horiz-adv-x="737" 
d="M598 700h139l-323 -700h-139l-58 126l-47 -102l-70 141l48 101l124 40l72 -166z" />
    <glyph glyph-name="squareroot" unicode="&#xe984;" horiz-adv-x="737" 
d="M598 700h139l-323 -700h-139l-58 126l-47 -102l-70 141l48 101l124 40l72 -166z" />
    <glyph glyph-name="infinity" unicode="&#x221e;" horiz-adv-x="686" 
d="M618 558c87 0 158 -71 158 -158v-106c0 -88 -71 -158 -159 -158h-124c-57 0 -108 32 -131 70c-15 -10 -30 -15 -55 -15h-85c-67 0 -122 58 -122 129v54c0 71 55 129 123 129h85c18 0 40 -6 54 -16c25 40 75 71 131 71h125zM680 294v105c0 36 -28 63 -62 63h-125
c-35 0 -63 -27 -63 -62v-106c0 -34 28 -63 63 -63h125c35 0 62 30 62 63zM335 320v54c0 15 -12 28 -28 28h-84c-15 0 -27 -13 -27 -28v-54c0 -16 12 -29 27 -29h84c16 0 28 13 28 29z" />
    </font>
</defs>
</svg>
